<?xml version="1.0" standalone="no"?>
<!DOCTYPE svg PUBLIC "-//W3C//DTD SVG 1.1//EN" "http://www.w3.org/Graphics/SVG/1.1/DTD/svg11.dtd" >
<svg xmlns="http://www.w3.org/2000/svg" xmlns:xlink="http://www.w3.org/1999/xlink" version="1.1">
<metadata>
Created by FontForge 20170731 at Thu Dec 26 20:34:51 2013
 By Aleksey,,,
Copyright (c) 2013 by Miguel &#38; Daniel HernA~ndez. All rights reserved.
</metadata>
<defs>
<font id="ArquitectaBook" horiz-adv-x="550" >
  <font-face 
    font-family="Arquitecta Book"
    font-weight="400"
    font-stretch="normal"
    units-per-em="1000"
    panose-1="0 0 0 0 0 0 0 0 0 0"
    ascent="750"
    descent="-250"
    x-height="346"
    cap-height="600"
    bbox="-159 -250 1038 923"
    underline-thickness="50"
    underline-position="-200"
    unicode-range="U+000D-FB04"
  />
<missing-glyph horiz-adv-x="500" 
 />
    <glyph glyph-name=".notdef" horiz-adv-x="500" 
 />
    <glyph glyph-name=".null" horiz-adv-x="0" 
 />
    <glyph glyph-name="nonmarkingreturn" horiz-adv-x="333" 
 />
    <glyph glyph-name="NUL" horiz-adv-x="0" 
 />
    <glyph glyph-name="NUL" horiz-adv-x="0" 
 />
    <glyph glyph-name="CR" unicode="&#xd;" horiz-adv-x="81" 
 />
    <glyph glyph-name="space" unicode=" " horiz-adv-x="213" 
 />
    <glyph glyph-name="exclam" unicode="!" horiz-adv-x="235" 
d="M152 600v-33l-15 -408h-41l-16 408v33h72zM74 36q0 18 13 30.5t30 12.5q19 0 31.5 -12.5t12.5 -30.5q0 -19 -12.5 -31.5t-31.5 -12.5q-17 0 -30 13t-13 31z" />
    <glyph glyph-name="quotedbl" unicode="&#x22;" horiz-adv-x="285" 
d="M129 661l-39 -198h-35v11l17 198h57v-11zM242 661l-38 -198h-35v11l17 198h56v-11z" />
    <glyph glyph-name="numbersign" unicode="#" horiz-adv-x="638" 
d="M517 583l-38 -165h123l-8 -39h-124l-41 -178h118l-8 -38h-118l-37 -163h-41l37 163h-178l-37 -163h-42l37 163h-124l9 38h123l41 178h-118l8 39h119l38 165h41l-37 -165h178l37 165h42zM251 379l-41 -178h178l41 178h-178z" />
    <glyph glyph-name="dollar" unicode="$" horiz-adv-x="532" 
d="M47 55l32 44q7 -7 21 -16.5t61.5 -26t100.5 -16.5q86 0 128 30t42 82q0 48 -39 75.5t-135 54.5q-110 32 -159.5 69t-49.5 103q0 71 54 112.5t147 45.5v90h46v-90q55 -3 100 -17t62 -26l18 -12l-31 -47q-7 5 -20.5 13.5t-59 22t-97.5 13.5q-70 0 -115.5 -27.5t-45.5 -77.5
q0 -42 38.5 -66.5t135.5 -51.5q111 -31 160 -72t49 -111q0 -69 -48.5 -114t-145.5 -52v-89h-46v88q-39 1 -74 8.5t-57.5 17.5t-39.5 20t-25 16z" />
    <glyph glyph-name="percent" unicode="%" horiz-adv-x="670" 
d="M170 613q61 0 96 -43t35 -107q0 -62 -35 -106t-96 -44t-96 44t-35 106q0 64 35 107t96 43zM170 566q-38 0 -58.5 -29t-20.5 -74t20.5 -74t58.5 -29t58.5 29t20.5 74t-20.5 74t-58.5 29zM549 602l39 -32l-469 -564l-38 32zM500 292q61 0 96.5 -43.5t35.5 -106.5
q0 -62 -35.5 -106t-96.5 -44t-96.5 44t-35.5 106q0 63 35.5 106.5t96.5 43.5zM500 246q-38 0 -59 -29t-21 -75q0 -44 21 -73t59 -29q37 0 57.5 29t20.5 73q0 46 -20.5 75t-57.5 29z" />
    <glyph glyph-name="ampersand" unicode="&#x26;" horiz-adv-x="610" 
d="M58 157q0 61 37.5 99.5t103.5 71.5l-8 8q-67 67 -67 140q0 62 42 99.5t107 37.5q74 0 115 -39t41 -96t-38 -93t-107 -71l181 -175q35 66 35 153v21h56v-20q0 -110 -53 -192l97 -93v-8h-64l-64 62q-72 -75 -191 -75q-104 0 -163.5 46.5t-59.5 123.5zM281 37q98 0 155 60
l-199 194q-57 -29 -87.5 -59t-30.5 -74q0 -52 45.5 -86.5t116.5 -34.5zM179 472q0 -26 11.5 -50.5t23 -38t31.5 -33.5q32 15 49.5 25t38.5 25.5t30.5 34t9.5 40.5q0 38 -23.5 64t-75.5 26q-41 0 -68 -25t-27 -68z" />
    <glyph glyph-name="quotesingle" unicode="'" horiz-adv-x="171" 
d="M129 661l-39 -198h-35v11l17 198h57v-11z" />
    <glyph glyph-name="parenleft" unicode="(" horiz-adv-x="310" 
d="M296 639q-201 -136 -201 -381q0 -246 201 -382l-28 -40q-22 14 -44.5 31t-58.5 55t-62.5 82t-46 111.5t-19.5 142.5t20 142.5t46 111t62 82t58 55t45 30.5z" />
    <glyph glyph-name="parenright" unicode=")" horiz-adv-x="310" 
d="M15 639l28 40q23 -14 45 -30.5t58 -55t62 -82t46 -111t20 -142.5t-19.5 -142.5t-46 -111.5t-62.5 -82t-58.5 -55t-44.5 -31l-28 40q201 136 201 382q0 245 -201 381z" />
    <glyph glyph-name="asterisk" unicode="*" horiz-adv-x="421" 
d="M238 700l-14 -77h-26l-13 77v29h53v-29zM340 587l-78 -11l-8 25l70 36l27 9l16 -50zM159 576l-77 11l-28 9l17 50l27 -9l70 -36zM115 487l56 57l21 -15l-34 -72l-17 -23l-42 29zM252 543l56 -56l16 -24l-42 -29l-17 23l-34 72z" />
    <glyph glyph-name="plus" unicode="+" horiz-adv-x="484" 
d="M268 490v-166h165v-47h-165v-161h-50v161h-167v47h167v166h50z" />
    <glyph glyph-name="comma" unicode="," horiz-adv-x="131" 
d="M23 33q0 18 12 30t30 12t30.5 -12t12.5 -31q0 -25 -14 -50l-42 -76h-42l38 67l12 16v3q-17 2 -27 13.5t-10 27.5z" />
    <glyph glyph-name="hyphen" unicode="-" horiz-adv-x="397" 
d="M57 271v48h283v-48h-283z" />
    <glyph glyph-name="period" unicode="." horiz-adv-x="132" 
d="M23 34q0 18 12.5 30.5t30.5 12.5t30 -12.5t12 -30.5q0 -17 -12 -29.5t-30 -12.5t-30.5 12.5t-12.5 29.5z" />
    <glyph glyph-name="slash" unicode="/" horiz-adv-x="345" 
d="M312 703l-221 -879h-58l221 879h58z" />
    <glyph glyph-name="zero" unicode="0" horiz-adv-x="620" 
d="M310 -14q-119 0 -190 89.5t-71 223.5q0 135 71 224.5t190 89.5q120 0 190.5 -89.5t70.5 -224.5t-70.5 -224t-190.5 -89zM310 40q95 0 149 74t54 185q0 112 -54 186t-149 74t-149 -74t-54 -186q0 -111 54 -185t149 -74z" />
    <glyph glyph-name="one" unicode="1" horiz-adv-x="314" 
d="M23 547v53h195v-600h-57v547h-138z" />
    <glyph glyph-name="two" unicode="2" horiz-adv-x="505" 
d="M47 0v14l273 295q37 41 51.5 66t14.5 57q0 56 -40 91.5t-106 35.5q-45 0 -87 -19.5t-59 -34.5t-21 -21l-33 44q3 3 8.5 9t25 20.5t41 26t55.5 20.5t69 9q97 0 150.5 -49.5t53.5 -129.5q0 -41 -15.5 -72.5t-54.5 -74.5l-214 -234h299v-53h-411z" />
    <glyph glyph-name="three" unicode="3" horiz-adv-x="511" 
d="M264 299h-89v21l182 227h-296v53h393v-14l-194 -240h19q82 0 133 -48t51 -131q0 -79 -58 -130t-155 -51q-36 0 -71.5 9t-58 20t-44 26t-28 20.5t-10.5 9.5l29 44q3 -3 9 -8t24.5 -18t38.5 -23t50 -18t59 -8q70 0 113.5 35.5t43.5 91.5q0 61 -38 96.5t-103 35.5z" />
    <glyph glyph-name="four" unicode="4" horiz-adv-x="536" 
d="M27 146v43l355 411h44v-401h69v-53h-69v-146h-57v146h-342zM103 204v-5h266v307l-253 -294z" />
    <glyph glyph-name="five" unicode="5" horiz-adv-x="505" 
d="M433 547h-280l-9 -200q48 11 102 11q104 0 160 -48.5t56 -131.5q0 -91 -56.5 -141t-156.5 -50q-57 0 -110 21.5t-77 42.5l-25 21l31 44q9 -9 24.5 -21.5t62.5 -33.5t94 -21q70 0 112.5 36.5t42.5 101.5q0 59 -43 94t-115 35q-41 0 -77 -6t-52.5 -12t-16.5 -7l-14 11
l14 307h333v-53z" />
    <glyph glyph-name="six" unicode="6" horiz-adv-x="504" 
d="M52 178q0 81 54 166l166 256h69l-149 -228q-6 -10 -13 -18t-11 -11l-4 -3v-5q42 29 99 29q94 0 152 -53t58 -133q0 -87 -58.5 -139t-150.5 -52q-94 0 -153 52.5t-59 138.5zM263 311q-63 0 -106 -34.5t-47 -98.5q0 -60 44 -99t110 -39t108.5 38.5t42.5 98.5
q0 59 -41.5 96.5t-110.5 37.5z" />
    <glyph glyph-name="seven" unicode="7" horiz-adv-x="452" 
d="M37 547v53h406v-14l-280 -586h-69l263 547h-320z" />
    <glyph glyph-name="eight" unicode="8" horiz-adv-x="537" 
d="M269 -14q-99 0 -157 50.5t-58 125.5q0 53 28.5 93.5t79.5 61.5q-85 43 -85 136q0 69 52 114.5t140 45.5t139.5 -45.5t51.5 -114.5q0 -92 -85 -136q51 -21 79.5 -61.5t28.5 -93.5q0 -75 -58 -125.5t-156 -50.5zM269 40q70 0 113 35.5t43 86.5q0 58 -43.5 94t-112.5 36
t-113 -36t-44 -94q0 -51 43 -86.5t114 -35.5zM269 339q61 0 97 32t36 82q0 46 -36 76t-97 30t-97.5 -30t-36.5 -76q0 -50 36 -82t98 -32z" />
    <glyph glyph-name="nine" unicode="9" horiz-adv-x="504" 
d="M452 421q0 -80 -54 -165l-165 -256h-69l152 233q4 7 10 14t10 10l4 3v3q-43 -28 -98 -28q-95 0 -153 53t-58 134q0 87 59 139t151 52q94 0 152.5 -52.5t58.5 -139.5zM242 289q63 0 108 34.5t45 98.5q0 60 -44.5 99t-109.5 39q-67 0 -109.5 -38.5t-42.5 -98.5
q0 -59 42 -96.5t111 -37.5z" />
    <glyph glyph-name="colon" unicode=":" horiz-adv-x="195" 
d="M55 309q0 18 12 30.5t30 12.5t30 -12.5t12 -30.5q0 -17 -12 -29.5t-30 -12.5t-30 12.5t-12 29.5zM55 34q0 18 12 30.5t30 12.5t30 -12.5t12 -30.5q0 -17 -12 -29.5t-30 -12.5t-30 12.5t-12 29.5z" />
    <glyph glyph-name="semicolon" unicode=";" horiz-adv-x="219" 
d="M70 33q0 18 12 30t30 12t31 -12.5t13 -30.5q0 -22 -14 -50l-43 -76h-42l38 67l13 16v3q-17 2 -27.5 13.5t-10.5 27.5zM71 309q0 17 12.5 30t30.5 13q17 0 29.5 -13t12.5 -30t-12.5 -29.5t-29.5 -12.5q-18 0 -30.5 12.5t-12.5 29.5z" />
    <glyph glyph-name="less" unicode="&#x3c;" horiz-adv-x="372" 
d="M281 44l-241 232v23l241 232l34 -35l-217 -209l217 -208z" />
    <glyph glyph-name="equal" unicode="=" horiz-adv-x="501" 
d="M76 364v47h350v-47h-350zM76 173v47h350v-47h-350z" />
    <glyph glyph-name="greater" unicode="&#x3e;" horiz-adv-x="372" 
d="M332 276l-241 -232l-34 35l217 208l-217 209l34 35l241 -232v-23z" />
    <glyph glyph-name="question" unicode="?" horiz-adv-x="376" 
d="M60 533l-21 44q50 36 142 36q69 0 109.5 -37.5t40.5 -95.5q0 -38 -14.5 -69t-35 -53.5t-41.5 -44t-37 -52t-18 -66.5l-2 -37h-40v43q0 37 13.5 68.5t32.5 53.5t38 43t32.5 48t13.5 57q0 41 -28 67t-74 26q-33 0 -60.5 -8t-38.5 -16zM122 34q0 18 12.5 30.5t30.5 12.5
q17 0 29.5 -12.5t12.5 -30.5q0 -17 -12.5 -29.5t-29.5 -12.5q-18 0 -30.5 12.5t-12.5 29.5z" />
    <glyph glyph-name="at" unicode="@" horiz-adv-x="920" 
d="M458 -244q-190 0 -303 122t-113 302q0 118 49.5 214.5t146 154.5t223.5 58q95 0 174 -32.5t129.5 -86t78 -120t27.5 -136.5q0 -109 -44.5 -177t-127.5 -68q-32 0 -56.5 10.5t-36.5 25.5t-17.5 27.5t-5.5 20.5h-4q-3 -8 -10.5 -18t-23 -25.5t-45 -25.5t-66.5 -10
q-76 0 -126.5 50.5t-50.5 130.5q0 82 50 131.5t127 49.5q103 0 142 -77l10 69h39v-233q0 -37 19.5 -57.5t56.5 -20.5q58 0 89 53t31 138q0 139 -98.5 237t-260.5 98q-164 0 -267.5 -108t-103.5 -272q0 -163 102.5 -271t265.5 -108q56 0 103.5 10t66.5 20l20 11l20 -42
q-8 -5 -23 -12.5t-69 -20t-118 -12.5zM572 174q0 61 -37.5 96.5t-93.5 35.5q-55 0 -91.5 -36.5t-36.5 -95.5t36.5 -97t91.5 -38q56 0 93.5 36.5t37.5 98.5z" />
    <glyph glyph-name="A" unicode="A" horiz-adv-x="607" 
d="M5 0l291 600h14l293 -600h-65l-57 114h-355l-57 -114h-64zM448 179l-141 305h-8l-140 -305l-6 -11h301z" />
    <glyph glyph-name="B" unicode="B" horiz-adv-x="634" 
d="M582 164q0 -83 -60 -123.5t-160 -40.5h-273v600h258q101 0 158 -41t57 -121q0 -49 -26 -83.5t-71 -49.5v-5q54 -14 85.5 -48.5t31.5 -87.5zM373 275h-227v-222h217q72 0 116.5 28t44.5 86q0 51 -42 78.5t-109 29.5zM503 436q0 111 -156 111h-201v-218h208q70 2 109.5 29
t39.5 78z" />
    <glyph glyph-name="C" unicode="C" horiz-adv-x="593" 
d="M531 108l33 -43l-8.5 -8.5t-24.5 -19t-41 -24t-58 -19t-75 -8.5q-137 0 -224.5 89.5t-87.5 223.5q0 135 87.5 224.5t224.5 89.5q62 0 113.5 -19.5t72.5 -39.5l21 -19l-33 -44q-7 8 -20.5 19t-58.5 30t-94 19q-112 0 -183.5 -75.5t-71.5 -184.5q0 -108 71.5 -183.5
t183.5 -75.5q49 0 92 17t62 34z" />
    <glyph glyph-name="D" unicode="D" horiz-adv-x="658" 
d="M611 300q0 -138 -89 -219t-232 -81h-201v600h201q143 0 232 -81t89 -219zM288 547h-142v-494h142q115 0 190 66.5t75 180.5q0 113 -75 180t-190 67z" />
    <glyph glyph-name="E" unicode="E" horiz-adv-x="563" 
d="M478 322v-53h-332v-216h377v-53h-434v600h434v-53h-377v-225h332z" />
    <glyph glyph-name="F" unicode="F" horiz-adv-x="555" 
d="M89 0v600h434v-53h-377v-225h334v-53h-334v-269h-57z" />
    <glyph glyph-name="G" unicode="G" horiz-adv-x="675" 
d="M575 263v6h-238v53h295v-37q0 -138 -74.5 -218.5t-203.5 -80.5q-140 0 -224.5 89t-84.5 224q0 136 86 225t226 89q43 0 81 -8t62.5 -20t43 -24t26.5 -20l8 -8l-33 -43q-3 3 -8 7.5t-23 16.5t-38 21t-52.5 16.5t-66.5 7.5q-116 0 -185 -75t-69 -185t68 -184.5t183 -74.5
q100 0 160.5 61t60.5 162z" />
    <glyph glyph-name="H" unicode="H" horiz-adv-x="670" 
d="M581 600v-600h-57v269h-378v-269h-57v600h57v-278h378v278h57z" />
    <glyph glyph-name="I" unicode="I" horiz-adv-x="236" 
d="M146 600v-600h-57v600h57z" />
    <glyph glyph-name="J" unicode="J" horiz-adv-x="447" 
d="M25 32l28 44q45 -35 111 -35q143 0 143 159v400h57v-411q0 -100 -51 -151.5t-144 -51.5q-41 0 -77.5 12t-49 20.5t-17.5 13.5z" />
    <glyph glyph-name="K" unicode="K" horiz-adv-x="586" 
d="M146 600v-346l353 346h67v-11l-242 -238l242 -340v-11h-64l-221 309l-135 -133v-176h-57v600h57z" />
    <glyph glyph-name="L" unicode="L" horiz-adv-x="516" 
d="M504 0h-415v600h57v-547h358v-53z" />
    <glyph glyph-name="M" unicode="M" horiz-adv-x="757" 
d="M611 0v473l-224 -248h-18l-223 245v-470h-57v600h18l272 -300l273 300h15v-600h-56z" />
    <glyph glyph-name="N" unicode="N" horiz-adv-x="696" 
d="M606 600v-600h-18l-442 478v-478h-57v600h18l442 -477v477h57z" />
    <glyph glyph-name="O" unicode="O" horiz-adv-x="708" 
d="M354 -14q-139 0 -224 89t-85 224q0 136 85 225t224 89t223.5 -89t84.5 -225q0 -135 -85 -224t-223 -89zM354 40q114 0 182.5 75t68.5 184q0 110 -68.5 185t-182.5 75t-182.5 -75t-68.5 -185t68.5 -184.5t182.5 -74.5z" />
    <glyph glyph-name="P" unicode="P" horiz-adv-x="599" 
d="M89 0v600h240q113 0 175 -51t62 -147q0 -100 -63.5 -153t-176.5 -53h-180v-196h-57zM509 400q0 73 -48.5 110t-132.5 37h-182v-298h182q181 0 181 151z" />
    <glyph glyph-name="Q" unicode="Q" horiz-adv-x="708" 
d="M354 -14q-139 0 -224 89t-85 224q0 136 85 225t224 89t223.5 -89t84.5 -225q0 -85 -35.5 -155t-100.5 -111l52 -77v-10h-61l-41 62q-57 -22 -122 -22zM352 197v11h59l84 -128q52 35 81 92.5t29 126.5q0 110 -68.5 185t-182.5 75t-182.5 -75t-68.5 -185t68.5 -184.5
t182.5 -74.5q49 0 91 15z" />
    <glyph glyph-name="R" unicode="R" horiz-adv-x="623" 
d="M89 0v600h239q114 0 176 -50.5t62 -147.5q0 -74 -39.5 -121.5t-108.5 -65.5v-4l162 -197v-14h-61l-169 204h-204v-204h-57zM508 400q0 73 -48 110t-132 37h-182v-290h192q77 0 123.5 36t46.5 107z" />
    <glyph glyph-name="S" unicode="S" horiz-adv-x="531" 
d="M46 55l32 44q7 -7 21 -16.5t61.5 -26t100.5 -16.5q86 0 128 30t42 82q0 48 -39 75.5t-135 54.5q-110 32 -159.5 69t-49.5 103q0 75 59 117t160 42q64 0 116 -14t72 -28l20 -14l-31 -47q-7 5 -20.5 13.5t-59 22t-97.5 13.5q-70 0 -115.5 -27.5t-45.5 -77.5
q0 -42 38.5 -66.5t135.5 -51.5q111 -31 160 -72t49 -111q0 -75 -56.5 -121t-170.5 -46q-41 0 -78.5 7t-61.5 17t-42 20.5t-26 17.5z" />
    <glyph glyph-name="T" unicode="T" horiz-adv-x="518" 
d="M17 547v53h485v-53h-215v-547h-56v547h-214z" />
    <glyph glyph-name="U" unicode="U" horiz-adv-x="657" 
d="M328 -14q-116 0 -182 72t-66 192v350h57v-350q0 -95 49.5 -152.5t141.5 -57.5q93 0 142.5 57.5t49.5 152.5v350h56v-350q0 -121 -65.5 -192.5t-182.5 -71.5z" />
    <glyph glyph-name="V" unicode="V" horiz-adv-x="607" 
d="M307 110l93 207l138 283h63l-291 -600h-14l-291 600h63l140 -283l92 -207h7z" />
    <glyph glyph-name="W" unicode="W" horiz-adv-x="809" 
d="M253 138l130 462h44l129 -462l8 -40h4l10 40l156 462h60l-208 -600h-49l-129 460l-3 17h-3l-3 -17l-130 -460h-47l-208 600h60l157 -462l9 -40h4z" />
    <glyph glyph-name="X" unicode="X" horiz-adv-x="544" 
d="M518 600l-206 -292l216 -308h-69l-164 234l-23 42l-24 -42l-163 -234h-67l213 308l-205 292h69l158 -225l19 -37l21 37l157 225h68z" />
    <glyph glyph-name="Y" unicode="Y" horiz-adv-x="540" 
d="M291 317l176 283h66l-235 -370v-230h-57v230l-234 370h67l178 -283l15 -31h8z" />
    <glyph glyph-name="Z" unicode="Z" horiz-adv-x="535" 
d="M31 0v14l384 533h-374v53h468v-14l-380 -533h370v-53h-468z" />
    <glyph glyph-name="bracketleft" unicode="[" horiz-adv-x="314" 
d="M80 -158v832h209v-48h-154v-736h154v-48h-209z" />
    <glyph glyph-name="backslash" unicode="\" horiz-adv-x="345" 
d="M254 -176l-221 879h58l221 -879h-58z" />
    <glyph glyph-name="bracketright" unicode="]" horiz-adv-x="314" 
d="M25 -158v48h153v736h-153v48h208v-832h-208z" />
    <glyph glyph-name="asciicircum" unicode="^" horiz-adv-x="406" 
d="M305 488l-102 132l-102 -132h-39v12l122 168h38l122 -168v-12h-39z" />
    <glyph glyph-name="underscore" unicode="_" horiz-adv-x="489" 
d="M48 -68v48h389v-48h-389z" />
    <glyph glyph-name="grave" unicode="`" horiz-adv-x="254" 
d="M146 419l-83 147v11h70l48 -147v-11h-35z" />
    <glyph glyph-name="a" unicode="a" horiz-adv-x="422" 
d="M30 103q0 46 39.5 76t115.5 30q77 0 122 -35h5v25q0 107 -123 107q-29 0 -55 -7t-38 -14l-11 -7l-21 43q42 33 136 33q86 0 126 -44t40 -118v-192h-40l-6 45h-4q-6 -9 -18 -19.5t-45 -22t-75 -11.5q-73 0 -110.5 31.5t-37.5 79.5zM86 103q0 -30 26 -49.5t77 -19.5
q49 0 85 23.5t36 47.5q0 28 -35 46.5t-86 18.5q-50 0 -76.5 -18t-26.5 -49z" />
    <glyph glyph-name="b" unicode="b" horiz-adv-x="468" 
d="M63 0v668h56v-381h2q1 3 4 7.5t13.5 16t24.5 20.5t39 16t55 7q74 0 123.5 -50.5t49.5 -130.5q0 -81 -49.5 -131t-124.5 -50q-31 0 -57 7.5t-41.5 18.5t-26 22t-14.5 18l-4 8h-2l-8 -66h-40zM116 173q0 -61 37.5 -97t92.5 -36t91.5 37.5t36.5 95.5q0 59 -36.5 96t-91.5 37
t-92.5 -36t-37.5 -97z" />
    <glyph glyph-name="c" unicode="c" horiz-adv-x="365" 
d="M225 -8q-82 0 -135 50t-53 130t53 131t135 51q32 0 60.5 -7.5t40.5 -14.5l12 -8l-17 -43q-36 25 -93 25q-56 0 -95 -37t-39 -97t39 -96t95 -36q25 0 48.5 6t33.5 12l11 7l16 -43q-39 -30 -112 -30z" />
    <glyph glyph-name="d" unicode="d" horiz-adv-x="468" 
d="M347 291h2v377h56v-668h-39l-8 63h-3q-1 -3 -4 -7.5t-15 -17t-26.5 -22t-40.5 -17t-57 -7.5q-74 0 -124.5 50.5t-50.5 130.5t50 130.5t124 50.5q29 0 54 -6.5t39.5 -16t24.5 -18.5t14 -15zM353 173q0 61 -38 97t-93 36t-91.5 -37t-36.5 -96q0 -58 36.5 -95.5t91.5 -37.5
t93 36t38 97z" />
    <glyph glyph-name="e" unicode="e" horiz-adv-x="416" 
d="M339 69l20 -39q-5 -4 -15 -10.5t-43.5 -17.5t-70.5 -11q-86 0 -139.5 50t-53.5 131t50 131.5t128 50.5q79 0 124 -47.5t45 -123.5v-19h-291q2 -59 41.5 -92.5t96.5 -33.5q31 0 58 8t39 16zM214 308q-46 0 -77.5 -26.5t-40.5 -74.5h233q-5 44 -35.5 72.5t-79.5 28.5z" />
    <glyph glyph-name="f" unicode="f" horiz-adv-x="307" 
d="M290 301h-135v-301h-56v301h-84v45h84v155q0 165 142 165q36 0 72 -18l-17 -47q-24 13 -48 13q-93 0 -93 -113v-155h135v-45z" />
    <glyph glyph-name="g" unicode="g" horiz-adv-x="404" 
d="M211 -237q-87 0 -135.5 35.5t-48.5 93.5q0 73 75 102v4q-69 22 -69 78q0 51 56 77q-22 31 -22 71q0 56 39 92.5t101 36.5l178 -7v-42h-71v-4q4 -2 9.5 -6.5t14.5 -24t9 -47.5q0 -51 -39 -87t-101 -36q-52 0 -88 25q-36 -14 -36 -43q0 -54 128 -54q91 0 138.5 -34
t47.5 -95q0 -59 -49.5 -97t-136.5 -38zM211 -19q-61 0 -95.5 -25t-34.5 -61q0 -38 34 -62t96 -24q63 0 97 23.5t34 62.5q0 38 -34.5 62t-96.5 24zM207 307q-42 0 -67 -23t-25 -59t24.5 -59t67.5 -23t68 23t25 59t-25 59t-68 23z" />
    <glyph glyph-name="h" unicode="h" horiz-adv-x="455" 
d="M63 0v668h56v-365h2q16 20 48 35.5t75 15.5q72 0 113 -43.5t41 -115.5v-195h-56v188q0 53 -28.5 85.5t-81.5 32.5q-52 0 -81 -30t-32 -65v-211h-56z" />
    <glyph glyph-name="i" unicode="i" horiz-adv-x="186" 
d="M93 490q-16 0 -27 11t-11 27t11 27.5t27 11.5q17 0 28 -11.5t11 -27.5t-11 -27t-28 -11zM65 0v346h56v-346h-56z" />
    <glyph glyph-name="j" unicode="j" horiz-adv-x="181" 
d="M-38 -184l12 43q19 -12 40 -12q48 0 48 62v437h57v-439q0 -108 -94 -108q-17 0 -32.5 4.5t-22.5 8.5zM91 490q-17 0 -28 11t-11 27t11 27.5t28 11.5q16 0 26.5 -11t10.5 -28q0 -16 -10.5 -27t-26.5 -11z" />
    <glyph glyph-name="k" unicode="k" horiz-adv-x="384" 
d="M283 346h68l-173 -169l200 -177h-79l-179 162h-2v-162h-56v668h56v-481h2z" />
    <glyph glyph-name="l" unicode="l" horiz-adv-x="186" 
d="M65 0v668h56v-668h-56z" />
    <glyph glyph-name="m" unicode="m" horiz-adv-x="734" 
d="M398 201v-201h-56v202q0 47 -28.5 75.5t-81.5 28.5q-52 0 -82.5 -30t-30.5 -65v-211h-56v346h39l7 -56h3q46 64 132 64q99 0 137 -72h3q49 72 140 72q72 0 112.5 -43.5t40.5 -115.5v-195h-56v188q0 53 -28 85.5t-81 32.5q-55 0 -84.5 -33t-29.5 -72z" />
    <glyph glyph-name="n" unicode="n" horiz-adv-x="455" 
d="M119 205v-205h-56v346h39l7 -56h3q43 64 132 64q72 0 113 -43.5t41 -115.5v-195h-56v188q0 53 -28.5 85.5t-81.5 32.5q-55 0 -84 -32.5t-29 -68.5z" />
    <glyph glyph-name="o" unicode="o" horiz-adv-x="447" 
d="M410 171q0 -81 -54 -130t-133 -49t-132.5 49t-53.5 130q0 82 53.5 132.5t132.5 50.5t133 -51t54 -132zM223 38q55 0 93.5 36.5t38.5 97.5t-38.5 98.5t-93.5 37.5q-54 0 -92 -37.5t-38 -98.5t37.5 -97.5t92.5 -36.5z" />
    <glyph glyph-name="p" unicode="p" horiz-adv-x="468" 
d="M121 55h-2v-247h-56v538h39l8 -60h5q1 3 4 7.5t15 16t26.5 20.5t40 16.5t55.5 7.5q75 0 124.5 -50t49.5 -131q0 -80 -49.5 -130.5t-123.5 -50.5q-30 0 -55 6.5t-39 16t-24.5 18.5t-14.5 15zM116 173q0 -61 37.5 -97t92.5 -36t91.5 37t36.5 96q0 58 -36.5 95.5t-91.5 37.5
t-92.5 -36t-37.5 -97z" />
    <glyph glyph-name="q" unicode="q" horiz-adv-x="468" 
d="M405 346v-538h-56v251h-2q-1 -3 -4 -7.5t-13.5 -16t-24.5 -20.5t-39 -16t-55 -7q-74 0 -124 50.5t-50 130.5t50.5 130.5t124.5 50.5q31 0 57 -7.5t41 -18.5t25.5 -22t14.5 -18l4 -8h4l7 66h40zM353 173q0 61 -38 97t-93 36t-91.5 -37.5t-36.5 -95.5q0 -59 36.5 -96
t91.5 -37t93 36t38 97z" />
    <glyph glyph-name="r" unicode="r" horiz-adv-x="280" 
d="M276 334l-19 -45q-18 11 -46 11q-37 0 -62 -26.5t-30 -65.5v-208h-56v346h39l7 -56h2q39 58 103 58q17 0 32.5 -3.5t22.5 -6.5z" />
    <glyph glyph-name="s" unicode="s" horiz-adv-x="375" 
d="M35 31l23 40q52 -33 128 -33q49 0 75 14.5t26 39.5q0 22 -25.5 36t-61.5 22t-72.5 18t-62 32t-25.5 56q0 44 37 71t109 27q41 0 76.5 -7t50.5 -14l15 -7l-21 -46q-41 28 -116 28q-97 0 -97 -51q0 -21 25.5 -34t62 -20.5t72.5 -17t61.5 -32.5t25.5 -59q0 -45 -38 -73.5
t-117 -28.5q-46 0 -83.5 9.5t-52.5 19.5z" />
    <glyph glyph-name="t" unicode="t" horiz-adv-x="308" 
d="M14 346h71v104h56v-104h142v-46h-142v-156q0 -104 87 -104q12 0 24 3.5t18 7.5l7 4l19 -40q-29 -23 -76 -23q-135 0 -135 151v157h-71v46z" />
    <glyph glyph-name="u" unicode="u" horiz-adv-x="451" 
d="M333 141v205h56v-346h-37l-10 55h-3q-5 -10 -15.5 -21.5t-42.5 -26.5t-74 -15q-71 0 -110.5 43.5t-39.5 115.5v195h56v-188q0 -54 26.5 -86t79.5 -32q55 0 84.5 32.5t29.5 68.5z" />
    <glyph glyph-name="v" unicode="v" horiz-adv-x="405" 
d="M393 346l-171 -346h-39l-171 346h63l120 -256q5 -9 6 -24h3q1 12 7 24l120 256h62z" />
    <glyph glyph-name="w" unicode="w" horiz-adv-x="579" 
d="M154 0l-136 346h59l92 -256q6 -16 6 -24h5l6 24l82 256h47l81 -256q5 -13 5 -24h6q0 8 6 24l93 256h55l-136 -346h-47l-82 256q-5 15 -5 21h-3q0 -6 -5 -21l-82 -256h-47z" />
    <glyph glyph-name="x" unicode="x" horiz-adv-x="384" 
d="M16 0l142 180l-132 166h65l100 -131h2l101 131h63l-132 -166l143 -180h-64l-111 146h-2l-112 -146h-63z" />
    <glyph glyph-name="y" unicode="y" horiz-adv-x="405" 
d="M391 346l-257 -538h-59l102 207l-162 331h62l121 -256q6 -12 6 -24h3q0 12 6 24l120 256h58z" />
    <glyph glyph-name="z" unicode="z" horiz-adv-x="372" 
d="M32 28l229 271h-228v47h306v-26l-229 -273h229v-47h-307v28z" />
    <glyph glyph-name="braceleft" unicode="{" horiz-adv-x="247" 
d="M23 281h12q27 0 44 21.5t17 60.5v237q0 95 99 104l8 -48q-27 -4 -37.5 -17t-10.5 -46v-235q0 -81 -53 -98v-8q53 -17 53 -97v-235q0 -32 10.5 -45.5t37.5 -17.5l-8 -48q-99 9 -99 104v238q0 38 -17 59.5t-44 21.5h-12v49z" />
    <glyph glyph-name="bar" unicode="|" horiz-adv-x="213" 
d="M133 673v-825h-53v825h53z" />
    <glyph glyph-name="braceright" unicode="}" horiz-adv-x="247" 
d="M224 232h-13q-26 0 -43.5 -21.5t-17.5 -59.5v-238q0 -96 -99 -104l-8 48q27 4 37.5 17.5t10.5 45.5v235q0 81 54 97v8q-54 16 -54 98v235q0 33 -10.5 46t-37.5 17l8 48q99 -8 99 -104v-237q0 -39 17.5 -60.5t43.5 -21.5h13v-49z" />
    <glyph glyph-name="asciitilde" unicode="~" horiz-adv-x="452" 
d="M299 304q22 0 40.5 5t25.5 10l7 5l20 -35q-27 -31 -93 -31q-25 0 -71.5 13.5t-75.5 13.5q-22 0 -40 -5.5t-26 -10.5l-7 -5l-19 35q27 31 92 31q25 0 72 -13t75 -13z" />
    <glyph glyph-name="uni00A0" unicode="&#xa0;" horiz-adv-x="213" 
 />
    <glyph glyph-name="exclamdown" unicode="&#xa1;" horiz-adv-x="233" 
d="M152 33v-33h-72v33l15 408h41zM73 564q0 19 13 31.5t31 12.5t31 -12.5t13 -31.5q0 -18 -13 -30.5t-31 -12.5t-31 12.5t-13 30.5z" />
    <glyph glyph-name="cent" unicode="&#xa2;" horiz-adv-x="413" 
d="M209 -88v82q-70 9 -114 57.5t-44 120.5t43.5 121t113.5 59v84h42v-82q30 -1 57 -9t39 -15l12 -7l-20 -44q-39 27 -95 27t-95.5 -37t-39.5 -97t39.5 -96t95.5 -36q25 0 48.5 6.5t34.5 13.5l12 6l20 -43q-40 -28 -107 -31v-80h-42z" />
    <glyph glyph-name="sterling" unicode="&#xa3;" horiz-adv-x="511" 
d="M451 56v-51h-384v51q3 1 8 3.5t15.5 11.5t19 20t15 31.5t6.5 44.5q0 26 -18 73h-64v46h46q-24 63 -24 114q0 82 58.5 144t167.5 62q52 0 93 -15t56 -31l16 -15l-32 -41q-4 5 -13.5 13t-43 21.5t-73.5 13.5q-82 0 -124.5 -46.5t-42.5 -108.5q0 -50 24 -111h251v-46h-233
q16 -43 16 -72q0 -71 -47 -112h307z" />
    <glyph glyph-name="currency" unicode="&#xa4;" horiz-adv-x="577" 
d="M111 79l-38 37l56 58q-43 54 -43 123q0 71 44 124l-57 59l38 37l54 -61q56 41 122 41q70 0 124 -43l56 63l38 -37l-59 -61q42 -55 42 -122t-41 -121l58 -60l-38 -37l-55 61q-56 -43 -125 -43q-68 0 -123 42zM141 297q0 -61 42.5 -104.5t103.5 -43.5t104 43.5t43 104.5
t-43 104.5t-104 43.5t-103.5 -43t-42.5 -105z" />
    <glyph glyph-name="yen" unicode="&#xa5;" horiz-adv-x="592" 
d="M317 317l176 283h66l-207 -325h151v-47h-179v-87h179v-46h-179v-95h-57v95h-181v46h181v87h-181v47h152l-205 325h67l178 -283l15 -31h8z" />
    <glyph glyph-name="brokenbar" unicode="&#xa6;" horiz-adv-x="214" 
d="M134 -152h-54v825h54v-825z" />
    <glyph glyph-name="section" unicode="&#xa7;" horiz-adv-x="529" 
d="M41 -126l32 44q3 -3 8.5 -7.5t24 -15.5t39 -20t52.5 -16t66 -7q80 0 119.5 32t39.5 78q0 48 -34 76.5t-127 63.5q-85 31 -119.5 59t-34.5 75q0 52 40 80q-93 50 -93 134q0 73 55.5 118t162.5 45q64 0 115.5 -15.5t70.5 -31.5l20 -15l-32 -47q-7 6 -20 15.5t-58 25.5
t-96 16q-76 0 -115 -30t-39 -78q0 -43 34 -74t104 -55q89 -30 132.5 -62t43.5 -81t-35 -84q89 -53 89 -135q0 -69 -54.5 -116t-166.5 -47q-42 0 -81 7.5t-63.5 18.5t-43.5 22.5t-27 18.5zM237 279q-18 5 -42 14q-32 -14 -32 -54q0 -27 27 -47.5t92 -43.5q49 -19 66 -26
q26 22 26 57q0 64 -137 100z" />
    <glyph glyph-name="dieresis" unicode="&#xa8;" horiz-adv-x="398" 
d="M71 483q0 16 11.5 27.5t27.5 11.5t27.5 -11.5t11.5 -27.5t-11.5 -27.5t-27.5 -11.5t-27.5 11.5t-11.5 27.5zM249 483q0 16 11.5 27.5t27.5 11.5t27.5 -11.5t11.5 -27.5t-11.5 -27.5t-27.5 -11.5t-27.5 11.5t-11.5 27.5z" />
    <glyph glyph-name="copyright" unicode="&#xa9;" horiz-adv-x="723" 
d="M361 604q142 0 227.5 -88t85.5 -217t-85.5 -216.5t-227.5 -87.5t-227.5 87.5t-85.5 216.5t85.5 217t227.5 88zM361 568q-124 0 -199 -77.5t-75 -191.5t75 -191t199 -77q125 0 200 77t75 191t-75 191.5t-200 77.5zM475 425l-23 -29q-28 27 -84 27q-57 0 -91 -35t-34 -88
q0 -52 34 -87t91 -35q24 0 45 7t30 13l9 7l23 -29q-4 -4 -11.5 -10t-35.5 -16.5t-62 -10.5q-76 0 -121 46t-45 115q0 70 45 116t121 46q34 0 61 -9t37 -19z" />
    <glyph glyph-name="ordfeminine" unicode="&#xaa;" horiz-adv-x="410" 
d="M40 369q0 48 39.5 76t106.5 28q84 0 116 -36v20q0 58 -25.5 86.5t-88.5 28.5q-15 0 -31.5 -2t-29 -5.5t-22 -7t-16.5 -5.5l-7 -3l-15 39q62 26 128 26q84 0 120 -41t36 -118v-181h-35l-8 37h-4q-40 -45 -128 -45q-61 0 -98.5 28t-37.5 75zM88 371q0 -32 27 -50t72 -18
q52 0 83.5 21t31.5 49q0 27 -30.5 46.5t-77.5 19.5q-50 0 -78 -18t-28 -50z" />
    <glyph glyph-name="guillemotleft" unicode="&#xab;" horiz-adv-x="403" 
d="M42 162v19l106 155h50v-8l-105 -153v-5l105 -155v-8h-50zM205 162v19l106 155h49v-8l-105 -153v-5l105 -155v-8h-49z" />
    <glyph glyph-name="logicalnot" unicode="&#xac;" horiz-adv-x="547" 
d="M34 299v48h427v-347h-48v299h-379z" />
    <glyph glyph-name="registered" unicode="&#xae;" horiz-adv-x="570" 
d="M522 380q0 -98 -65 -165t-172 -67t-171.5 67.5t-64.5 164.5q0 99 64 165.5t172 66.5q107 0 172 -67t65 -165zM482 380q0 84 -54.5 140t-142.5 56q-89 0 -143 -55t-54 -141q0 -84 54.5 -139.5t142.5 -55.5t142.5 55.5t54.5 139.5zM197 485h92q41 0 66 -19.5t25 -53.5
q0 -47 -42 -65l44 -56v-8h-33l-44 56q-7 -1 -19 -1h-56v-55h-33v202zM289 455h-59v-88h57q59 0 59 45q0 43 -57 43z" />
    <glyph glyph-name="macron" unicode="&#xaf;" horiz-adv-x="472" 
d="M111 445v38h260v-38h-260z" />
    <glyph glyph-name="degree" unicode="&#xb0;" horiz-adv-x="316" 
d="M158 672q52 0 84.5 -31t32.5 -77t-32.5 -76.5t-84.5 -30.5t-84.5 30.5t-32.5 76.5t32.5 77t84.5 31zM158 638q-36 0 -58 -21t-22 -53q0 -31 22 -51.5t58 -20.5q35 0 57.5 20.5t22.5 51.5t-22.5 52.5t-57.5 21.5z" />
    <glyph glyph-name="plusminus" unicode="&#xb1;" horiz-adv-x="559" 
d="M306 165h-48v177h-188v48h188v181h48v-181h183v-48h-183v-177zM489 92v-48h-419v48h419z" />
    <glyph glyph-name="twosuperior" unicode="&#xb2;" horiz-adv-x="316" 
d="M28 342v16l157 141q40 35 40 72q0 66 -80 66q-24 0 -46.5 -8.5t-33.5 -16.5t-12 -10l-22 32q5 5 14.5 12t40 19t62.5 12q62 0 91.5 -28t29.5 -74q0 -51 -50 -96l-112 -99h182v-38h-261z" />
    <glyph glyph-name="threesuperior" unicode="&#xb3;" horiz-adv-x="315" 
d="M39 630v38h232v-13l-81 -119q47 -4 72 -29t25 -67q0 -46 -34.5 -76t-97.5 -30q-34 0 -66 12t-44.5 20.5t-17.5 13.5l24 31q41 -37 103 -37q43 0 66.5 18.5t23.5 47.5q0 61 -76 63h-38v14l78 113h-169z" />
    <glyph glyph-name="acute" unicode="&#xb4;" horiz-adv-x="247" 
d="M174 566l-83 -147h-35v11l48 147h70v-11z" />
    <glyph glyph-name="mu" unicode="&#xb5;" horiz-adv-x="496" 
d="M135 -192h-56v538h56v-188q0 -54 26.5 -86t79.5 -32q55 0 84.5 32.5t29.5 68.5v205h56v-346h-37l-10 55h-3q-5 -10 -15.5 -21.5t-42.5 -26.5t-74 -15q-57 0 -94 28v-212z" />
    <glyph glyph-name="paragraph" unicode="&#xb6;" horiz-adv-x="498" 
d="M345 -175v285h-78q-111 0 -173 51t-62 149q0 95 60.5 144.5t172.5 49.5h137v-679h-57z" />
    <glyph glyph-name="periodcentered" unicode="&#xb7;" horiz-adv-x="139" 
d="M26 360q0 18 13 30.5t31 12.5t30.5 -12.5t12.5 -30.5t-12.5 -31t-30.5 -13t-31 13t-13 31z" />
    <glyph glyph-name="cedilla" unicode="&#xb8;" horiz-adv-x="216" 
d="M83 -60l-14 17l24 45h36l-17 -32q30 0 49.5 -16t19.5 -47t-21 -49.5t-59 -18.5q-21 0 -38 6.5t-24 12.5l-7 7l14 26q22 -21 55 -21q46 0 46 38q0 17 -12.5 26.5t-31.5 9.5z" />
    <glyph glyph-name="onesuperior" unicode="&#xb9;" horiz-adv-x="191" 
d="M20 630v38h117v-326h-43v288h-74z" />
    <glyph glyph-name="ordmasculine" unicode="&#xba;" horiz-adv-x="427" 
d="M213 613q76 0 124.5 -47.5t48.5 -125.5q0 -76 -48.5 -123t-124.5 -47q-75 0 -123.5 47t-48.5 123q0 78 48.5 125.5t123.5 47.5zM213 570q-55 0 -89.5 -35.5t-34.5 -94.5q0 -57 34.5 -92.5t89.5 -35.5q56 0 90.5 35t34.5 93q0 60 -34 95t-91 35z" />
    <glyph glyph-name="guillemotright" unicode="&#xbb;" horiz-adv-x="403" 
d="M199 181v-19l-106 -155h-50v8l105 155v5l-105 153v8h50zM361 181v-19l-106 -155h-49v8l104 155v5l-104 153v8h49z" />
    <glyph glyph-name="onequarter" unicode="&#xbc;" horiz-adv-x="631" 
d="M322 91v26l187 209h31v-198h54v-37h-54v-91h-40v91h-178zM103 8l-31 26l469 564l32 -26zM39 562v38h117v-326h-42v288h-75zM412 163l-35 -38l53 3h70v135h-2z" />
    <glyph glyph-name="onehalf" unicode="&#xbd;" horiz-adv-x="716" 
d="M419 16v-16h261v38h-181l112 99q51 46 51 96q0 45 -30 73.5t-92 28.5q-32 0 -61 -10.5t-43 -21.5l-13 -11l22 -32q1 2 12 10t33.5 16.5t46.5 8.5q41 0 60.5 -18t19.5 -48q0 -37 -40 -72zM105 8l-31 26l469 564l32 -26zM41 562v38h117v-326h-42v288h-75z" />
    <glyph glyph-name="threequarters" unicode="&#xbe;" horiz-adv-x="737" 
d="M427 91v26l187 209h31v-198h54v-37h-54v-91h-41v91h-177zM54 562v38h232v-13l-81 -119q47 -4 72 -29t25 -67q0 -46 -34.5 -76t-97.5 -30q-34 0 -66 12t-44.5 20.5t-17.5 13.5l24 31q42 -37 103 -37q43 0 66.5 18.5t23.5 47.5q0 63 -79 63h-35v14l78 113h-169zM193 8
l-31 26l469 564l31 -26zM517 163l-35 -38l53 3h69v135h-1z" />
    <glyph glyph-name="questiondown" unicode="&#xbf;" horiz-adv-x="376" 
d="M317 72l20 -45q-50 -35 -142 -35q-69 0 -109 37t-40 95q0 38 14 69.5t34.5 53.5t41.5 44t37 52.5t18 66.5l2 37h41v-44q0 -37 -13.5 -68t-32.5 -53t-38.5 -43t-33 -48t-13.5 -57q0 -41 27.5 -67t74.5 -26q33 0 61 7.5t40 15.5zM254 571q0 -18 -12.5 -30.5t-30.5 -12.5
t-30 12.5t-12 30.5q0 17 12 29.5t30 12.5t30.5 -12.5t12.5 -29.5z" />
    <glyph glyph-name="Agrave" unicode="&#xc0;" horiz-adv-x="607" 
d="M5 0l291 600h14l293 -600h-65l-57 114h-355l-57 -114h-64zM448 179l-141 305h-8l-140 -305l-6 -11h301zM284 638l-83 147v11h70l48 -147v-11h-35z" />
    <glyph glyph-name="Aacute" unicode="&#xc1;" horiz-adv-x="607" 
d="M5 0l291 600h14l293 -600h-65l-57 114h-355l-57 -114h-64zM448 179l-141 305h-8l-140 -305l-6 -11h301zM404 785l-83 -147h-35v11l48 147h70v-11z" />
    <glyph glyph-name="Acircumflex" unicode="&#xc2;" horiz-adv-x="607" 
d="M406 638l-105 111l-106 -111h-36v11l110 147h63l110 -147v-11h-36zM5 0l291 600h14l293 -600h-65l-57 114h-355l-57 -114h-64zM448 179l-141 305h-8l-140 -305l-6 -11h301z" />
    <glyph glyph-name="Atilde" unicode="&#xc3;" horiz-adv-x="607" 
d="M5 0l291 600h14l293 -600h-65l-57 114h-355l-57 -114h-64zM448 179l-141 305h-8l-140 -305l-6 -11h301zM368 651q-29 0 -70.5 25t-59.5 25q-19 0 -27 -9.5t-14 -27.5l-4 -13l-40 4l5 22q14 68 75 68q28 0 69.5 -24.5t59.5 -24.5q33 0 42 37l3 12l40 -4l-4 -21
q-13 -69 -75 -69z" />
    <glyph glyph-name="Adieresis" unicode="&#xc4;" horiz-adv-x="607" 
d="M171 715q0 16 11.5 27.5t27.5 11.5t27.5 -11.5t11.5 -27.5t-11.5 -27.5t-27.5 -11.5t-27.5 11.5t-11.5 27.5zM349 715q0 16 11.5 27.5t27.5 11.5t27.5 -11.5t11.5 -27.5t-11.5 -27.5t-27.5 -11.5t-27.5 11.5t-11.5 27.5zM5 0l291 600h14l293 -600h-65l-57 114h-355
l-57 -114h-64zM448 179l-141 305h-8l-140 -305l-6 -11h301z" />
    <glyph glyph-name="Aring" unicode="&#xc5;" horiz-adv-x="608" 
d="M5 0l285 587q-34 5 -56 29.5t-22 58.5q0 37 26 62.5t64 25.5q39 0 64.5 -25t25.5 -63q0 -34 -21.5 -58t-54.5 -29l287 -588h-65l-57 114h-355l-57 -114h-64zM448 179l-141 305h-8l-140 -305l-6 -11h301zM353 675q0 23 -13.5 37t-37.5 14q-23 0 -37 -14t-14 -37t14 -37
t37 -14q24 0 37.5 14t13.5 37z" />
    <glyph glyph-name="AE" unicode="&#xc6;" horiz-adv-x="906" 
d="M-10 0l436 600h440v-53h-377v-225h331v-53h-331v-216h377v-53h-434v114h-293l-80 -114h-69zM425 508l-248 -340h255v340h-7z" />
    <glyph glyph-name="Ccedilla" unicode="&#xc7;" horiz-adv-x="593" 
d="M331 -60l-14 17l16 30q-127 9 -207.5 97t-80.5 215q0 135 87.5 224.5t224.5 89.5q62 0 113.5 -19.5t72.5 -39.5l21 -19l-33 -44q-7 8 -20.5 19t-58.5 30t-94 19q-112 0 -183.5 -75.5t-71.5 -184.5q0 -108 71.5 -183.5t183.5 -75.5q49 0 92 17t62 34l19 17l33 -43l-8 -8
t-23.5 -18.5t-39 -23.5t-54.5 -19t-71 -10l-8 -16q30 0 49.5 -16t19.5 -47t-21 -49.5t-59 -18.5q-21 0 -38 6.5t-24 12.5l-7 7l14 26q22 -21 55 -21q46 0 46 38q0 17 -12.5 26.5t-31.5 9.5z" />
    <glyph glyph-name="Egrave" unicode="&#xc8;" horiz-adv-x="563" 
d="M478 322v-53h-332v-216h377v-53h-434v600h434v-53h-377v-225h332zM301 637l-83 147v11h70l48 -147v-11h-35z" />
    <glyph glyph-name="Eacute" unicode="&#xc9;" horiz-adv-x="563" 
d="M401 785l-83 -147h-35v11l48 147h70v-11zM478 322v-53h-332v-216h377v-53h-434v600h434v-53h-377v-225h332z" />
    <glyph glyph-name="Ecircumflex" unicode="&#xca;" horiz-adv-x="563" 
d="M419 638l-105 111l-106 -111h-36v11l110 147h63l110 -147v-11h-36zM478 322v-53h-332v-216h377v-53h-434v600h434v-53h-377v-225h332z" />
    <glyph glyph-name="Edieresis" unicode="&#xcb;" horiz-adv-x="563" 
d="M184 705q0 16 11.5 27.5t27.5 11.5t27.5 -11.5t11.5 -27.5t-11.5 -27.5t-27.5 -11.5t-27.5 11.5t-11.5 27.5zM362 705q0 16 11.5 27.5t27.5 11.5t27.5 -11.5t11.5 -27.5t-11.5 -27.5t-27.5 -11.5t-27.5 11.5t-11.5 27.5zM478 322v-53h-332v-216h377v-53h-434v600h434v-53
h-377v-225h332z" />
    <glyph glyph-name="Igrave" unicode="&#xcc;" horiz-adv-x="236" 
d="M146 600v-600h-57v600h57zM99 637l-83 147v11h70l48 -147v-11h-35z" />
    <glyph glyph-name="Iacute" unicode="&#xcd;" horiz-adv-x="236" 
d="M146 600v-600h-57v600h57zM218 785l-83 -147h-35v11l48 147h70v-11z" />
    <glyph glyph-name="Icircumflex" unicode="&#xce;" horiz-adv-x="236" 
d="M225 638l-105 111l-106 -111h-36v11l110 147h63l110 -147v-11h-36zM146 601v-600h-57v600h57z" />
    <glyph glyph-name="Idieresis" unicode="&#xcf;" horiz-adv-x="236" 
d="M-8 705q0 16 11.5 27.5t27.5 11.5t27.5 -11.5t11.5 -27.5t-11.5 -27.5t-27.5 -11.5t-27.5 11.5t-11.5 27.5zM170 705q0 16 11.5 27.5t27.5 11.5t27.5 -11.5t11.5 -27.5t-11.5 -27.5t-27.5 -11.5t-27.5 11.5t-11.5 27.5zM146 600v-600h-57v600h57z" />
    <glyph glyph-name="Eth" unicode="&#xd0;" horiz-adv-x="666" 
d="M20 277v46h77v277h201q143 0 232 -81t89 -219t-89 -219t-232 -81h-201v277h-77zM296 547h-142v-224h137v-46h-137v-224h142q115 0 190 66.5t75 180.5q0 113 -75 180t-190 67z" />
    <glyph glyph-name="Ntilde" unicode="&#xd1;" horiz-adv-x="696" 
d="M606 600v-600h-18l-442 478v-478h-57v600h18l442 -477v477h57zM412 666q-29 0 -70.5 25t-59.5 25q-19 0 -27 -9.5t-14 -27.5l-4 -13l-40 4l5 22q14 68 75 68q28 0 69.5 -24.5t59.5 -24.5q33 0 42 37l3 12l40 -4l-4 -21q-13 -69 -75 -69z" />
    <glyph glyph-name="Ograve" unicode="&#xd2;" horiz-adv-x="708" 
d="M334 638l-83 147v11h70l48 -147v-11h-35zM354 -14q-139 0 -224 89t-85 224q0 136 85 225t224 89t223.5 -89t84.5 -225q0 -135 -85 -224t-223 -89zM354 40q114 0 182.5 75t68.5 184q0 110 -68.5 185t-182.5 75t-182.5 -75t-68.5 -185t68.5 -184.5t182.5 -74.5z" />
    <glyph glyph-name="Oacute" unicode="&#xd3;" horiz-adv-x="708" 
d="M458 785l-83 -147h-35v11l48 147h70v-11zM354 -14q-139 0 -224 89t-85 224q0 136 85 225t224 89t223.5 -89t84.5 -225q0 -135 -85 -224t-223 -89zM354 40q114 0 182.5 75t68.5 184q0 110 -68.5 185t-182.5 75t-182.5 -75t-68.5 -185t68.5 -184.5t182.5 -74.5z" />
    <glyph glyph-name="Ocircumflex" unicode="&#xd4;" horiz-adv-x="708" 
d="M460 638l-105 111l-106 -111h-36v11l110 147h63l110 -147v-11h-36zM354 -14q-139 0 -224 89t-85 224q0 136 85 225t224 89t223.5 -89t84.5 -225q0 -135 -85 -224t-223 -89zM354 40q114 0 182.5 75t68.5 184q0 110 -68.5 185t-182.5 75t-182.5 -75t-68.5 -185t68.5 -184.5
t182.5 -74.5z" />
    <glyph glyph-name="Otilde" unicode="&#xd5;" horiz-adv-x="708" 
d="M354 -14q-139 0 -224 89t-85 224q0 136 85 225t224 89t223.5 -89t84.5 -225q0 -135 -85 -224t-223 -89zM354 40q114 0 182.5 75t68.5 184q0 110 -68.5 185t-182.5 75t-182.5 -75t-68.5 -185t68.5 -184.5t182.5 -74.5zM422 665q-29 0 -70.5 25t-59.5 25q-19 0 -27 -9.5
t-14 -27.5l-4 -13l-40 4l5 22q14 68 75 68q28 0 69.5 -24.5t59.5 -24.5q33 0 42 37l3 12l40 -4l-4 -21q-13 -69 -75 -69z" />
    <glyph glyph-name="Odieresis" unicode="&#xd6;" horiz-adv-x="708" 
d="M226 704q0 16 11.5 27.5t27.5 11.5t27.5 -11.5t11.5 -27.5t-11.5 -27.5t-27.5 -11.5t-27.5 11.5t-11.5 27.5zM404 704q0 16 11.5 27.5t27.5 11.5t27.5 -11.5t11.5 -27.5t-11.5 -27.5t-27.5 -11.5t-27.5 11.5t-11.5 27.5zM354 -14q-139 0 -224 89t-85 224q0 136 85 225
t224 89t223.5 -89t84.5 -225q0 -135 -85 -224t-223 -89zM354 40q114 0 182.5 75t68.5 184q0 110 -68.5 185t-182.5 75t-182.5 -75t-68.5 -185t68.5 -184.5t182.5 -74.5z" />
    <glyph glyph-name="multiply" unicode="&#xd7;" horiz-adv-x="517" 
d="M98 109l-34 34l160 160l-160 161l34 34l160 -161l161 161l34 -34l-161 -161l161 -160l-34 -34l-161 160z" />
    <glyph glyph-name="Oslash" unicode="&#xd8;" horiz-adv-x="706" 
d="M354 -14q-127 0 -211 76l-62 -61l-33 34l63 62q-66 85 -66 202q0 136 85 225t224 89q125 0 208 -75l55 54l33 -34l-55 -54q67 -86 67 -205q0 -135 -85 -224t-223 -89zM354 40q114 0 182.5 75t68.5 184q0 95 -52 164l-369 -361q67 -62 170 -62zM103 299q0 -94 50 -162
l368 361q-67 61 -167 61q-114 0 -182.5 -75t-68.5 -185z" />
    <glyph glyph-name="Ugrave" unicode="&#xd9;" horiz-adv-x="657" 
d="M328 -14q-116 0 -182 72t-66 192v350h57v-350q0 -95 49.5 -152.5t141.5 -57.5q93 0 142.5 57.5t49.5 152.5v350h56v-350q0 -121 -65.5 -192.5t-182.5 -71.5zM311 638l-83 147v11h70l48 -147v-11h-35z" />
    <glyph glyph-name="Uacute" unicode="&#xda;" horiz-adv-x="657" 
d="M429 785l-83 -147h-35v11l48 147h70v-11zM328 -14q-116 0 -182 72t-66 192v350h57v-350q0 -95 49.5 -152.5t141.5 -57.5q93 0 142.5 57.5t49.5 152.5v350h56v-350q0 -121 -65.5 -192.5t-182.5 -71.5z" />
    <glyph glyph-name="Ucircumflex" unicode="&#xdb;" horiz-adv-x="657" 
d="M434 638l-105 111l-106 -111h-36v11l110 147h63l110 -147v-11h-36zM328 -14q-116 0 -182 72t-66 192v350h57v-350q0 -95 49.5 -152.5t141.5 -57.5q93 0 142.5 57.5t49.5 152.5v350h56v-350q0 -121 -65.5 -192.5t-182.5 -71.5z" />
    <glyph glyph-name="Udieresis" unicode="&#xdc;" horiz-adv-x="657" 
d="M201 706q0 16 11.5 27.5t27.5 11.5t27.5 -11.5t11.5 -27.5t-11.5 -27.5t-27.5 -11.5t-27.5 11.5t-11.5 27.5zM379 706q0 16 11.5 27.5t27.5 11.5t27.5 -11.5t11.5 -27.5t-11.5 -27.5t-27.5 -11.5t-27.5 11.5t-11.5 27.5zM328 -14q-116 0 -182 72t-66 192v350h57v-350
q0 -95 49.5 -152.5t141.5 -57.5q93 0 142.5 57.5t49.5 152.5v350h56v-350q0 -121 -65.5 -192.5t-182.5 -71.5z" />
    <glyph glyph-name="Yacute" unicode="&#xdd;" horiz-adv-x="540" 
d="M291 317l176 283h66l-235 -370v-230h-57v230l-234 370h67l178 -283l15 -31h8zM370 785l-83 -147h-35v11l48 147h70v-11z" />
    <glyph glyph-name="Thorn" unicode="&#xde;" horiz-adv-x="597" 
d="M146 600v-100h183q113 0 175 -51t62 -147q0 -100 -63.5 -153t-176.5 -53h-180v-96h-57v600h57zM508 301q0 73 -48 109.5t-132 36.5h-182v-297h182q180 0 180 151z" />
    <glyph glyph-name="germandbls" unicode="&#xdf;" horiz-adv-x="462" 
d="M208 162l113 139h-202v-301h-56v463q0 168 150 168q17 0 34 -4t25 -8l9 -4l-17 -47q-23 12 -48 12q-97 0 -97 -113v-120h294v-12l-130 -158q66 -4 106 -38t40 -99q0 -66 -46.5 -105.5t-122.5 -39.5q-32 0 -58.5 5t-37.5 10l-11 5l13 41q36 -15 94 -15q48 0 78.5 28
t30.5 72q0 46 -32 72t-84 26h-45v23z" />
    <glyph glyph-name="agrave" unicode="&#xe0;" horiz-adv-x="422" 
d="M30 103q0 46 39.5 76t115.5 30q77 0 122 -35h5v25q0 107 -123 107q-29 0 -55 -7t-38 -14l-11 -7l-21 43q42 33 136 33q86 0 126 -44t40 -118v-192h-40l-6 45h-4q-6 -9 -18 -19.5t-45 -22t-75 -11.5q-73 0 -110.5 31.5t-37.5 79.5zM86 103q0 -30 26 -49.5t77 -19.5
q49 0 85 23.5t36 47.5q0 28 -35 46.5t-86 18.5q-50 0 -76.5 -18t-26.5 -49zM187 419l-83 147v11h70l48 -147v-11h-35z" />
    <glyph glyph-name="aacute" unicode="&#xe1;" horiz-adv-x="422" 
d="M30 103q0 46 39.5 76t115.5 30q77 0 122 -35h5v25q0 107 -123 107q-29 0 -55 -7t-38 -14l-11 -7l-21 43q42 33 136 33q86 0 126 -44t40 -118v-192h-40l-6 45h-4q-6 -9 -18 -19.5t-45 -22t-75 -11.5q-73 0 -110.5 31.5t-37.5 79.5zM86 103q0 -30 26 -49.5t77 -19.5
q49 0 85 23.5t36 47.5q0 28 -35 46.5t-86 18.5q-50 0 -76.5 -18t-26.5 -49zM308 566l-83 -147h-35v11l48 147h70v-11z" />
    <glyph glyph-name="acircumflex" unicode="&#xe2;" horiz-adv-x="422" 
d="M30 103q0 46 39.5 76t115.5 30q77 0 122 -35h5v25q0 107 -123 107q-29 0 -55 -7t-38 -14l-11 -7l-21 43q42 33 136 33q86 0 126 -44t40 -118v-192h-40l-6 45h-4q-6 -9 -18 -19.5t-45 -22t-75 -11.5q-73 0 -110.5 31.5t-37.5 79.5zM86 103q0 -30 26 -49.5t77 -19.5
q49 0 85 23.5t36 47.5q0 28 -35 46.5t-86 18.5q-50 0 -76.5 -18t-26.5 -49zM315 419l-105 111l-106 -111h-36v11l110 147h63l110 -147v-11h-36z" />
    <glyph glyph-name="atilde" unicode="&#xe3;" horiz-adv-x="422" 
d="M30 103q0 46 39.5 76t115.5 30q77 0 122 -35h5v25q0 107 -123 107q-29 0 -55 -7t-38 -14l-11 -7l-21 43q42 33 136 33q86 0 126 -44t40 -118v-192h-40l-6 45h-4q-6 -9 -18 -19.5t-45 -22t-75 -11.5q-73 0 -110.5 31.5t-37.5 79.5zM86 103q0 -30 26 -49.5t77 -19.5
q49 0 85 23.5t36 47.5q0 28 -35 46.5t-86 18.5q-50 0 -76.5 -18t-26.5 -49zM269 445q-29 0 -70.5 25t-59.5 25q-19 0 -27 -9.5t-14 -27.5l-4 -13l-40 4l5 22q14 68 75 68q28 0 69.5 -24.5t59.5 -24.5q33 0 42 37l3 12l40 -4l-4 -21q-13 -69 -75 -69z" />
    <glyph glyph-name="adieresis" unicode="&#xe4;" horiz-adv-x="422" 
d="M30 103q0 46 39.5 76t115.5 30q77 0 122 -35h5v25q0 107 -123 107q-29 0 -55 -7t-38 -14l-11 -7l-21 43q42 33 136 33q86 0 126 -44t40 -118v-192h-40l-6 45h-4q-6 -9 -18 -19.5t-45 -22t-75 -11.5q-73 0 -110.5 31.5t-37.5 79.5zM86 103q0 -30 26 -49.5t77 -19.5
q49 0 85 23.5t36 47.5q0 28 -35 46.5t-86 18.5q-50 0 -76.5 -18t-26.5 -49zM72 483q0 16 11.5 27.5t27.5 11.5t27.5 -11.5t11.5 -27.5t-11.5 -27.5t-27.5 -11.5t-27.5 11.5t-11.5 27.5zM250 483q0 16 11.5 27.5t27.5 11.5t27.5 -11.5t11.5 -27.5t-11.5 -27.5t-27.5 -11.5
t-27.5 11.5t-11.5 27.5z" />
    <glyph glyph-name="aring" unicode="&#xe5;" horiz-adv-x="422" 
d="M30 103q0 46 39.5 76t115.5 30q77 0 122 -35h5v25q0 107 -123 107q-29 0 -55 -7t-38 -14l-11 -7l-21 43q42 33 136 33q86 0 126 -44t40 -118v-192h-40l-6 45h-4q-6 -9 -18 -19.5t-45 -22t-75 -11.5q-73 0 -110.5 31.5t-37.5 79.5zM86 103q0 -30 26 -49.5t77 -19.5
q49 0 85 23.5t36 47.5q0 28 -35 46.5t-86 18.5q-50 0 -76.5 -18t-26.5 -49zM210 433q-38 0 -64 25.5t-26 62.5t26 62.5t64 25.5q39 0 64.5 -25t25.5 -63t-25.5 -63t-64.5 -25zM261 521q0 23 -13.5 37t-37.5 14q-23 0 -37 -14t-14 -37t14 -37t37 -14q24 0 37.5 14t13.5 37z
" />
    <glyph glyph-name="ae" unicode="&#xe6;" horiz-adv-x="694" 
d="M617 67l20 -38q-5 -4 -15 -10.5t-44 -17t-71 -10.5q-105 0 -160 74q-49 -73 -164 -73q-75 0 -114 31.5t-39 79.5q0 47 38.5 76t108.5 29q85 0 129 -36h4v23q0 113 -121 113q-29 0 -55.5 -7t-39.5 -13l-12 -7l-19 42q52 31 137 31q107 0 146 -72q50 72 146 72
q80 0 124.5 -47t44.5 -124v-18h-291q2 -60 41 -94t96 -34q31 0 58.5 7.5t39.5 15.5zM84 103q0 -68 104 -68q49 0 85.5 21t36.5 48q0 28 -37 46t-85 18q-104 0 -104 -65zM491 308q-47 0 -78.5 -27t-39.5 -76h233q-4 45 -34 74t-81 29z" />
    <glyph glyph-name="ccedilla" unicode="&#xe7;" horiz-adv-x="365" 
d="M191 -60l-14 17l19 37q-71 8 -115 56.5t-44 121.5q0 80 53 131t135 51q32 0 60.5 -7.5t40.5 -14.5l12 -8l-17 -43q-36 25 -93 25q-56 0 -95 -37t-39 -97t39 -96t95 -36q25 0 48.5 6t33.5 12l11 7l16 -43q-37 -28 -106 -30l-11 -22q30 0 49.5 -16t19.5 -47t-21 -49.5
t-59 -18.5q-21 0 -38 6.5t-24 12.5l-7 7l14 26q22 -21 55 -21q46 0 46 38q0 17 -12.5 26.5t-31.5 9.5z" />
    <glyph glyph-name="egrave" unicode="&#xe8;" horiz-adv-x="416" 
d="M339 69l20 -39q-5 -4 -15 -10.5t-43.5 -17.5t-70.5 -11q-86 0 -139.5 50t-53.5 131t50 131.5t128 50.5q79 0 124 -47.5t45 -123.5v-19h-291q2 -59 41.5 -92.5t96.5 -33.5q31 0 58 8t39 16zM214 308q-46 0 -77.5 -26.5t-40.5 -74.5h233q-5 44 -35.5 72.5t-79.5 28.5z
M196 419l-83 147v11h70l48 -147v-11h-35z" />
    <glyph glyph-name="eacute" unicode="&#xe9;" horiz-adv-x="416" 
d="M317 566l-83 -147h-35v11l48 147h70v-11zM339 69l20 -39q-5 -4 -15 -10.5t-43.5 -17.5t-70.5 -11q-86 0 -139.5 50t-53.5 131t50 131.5t128 50.5q79 0 124 -47.5t45 -123.5v-19h-291q2 -59 41.5 -92.5t96.5 -33.5q31 0 58 8t39 16zM214 308q-46 0 -77.5 -26.5
t-40.5 -74.5h233q-5 44 -35.5 72.5t-79.5 28.5z" />
    <glyph glyph-name="ecircumflex" unicode="&#xea;" horiz-adv-x="416" 
d="M323 419l-105 111l-106 -111h-36v11l110 147h63l110 -147v-11h-36zM339 69l20 -39q-5 -4 -15 -10.5t-43.5 -17.5t-70.5 -11q-86 0 -139.5 50t-53.5 131t50 131.5t128 50.5q79 0 124 -47.5t45 -123.5v-19h-291q2 -59 41.5 -92.5t96.5 -33.5q31 0 58 8t39 16zM214 308
q-46 0 -77.5 -26.5t-40.5 -74.5h233q-5 44 -35.5 72.5t-79.5 28.5z" />
    <glyph glyph-name="edieresis" unicode="&#xeb;" horiz-adv-x="416" 
d="M90 483q0 16 11.5 27.5t27.5 11.5t27.5 -11.5t11.5 -27.5t-11.5 -27.5t-27.5 -11.5t-27.5 11.5t-11.5 27.5zM268 483q0 16 11.5 27.5t27.5 11.5t27.5 -11.5t11.5 -27.5t-11.5 -27.5t-27.5 -11.5t-27.5 11.5t-11.5 27.5zM339 69l20 -39q-5 -4 -15 -10.5t-43.5 -17.5
t-70.5 -11q-86 0 -139.5 50t-53.5 131t50 131.5t128 50.5q79 0 124 -47.5t45 -123.5v-19h-291q2 -59 41.5 -92.5t96.5 -33.5q31 0 58 8t39 16zM214 308q-46 0 -77.5 -26.5t-40.5 -74.5h233q-5 44 -35.5 72.5t-79.5 28.5z" />
    <glyph glyph-name="igrave" unicode="&#xec;" horiz-adv-x="186" 
d="M65 0v346h56v-346h-56zM73 419l-83 147v11h70l48 -147v-11h-35z" />
    <glyph glyph-name="iacute" unicode="&#xed;" horiz-adv-x="186" 
d="M195 566l-83 -147h-35v11l48 147h70v-11zM65 0v346h56v-346h-56z" />
    <glyph glyph-name="icircumflex" unicode="&#xee;" horiz-adv-x="186" 
d="M199 419l-105 111l-106 -111h-36v11l110 147h63l110 -147v-11h-36zM65 0v346h56v-346h-56z" />
    <glyph glyph-name="idieresis" unicode="&#xef;" horiz-adv-x="186" 
d="M-33 483q0 16 11.5 27.5t27.5 11.5t27.5 -11.5t11.5 -27.5t-11.5 -27.5t-27.5 -11.5t-27.5 11.5t-11.5 27.5zM145 483q0 16 11.5 27.5t27.5 11.5t27.5 -11.5t11.5 -27.5t-11.5 -27.5t-27.5 -11.5t-27.5 11.5t-11.5 27.5zM65 0v346h56v-346h-56z" />
    <glyph glyph-name="eth" unicode="&#xf0;" horiz-adv-x="473" 
d="M115 396l-20 34l115 66l-62 95v9h53l52 -80l103 59l19 -34l-100 -57l107 -162q19 -30 28.5 -47t17.5 -46t8 -62q0 -82 -55.5 -132t-144.5 -50q-88 0 -143.5 50t-55.5 132q0 78 55.5 129.5t146.5 51.5q46 0 80 -17q-14 14 -39 55l-48 73zM236 37q62 0 102.5 38t40.5 97
q0 60 -41 96t-99 36q-63 0 -104 -38t-41 -94q0 -59 40.5 -97t101.5 -38z" />
    <glyph glyph-name="ntilde" unicode="&#xf1;" horiz-adv-x="455" 
d="M119 205v-205h-56v346h39l7 -56h3q43 64 132 64q72 0 113 -43.5t41 -115.5v-195h-56v188q0 53 -28.5 85.5t-81.5 32.5q-55 0 -84 -32.5t-29 -68.5zM307 445q-29 0 -70.5 25t-59.5 25q-19 0 -27 -9.5t-14 -27.5l-4 -13l-40 4l5 22q14 68 75 68q28 0 69.5 -24.5t59.5 -24.5
q33 0 42 37l3 12l40 -4l-4 -21q-13 -69 -75 -69z" />
    <glyph glyph-name="ograve" unicode="&#xf2;" horiz-adv-x="447" 
d="M410 171q0 -81 -54 -130t-133 -49t-132.5 49t-53.5 130q0 82 53.5 132.5t132.5 50.5t133 -51t54 -132zM223 38q55 0 93.5 36.5t38.5 97.5t-38.5 98.5t-93.5 37.5q-54 0 -92 -37.5t-38 -98.5t37.5 -97.5t92.5 -36.5zM203 419l-83 147v11h70l48 -147v-11h-35z" />
    <glyph glyph-name="oacute" unicode="&#xf3;" horiz-adv-x="447" 
d="M325 566l-83 -147h-35v11l48 147h70v-11zM410 171q0 -81 -54 -130t-133 -49t-132.5 49t-53.5 130q0 82 53.5 132.5t132.5 50.5t133 -51t54 -132zM223 38q55 0 93.5 36.5t38.5 97.5t-38.5 98.5t-93.5 37.5q-54 0 -92 -37.5t-38 -98.5t37.5 -97.5t92.5 -36.5z" />
    <glyph glyph-name="ocircumflex" unicode="&#xf4;" horiz-adv-x="447" 
d="M330 419l-105 111l-106 -111h-36v11l110 147h63l110 -147v-11h-36zM410 171q0 -81 -54 -130t-133 -49t-132.5 49t-53.5 130q0 82 53.5 132.5t132.5 50.5t133 -51t54 -132zM223 38q55 0 93.5 36.5t38.5 97.5t-38.5 98.5t-93.5 37.5q-54 0 -92 -37.5t-38 -98.5t37.5 -97.5
t92.5 -36.5z" />
    <glyph glyph-name="otilde" unicode="&#xf5;" horiz-adv-x="447" 
d="M410 171q0 -81 -54 -130t-133 -49t-132.5 49t-53.5 130q0 82 53.5 132.5t132.5 50.5t133 -51t54 -132zM223 38q55 0 93.5 36.5t38.5 97.5t-38.5 98.5t-93.5 37.5q-54 0 -92 -37.5t-38 -98.5t37.5 -97.5t92.5 -36.5zM292 445q-29 0 -70.5 25t-59.5 25q-19 0 -27 -9.5
t-14 -27.5l-4 -13l-40 4l5 22q14 68 75 68q28 0 69.5 -24.5t59.5 -24.5q33 0 42 37l3 12l40 -4l-4 -21q-13 -69 -75 -69z" />
    <glyph glyph-name="odieresis" unicode="&#xf6;" horiz-adv-x="447" 
d="M95 483q0 16 11.5 27.5t27.5 11.5t27.5 -11.5t11.5 -27.5t-11.5 -27.5t-27.5 -11.5t-27.5 11.5t-11.5 27.5zM273 483q0 16 11.5 27.5t27.5 11.5t27.5 -11.5t11.5 -27.5t-11.5 -27.5t-27.5 -11.5t-27.5 11.5t-11.5 27.5zM410 171q0 -81 -54 -130t-133 -49t-132.5 49
t-53.5 130q0 82 53.5 132.5t132.5 50.5t133 -51t54 -132zM223 38q55 0 93.5 36.5t38.5 97.5t-38.5 98.5t-93.5 37.5q-54 0 -92 -37.5t-38 -98.5t37.5 -97.5t92.5 -36.5z" />
    <glyph glyph-name="divide" unicode="&#xf7;" horiz-adv-x="510" 
d="M211 155q0 19 13 31.5t31 12.5t31 -12.5t13 -31.5q0 -18 -13 -30.5t-31 -12.5t-31 12.5t-13 30.5zM211 443q0 18 13 30.5t31 12.5t31 -12.5t13 -30.5q0 -19 -13 -31.5t-31 -12.5t-31 12.5t-13 31.5zM64 272v48h382v-48h-382z" />
    <glyph glyph-name="oslash" unicode="&#xf8;" horiz-adv-x="447" 
d="M411 171q0 -81 -54 -130t-133 -49q-73 0 -121 39l-40 -40l-23 24l39 39q-41 47 -41 117q0 82 53.5 132.5t132.5 50.5q67 0 116 -37l42 42l23 -24l-41 -40q47 -50 47 -124zM224 38q55 0 93.5 36.5t38.5 97.5q0 49 -28 87l-190 -191q36 -30 86 -30zM94 172q0 -45 23 -81
l188 189q-34 28 -81 28q-54 0 -92 -37.5t-38 -98.5z" />
    <glyph glyph-name="ugrave" unicode="&#xf9;" horiz-adv-x="451" 
d="M333 141v205h56v-346h-37l-10 55h-3q-5 -10 -15.5 -21.5t-42.5 -26.5t-74 -15q-71 0 -110.5 43.5t-39.5 115.5v195h56v-188q0 -54 26.5 -86t79.5 -32q55 0 84.5 32.5t29.5 68.5zM209 419l-83 147v11h70l48 -147v-11h-35z" />
    <glyph glyph-name="uacute" unicode="&#xfa;" horiz-adv-x="451" 
d="M325 566l-83 -147h-35v11l48 147h70v-11zM333 141v205h56v-346h-37l-10 55h-3q-5 -10 -15.5 -21.5t-42.5 -26.5t-74 -15q-71 0 -110.5 43.5t-39.5 115.5v195h56v-188q0 -54 26.5 -86t79.5 -32q55 0 84.5 32.5t29.5 68.5z" />
    <glyph glyph-name="ucircumflex" unicode="&#xfb;" horiz-adv-x="451" 
d="M332 419l-105 111l-106 -111h-36v11l110 147h63l110 -147v-11h-36zM333 141v205h56v-346h-37l-10 55h-3q-5 -10 -15.5 -21.5t-42.5 -26.5t-74 -15q-71 0 -110.5 43.5t-39.5 115.5v195h56v-188q0 -54 26.5 -86t79.5 -32q55 0 84.5 32.5t29.5 68.5z" />
    <glyph glyph-name="udieresis" unicode="&#xfc;" horiz-adv-x="451" 
d="M96 483q0 16 11.5 27.5t27.5 11.5t27.5 -11.5t11.5 -27.5t-11.5 -27.5t-27.5 -11.5t-27.5 11.5t-11.5 27.5zM274 483q0 16 11.5 27.5t27.5 11.5t27.5 -11.5t11.5 -27.5t-11.5 -27.5t-27.5 -11.5t-27.5 11.5t-11.5 27.5zM333 141v205h56v-346h-37l-10 55h-3
q-5 -10 -15.5 -21.5t-42.5 -26.5t-74 -15q-71 0 -110.5 43.5t-39.5 115.5v195h56v-188q0 -54 26.5 -86t79.5 -32q55 0 84.5 32.5t29.5 68.5z" />
    <glyph glyph-name="yacute" unicode="&#xfd;" horiz-adv-x="405" 
d="M391 346l-257 -538h-59l102 207l-162 331h62l121 -256q6 -12 6 -24h3q0 12 6 24l120 256h58zM306 566l-83 -147h-35v11l48 147h70v-11z" />
    <glyph glyph-name="thorn" unicode="&#xfe;" horiz-adv-x="468" 
d="M121 71h-3v-263h-56v792h56v-323h3q1 3 4 8.5t14 18.5t25 23t39 18.5t54 8.5q74 0 123.5 -50.5t49.5 -130.5t-49.5 -130.5t-123.5 -50.5q-30 0 -55 8t-39.5 19.5t-24.5 23.5t-14 20zM116 173q0 -61 37.5 -97t92.5 -36t91.5 37t36.5 96q0 58 -36.5 95.5t-91.5 37.5
t-92.5 -36t-37.5 -97z" />
    <glyph glyph-name="ydieresis" unicode="&#xff;" horiz-adv-x="405" 
d="M391 346l-257 -538h-59l102 207l-162 331h62l121 -256q6 -12 6 -24h3q0 12 6 24l120 256h58zM78 483q0 16 11.5 27.5t27.5 11.5t27.5 -11.5t11.5 -27.5t-11.5 -27.5t-27.5 -11.5t-27.5 11.5t-11.5 27.5zM256 483q0 16 11.5 27.5t27.5 11.5t27.5 -11.5t11.5 -27.5
t-11.5 -27.5t-27.5 -11.5t-27.5 11.5t-11.5 27.5z" />
    <glyph glyph-name="Amacron" unicode="&#x100;" horiz-adv-x="607" 
d="M5 0l291 600h14l293 -600h-65l-57 114h-355l-57 -114h-64zM448 179l-141 305h-8l-140 -305l-6 -11h301zM172 646v38h260v-38h-260z" />
    <glyph glyph-name="amacron" unicode="&#x101;" horiz-adv-x="422" 
d="M30 103q0 46 39.5 76t115.5 30q77 0 122 -35h5v25q0 107 -123 107q-29 0 -55 -7t-38 -14l-11 -7l-21 43q42 33 136 33q86 0 126 -44t40 -118v-192h-40l-6 45h-4q-6 -9 -18 -19.5t-45 -22t-75 -11.5q-73 0 -110.5 31.5t-37.5 79.5zM86 103q0 -30 26 -49.5t77 -19.5
q49 0 85 23.5t36 47.5q0 28 -35 46.5t-86 18.5q-50 0 -76.5 -18t-26.5 -49zM74 445v38h260v-38h-260z" />
    <glyph glyph-name="Abreve" unicode="&#x102;" horiz-adv-x="607" 
d="M5 0l291 600h14l293 -600h-65l-57 114h-355l-57 -114h-64zM448 179l-141 305h-8l-140 -305l-6 -11h301zM383 808h46q0 -58 -36.5 -95.5t-91.5 -37.5t-91 37.5t-36 95.5h45q0 -39 23 -63.5t59 -24.5q36 -1 59 23.5t23 64.5z" />
    <glyph glyph-name="abreve" unicode="&#x103;" horiz-adv-x="422" 
d="M30 103q0 46 39.5 76t115.5 30q77 0 122 -35h5v25q0 107 -123 107q-29 0 -55 -7t-38 -14l-11 -7l-21 43q42 33 136 33q86 0 126 -44t40 -118v-192h-40l-6 45h-4q-6 -9 -18 -19.5t-45 -22t-75 -11.5q-73 0 -110.5 31.5t-37.5 79.5zM86 103q0 -30 26 -49.5t77 -19.5
q49 0 85 23.5t36 47.5q0 28 -35 46.5t-86 18.5q-50 0 -76.5 -18t-26.5 -49zM291 583h46q0 -58 -36.5 -95.5t-91.5 -37.5t-91 37.5t-36 95.5h45q0 -39 23 -63.5t59 -24.5q36 -1 59 23.5t23 64.5z" />
    <glyph glyph-name="Aogonek" unicode="&#x104;" horiz-adv-x="607" 
d="M598 -88l19 -25q-21 -23 -59 -23q-34 0 -52.5 17.5t-18.5 48.5q0 44 49 73l-55 111h-355l-57 -114h-64l291 600h14l293 -600h-17q-7 -2 -17.5 -6.5t-27.5 -21t-17 -36.5q0 -38 38 -38q10 0 19 3.5t13 6.5zM448 179l-141 305h-8l-140 -305l-6 -11h301z" />
    <glyph glyph-name="aogonek" unicode="&#x105;" horiz-adv-x="423" 
d="M378 -88l19 -25q-21 -23 -59 -23q-34 0 -52.5 17.5t-18.5 48.5q0 49 58 78l-5 37h-4q-6 -9 -18 -19.5t-45 -22t-75 -11.5q-73 0 -110.5 31.5t-37.5 79.5q0 46 39.5 76t115.5 30q77 0 122 -35h5v25q0 107 -123 107q-29 0 -55 -7t-38 -14l-11 -7l-21 43q42 33 136 33
q86 0 126 -44t40 -118v-192q-7 -2 -17.5 -6.5t-27.5 -21t-17 -36.5q0 -38 38 -38q10 0 19 3.5t13 6.5zM86 103q0 -30 26 -49.5t77 -19.5q49 0 85 23.5t36 47.5q0 28 -35 46.5t-86 18.5q-50 0 -76.5 -18t-26.5 -49z" />
    <glyph glyph-name="Cacute" unicode="&#x106;" horiz-adv-x="593" 
d="M447 810l-83 -147h-35v11l48 147h70v-11zM531 108l33 -43l-8.5 -8.5t-24.5 -19t-41 -24t-58 -19t-75 -8.5q-137 0 -224.5 89.5t-87.5 223.5q0 135 87.5 224.5t224.5 89.5q62 0 113.5 -19.5t72.5 -39.5l21 -19l-33 -44q-7 8 -20.5 19t-58.5 30t-94 19q-112 0 -183.5 -75.5
t-71.5 -184.5q0 -108 71.5 -183.5t183.5 -75.5q49 0 92 17t62 34z" />
    <glyph glyph-name="cacute" unicode="&#x107;" horiz-adv-x="365" 
d="M300 566l-83 -147h-35v11l48 147h70v-11zM225 -8q-82 0 -135 50t-53 130t53 131t135 51q32 0 60.5 -7.5t40.5 -14.5l12 -8l-17 -43q-36 25 -93 25q-56 0 -95 -37t-39 -97t39 -96t95 -36q25 0 48.5 6t33.5 12l11 7l16 -43q-39 -30 -112 -30z" />
    <glyph glyph-name="Ccircumflex" unicode="&#x108;" horiz-adv-x="593" 
d="M455 638l-105 111l-106 -111h-36v11l110 147h63l110 -147v-11h-36zM531 108l33 -43l-8.5 -8.5t-24.5 -19t-41 -24t-58 -19t-75 -8.5q-137 0 -224.5 89.5t-87.5 223.5q0 135 87.5 224.5t224.5 89.5q62 0 113.5 -19.5t72.5 -39.5l21 -19l-33 -44q-7 8 -20.5 19t-58.5 30
t-94 19q-112 0 -183.5 -75.5t-71.5 -184.5q0 -108 71.5 -183.5t183.5 -75.5q49 0 92 17t62 34z" />
    <glyph glyph-name="ccircumflex" unicode="&#x109;" horiz-adv-x="365" 
d="M324 419l-105 111l-106 -111h-36v11l110 147h63l110 -147v-11h-36zM225 -8q-82 0 -135 50t-53 130t53 131t135 51q32 0 60.5 -7.5t40.5 -14.5l12 -8l-17 -43q-36 25 -93 25q-56 0 -95 -37t-39 -97t39 -96t95 -36q25 0 48.5 6t33.5 12l11 7l16 -43q-39 -30 -112 -30z" />
    <glyph glyph-name="Cdotaccent" unicode="&#x10a;" horiz-adv-x="593" 
d="M531 108l33 -43l-8.5 -8.5t-24.5 -19t-41 -24t-58 -19t-75 -8.5q-137 0 -224.5 89.5t-87.5 223.5q0 135 87.5 224.5t224.5 89.5q62 0 113.5 -19.5t72.5 -39.5l21 -19l-33 -44q-7 8 -20.5 19t-58.5 30t-94 19q-112 0 -183.5 -75.5t-71.5 -184.5q0 -108 71.5 -183.5
t183.5 -75.5q49 0 92 17t62 34zM304 758q0 21 14 35t34 14q21 0 34.5 -14t13.5 -35t-13.5 -34.5t-34.5 -13.5q-20 0 -34 13.5t-14 34.5z" />
    <glyph glyph-name="cdotaccent" unicode="&#x10b;" horiz-adv-x="365" 
d="M225 -8q-82 0 -135 50t-53 130t53 131t135 51q32 0 60.5 -7.5t40.5 -14.5l12 -8l-17 -43q-36 25 -93 25q-56 0 -95 -37t-39 -97t39 -96t95 -36q25 0 48.5 6t33.5 12l11 7l16 -43q-39 -30 -112 -30zM169 518q0 21 14 35t34 14q21 0 34.5 -14t13.5 -35t-13.5 -34.5
t-34.5 -13.5q-20 0 -34 13.5t-14 34.5z" />
    <glyph glyph-name="Ccaron" unicode="&#x10c;" horiz-adv-x="593" 
d="M343 700l105 111h36v-11l-110 -147h-63l-110 147v11h36zM531 108l33 -43l-8.5 -8.5t-24.5 -19t-41 -24t-58 -19t-75 -8.5q-137 0 -224.5 89.5t-87.5 223.5q0 135 87.5 224.5t224.5 89.5q62 0 113.5 -19.5t72.5 -39.5l21 -19l-33 -44q-7 8 -20.5 19t-58.5 30t-94 19
q-112 0 -183.5 -75.5t-71.5 -184.5q0 -108 71.5 -183.5t183.5 -75.5q49 0 92 17t62 34z" />
    <glyph glyph-name="ccaron" unicode="&#x10d;" horiz-adv-x="365" 
d="M217 466l105 111h36v-11l-110 -147h-63l-110 147v11h36zM225 -8q-82 0 -135 50t-53 130t53 131t135 51q32 0 60.5 -7.5t40.5 -14.5l12 -8l-17 -43q-36 25 -93 25q-56 0 -95 -37t-39 -97t39 -96t95 -36q25 0 48.5 6t33.5 12l11 7l16 -43q-39 -30 -112 -30z" />
    <glyph glyph-name="Dcaron" unicode="&#x10e;" horiz-adv-x="658" 
d="M308 700l105 111h36v-11l-110 -147h-63l-110 147v11h36zM611 300q0 -138 -89 -219t-232 -81h-201v600h201q143 0 232 -81t89 -219zM288 547h-142v-494h142q115 0 190 66.5t75 180.5q0 113 -75 180t-190 67z" />
    <glyph glyph-name="dcaron" unicode="&#x10f;" horiz-adv-x="468" 
d="M457 628q0 18 12 30t32 12t33 -13t13 -34q0 -20 -14 -45l-27 -48h-42l22 38l13 16v3q-19 1 -30.5 12t-11.5 29zM347 291h2v377h56v-668h-39l-8 63h-3q-1 -3 -4 -7.5t-15 -17t-26.5 -22t-40.5 -17t-57 -7.5q-74 0 -124.5 50.5t-50.5 130.5t50 130.5t124 50.5q29 0 54 -6.5
t39.5 -16t24.5 -18.5t14 -15zM353 173q0 61 -38 97t-93 36t-91.5 -37t-36.5 -96q0 -58 36.5 -95.5t91.5 -37.5t93 36t38 97z" />
    <glyph glyph-name="Dcroat" unicode="&#x110;" horiz-adv-x="666" 
d="M20 277v46h77v277h201q143 0 232 -81t89 -219t-89 -219t-232 -81h-201v277h-77zM296 547h-142v-224h137v-46h-137v-224h142q115 0 190 66.5t75 180.5q0 113 -75 180t-190 67z" />
    <glyph glyph-name="dcroat" unicode="&#x111;" horiz-adv-x="468" 
d="M204 463v40h145v165h56v-165h53v-40h-53v-463h-39l-8 63h-3q-1 -3 -4 -7.5t-15 -17t-26.5 -22t-40.5 -17t-57 -7.5q-74 0 -124.5 50.5t-50.5 130.5t50 130.5t124 50.5q29 0 54 -6.5t39.5 -16t24.5 -18.5t14 -15l4 -7h2v172h-145zM353 173q0 61 -38 97t-93 36t-91.5 -37
t-36.5 -96q0 -58 36.5 -95.5t91.5 -37.5t93 36t38 97z" />
    <glyph glyph-name="Emacron" unicode="&#x112;" horiz-adv-x="563" 
d="M478 322v-53h-332v-216h377v-53h-434v600h434v-53h-377v-225h332zM174 689v38h260v-38h-260z" />
    <glyph glyph-name="emacron" unicode="&#x113;" horiz-adv-x="416" 
d="M339 69l20 -39q-5 -4 -15 -10.5t-43.5 -17.5t-70.5 -11q-86 0 -139.5 50t-53.5 131t50 131.5t128 50.5q79 0 124 -47.5t45 -123.5v-19h-291q2 -59 41.5 -92.5t96.5 -33.5q31 0 58 8t39 16zM214 308q-46 0 -77.5 -26.5t-40.5 -74.5h233q-5 44 -35.5 72.5t-79.5 28.5z
M88 445v38h260v-38h-260z" />
    <glyph glyph-name="Ebreve" unicode="&#x114;" horiz-adv-x="563" 
d="M478 322v-53h-332v-216h377v-53h-434v600h434v-53h-377v-225h332zM394 808h46q0 -58 -36.5 -95.5t-91.5 -37.5t-91 37.5t-36 95.5h45q0 -39 23 -63.5t59 -24.5q36 -1 59 23.5t23 64.5z" />
    <glyph glyph-name="ebreve" unicode="&#x115;" horiz-adv-x="416" 
d="M339 69l20 -39q-5 -4 -15 -10.5t-43.5 -17.5t-70.5 -11q-86 0 -139.5 50t-53.5 131t50 131.5t128 50.5q79 0 124 -47.5t45 -123.5v-19h-291q2 -59 41.5 -92.5t96.5 -33.5q31 0 58 8t39 16zM214 308q-46 0 -77.5 -26.5t-40.5 -74.5h233q-5 44 -35.5 72.5t-79.5 28.5z
M299 583h46q0 -58 -36.5 -95.5t-91.5 -37.5t-91 37.5t-36 95.5h45q0 -39 23 -63.5t59 -24.5q36 -1 59 23.5t23 64.5z" />
    <glyph glyph-name="Edotaccent" unicode="&#x116;" horiz-adv-x="563" 
d="M478 322v-53h-332v-216h377v-53h-434v600h434v-53h-377v-225h332zM265 743q0 21 14 35t34 14q21 0 34.5 -14t13.5 -35t-13.5 -34.5t-34.5 -13.5q-20 0 -34 13.5t-14 34.5z" />
    <glyph glyph-name="edotaccent" unicode="&#x117;" horiz-adv-x="416" 
d="M339 69l20 -39q-5 -4 -15 -10.5t-43.5 -17.5t-70.5 -11q-86 0 -139.5 50t-53.5 131t50 131.5t128 50.5q79 0 124 -47.5t45 -123.5v-19h-291q2 -59 41.5 -92.5t96.5 -33.5q31 0 58 8t39 16zM214 308q-46 0 -77.5 -26.5t-40.5 -74.5h233q-5 44 -35.5 72.5t-79.5 28.5z
M169 518q0 21 14 35t34 14q21 0 34.5 -14t13.5 -35t-13.5 -34.5t-34.5 -13.5q-20 0 -34 13.5t-14 34.5z" />
    <glyph glyph-name="Eogonek" unicode="&#x118;" horiz-adv-x="563" 
d="M478 322v-53h-332v-216h377v-53h-34q-8 -3 -18.5 -7.5t-26.5 -21t-16 -35.5q0 -38 38 -38q10 0 19 3.5t13 6.5l4 4l19 -25q-21 -23 -59 -23q-34 0 -52.5 17.5t-18.5 48.5q0 43 43 70h-345v600h434v-53h-377v-225h332z" />
    <glyph glyph-name="eogonek" unicode="&#x119;" horiz-adv-x="416" 
d="M339 69l20 -39q-14 -12 -37 -22q-7 -2 -17.5 -6.5t-27.5 -21t-17 -36.5q0 -38 38 -38q10 0 19 3.5t13 6.5l4 4l19 -25q-21 -23 -59 -23q-34 0 -52.5 17.5t-18.5 48.5q0 29 23 54q-5 -1 -16 -1q-86 0 -139.5 50t-53.5 131t50 131.5t128 50.5q79 0 124 -47.5t45 -123.5v-19
h-291q2 -59 41.5 -92.5t96.5 -33.5q31 0 58 8t39 16zM214 308q-46 0 -77.5 -26.5t-40.5 -74.5h233q-5 44 -35.5 72.5t-79.5 28.5z" />
    <glyph glyph-name="Ecaron" unicode="&#x11a;" horiz-adv-x="563" 
d="M308 696l105 111h36v-11l-110 -147h-63l-110 147v11h36zM478 322v-53h-332v-216h377v-53h-434v600h434v-53h-377v-225h332z" />
    <glyph glyph-name="ecaron" unicode="&#x11b;" horiz-adv-x="416" 
d="M217 466l105 111h36v-11l-110 -147h-63l-110 147v11h36zM339 69l20 -39q-5 -4 -15 -10.5t-43.5 -17.5t-70.5 -11q-86 0 -139.5 50t-53.5 131t50 131.5t128 50.5q79 0 124 -47.5t45 -123.5v-19h-291q2 -59 41.5 -92.5t96.5 -33.5q31 0 58 8t39 16zM214 308
q-46 0 -77.5 -26.5t-40.5 -74.5h233q-5 44 -35.5 72.5t-79.5 28.5z" />
    <glyph glyph-name="Gcircumflex" unicode="&#x11c;" horiz-adv-x="668" 
d="M457 637l-105 111l-106 -111h-36v11l110 147h63l110 -147v-11h-36zM575 263v6h-238v53h295v-37q0 -138 -74.5 -218.5t-203.5 -80.5q-140 0 -224.5 89t-84.5 224q0 136 86 225t226 89q43 0 81 -8t62.5 -20t43 -24t26.5 -20l8 -8l-33 -43q-3 3 -8 7.5t-23 16.5t-38 21
t-52.5 16.5t-66.5 7.5q-116 0 -185 -75t-69 -185t68 -184.5t183 -74.5q100 0 160.5 61t60.5 162z" />
    <glyph glyph-name="gcircumflex" unicode="&#x11d;" horiz-adv-x="412" 
d="M320 419l-105 111l-106 -111h-36v11l110 147h63l110 -147v-11h-36zM218 -237q-87 0 -135.5 35.5t-48.5 93.5q0 73 75 102v4q-69 22 -69 78q0 51 56 77q-22 31 -22 71q0 56 39 92.5t101 36.5l178 -7v-42h-71v-4q4 -2 9.5 -6.5t14.5 -24t9 -47.5q0 -51 -39 -87t-101 -36
q-52 0 -88 25q-36 -14 -36 -43q0 -54 128 -54q91 0 138.5 -34t47.5 -95q0 -59 -49.5 -97t-136.5 -38zM218 -19q-61 0 -95.5 -25t-34.5 -61q0 -38 34 -62t96 -24q63 0 97 23.5t34 62.5q0 38 -34.5 62t-96.5 24zM214 307q-42 0 -67 -23t-25 -59t24.5 -59t67.5 -23t68 23t25 59
t-25 59t-68 23z" />
    <glyph glyph-name="Gbreve" unicode="&#x11e;" horiz-adv-x="668" 
d="M575 263v6h-238v53h295v-37q0 -138 -74.5 -218.5t-203.5 -80.5q-140 0 -224.5 89t-84.5 224q0 136 86 225t226 89q43 0 81 -8t62.5 -20t43 -24t26.5 -20l8 -8l-33 -43q-3 3 -8 7.5t-23 16.5t-38 21t-52.5 16.5t-66.5 7.5q-116 0 -185 -75t-69 -185t68 -184.5t183 -74.5
q100 0 160.5 61t60.5 162zM435 808h46q0 -58 -36.5 -95.5t-91.5 -37.5t-91 37.5t-36 95.5h45q0 -39 23 -63.5t59 -24.5q36 -1 59 23.5t23 64.5z" />
    <glyph glyph-name="gbreve" unicode="&#x11f;" horiz-adv-x="412" 
d="M218 -237q-87 0 -135.5 35.5t-48.5 93.5q0 73 75 102v4q-69 22 -69 78q0 51 56 77q-22 31 -22 71q0 56 39 92.5t101 36.5l178 -7v-42h-71v-4q4 -2 9.5 -6.5t14.5 -24t9 -47.5q0 -51 -39 -87t-101 -36q-52 0 -88 25q-36 -14 -36 -43q0 -54 128 -54q91 0 138.5 -34
t47.5 -95q0 -59 -49.5 -97t-136.5 -38zM218 -19q-61 0 -95.5 -25t-34.5 -61q0 -38 34 -62t96 -24q63 0 97 23.5t34 62.5q0 38 -34.5 62t-96.5 24zM214 307q-42 0 -67 -23t-25 -59t24.5 -59t67.5 -23t68 23t25 59t-25 59t-68 23zM304 583h46q0 -58 -36.5 -95.5t-91.5 -37.5
t-91 37.5t-36 95.5h45q0 -39 23 -63.5t59 -24.5q36 -1 59 23.5t23 64.5z" />
    <glyph glyph-name="Gdotaccent" unicode="&#x120;" horiz-adv-x="668" 
d="M575 263v6h-238v53h295v-37q0 -138 -74.5 -218.5t-203.5 -80.5q-140 0 -224.5 89t-84.5 224q0 136 86 225t226 89q43 0 81 -8t62.5 -20t43 -24t26.5 -20l8 -8l-33 -43q-3 3 -8 7.5t-23 16.5t-38 21t-52.5 16.5t-66.5 7.5q-116 0 -185 -75t-69 -185t68 -184.5t183 -74.5
q100 0 160.5 61t60.5 162zM303 743q0 21 14 35t34 14q21 0 34.5 -14t13.5 -35t-13.5 -34.5t-34.5 -13.5q-20 0 -34 13.5t-14 34.5z" />
    <glyph glyph-name="gdotaccent" unicode="&#x121;" horiz-adv-x="412" 
d="M218 -237q-87 0 -135.5 35.5t-48.5 93.5q0 73 75 102v4q-69 22 -69 78q0 51 56 77q-22 31 -22 71q0 56 39 92.5t101 36.5l178 -7v-42h-71v-4q4 -2 9.5 -6.5t14.5 -24t9 -47.5q0 -51 -39 -87t-101 -36q-52 0 -88 25q-36 -14 -36 -43q0 -54 128 -54q91 0 138.5 -34
t47.5 -95q0 -59 -49.5 -97t-136.5 -38zM218 -19q-61 0 -95.5 -25t-34.5 -61q0 -38 34 -62t96 -24q63 0 97 23.5t34 62.5q0 38 -34.5 62t-96.5 24zM214 307q-42 0 -67 -23t-25 -59t24.5 -59t67.5 -23t68 23t25 59t-25 59t-68 23zM168 518q0 21 14 35t34 14q21 0 34.5 -14
t13.5 -35t-13.5 -34.5t-34.5 -13.5q-20 0 -34 13.5t-14 34.5z" />
    <glyph glyph-name="Gcommaaccent" unicode="&#x122;" horiz-adv-x="668" 
d="M309 -78q0 18 12 30t32 12t33 -13t13 -34q0 -20 -14 -45l-27 -48h-42l22 38l13 16v3q-19 1 -30.5 12t-11.5 29zM575 263v6h-238v53h295v-37q0 -138 -74.5 -218.5t-203.5 -80.5q-140 0 -224.5 89t-84.5 224q0 136 86 225t226 89q43 0 81 -8t62.5 -20t43 -24t26.5 -20l8 -8
l-33 -43q-3 3 -8 7.5t-23 16.5t-38 21t-52.5 16.5t-66.5 7.5q-116 0 -185 -75t-69 -185t68 -184.5t183 -74.5q100 0 160.5 61t60.5 162z" />
    <glyph glyph-name="gcommaaccent" unicode="&#x123;" horiz-adv-x="412" 
d="M261 463q0 -18 -12 -30t-32 -12t-33 13t-13 34q0 20 14 45l27 48h42l-22 -38l-13 -16v-3q19 -1 30.5 -12.5t11.5 -28.5zM218 -237q-87 0 -135.5 35.5t-48.5 93.5q0 73 75 102v4q-69 22 -69 78q0 51 56 77q-22 31 -22 71q0 56 39 92.5t101 36.5l178 -7v-42h-71v-4
q4 -2 9.5 -6.5t14.5 -24t9 -47.5q0 -51 -39 -87t-101 -36q-52 0 -88 25q-36 -14 -36 -43q0 -54 128 -54q91 0 138.5 -34t47.5 -95q0 -59 -49.5 -97t-136.5 -38zM218 -19q-61 0 -95.5 -25t-34.5 -61q0 -38 34 -62t96 -24q63 0 97 23.5t34 62.5q0 38 -34.5 62t-96.5 24z
M214 307q-42 0 -67 -23t-25 -59t24.5 -59t67.5 -23t68 23t25 59t-25 59t-68 23z" />
    <glyph glyph-name="Hcircumflex" unicode="&#x124;" horiz-adv-x="670" 
d="M442 638l-105 111l-106 -111h-36v11l110 147h63l110 -147v-11h-36zM581 600v-600h-57v269h-378v-269h-57v600h57v-278h378v278h57z" />
    <glyph glyph-name="hcircumflex" unicode="&#x125;" horiz-adv-x="455" 
d="M324 717l-105 111l-106 -111h-36v11l110 147h63l110 -147v-11h-36zM63 0v668h56v-365h2q16 20 48 35.5t75 15.5q72 0 113 -43.5t41 -115.5v-195h-56v188q0 53 -28.5 85.5t-81.5 32.5q-52 0 -81 -30t-32 -65v-211h-56z" />
    <glyph glyph-name="Hbar" unicode="&#x126;" horiz-adv-x="678" 
d="M585 600v-101h33v-46h-33v-453h-57v269h-378v-269h-57v453h-37v46h37v101h57v-101h378v101h57zM150 322h378v131h-378v-131z" />
    <glyph glyph-name="hbar" unicode="&#x127;" horiz-adv-x="455" 
d="M9 463v40h54v165h56v-165h144v-40h-144v-160h2q16 20 48 35.5t75 15.5q72 0 113 -43.5t41 -115.5v-195h-56v188q0 53 -28.5 85.5t-81.5 32.5q-52 0 -81 -30t-32 -65v-211h-56v463h-54z" />
    <glyph glyph-name="Itilde" unicode="&#x128;" horiz-adv-x="236" 
d="M146 600v-600h-57v600h57zM185 666q-29 0 -70.5 25t-59.5 25q-19 0 -27 -9.5t-14 -27.5l-4 -13l-40 4l5 22q14 68 75 68q28 0 69.5 -24.5t59.5 -24.5q33 0 42 37l3 12l40 -4l-4 -21q-13 -69 -75 -69z" />
    <glyph glyph-name="itilde" unicode="&#x129;" horiz-adv-x="186" 
d="M65 0v346h56v-346h-56zM157 445q-29 0 -70.5 25t-59.5 25q-19 0 -27 -9.5t-14 -27.5l-4 -13l-40 4l5 22q14 68 75 68q28 0 69.5 -24.5t59.5 -24.5q33 0 42 37l3 12l40 -4l-4 -21q-13 -69 -75 -69z" />
    <glyph glyph-name="Imacron" unicode="&#x12a;" horiz-adv-x="236" 
d="M146 600v-600h-57v600h57zM-11 673v38h260v-38h-260z" />
    <glyph glyph-name="imacron" unicode="&#x12b;" horiz-adv-x="186" 
d="M65 0v346h56v-346h-56zM-39 445v38h260v-38h-260z" />
    <glyph glyph-name="Ibreve" unicode="&#x12c;" horiz-adv-x="236" 
d="M146 600v-600h-57v600h57zM201 808h46q0 -58 -36.5 -95.5t-91.5 -37.5t-91 37.5t-36 95.5h45q0 -39 23 -63.5t59 -24.5q36 -1 59 23.5t23 64.5z" />
    <glyph glyph-name="ibreve" unicode="&#x12d;" horiz-adv-x="186" 
d="M65 0v346h56v-346h-56zM174 583h46q0 -58 -36.5 -95.5t-91.5 -37.5t-91 37.5t-36 95.5h45q0 -39 23 -63.5t59 -24.5q36 -1 59 23.5t23 64.5z" />
    <glyph glyph-name="Iogonek" unicode="&#x12e;" horiz-adv-x="236" 
d="M158 -88l19 -25q-21 -23 -59 -23q-34 0 -52.5 17.5t-18.5 48.5q0 43 43 70h-1v600h57v-600q-7 -2 -17.5 -6.5t-27.5 -21t-17 -36.5q0 -38 38 -38q10 0 19 3.5t13 6.5z" />
    <glyph glyph-name="iogonek" unicode="&#x12f;" horiz-adv-x="187" 
d="M134 -88l19 -25q-21 -23 -59 -23q-34 0 -52.5 17.5t-18.5 48.5q0 43 43 70v346h56v-346q-7 -2 -17.5 -6.5t-27.5 -21t-17 -36.5q0 -38 38 -38q10 0 19 3.5t13 6.5zM94 490q-16 0 -27 11t-11 27t11 27.5t27 11.5t27.5 -11.5t11.5 -27.5t-11 -27t-28 -11z" />
    <glyph glyph-name="Idotaccent" unicode="&#x130;" horiz-adv-x="236" 
d="M146 600v-600h-57v600h57zM72 742q0 21 14 35t34 14q21 0 34.5 -14t13.5 -35t-13.5 -34.5t-34.5 -13.5q-20 0 -34 13.5t-14 34.5z" />
    <glyph glyph-name="dotlessi" unicode="&#x131;" horiz-adv-x="187" 
d="M65 0v346h56v-346h-56z" />
    <glyph glyph-name="IJ" unicode="&#x132;" horiz-adv-x="758" 
d="M146 600v-600h-57v600h57zM336 32l28 44q45 -35 111 -35q143 0 143 159v400h57v-411q0 -100 -51 -151.5t-144 -51.5q-41 0 -77.5 12t-49 20.5t-17.5 13.5z" />
    <glyph glyph-name="ij" unicode="&#x133;" horiz-adv-x="417" 
d="M93 490q-16 0 -27 11t-11 27t11 27.5t27 11.5q17 0 28 -11.5t11 -27.5t-11 -27t-28 -11zM65 0v346h56v-346h-56zM198 -184l12 43q19 -12 40 -12q48 0 48 62v437h57v-439q0 -108 -94 -108q-17 0 -32.5 4.5t-22.5 8.5zM327 490q-17 0 -28 11t-11 27t11 27.5t28 11.5
q16 0 26.5 -11t10.5 -28q0 -16 -10.5 -27t-26.5 -11z" />
    <glyph glyph-name="Jcircumflex" unicode="&#x134;" horiz-adv-x="447" 
d="M442 637l-105 111l-106 -111h-36v11l110 147h63l110 -147v-11h-36zM25 32l28 44q45 -35 111 -35q143 0 143 159v400h57v-411q0 -100 -51 -151.5t-144 -51.5q-41 0 -77.5 12t-49 20.5t-17.5 13.5z" />
    <glyph glyph-name="jcircumflex" unicode="&#x135;" horiz-adv-x="181" 
d="M-46 -182l17 43q20 -12 42 -12q26 0 37.5 15.5t11.5 49.5v432h57v-437q0 -110 -97 -110q-18 0 -35 4.5t-25 9.5zM196 419l-105 111l-106 -111h-36v11l110 147h63l110 -147v-11h-36z" />
    <glyph glyph-name="Kcommaaccent" unicode="&#x136;" horiz-adv-x="586" 
d="M274 -78q0 18 12 30t32 12t33 -13t13 -34q0 -20 -14 -45l-27 -48h-42l22 38l13 16v3q-19 1 -30.5 12t-11.5 29zM146 600v-346l353 346h67v-11l-242 -238l242 -340v-11h-64l-221 309l-135 -133v-176h-57v600h57z" />
    <glyph glyph-name="kcommaaccent" unicode="&#x137;" horiz-adv-x="383" 
d="M158 -78q0 18 12 30t32 12t33 -13t13 -34q0 -20 -14 -45l-27 -48h-42l22 38l13 16v3q-19 1 -30.5 12t-11.5 29zM283 346h68l-173 -169l200 -177h-79l-179 162h-2v-162h-56v668h56v-481h2z" />
    <glyph glyph-name="kgreenlandic" unicode="&#x138;" horiz-adv-x="384" 
d="M283 346h67l-172 -169l200 -177h-79l-179 162h-2v-162h-56v346h56v-159h2z" />
    <glyph glyph-name="Lacute" unicode="&#x139;" horiz-adv-x="516" 
d="M218 785l-83 -147h-35v11l48 147h70v-11zM504 0h-415v600h57v-547h358v-53z" />
    <glyph glyph-name="lacute" unicode="&#x13a;" horiz-adv-x="186" 
d="M194 864l-83 -147h-35v11l48 147h70v-11zM65 0v668h56v-668h-56z" />
    <glyph glyph-name="Lcommaaccent" unicode="&#x13b;" horiz-adv-x="516" 
d="M247 -78q0 18 12 30t32 12t33 -13t13 -34q0 -20 -14 -45l-27 -48h-42l22 38l13 16v3q-19 1 -30.5 12t-11.5 29zM504 0h-415v600h57v-547h358v-53z" />
    <glyph glyph-name="lcommaaccent" unicode="&#x13c;" horiz-adv-x="186" 
d="M51 -78q0 18 12 30t32 12t33 -13t13 -34q0 -20 -14 -45l-27 -48h-42l22 38l13 16v3q-19 1 -30.5 12t-11.5 29zM65 0v668h56v-668h-56z" />
    <glyph glyph-name="Lcaron" unicode="&#x13d;" horiz-adv-x="517" 
d="M338 558q0 18 12 30t32 12t33 -13t13 -34q0 -20 -14 -45l-27 -48h-42l22 38l13 16v3q-19 1 -30.5 12t-11.5 29zM504 0h-415v600h57v-547h358v-53z" />
    <glyph glyph-name="lcaron" unicode="&#x13e;" horiz-adv-x="186" 
d="M172 628q0 18 12 30t32 12t33 -13t13 -34q0 -20 -14 -45l-27 -48h-42l22 38l13 16v3q-19 1 -30.5 12t-11.5 29zM65 0v668h56v-668h-56z" />
    <glyph glyph-name="Ldot" unicode="&#x13f;" horiz-adv-x="517" 
d="M504 0h-415v600h57v-547h358v-53zM341 352q0 21 14 35t34 14q21 0 34.5 -14t13.5 -35t-13.5 -34.5t-34.5 -13.5q-20 0 -34 13.5t-14 34.5z" />
    <glyph glyph-name="ldot" unicode="&#x140;" horiz-adv-x="287" 
d="M65 0v668h56v-668h-56zM188 298q0 21 14 35t34 14q21 0 34.5 -14t13.5 -35t-13.5 -34.5t-34.5 -13.5q-20 0 -34 13.5t-14 34.5z" />
    <glyph glyph-name="Lslash" unicode="&#x141;" horiz-adv-x="525" 
d="M33 230l-18 30l83 48v292h57v-259l128 74l18 -30l-146 -85v-247h358v-53h-415v267z" />
    <glyph glyph-name="lslash" unicode="&#x142;" horiz-adv-x="261" 
d="M31 229l-16 28l95 55v356h56v-324l85 50l17 -28l-102 -59v-307h-56v274z" />
    <glyph glyph-name="Nacute" unicode="&#x143;" horiz-adv-x="696" 
d="M441 785l-83 -147h-35v11l48 147h70v-11zM606 600v-600h-18l-442 478v-478h-57v600h18l442 -477v477h57z" />
    <glyph glyph-name="nacute" unicode="&#x144;" horiz-adv-x="455" 
d="M344 566l-83 -147h-35v11l48 147h70v-11zM119 205v-205h-56v346h39l7 -56h3q43 64 132 64q72 0 113 -43.5t41 -115.5v-195h-56v188q0 53 -28.5 85.5t-81.5 32.5q-55 0 -84 -32.5t-29 -68.5z" />
    <glyph glyph-name="Ncommaaccent" unicode="&#x145;" horiz-adv-x="696" 
d="M321 -78q0 18 12 30t32 12t33 -13t13 -34q0 -20 -14 -45l-27 -48h-42l22 38l13 16v3q-19 1 -30.5 12t-11.5 29zM606 600v-600h-18l-442 478v-478h-57v600h18l442 -477v477h57z" />
    <glyph glyph-name="ncommaaccent" unicode="&#x146;" horiz-adv-x="455" 
d="M183 -78q0 18 12 30t32 12t33 -13t13 -34q0 -20 -14 -45l-27 -48h-42l22 38l13 16v3q-19 1 -30.5 12t-11.5 29zM119 205v-205h-56v346h39l7 -56h3q43 64 132 64q72 0 113 -43.5t41 -115.5v-195h-56v188q0 53 -28.5 85.5t-81.5 32.5q-55 0 -84 -32.5t-29 -68.5z" />
    <glyph glyph-name="Ncaron" unicode="&#x147;" horiz-adv-x="696" 
d="M349 685l105 111h36v-11l-110 -147h-63l-110 147v11h36zM606 600v-600h-18l-442 478v-478h-57v600h18l442 -477v477h57z" />
    <glyph glyph-name="ncaron" unicode="&#x148;" horiz-adv-x="455" 
d="M236 466l105 111h36v-11l-110 -147h-63l-110 147v11h36zM119 205v-205h-56v346h39l7 -56h3q43 64 132 64q72 0 113 -43.5t41 -115.5v-195h-56v188q0 53 -28.5 85.5t-81.5 32.5q-55 0 -84 -32.5t-29 -68.5z" />
    <glyph glyph-name="napostrophe" unicode="&#x149;" horiz-adv-x="455" 
d="M41 571q0 18 12 30t32 12t33 -13t13 -34q0 -20 -14 -45l-27 -48h-42l22 38l13 16v3q-19 1 -30.5 12.5t-11.5 28.5zM119 205v-205h-56v346h39l7 -56h3q43 64 132 64q72 0 113 -43.5t41 -115.5v-195h-56v188q0 53 -28.5 85.5t-81.5 32.5q-55 0 -84 -32.5t-29 -68.5z" />
    <glyph glyph-name="Eng" unicode="&#x14a;" horiz-adv-x="696" 
d="M606 600v-691q0 -110 -97 -110q-18 0 -35 4.5t-25 9.5l-8 5l16 43q21 -12 43 -12q49 0 49 63v130l-403 436v-478h-57v600h18l442 -477v477h57z" />
    <glyph glyph-name="eng" unicode="&#x14b;" horiz-adv-x="455" 
d="M119 205v-205h-56v346h39l7 -56h3q43 64 132 64q72 0 113 -43.5t41 -115.5v-283q0 -110 -96 -110q-18 0 -35 4.5t-25 9.5l-8 4l17 44q20 -13 42 -13q49 0 49 66v271q0 53 -28.5 85.5t-81.5 32.5q-55 0 -84 -32.5t-29 -68.5z" />
    <glyph glyph-name="Omacron" unicode="&#x14c;" horiz-adv-x="708" 
d="M223 669v38h260v-38h-260zM354 -14q-139 0 -224 89t-85 224q0 136 85 225t224 89t223.5 -89t84.5 -225q0 -135 -85 -224t-223 -89zM354 40q114 0 182.5 75t68.5 184q0 110 -68.5 185t-182.5 75t-182.5 -75t-68.5 -185t68.5 -184.5t182.5 -74.5z" />
    <glyph glyph-name="omacron" unicode="&#x14d;" horiz-adv-x="447" 
d="M94 445v38h260v-38h-260zM410 171q0 -81 -54 -130t-133 -49t-132.5 49t-53.5 130q0 82 53.5 132.5t132.5 50.5t133 -51t54 -132zM223 38q55 0 93.5 36.5t38.5 97.5t-38.5 98.5t-93.5 37.5q-54 0 -92 -37.5t-38 -98.5t37.5 -97.5t92.5 -36.5z" />
    <glyph glyph-name="Obreve" unicode="&#x14e;" horiz-adv-x="708" 
d="M354 -14q-139 0 -224 89t-85 224q0 136 85 225t224 89t223.5 -89t84.5 -225q0 -135 -85 -224t-223 -89zM354 40q114 0 182.5 75t68.5 184q0 110 -68.5 185t-182.5 75t-182.5 -75t-68.5 -185t68.5 -184.5t182.5 -74.5zM434 809h46q0 -58 -36.5 -95.5t-91.5 -37.5t-91 37.5
t-36 95.5h45q0 -39 23 -63.5t59 -24.5q36 -1 59 23.5t23 64.5z" />
    <glyph glyph-name="obreve" unicode="&#x14f;" horiz-adv-x="447" 
d="M410 171q0 -81 -54 -130t-133 -49t-132.5 49t-53.5 130q0 82 53.5 132.5t132.5 50.5t133 -51t54 -132zM223 38q55 0 93.5 36.5t38.5 97.5t-38.5 98.5t-93.5 37.5q-54 0 -92 -37.5t-38 -98.5t37.5 -97.5t92.5 -36.5zM306 583h46q0 -58 -36.5 -95.5t-91.5 -37.5t-91 37.5
t-36 95.5h45q0 -39 23 -63.5t59 -24.5q36 -1 59 23.5t23 64.5z" />
    <glyph glyph-name="Ohungarumlaut" unicode="&#x150;" horiz-adv-x="708" 
d="M361 784l-77 -147h-35v11l48 147h64v-11zM519 784l-77 -147h-35v11l47 147h65v-11zM354 -14q-139 0 -224 89t-85 224q0 136 85 225t224 89t223.5 -89t84.5 -225q0 -135 -85 -224t-223 -89zM354 40q114 0 182.5 75t68.5 184q0 110 -68.5 185t-182.5 75t-182.5 -75
t-68.5 -185t68.5 -184.5t182.5 -74.5z" />
    <glyph glyph-name="ohungarumlaut" unicode="&#x151;" horiz-adv-x="447" 
d="M238 566l-77 -147h-35v11l48 147h64v-11zM396 566l-77 -147h-35v11l47 147h65v-11zM410 171q0 -81 -54 -130t-133 -49t-132.5 49t-53.5 130q0 82 53.5 132.5t132.5 50.5t133 -51t54 -132zM223 38q55 0 93.5 36.5t38.5 97.5t-38.5 98.5t-93.5 37.5q-54 0 -92 -37.5
t-38 -98.5t37.5 -97.5t92.5 -36.5z" />
    <glyph glyph-name="OE" unicode="&#x152;" horiz-adv-x="1078" 
d="M353 -14q-139 0 -224 89t-85 224q0 136 85 225t224 89q164 0 251 -123v110h434v-53h-377v-225h332v-53h-332v-216h377v-53h-434v109q-87 -123 -251 -123zM353 40q114 0 182.5 75t68.5 184q0 110 -68.5 185t-182.5 75t-182.5 -75t-68.5 -185t68.5 -184.5t182.5 -74.5z" />
    <glyph glyph-name="oe" unicode="&#x153;" horiz-adv-x="735" 
d="M657 69l20 -39q-5 -4 -15 -10.5t-43.5 -17.5t-70.5 -11q-114 0 -166 81q-52 -80 -159 -80q-79 0 -132.5 49t-53.5 130q0 82 53.5 132.5t132.5 50.5q50 0 91.5 -21.5t66.5 -60.5q50 82 152 82q79 0 124 -47.5t45 -123.5v-19h-291q2 -59 41.5 -92.5t96.5 -33.5q31 0 58 8
t39 16zM223 38q55 0 93.5 36.5t38.5 97.5t-38.5 98.5t-93.5 37.5q-54 0 -92 -37.5t-38 -98.5t37.5 -97.5t92.5 -36.5zM532 308q-46 0 -77.5 -26.5t-40.5 -74.5h233q-5 44 -35.5 72.5t-79.5 28.5z" />
    <glyph glyph-name="Racute" unicode="&#x154;" horiz-adv-x="623" 
d="M392 785l-83 -147h-35v11l48 147h70v-11zM89 0v600h239q114 0 176 -50.5t62 -147.5q0 -74 -39.5 -121.5t-108.5 -65.5v-4l162 -197v-14h-61l-169 204h-204v-204h-57zM508 400q0 73 -48 110t-132 37h-182v-290h192q77 0 123.5 36t46.5 107z" />
    <glyph glyph-name="racute" unicode="&#x155;" horiz-adv-x="281" 
d="M271 565l-83 -147h-35v11l48 147h70v-11zM277 334l-19 -45q-18 11 -46 11q-37 0 -62 -26.5t-30 -65.5v-208h-56v346h39l7 -56h2q39 58 103 58q17 0 32.5 -3.5t22.5 -6.5z" />
    <glyph glyph-name="Rcommaaccent" unicode="&#x156;" horiz-adv-x="623" 
d="M278 -78q0 18 12 30t32 12t33 -13t13 -34q0 -20 -14 -45l-27 -48h-42l22 38l13 16v3q-19 1 -30.5 12t-11.5 29zM89 0v600h239q114 0 176 -50.5t62 -147.5q0 -74 -39.5 -121.5t-108.5 -65.5v-4l162 -197v-14h-61l-169 204h-204v-204h-57zM508 400q0 73 -48 110t-132 37
h-182v-290h192q77 0 123.5 36t46.5 107z" />
    <glyph glyph-name="rcommaaccent" unicode="&#x157;" horiz-adv-x="281" 
d="M50 -78q0 18 12 30t32 12t33 -13t13 -34q0 -20 -14 -45l-27 -48h-42l22 38l13 16v3q-19 1 -30.5 12t-11.5 29zM277 334l-19 -45q-18 11 -46 11q-37 0 -62 -26.5t-30 -65.5v-208h-56v346h39l7 -56h2q39 58 103 58q17 0 32.5 -3.5t22.5 -6.5z" />
    <glyph glyph-name="Rcaron" unicode="&#x158;" horiz-adv-x="623" 
d="M302 692l105 111h36v-11l-110 -147h-63l-110 147v11h36zM89 0v600h239q114 0 176 -50.5t62 -147.5q0 -74 -39.5 -121.5t-108.5 -65.5v-4l162 -197v-14h-61l-169 204h-204v-204h-57zM508 400q0 73 -48 110t-132 37h-182v-290h192q77 0 123.5 36t46.5 107z" />
    <glyph glyph-name="rcaron" unicode="&#x159;" horiz-adv-x="281" 
d="M171 466l105 111h36v-11l-110 -147h-63l-110 147v11h36zM277 334l-19 -45q-18 11 -46 11q-37 0 -62 -26.5t-30 -65.5v-208h-56v346h39l7 -56h2q39 58 103 58q17 0 32.5 -3.5t22.5 -6.5z" />
    <glyph glyph-name="Sacute" unicode="&#x15a;" horiz-adv-x="531" 
d="M363 785l-83 -147h-35v11l48 147h70v-11zM46 55l32 44q7 -7 21 -16.5t61.5 -26t100.5 -16.5q86 0 128 30t42 82q0 48 -39 75.5t-135 54.5q-110 32 -159.5 69t-49.5 103q0 75 59 117t160 42q64 0 116 -14t72 -28l20 -14l-31 -47q-7 5 -20.5 13.5t-59 22t-97.5 13.5
q-70 0 -115.5 -27.5t-45.5 -77.5q0 -42 38.5 -66.5t135.5 -51.5q111 -31 160 -72t49 -111q0 -75 -56.5 -121t-170.5 -46q-41 0 -78.5 7t-61.5 17t-42 20.5t-26 17.5z" />
    <glyph glyph-name="sacute" unicode="&#x15b;" horiz-adv-x="375" 
d="M292 566l-83 -147h-35v11l48 147h70v-11zM35 31l23 40q52 -33 128 -33q49 0 75 14.5t26 39.5q0 22 -25.5 36t-61.5 22t-72.5 18t-62 32t-25.5 56q0 44 37 71t109 27q41 0 76.5 -7t50.5 -14l15 -7l-21 -46q-41 28 -116 28q-97 0 -97 -51q0 -21 25.5 -34t62 -20.5t72.5 -17
t61.5 -32.5t25.5 -59q0 -45 -38 -73.5t-117 -28.5q-46 0 -83.5 9.5t-52.5 19.5z" />
    <glyph glyph-name="Scircumflex" unicode="&#x15c;" horiz-adv-x="531" 
d="M368 645l-105 111l-106 -111h-36v11l110 147h63l110 -147v-11h-36zM46 55l32 44q7 -7 21 -16.5t61.5 -26t100.5 -16.5q86 0 128 30t42 82q0 48 -39 75.5t-135 54.5q-110 32 -159.5 69t-49.5 103q0 75 59 117t160 42q64 0 116 -14t72 -28l20 -14l-31 -47q-7 5 -20.5 13.5
t-59 22t-97.5 13.5q-70 0 -115.5 -27.5t-45.5 -77.5q0 -42 38.5 -66.5t135.5 -51.5q111 -31 160 -72t49 -111q0 -75 -56.5 -121t-170.5 -46q-41 0 -78.5 7t-61.5 17t-42 20.5t-26 17.5z" />
    <glyph glyph-name="scircumflex" unicode="&#x15d;" horiz-adv-x="375" 
d="M296 419l-105 111l-106 -111h-36v11l110 147h63l110 -147v-11h-36zM35 31l23 40q52 -33 128 -33q49 0 75 14.5t26 39.5q0 22 -25.5 36t-61.5 22t-72.5 18t-62 32t-25.5 56q0 44 37 71t109 27q41 0 76.5 -7t50.5 -14l15 -7l-21 -46q-41 28 -116 28q-97 0 -97 -51
q0 -21 25.5 -34t62 -20.5t72.5 -17t61.5 -32.5t25.5 -59q0 -45 -38 -73.5t-117 -28.5q-46 0 -83.5 9.5t-52.5 19.5z" />
    <glyph glyph-name="Scedilla" unicode="&#x15e;" horiz-adv-x="531" 
d="M243 -60l-14 17l15 30q-60 2 -109.5 19t-68.5 33l-20 16l32 44q7 -7 21 -16.5t61.5 -26t100.5 -16.5q86 0 128 30t42 82q0 48 -39 75.5t-135 54.5q-110 32 -159.5 69t-49.5 103q0 75 59 117t160 42q64 0 116 -14t72 -28l20 -14l-31 -47q-7 5 -20.5 13.5t-59 22
t-97.5 13.5q-70 0 -115.5 -27.5t-45.5 -77.5q0 -42 38.5 -66.5t135.5 -51.5q111 -31 160 -72t49 -111q0 -72 -52 -117t-157 -49l-8 -17q30 0 49.5 -16t19.5 -47t-21 -49.5t-59 -18.5q-21 0 -38 6.5t-24 12.5l-7 7l14 26q22 -21 55 -21q46 0 46 38q0 17 -12.5 26.5t-31.5 9.5
z" />
    <glyph glyph-name="scedilla" unicode="&#x15f;" horiz-adv-x="375" 
d="M162 -60l-14 17l19 36q-40 2 -73 11.5t-46 17.5l-13 9l23 40q52 -33 128 -33q49 0 75 14.5t26 39.5q0 22 -25.5 36t-61.5 22t-72.5 18t-62 32t-25.5 56q0 44 37 71t109 27q41 0 76.5 -7t50.5 -14l15 -7l-21 -46q-41 28 -116 28q-97 0 -97 -51q0 -21 25.5 -34t62 -20.5
t72.5 -17t61.5 -32.5t25.5 -59q0 -43 -34 -70.5t-104 -30.5l-12 -23q30 0 49.5 -16t19.5 -47t-21 -49.5t-59 -18.5q-21 0 -38 6.5t-24 12.5l-7 7l14 26q22 -21 55 -21q46 0 46 38q0 17 -12.5 26.5t-31.5 9.5z" />
    <glyph glyph-name="Scaron" unicode="&#x160;" horiz-adv-x="531" 
d="M264 685l105 111h36v-11l-110 -147h-63l-110 147v11h36zM46 55l32 44q7 -7 21 -16.5t61.5 -26t100.5 -16.5q86 0 128 30t42 82q0 48 -39 75.5t-135 54.5q-110 32 -159.5 69t-49.5 103q0 75 59 117t160 42q64 0 116 -14t72 -28l20 -14l-31 -47q-7 5 -20.5 13.5t-59 22
t-97.5 13.5q-70 0 -115.5 -27.5t-45.5 -77.5q0 -42 38.5 -66.5t135.5 -51.5q111 -31 160 -72t49 -111q0 -75 -56.5 -121t-170.5 -46q-41 0 -78.5 7t-61.5 17t-42 20.5t-26 17.5z" />
    <glyph glyph-name="scaron" unicode="&#x161;" horiz-adv-x="375" 
d="M188 466l105 111h36v-11l-110 -147h-63l-110 147v11h36zM35 31l23 40q52 -33 128 -33q49 0 75 14.5t26 39.5q0 22 -25.5 36t-61.5 22t-72.5 18t-62 32t-25.5 56q0 44 37 71t109 27q41 0 76.5 -7t50.5 -14l15 -7l-21 -46q-41 28 -116 28q-97 0 -97 -51q0 -21 25.5 -34
t62 -20.5t72.5 -17t61.5 -32.5t25.5 -59q0 -45 -38 -73.5t-117 -28.5q-46 0 -83.5 9.5t-52.5 19.5z" />
    <glyph glyph-name="Tcommaaccent" unicode="&#x162;" horiz-adv-x="519" 
d="M213 -78q0 18 12 30t32 12t33 -13t13 -34q0 -20 -14 -45l-27 -48h-42l22 38l13 16v3q-19 1 -30.5 12t-11.5 29zM17 547v53h485v-53h-215v-547h-56v547h-214z" />
    <glyph glyph-name="tcommaaccent" unicode="&#x163;" horiz-adv-x="308" 
d="M131 -78q0 18 12 30t32 12t33 -13t13 -34q0 -20 -14 -45l-27 -48h-42l22 38l13 16v3q-19 1 -30.5 12t-11.5 29zM14 346h71v104h56v-104h142v-46h-142v-156q0 -104 87 -104q12 0 24 3.5t18 7.5l7 4l19 -40q-29 -23 -76 -23q-135 0 -135 151v157h-71v46z" />
    <glyph glyph-name="Tcaron" unicode="&#x164;" horiz-adv-x="519" 
d="M260 692l105 111h36v-11l-110 -147h-63l-110 147v11h36zM17 547v53h485v-53h-215v-547h-56v547h-214z" />
    <glyph glyph-name="tcaron" unicode="&#x165;" horiz-adv-x="308" 
d="M249 571q0 18 12 30t32 12t33 -13t13 -34q0 -20 -14 -45l-27 -48h-42l22 38l13 16v3q-19 1 -30.5 12.5t-11.5 28.5zM14 346h71v104h56v-104h142v-46h-142v-156q0 -104 87 -104q12 0 24 3.5t18 7.5l7 4l19 -40q-29 -23 -76 -23q-135 0 -135 151v157h-71v46z" />
    <glyph glyph-name="Tbar" unicode="&#x166;" horiz-adv-x="526" 
d="M20 547v53h485v-53h-215v-217h112v-46h-112v-284h-56v284h-107v46h107v217h-214z" />
    <glyph glyph-name="tbar" unicode="&#x167;" horiz-adv-x="312" 
d="M18 346h71v104h56v-104h142v-46h-142v-89h108v-46h-108v-21q0 -104 87 -104q12 0 24 3.5t18 7.5l7 4l19 -40q-29 -23 -76 -23q-135 0 -135 151v22h-66v46h66v89h-71v46z" />
    <glyph glyph-name="Utilde" unicode="&#x168;" horiz-adv-x="657" 
d="M328 -14q-116 0 -182 72t-66 192v350h57v-350q0 -95 49.5 -152.5t141.5 -57.5q93 0 142.5 57.5t49.5 152.5v350h56v-350q0 -121 -65.5 -192.5t-182.5 -71.5zM394 696q-29 0 -70.5 25t-59.5 25q-19 0 -27 -9.5t-14 -27.5l-4 -13l-40 4l5 22q14 68 75 68q28 0 69.5 -24.5
t59.5 -24.5q33 0 42 37l3 12l40 -4l-4 -21q-13 -69 -75 -69z" />
    <glyph glyph-name="utilde" unicode="&#x169;" horiz-adv-x="451" 
d="M333 141v205h56v-346h-37l-10 55h-3q-5 -10 -15.5 -21.5t-42.5 -26.5t-74 -15q-71 0 -110.5 43.5t-39.5 115.5v195h56v-188q0 -54 26.5 -86t79.5 -32q55 0 84.5 32.5t29.5 68.5zM296 445q-29 0 -70.5 25t-59.5 25q-19 0 -27 -9.5t-14 -27.5l-4 -13l-40 4l5 22
q14 68 75 68q28 0 69.5 -24.5t59.5 -24.5q33 0 42 37l3 12l40 -4l-4 -21q-13 -69 -75 -69z" />
    <glyph glyph-name="Umacron" unicode="&#x16a;" horiz-adv-x="657" 
d="M328 -14q-116 0 -182 72t-66 192v350h57v-350q0 -95 49.5 -152.5t141.5 -57.5q93 0 142.5 57.5t49.5 152.5v350h56v-350q0 -121 -65.5 -192.5t-182.5 -71.5zM197 676v38h260v-38h-260z" />
    <glyph glyph-name="umacron" unicode="&#x16b;" horiz-adv-x="451" 
d="M333 141v205h56v-346h-37l-10 55h-3q-5 -10 -15.5 -21.5t-42.5 -26.5t-74 -15q-71 0 -110.5 43.5t-39.5 115.5v195h56v-188q0 -54 26.5 -86t79.5 -32q55 0 84.5 32.5t29.5 68.5zM95 445v38h260v-38h-260z" />
    <glyph glyph-name="Ubreve" unicode="&#x16c;" horiz-adv-x="657" 
d="M328 -14q-116 0 -182 72t-66 192v350h57v-350q0 -95 49.5 -152.5t141.5 -57.5q93 0 142.5 57.5t49.5 152.5v350h56v-350q0 -121 -65.5 -192.5t-182.5 -71.5zM410 809h46q0 -58 -36.5 -95.5t-91.5 -37.5t-91 37.5t-36 95.5h45q0 -39 23 -63.5t59 -24.5q36 -1 59 23.5
t23 64.5z" />
    <glyph glyph-name="ubreve" unicode="&#x16d;" horiz-adv-x="451" 
d="M333 141v205h56v-346h-37l-10 55h-3q-5 -10 -15.5 -21.5t-42.5 -26.5t-74 -15q-71 0 -110.5 43.5t-39.5 115.5v195h56v-188q0 -54 26.5 -86t79.5 -32q55 0 84.5 32.5t29.5 68.5zM308 583h46q0 -58 -36.5 -95.5t-91.5 -37.5t-91 37.5t-36 95.5h45q0 -39 23 -63.5t59 -24.5
q36 -1 59 23.5t23 64.5z" />
    <glyph glyph-name="Uring" unicode="&#x16e;" horiz-adv-x="657" 
d="M335 641q-38 0 -64 25.5t-26 62.5t26 62.5t64 25.5q39 0 64.5 -25t25.5 -63t-25.5 -63t-64.5 -25zM386 729q0 23 -13.5 37t-37.5 14q-23 0 -37 -14t-14 -37t14 -37t37 -14q24 0 37.5 14t13.5 37zM328 -14q-116 0 -182 72t-66 192v350h57v-350q0 -95 49.5 -152.5
t141.5 -57.5q93 0 142.5 57.5t49.5 152.5v350h56v-350q0 -121 -65.5 -192.5t-182.5 -71.5z" />
    <glyph glyph-name="uring" unicode="&#x16f;" horiz-adv-x="451" 
d="M227 433q-38 0 -64 25.5t-26 62.5t26 62.5t64 25.5q39 0 64.5 -25t25.5 -63t-25.5 -63t-64.5 -25zM278 521q0 23 -13.5 37t-37.5 14q-23 0 -37 -14t-14 -37t14 -37t37 -14q24 0 37.5 14t13.5 37zM333 141v205h56v-346h-37l-10 55h-3q-5 -10 -15.5 -21.5t-42.5 -26.5
t-74 -15q-71 0 -110.5 43.5t-39.5 115.5v195h56v-188q0 -54 26.5 -86t79.5 -32q55 0 84.5 32.5t29.5 68.5z" />
    <glyph glyph-name="Uhungarumlaut" unicode="&#x170;" horiz-adv-x="657" 
d="M328 -14q-116 0 -182 72t-66 192v350h57v-350q0 -95 49.5 -152.5t141.5 -57.5q93 0 142.5 57.5t49.5 152.5v350h56v-350q0 -121 -65.5 -192.5t-182.5 -71.5zM344 785l-77 -147h-35v11l48 147h64v-11zM502 785l-77 -147h-35v11l47 147h65v-11z" />
    <glyph glyph-name="uhungarumlaut" unicode="&#x171;" horiz-adv-x="451" 
d="M333 141v205h56v-346h-37l-10 55h-3q-5 -10 -15.5 -21.5t-42.5 -26.5t-74 -15q-71 0 -110.5 43.5t-39.5 115.5v195h56v-188q0 -54 26.5 -86t79.5 -32q55 0 84.5 32.5t29.5 68.5zM238 566l-77 -147h-35v11l48 147h64v-11zM396 566l-77 -147h-35v11l47 147h65v-11z" />
    <glyph glyph-name="Uogonek" unicode="&#x172;" horiz-adv-x="657" 
d="M371 -96l19 -25q-21 -23 -59 -23q-34 0 -52.5 17.5t-18.5 48.5q0 38 37 66q-102 9 -159.5 79.5t-57.5 182.5v350h57v-350q0 -95 49.5 -152.5t141.5 -57.5q93 0 142.5 57.5t49.5 152.5v350h56v-350q0 -116 -61 -187t-170 -76q-48 -24 -48 -59q0 -38 38 -38q10 0 19 3.5
t13 6.5z" />
    <glyph glyph-name="uogonek" unicode="&#x173;" horiz-adv-x="451" 
d="M333 141v205h56v-346q-7 -2 -17.5 -6.5t-27.5 -21t-17 -36.5q0 -38 38 -38q10 0 19 3.5t13 6.5l4 4l19 -25q-21 -23 -59 -23q-34 0 -52.5 17.5t-18.5 48.5q0 49 60 79l-8 46h-3q-5 -10 -15.5 -21.5t-42.5 -26.5t-74 -15q-71 0 -110.5 43.5t-39.5 115.5v195h56v-188
q0 -54 26.5 -86t79.5 -32q55 0 84.5 32.5t29.5 68.5z" />
    <glyph glyph-name="Wcircumflex" unicode="&#x174;" horiz-adv-x="809" 
d="M509 645l-105 111l-106 -111h-36v11l110 147h63l110 -147v-11h-36zM253 138l130 462h44l129 -462l8 -40h4l10 40l156 462h60l-208 -600h-49l-129 460l-3 17h-3l-3 -17l-130 -460h-47l-208 600h60l157 -462l9 -40h4z" />
    <glyph glyph-name="wcircumflex" unicode="&#x175;" horiz-adv-x="578" 
d="M396 419l-105 111l-106 -111h-36v11l110 147h63l110 -147v-11h-36zM154 0l-136 346h59l92 -256q6 -16 6 -24h5l6 24l82 256h47l81 -256q5 -13 5 -24h6q0 8 6 24l93 256h55l-136 -346h-47l-82 256q-5 15 -5 21h-3q0 -6 -5 -21l-82 -256h-47z" />
    <glyph glyph-name="Ycircumflex" unicode="&#x176;" horiz-adv-x="540" 
d="M376 638l-105 111l-106 -111h-36v11l110 147h63l110 -147v-11h-36zM291 317l176 283h66l-235 -370v-230h-57v230l-234 370h67l178 -283l15 -31h8z" />
    <glyph glyph-name="ycircumflex" unicode="&#x177;" horiz-adv-x="405" 
d="M391 346l-257 -538h-59l102 207l-162 331h62l121 -256q6 -12 6 -24h3q0 12 6 24l120 256h58zM315 419l-105 111l-106 -111h-36v11l110 147h63l110 -147v-11h-36z" />
    <glyph glyph-name="Ydieresis" unicode="&#x178;" horiz-adv-x="540" 
d="M143 705q0 16 11.5 27.5t27.5 11.5t27.5 -11.5t11.5 -27.5t-11.5 -27.5t-27.5 -11.5t-27.5 11.5t-11.5 27.5zM321 705q0 16 11.5 27.5t27.5 11.5t27.5 -11.5t11.5 -27.5t-11.5 -27.5t-27.5 -11.5t-27.5 11.5t-11.5 27.5zM291 317l176 283h66l-235 -370v-230h-57v230
l-234 370h67l178 -283l15 -31h8z" />
    <glyph glyph-name="Zacute" unicode="&#x179;" horiz-adv-x="535" 
d="M363 785l-83 -147h-35v11l48 147h70v-11zM31 0v14l384 533h-374v53h468v-14l-380 -533h370v-53h-468z" />
    <glyph glyph-name="zacute" unicode="&#x17a;" horiz-adv-x="373" 
d="M282 566l-83 -147h-35v11l48 147h70v-11zM33 28l229 271h-228v47h306v-26l-229 -273h229v-47h-307v28z" />
    <glyph glyph-name="Zdotaccent" unicode="&#x17b;" horiz-adv-x="535" 
d="M31 0v14l384 533h-374v53h468v-14l-380 -533h370v-53h-468zM214 742q0 21 14 35t34 14q21 0 34.5 -14t13.5 -35t-13.5 -34.5t-34.5 -13.5q-20 0 -34 13.5t-14 34.5z" />
    <glyph glyph-name="zdotaccent" unicode="&#x17c;" horiz-adv-x="373" 
d="M33 28l229 271h-228v47h306v-26l-229 -273h229v-47h-307v28zM139 518q0 21 14 35t34 14q21 0 34.5 -14t13.5 -35t-13.5 -34.5t-34.5 -13.5q-20 0 -34 13.5t-14 34.5z" />
    <glyph glyph-name="Zcaron" unicode="&#x17d;" horiz-adv-x="535" 
d="M266 684l105 111h36v-11l-110 -147h-63l-110 147v11h36zM31 0v14l384 533h-374v53h468v-14l-380 -533h370v-53h-468z" />
    <glyph glyph-name="zcaron" unicode="&#x17e;" horiz-adv-x="373" 
d="M189 466l105 111h36v-11l-110 -147h-63l-110 147v11h36zM33 28l229 271h-228v47h306v-26l-229 -273h229v-47h-307v28z" />
    <glyph glyph-name="florin" unicode="&#x192;" horiz-adv-x="337" 
d="M113 -86v387h-84v45h84v155q0 165 142 165q12 0 23 -1.5t19.5 -4.5t14.5 -5.5t10 -4.5l5 -2l-17 -47q-25 13 -48 13q-93 0 -93 -113v-155h143v-45h-143v-392q0 -110 -97 -110q-18 0 -35 4.5t-25 9.5l-8 5l18 43q20 -12 42 -12q26 0 37.5 15.5t11.5 49.5z" />
    <glyph glyph-name="Aringacute" unicode="&#x1fa;" horiz-adv-x="608" 
d="M5 0l278 574q-31 6 -51 30t-20 57q0 37 26 62.5t64 25.5q39 0 64.5 -25t25.5 -63q0 -32 -19.5 -56t-50.5 -30l281 -575h-65l-57 114h-355l-57 -114h-64zM448 179l-141 305h-8l-140 -305l-6 -11h301zM403 912l-83 -147h-35v11l48 147h70v-11zM353 661q0 23 -13.5 37
t-37.5 14q-23 0 -37 -14t-14 -37t14 -37t37 -14q24 0 37.5 14t13.5 37z" />
    <glyph glyph-name="aringacute" unicode="&#x1fb;" horiz-adv-x="422" 
d="M30 103q0 46 39.5 76t115.5 30q77 0 122 -35h5v25q0 107 -123 107q-29 0 -55 -7t-38 -14l-11 -7l-21 43q42 33 136 33q86 0 126 -44t40 -118v-192h-40l-6 45h-4q-6 -9 -18 -19.5t-45 -22t-75 -11.5q-73 0 -110.5 31.5t-37.5 79.5zM86 103q0 -30 26 -49.5t77 -19.5
q49 0 85 23.5t36 47.5q0 28 -35 46.5t-86 18.5q-50 0 -76.5 -18t-26.5 -49zM311 788l-83 -147h-35v11l48 147h70v-11zM208 427q-38 0 -64 25.5t-26 62.5t26 62.5t64 25.5q39 0 64.5 -25t25.5 -63t-25.5 -63t-64.5 -25zM259 515q0 23 -13.5 37t-37.5 14q-23 0 -37 -14
t-14 -37t14 -37t37 -14q24 0 37.5 14t13.5 37z" />
    <glyph glyph-name="AEacute" unicode="&#x1fc;" horiz-adv-x="906" 
d="M707 785l-83 -147h-35v11l48 147h70v-11zM-10 0l436 600h440v-53h-377v-225h331v-53h-331v-216h377v-53h-434v114h-293l-80 -114h-69zM425 508l-248 -340h255v340h-7z" />
    <glyph glyph-name="aeacute" unicode="&#x1fd;" horiz-adv-x="694" 
d="M458 566l-83 -147h-35v11l48 147h70v-11zM617 67l20 -38q-5 -4 -15 -10.5t-44 -17t-71 -10.5q-105 0 -160 74q-49 -73 -164 -73q-75 0 -114 31.5t-39 79.5q0 47 38.5 76t108.5 29q85 0 129 -36h4v23q0 113 -121 113q-29 0 -55.5 -7t-39.5 -13l-12 -7l-19 42q52 31 137 31
q107 0 146 -72q50 72 146 72q80 0 124.5 -47t44.5 -124v-18h-291q2 -60 41 -94t96 -34q31 0 58.5 7.5t39.5 15.5zM84 103q0 -68 104 -68q49 0 85.5 21t36.5 48q0 28 -37 46t-85 18q-104 0 -104 -65zM491 308q-47 0 -78.5 -27t-39.5 -76h233q-4 45 -34 74t-81 29z" />
    <glyph glyph-name="Oslashacute" unicode="&#x1fe;" horiz-adv-x="706" 
d="M354 -14q-127 0 -211 76l-62 -61l-33 34l63 62q-66 85 -66 202q0 136 85 225t224 89q125 0 208 -75l55 54l33 -34l-55 -54q67 -86 67 -205q0 -135 -85 -224t-223 -89zM354 40q114 0 182.5 75t68.5 184q0 95 -52 164l-369 -361q67 -62 170 -62zM103 299q0 -94 50 -162
l368 361q-67 61 -167 61q-114 0 -182.5 -75t-68.5 -185zM451 785l-83 -147h-35v11l48 147h70v-11z" />
    <glyph glyph-name="oslashacute" unicode="&#x1ff;" horiz-adv-x="447" 
d="M411 171q0 -81 -54 -130t-133 -49q-73 0 -121 39l-40 -40l-23 24l39 39q-41 47 -41 117q0 82 53.5 132.5t132.5 50.5q67 0 116 -37l42 42l23 -24l-41 -40q47 -50 47 -124zM224 38q55 0 93.5 36.5t38.5 97.5q0 49 -28 87l-190 -191q36 -30 86 -30zM94 172q0 -45 23 -81
l188 189q-34 28 -81 28q-54 0 -92 -37.5t-38 -98.5zM316 566l-83 -147h-35v11l48 147h70v-11z" />
    <glyph glyph-name="Scommaaccent" unicode="&#x218;" horiz-adv-x="531" 
d="M234 -78q0 18 12 30t32 12t33 -13t13 -34q0 -20 -14 -45l-27 -48h-42l22 38l13 16v3q-19 1 -30.5 12t-11.5 29zM46 55l32 44q7 -7 21 -16.5t61.5 -26t100.5 -16.5q86 0 128 30t42 82q0 48 -39 75.5t-135 54.5q-110 32 -159.5 69t-49.5 103q0 75 59 117t160 42
q64 0 116 -14t72 -28l20 -14l-31 -47q-7 5 -20.5 13.5t-59 22t-97.5 13.5q-70 0 -115.5 -27.5t-45.5 -77.5q0 -42 38.5 -66.5t135.5 -51.5q111 -31 160 -72t49 -111q0 -75 -56.5 -121t-170.5 -46q-41 0 -78.5 7t-61.5 17t-42 20.5t-26 17.5z" />
    <glyph glyph-name="scommaaccent" unicode="&#x219;" horiz-adv-x="375" 
d="M149 -78q0 18 12 30t32 12t33 -13t13 -34q0 -20 -14 -45l-27 -48h-42l22 38l13 16v3q-19 1 -30.5 12t-11.5 29zM35 31l23 40q52 -33 128 -33q49 0 75 14.5t26 39.5q0 22 -25.5 36t-61.5 22t-72.5 18t-62 32t-25.5 56q0 44 37 71t109 27q41 0 76.5 -7t50.5 -14l15 -7
l-21 -46q-41 28 -116 28q-97 0 -97 -51q0 -21 25.5 -34t62 -20.5t72.5 -17t61.5 -32.5t25.5 -59q0 -45 -38 -73.5t-117 -28.5q-46 0 -83.5 9.5t-52.5 19.5z" />
    <glyph glyph-name="uni021A" unicode="&#x21a;" horiz-adv-x="519" 
d="M213 -78q0 18 12 30t32 12t33 -13t13 -34q0 -20 -14 -45l-27 -48h-42l22 38l13 16v3q-19 1 -30.5 12t-11.5 29zM17 547v53h485v-53h-215v-547h-56v547h-214z" />
    <glyph glyph-name="uni021B" unicode="&#x21b;" horiz-adv-x="308" 
d="M131 -78q0 18 12 30t32 12t33 -13t13 -34q0 -20 -14 -45l-27 -48h-42l22 38l13 16v3q-19 1 -30.5 12t-11.5 29zM14 346h71v104h56v-104h142v-46h-142v-156q0 -104 87 -104q12 0 24 3.5t18 7.5l7 4l19 -40q-29 -23 -76 -23q-135 0 -135 151v157h-71v46z" />
    <glyph glyph-name="dotlessj" unicode="&#x237;" horiz-adv-x="181" 
d="M-46 -182l17 43q20 -12 42 -12q26 0 37.5 15.5t11.5 49.5v432h57v-437q0 -110 -97 -110q-18 0 -35 4.5t-25 9.5z" />
    <glyph glyph-name="schwa" unicode="&#x259;" horiz-adv-x="416" 
d="M75 277l-18 40q49 37 136 37q81 0 133.5 -50t52.5 -130q0 -84 -50 -133.5t-126 -49.5q-81 0 -126 46t-45 125v21h292q-4 59 -43.5 92.5t-95.5 33.5q-31 0 -58.5 -8t-39.5 -16zM203 32q46 0 79 28.5t41 82.5h-238q1 -48 31.5 -79.5t86.5 -31.5z" />
    <glyph glyph-name="circumflex" unicode="&#x2c6;" horiz-adv-x="329" 
d="M274 419l-105 111l-106 -111h-36v11l110 147h63l110 -147v-11h-36z" />
    <glyph glyph-name="caron" unicode="&#x2c7;" horiz-adv-x="341" 
d="M169 466l105 111h36v-11l-110 -147h-63l-110 147v11h36z" />
    <glyph glyph-name="breve" unicode="&#x2d8;" horiz-adv-x="350" 
d="M254 583h46q0 -58 -36.5 -95.5t-91.5 -37.5t-91 37.5t-36 95.5h45q0 -39 23 -63.5t59 -24.5q36 -1 59 23.5t23 64.5z" />
    <glyph glyph-name="dotaccent" unicode="&#x2d9;" horiz-adv-x="302" 
d="M102 518q0 21 14 35t34 14q21 0 34.5 -14t13.5 -35t-13.5 -34.5t-34.5 -13.5q-20 0 -34 13.5t-14 34.5z" />
    <glyph glyph-name="ring" unicode="&#x2da;" horiz-adv-x="269" 
d="M143 433q-38 0 -64 25.5t-26 62.5t26 62.5t64 25.5q39 0 64.5 -25t25.5 -63t-25.5 -63t-64.5 -25zM194 521q0 23 -13.5 37t-37.5 14q-23 0 -37 -14t-14 -37t14 -37t37 -14q24 0 37.5 14t13.5 37z" />
    <glyph glyph-name="ogonek" unicode="&#x2db;" horiz-adv-x="201" 
d="M148 -88l19 -25q-21 -23 -59 -23q-34 0 -52.5 17.5t-18.5 48.5q0 30 23 53t46 31l23 8l7 -22q-7 -2 -17.5 -6.5t-27.5 -21t-17 -36.5q0 -38 38 -38q10 0 19 3.5t13 6.5z" />
    <glyph glyph-name="tilde" unicode="&#x2dc;" horiz-adv-x="430" 
d="M278 445q-29 0 -70.5 25t-59.5 25q-19 0 -27 -9.5t-14 -27.5l-4 -13l-40 4l5 22q14 68 75 68q28 0 69.5 -24.5t59.5 -24.5q33 0 42 37l3 12l40 -4l-4 -21q-13 -69 -75 -69z" />
    <glyph glyph-name="hungarumlaut" unicode="&#x2dd;" horiz-adv-x="415" 
d="M168 566l-77 -147h-35v11l48 147h64v-11zM326 566l-77 -147h-35v11l47 147h65v-11z" />
    <glyph glyph-name="pi" unicode="&#x3c0;" horiz-adv-x="477" 
d="M20 346h438v-47h-69v-299h-56v299h-189v-299h-55v299h-69v47z" />
    <glyph glyph-name="Wgrave" unicode="&#x1e80;" horiz-adv-x="809" 
d="M386 638l-83 147v11h70l48 -147v-11h-35zM253 138l130 462h44l129 -462l8 -40h4l10 40l156 462h60l-208 -600h-49l-129 460l-3 17h-3l-3 -17l-130 -460h-47l-208 600h60l157 -462l9 -40h4z" />
    <glyph glyph-name="wgrave" unicode="&#x1e81;" horiz-adv-x="578" 
d="M154 0l-136 346h59l92 -256q6 -16 6 -24h5l6 24l82 256h47l81 -256q5 -13 5 -24h6q0 8 6 24l93 256h55l-136 -346h-47l-82 256q-5 15 -5 21h-3q0 -6 -5 -21l-82 -256h-47zM271 419l-83 147v11h70l48 -147v-11h-35z" />
    <glyph glyph-name="Wacute" unicode="&#x1e82;" horiz-adv-x="809" 
d="M508 785l-83 -147h-35v11l48 147h70v-11zM253 138l130 462h44l129 -462l8 -40h4l10 40l156 462h60l-208 -600h-49l-129 460l-3 17h-3l-3 -17l-130 -460h-47l-208 600h60l157 -462l9 -40h4z" />
    <glyph glyph-name="wacute" unicode="&#x1e83;" horiz-adv-x="578" 
d="M396 566l-83 -147h-35v11l48 147h70v-11zM154 0l-136 346h59l92 -256q6 -16 6 -24h5l6 24l82 256h47l81 -256q5 -13 5 -24h6q0 8 6 24l93 256h55l-136 -346h-47l-82 256q-5 15 -5 21h-3q0 -6 -5 -21l-82 -256h-47z" />
    <glyph glyph-name="Wdieresis" unicode="&#x1e84;" horiz-adv-x="809" 
d="M278 712q0 16 11.5 27.5t27.5 11.5t27.5 -11.5t11.5 -27.5t-11.5 -27.5t-27.5 -11.5t-27.5 11.5t-11.5 27.5zM456 712q0 16 11.5 27.5t27.5 11.5t27.5 -11.5t11.5 -27.5t-11.5 -27.5t-27.5 -11.5t-27.5 11.5t-11.5 27.5zM253 138l130 462h44l129 -462l8 -40h4l10 40
l156 462h60l-208 -600h-49l-129 460l-3 17h-3l-3 -17l-130 -460h-47l-208 600h60l157 -462l9 -40h4z" />
    <glyph glyph-name="wdieresis" unicode="&#x1e85;" horiz-adv-x="578" 
d="M163 483q0 16 11.5 27.5t27.5 11.5t27.5 -11.5t11.5 -27.5t-11.5 -27.5t-27.5 -11.5t-27.5 11.5t-11.5 27.5zM341 483q0 16 11.5 27.5t27.5 11.5t27.5 -11.5t11.5 -27.5t-11.5 -27.5t-27.5 -11.5t-27.5 11.5t-11.5 27.5zM154 0l-136 346h59l92 -256q6 -16 6 -24h5l6 24
l82 256h47l81 -256q5 -13 5 -24h6q0 8 6 24l93 256h55l-136 -346h-47l-82 256q-5 15 -5 21h-3q0 -6 -5 -21l-82 -256h-47z" />
    <glyph glyph-name="Ygrave" unicode="&#x1ef2;" horiz-adv-x="540" 
d="M291 317l176 283h66l-235 -370v-230h-57v230l-234 370h67l178 -283l15 -31h8zM250 639l-83 147v11h70l48 -147v-11h-35z" />
    <glyph glyph-name="ygrave" unicode="&#x1ef3;" horiz-adv-x="405" 
d="M391 346l-257 -538h-59l102 207l-162 331h62l121 -256q6 -12 6 -24h3q0 12 6 24l120 256h58zM189 419l-83 147v11h70l48 -147v-11h-35z" />
    <glyph glyph-name="enspace" unicode="&#x2002;" horiz-adv-x="500" 
 />
    <glyph glyph-name="emspace" unicode="&#x2003;" horiz-adv-x="1000" 
 />
    <glyph glyph-name="threeperemspace" unicode="&#x2004;" horiz-adv-x="333" 
 />
    <glyph glyph-name="fourperemspace" unicode="&#x2005;" horiz-adv-x="250" 
 />
    <glyph glyph-name="figurespace" unicode="&#x2007;" horiz-adv-x="600" 
 />
    <glyph glyph-name="thinspace" unicode="&#x2009;" horiz-adv-x="133" 
 />
    <glyph glyph-name="hairspace" unicode="&#x200a;" horiz-adv-x="75" 
 />
    <glyph glyph-name="endash" unicode="&#x2013;" horiz-adv-x="457" 
d="M57 264v48h344v-48h-344z" />
    <glyph glyph-name="emdash" unicode="&#x2014;" horiz-adv-x="729" 
d="M57 264v48h616v-48h-616z" />
    <glyph glyph-name="quoteleft" unicode="&#x2018;" horiz-adv-x="184" 
d="M128 545q0 -18 -12 -30t-30 -12t-30.5 12t-12.5 31q0 25 14 50l42 76h42l-38 -67l-12 -16v-3q17 -2 27 -13.5t10 -27.5z" />
    <glyph glyph-name="quoteright" unicode="&#x2019;" horiz-adv-x="184" 
d="M61 614q0 18 12 30t30 12t30.5 -12t12.5 -31q0 -25 -14 -50l-42 -76h-42l38 67l12 16v3q-17 2 -27 13.5t-10 27.5z" />
    <glyph glyph-name="quotesinglbase" unicode="&#x201a;" horiz-adv-x="131" 
d="M23 33q0 18 12 30t30 12t30.5 -12t12.5 -31q0 -25 -14 -50l-42 -76h-42l38 67l12 16v3q-17 2 -27 13.5t-10 27.5z" />
    <glyph glyph-name="quotedblleft" unicode="&#x201c;" horiz-adv-x="337" 
d="M128 545q0 -18 -12 -30t-30 -12t-30.5 12t-12.5 31q0 25 14 50l42 76h42l-38 -67l-12 -16v-3q17 -2 27 -13.5t10 -27.5zM280 545q0 -18 -12 -30t-30 -12t-30.5 12t-12.5 31q0 25 14 50l42 76h42l-38 -67l-12 -16v-3q17 -2 27 -13.5t10 -27.5z" />
    <glyph glyph-name="quotedblright" unicode="&#x201d;" horiz-adv-x="338" 
d="M57 614q0 18 12 30t30 12t30.5 -12t12.5 -31q0 -25 -14 -50l-42 -76h-42l38 67l12 16v3q-17 2 -27 13.5t-10 27.5zM211 614q0 18 12 30t30 12t30.5 -12t12.5 -31q0 -25 -14 -50l-42 -76h-42l38 67l12 16v3q-17 2 -27 13.5t-10 27.5z" />
    <glyph glyph-name="quotedblbase" unicode="&#x201e;" horiz-adv-x="288" 
d="M23 33q0 18 12 30t30 12t30.5 -12t12.5 -31q0 -25 -14 -50l-42 -76h-42l38 67l12 16v3q-17 2 -27 13.5t-10 27.5zM180 33q0 18 12 30t30 12t30.5 -12t12.5 -31q0 -25 -14 -50l-42 -76h-42l38 67l12 16v3q-17 2 -27 13.5t-10 27.5z" />
    <glyph glyph-name="dagger" unicode="&#x2020;" horiz-adv-x="422" 
d="M34 297v48h153v255h49v-255h152v-48h-152l-7 -489h-35l-7 489h-153z" />
    <glyph glyph-name="daggerdbl" unicode="&#x2021;" horiz-adv-x="455" 
d="M51 368v48h153v184h48v-184h153v-48h-153v-243h153v-48h-153l-6 -269h-36l-6 269h-153v48h153v243h-153z" />
    <glyph glyph-name="bullet" unicode="&#x2022;" horiz-adv-x="295" 
d="M80 173q0 27 20 47t48 20q27 0 46.5 -20t19.5 -47q0 -28 -19.5 -47.5t-46.5 -19.5q-28 0 -48 19.5t-20 47.5z" />
    <glyph glyph-name="ellipsis" unicode="&#x2026;" horiz-adv-x="435" 
d="M24 36q0 19 13 31.5t32 12.5q18 0 31 -12.5t13 -31.5t-13 -32t-31 -13q-19 0 -32 12.5t-13 32.5zM173 36q0 19 13 31.5t31 12.5q19 0 32 -12.5t13 -31.5q0 -20 -13 -32.5t-32 -12.5q-18 0 -31 13t-13 32zM323 36q0 19 12.5 31.5t31.5 12.5t32 -12.5t13 -31.5
q0 -20 -13 -32.5t-32 -12.5t-31.5 13t-12.5 32z" />
    <glyph glyph-name="perthousand" unicode="&#x2030;" horiz-adv-x="986" 
d="M170 613q61 0 96 -43t35 -107q0 -62 -35 -106t-96 -44t-96 44t-35 106q0 64 35 107t96 43zM170 360q38 0 58.5 29t20.5 74t-20.5 74t-58.5 29t-58.5 -29t-20.5 -74t20.5 -74t58.5 -29zM549 602l39 -32l-469 -564l-38 32zM500 292q61 0 96.5 -43.5t35.5 -106.5
q0 -62 -35.5 -106t-96.5 -44t-96.5 44t-35.5 106q0 63 35.5 106.5t96.5 43.5zM500 246q-38 0 -59 -29t-21 -75q0 -44 21 -73t59 -29q37 0 57.5 29t20.5 73q0 46 -20.5 75t-57.5 29zM820 246q-37 0 -58 -29t-21 -75q0 -44 21 -73t58 -29t58 29t21 73q0 46 -21 75t-58 29z
M820 292q61 0 96.5 -43.5t35.5 -106.5q0 -62 -35.5 -106t-96.5 -44t-96.5 44t-35.5 106q0 63 35.5 106.5t96.5 43.5z" />
    <glyph glyph-name="guilsinglleft" unicode="&#x2039;" horiz-adv-x="241" 
d="M42 162v19l106 155h50v-8l-105 -153v-5l105 -155v-8h-50z" />
    <glyph glyph-name="guilsinglright" unicode="&#x203a;" horiz-adv-x="241" 
d="M199 181v-19l-106 -155h-50v8l105 155v5l-105 153v8h50z" />
    <glyph glyph-name="fraction" unicode="&#x2044;" horiz-adv-x="180" 
d="M-128 9l-31 25l469 564l31 -25z" />
    <glyph glyph-name="zerosuperior" unicode="&#x2070;" horiz-adv-x="381" 
d="M191 677q74 0 117 -50.5t43 -122.5q0 -70 -43 -120t-117 -50q-73 0 -116 50t-43 120q0 72 43 122.5t116 50.5zM191 637q-53 0 -83.5 -38.5t-30.5 -94.5q0 -54 30.5 -92t83.5 -38t83 38t30 92q0 56 -30 94.5t-83 38.5z" />
    <glyph glyph-name="foursuperior" unicode="&#x2074;" horiz-adv-x="315" 
d="M20 433v26l187 209h31v-198h54v-37h-54v-91h-41v91h-177zM77 469v-2l51 3h69v135h-1l-84 -98z" />
    <glyph glyph-name="fivesuperior" unicode="&#x2075;" horiz-adv-x="313" 
d="M55 668h209v-38h-174l-3 -102q30 7 74 7q61 0 93.5 -25.5t32.5 -72.5q0 -45 -34.5 -74t-97.5 -29q-34 0 -66 12t-44.5 20.5t-17.5 13.5l24 29q38 -36 101 -36q45 0 68.5 17.5t23.5 46.5q0 30 -23.5 47.5t-69.5 17.5q-25 0 -47 -4t-32 -8l-9 -3l-14 9z" />
    <glyph glyph-name="sixsuperior" unicode="&#x2076;" horiz-adv-x="329" 
d="M168 573q63 0 100.5 -31t37.5 -85q0 -57 -37.5 -90t-100.5 -33t-100 33t-37 90q0 61 50 121l76 91h50l-63 -73q-6 -8 -12.5 -14.5t-10.5 -9.5l-4 -3v-3q21 7 51 7zM168 536q-43 0 -69 -21t-26 -59q0 -39 25.5 -61.5t69.5 -22.5t69.5 22.5t25.5 61.5q0 38 -25.5 59
t-69.5 21z" />
    <glyph glyph-name="sevensuperior" unicode="&#x2077;" horiz-adv-x="280" 
d="M266 668v-13l-133 -313h-47l124 288h-188v38h244z" />
    <glyph glyph-name="eightsuperior" unicode="&#x2078;" horiz-adv-x="337" 
d="M32 434q0 59 61 80q-50 24 -50 75q0 38 35 63t91 25t91 -25t35 -63q0 -50 -51 -75q63 -22 63 -80q0 -41 -37 -70.5t-101 -29.5q-63 0 -100 29.5t-37 70.5zM169 496q-45 0 -70 -16t-25 -44q0 -27 25.5 -46t69.5 -19q43 0 68.5 19t25.5 46q0 28 -24.5 44t-69.5 16zM169 527
q40 0 62.5 16.5t22.5 41.5q0 24 -23.5 39.5t-61.5 15.5t-61 -15.5t-23 -39.5q0 -25 22 -41.5t62 -16.5z" />
    <glyph glyph-name="ninesuperior" unicode="&#x2079;" horiz-adv-x="332" 
d="M164 438q-62 0 -100 31t-38 85q0 56 38 89.5t100 33.5q63 0 100 -33t37 -90q0 -61 -50 -121l-76 -91h-50l63 73q6 8 12.5 14.5t10.5 9.5l4 3v2q-24 -6 -51 -6zM164 475q43 0 69 21t26 59q0 39 -25.5 61.5t-69.5 22.5t-69.5 -22.5t-25.5 -61.5q0 -38 25.5 -59t69.5 -21z
" />
    <glyph glyph-name="zeroinferior" unicode="&#x2080;" horiz-adv-x="380" 
d="M191 210q74 0 117 -50.5t43 -122.5q0 -70 -43 -120t-117 -50q-73 0 -116 50t-43 120q0 72 43 122.5t116 50.5zM191 170q-53 0 -83.5 -38.5t-30.5 -94.5q0 -54 30.5 -92t83.5 -38t83 38t30 92q0 56 -30 94.5t-83 38.5z" />
    <glyph glyph-name="oneinferior" unicode="&#x2081;" horiz-adv-x="190" 
d="M19 163v38h117v-326h-43v288h-74z" />
    <glyph glyph-name="twoinferior" unicode="&#x2082;" horiz-adv-x="315" 
d="M27 -125v16l157 141q41 36 41 72q0 30 -19.5 48t-60.5 18q-24 0 -46.5 -8.5t-33.5 -16.5t-12 -10l-22 32q5 5 14.5 12t40 19t62.5 12q62 0 91.5 -28t29.5 -74q0 -51 -51 -96l-111 -99h181v-38h-261z" />
    <glyph glyph-name="threeinferior" unicode="&#x2083;" horiz-adv-x="314" 
d="M38 163v38h232v-13l-81 -119q47 -4 72 -29t25 -67q0 -46 -34.5 -76t-97.5 -30q-34 0 -66 12t-44.5 20.5t-17.5 13.5l24 31q42 -37 103 -37q43 0 66.5 18.5t23.5 47.5q0 61 -76 63h-38v14l78 113h-169z" />
    <glyph glyph-name="fourinferior" unicode="&#x2084;" horiz-adv-x="316" 
d="M21 -34v26l187 209l1 -1v1h30v-198h54v-37h-54v-91h-41v91h-177zM111 38l-36 -38l54 3h69v135h-1z" />
    <glyph glyph-name="fiveinferior" unicode="&#x2085;" horiz-adv-x="313" 
d="M54 201h210v-38h-174l-3 -102q30 7 74 7q60 0 92.5 -25.5t32.5 -72.5q0 -45 -34 -74t-98 -29q-33 0 -65 12t-44.5 20.5t-17.5 13.5l23 29q39 -36 102 -36q45 0 68.5 17.5t23.5 46.5q0 30 -23.5 47.5t-69.5 17.5q-25 0 -47 -3.5t-32 -7.5l-9 -4l-14 9z" />
    <glyph glyph-name="sixinferior" unicode="&#x2086;" horiz-adv-x="329" 
d="M168 106q63 0 100.5 -31t37.5 -85q0 -57 -37.5 -90t-100.5 -33t-100 33t-37 90q0 61 50 121l76 91h50l-63 -73q-6 -8 -12.5 -14.5t-10.5 -9.5l-4 -3v-3q21 7 51 7zM168 69q-43 0 -69 -21t-26 -59q0 -39 25.5 -61.5t69.5 -22.5t69.5 22.5t25.5 61.5q0 38 -25.5 59
t-69.5 21z" />
    <glyph glyph-name="seveninferior" unicode="&#x2087;" horiz-adv-x="280" 
d="M266 201v-13l-133 -313h-47l124 288h-188v38h244z" />
    <glyph glyph-name="eightinferior" unicode="&#x2088;" horiz-adv-x="337" 
d="M32 -33q0 59 61 80q-50 24 -50 75q0 38 35 63t91 25t91 -25t35 -63q0 -50 -51 -75q63 -22 63 -80q0 -41 -37 -70.5t-101 -29.5q-63 0 -100 29.5t-37 70.5zM169 29q-45 0 -70 -16t-25 -44q0 -27 25.5 -46t69.5 -19q43 0 68.5 19t25.5 46q0 28 -24.5 44t-69.5 16zM169 60
q40 0 62.5 16.5t22.5 41.5q0 24 -23.5 39.5t-61.5 15.5t-61 -15.5t-23 -39.5q0 -25 22 -41.5t62 -16.5z" />
    <glyph glyph-name="nineinferior" unicode="&#x2089;" horiz-adv-x="329" 
d="M162 -29q-62 0 -100 31t-38 85q0 56 38 89.5t100 33.5q63 0 100 -33t37 -90q0 -61 -50 -121l-76 -91h-50l63 73q6 8 12.5 14.5t10.5 9.5l4 3v3q-28 -7 -51 -7zM162 8q43 0 69 21t26 59q0 39 -25.5 61.5t-69.5 22.5t-69.5 -22.5t-25.5 -61.5q0 -38 25.5 -59t69.5 -21z" />
    <glyph glyph-name="colonmonetary" unicode="&#x20a1;" horiz-adv-x="605" 
d="M527 108l33 -43l-8.5 -8.5t-24.5 -19t-41 -24t-58 -19t-75 -8.5h-3l-15 -88h-49l16 92q-33 4 -63 15l-19 -107h-47l22 127q-72 40 -113 112.5t-41 161.5q0 120 71 205.5t185 103.5l16 88h47l-15 -84q5 1 8 1q29 0 57 -5l16 88h48l-18 -99q31 -10 57 -25.5t37 -25.5
l10 -11l-33 -44q-30 30 -80 50l-87 -501q47 1 89 18t60 34zM99 299q0 -66 28.5 -122.5t78.5 -91.5l81 466q-85 -22 -136.5 -91.5t-51.5 -160.5zM248 61q24 -11 63 -18l90 512q-20 4 -47 4q-12 0 -18 -1z" />
    <glyph glyph-name="naira" unicode="&#x20a6;" horiz-adv-x="743" 
d="M631 600v-119h47v-47h-47v-267h47v-45h-47v-122h-18l-113 122h-329v-122h-57v122h-63v45h63v267h-63v47h63v119h18l110 -119h332v119h57zM286 434l247 -267h41v267h-288zM171 434v-267h287l-247 267h-40z" />
    <glyph glyph-name="rupee" unicode="&#x20a8;" horiz-adv-x="982" 
d="M634 31l23 40q52 -33 128 -33q49 0 75 14.5t26 39.5q0 22 -25.5 36t-62 22t-72.5 18t-61.5 32t-25.5 56q0 44 37 71t109 27q41 0 76.5 -7t50.5 -14l15 -7l-21 -46q-41 28 -116 28q-97 0 -97 -51q0 -21 25.5 -34t61.5 -20.5t72.5 -17t62 -32.5t25.5 -59q0 -45 -38 -73.5
t-117 -28.5q-46 0 -83.5 9.5t-52.5 19.5zM97 0v600h239q114 0 176 -50.5t62 -147.5q0 -74 -39.5 -121.5t-108.5 -65.5v-4l162 -197v-14h-61l-169 204h-204v-204h-57zM516 400q0 73 -48 110t-132 37h-182v-290h192q77 0 123.5 36t46.5 107z" />
    <glyph glyph-name="won" unicode="&#x20a9;" horiz-adv-x="938" 
d="M881 183v-46h-183l-47 -137h-49l-38 137h-192l-38 -137h-47l-48 137h-183v46h167l-84 242h-83v46h67l-44 129h60l44 -129h228l37 129h44l36 -129h227l44 129h60l-45 -129h67v-46h-83l-84 -242h167zM198 425l82 -242h50l68 242h-200zM541 425l67 -242h50l82 242h-199z
M454 425l-69 -242h166l-68 242h-29zM305 98h4l9 39h-22zM629 98h4l9 39h-21zM467 477l-1 -6h5l-1 6h-3z" />
    <glyph glyph-name="sheqel" unicode="&#x20aa;" horiz-adv-x="521" 
d="M435 346v-346h-110q-59 0 -86.5 28t-39.5 88l-17 87h35l18 -72q10 -43 27 -63t58 -20h75v298h40zM86 0v346h134q117 0 117 -118v-85h-34l-2 72q-2 83 -82 83h-93v-298h-40z" />
    <glyph glyph-name="Euro" unicode="&#x20ac;" horiz-adv-x="602" 
d="M421 251v-46h-236q20 -72 70.5 -114.5t128.5 -42.5q40 0 74 15t48 29l15 15l33 -42q-2 -3 -6.5 -7.5t-20 -17t-33.5 -22t-48 -17t-63 -7.5q-104 0 -169.5 58t-87.5 153h-82v46h73q-2 16 -2 49q0 16 2 46h-73v47h81q22 96 87.5 155t170.5 59q33 0 63 -7.5t49 -17.5
t33 -20.5t20 -17.5l7 -8l-34 -42q-5 6 -15.5 16t-46 26t-75.5 16q-79 0 -129.5 -43t-70.5 -116h237v-47h-246q-2 -15 -2 -46q0 -25 3 -49h245z" />
    <glyph glyph-name="afii61289" unicode="&#x2113;" horiz-adv-x="426" 
d="M56 146l-17 25l80 63v280q0 65 40.5 109.5t105.5 44.5q66 0 106.5 -44.5t40.5 -109.5q0 -63 -25 -105.5t-78 -84.5l-137 -108v-70q0 -51 25.5 -78t72.5 -27q22 0 42.5 7.5t29.5 15.5l10 7l19 -38q-5 -5 -13.5 -11.5t-36.5 -18t-57 -11.5q-70 0 -107.5 38.5t-37.5 108.5
v40zM172 514v-238l108 86q78 62 78 150q0 47 -25.5 77t-68.5 30q-41 0 -66.5 -30t-25.5 -75z" />
    <glyph glyph-name="uni2117" unicode="&#x2117;" horiz-adv-x="570" 
d="M522 380q0 -98 -65 -165t-172 -67t-171.5 67.5t-64.5 164.5q0 99 64 165.5t172 66.5q107 0 172 -67t65 -165zM482 380q0 84 -54.5 140t-142.5 56q-89 0 -143 -55t-54 -141q0 -84 54.5 -139.5t142.5 -55.5t142.5 55.5t54.5 139.5zM206 478h92q40 0 65 -20.5t25 -54.5
q0 -37 -26 -57t-67 -20h-56v-50h-33v202zM297 448h-58v-92h56q26 0 43 12t17 34t-15.5 34t-42.5 12z" />
    <glyph glyph-name="servicemark" unicode="&#x2120;" horiz-adv-x="753" 
d="M409 281h-41v319h14l141 -132q15 14 141 132h15v-319h-41v243l-109 -103h-13l-107 102v-242zM66 312l23 30q35 -31 92 -31q79 0 79 51q0 16 -13.5 28t-28.5 18t-47 17q-52 16 -78 36.5t-26 56.5q0 40 31.5 63t85.5 23q35 0 62.5 -7.5t37.5 -14.5l10 -8l-23 -32
q-28 26 -88 26q-33 0 -54 -12.5t-21 -34.5q0 -21 19.5 -33.5t57.5 -23.5q60 -19 89.5 -39.5t29.5 -59.5q0 -40 -30.5 -65t-91.5 -25q-34 0 -63 9.5t-41 18.5z" />
    <glyph glyph-name="trademark" unicode="&#x2122;" horiz-adv-x="741" 
d="M395 281h-41v319h15l140 -132q24 22 142 132h14v-319h-41v243l-108 -103h-13l-108 103v-243zM288 600v-37h-105v-282h-42v282h-104v37h251z" />
    <glyph glyph-name="Omega" unicode="&#x2126;" horiz-adv-x="745" 
d="M55 0v50h157q-72 35 -113.5 105.5t-41.5 150.5q0 128 84.5 217.5t231.5 89.5q146 0 230.5 -89.5t84.5 -217.5q0 -80 -42 -150.5t-114 -105.5h159v-50h-282v51q94 4 158.5 79t64.5 171q0 108 -70 183t-189 75q-120 0 -189.5 -75t-69.5 -183q0 -96 64.5 -171t158.5 -79v-51
h-282z" />
    <glyph glyph-name="estimated" unicode="&#x212e;" horiz-adv-x="715" 
d="M679 278h-552v-84q28 -70 91 -111.5t150 -41.5q44 0 83 9.5t55 18.5l17 9l28 -48q-7 -5 -20.5 -12t-61 -19t-102.5 -12q-144 0 -231 88.5t-87 223.5t88 224.5t227 89.5t227.5 -89.5t88.5 -224.5zM364 559q-84 0 -146.5 -42.5t-90.5 -112.5v-79h475v79q-29 70 -91 112.5
t-147 42.5z" />
    <glyph glyph-name="onethird" unicode="&#x2153;" horiz-adv-x="723" 
d="M435 287v38h232v-13l-81 -118q46 -4 71 -29.5t25 -67.5q0 -45 -34.5 -75.5t-97.5 -30.5q-12 0 -24 1.5t-22 4t-19.5 6t-17.5 7t-15 7.5t-12.5 7.5t-9 6t-6.5 4.5l-2 2l25 31q42 -37 102 -37q44 0 67 18.5t23 48.5q0 60 -76 62h-38v14l78 113h-168zM83 8l-31 26l469 564
l31 -26zM40 562v38h118v-326h-42v288h-76z" />
    <glyph glyph-name="twothirds" unicode="&#x2154;" horiz-adv-x="846" 
d="M557 288v38h232v-13l-81 -119q96 -8 96 -96q0 -46 -34 -76t-98 -30q-33 0 -65 12t-44.5 20.5t-17.5 13.5l24 31q42 -37 103 -37q43 0 66.5 18.5t23.5 47.5q0 61 -77 63h-37v14l78 113h-169zM47 275v17l158 140q40 37 40 73q0 65 -80 65q-11 0 -22 -2t-19.5 -5t-16.5 -6.5
t-14 -7t-10.5 -6.5l-7.5 -5l-3 -2l-22 32q5 5 14.5 12t40.5 18.5t63 11.5q62 0 92 -28t30 -72q0 -52 -51 -98l-113 -99h182v-38h-261zM210 8l-31 25l469 564l31 -25z" />
    <glyph glyph-name="oneeighth" unicode="&#x215b;" horiz-adv-x="725" 
d="M413 92q0 58 63 80q-51 24 -51 75q0 38 35 63t91 25t91 -25t35 -63q0 -50 -51 -75q62 -22 62 -80q0 -41 -36.5 -70.5t-100.5 -29.5t-101 29.5t-37 70.5zM84 8l-31 26l469 564l31 -26zM551 154q-45 0 -69.5 -16t-24.5 -44t25 -46.5t69 -18.5q43 0 68.5 19t25.5 46
q0 28 -24.5 44t-69.5 16zM41 562v38h117v-326h-42v288h-75zM551 185q40 0 62 16.5t22 41.5q0 24 -23 39.5t-61 15.5t-61 -15.5t-23 -39.5q0 -25 22 -41.5t62 -16.5z" />
    <glyph glyph-name="threeeighths" unicode="&#x215c;" horiz-adv-x="798" 
d="M483 92q0 -41 37 -70.5t100 -29.5q64 0 101 29.5t37 70.5q0 58 -63 80q51 24 51 75q0 38 -35 63t-91 25t-91 -25t-35 -63q0 -50 51 -75q-62 -22 -62 -80zM54 562v38h232v-13l-81 -119q47 -4 72 -29t25 -67q0 -46 -34.5 -76t-97.5 -30q-34 0 -66 12t-44.5 20.5t-17.5 13.5
l24 31q42 -37 103 -37q43 0 66.5 18.5t23.5 47.5q0 61 -76 63h-38v14l78 113h-169zM185 8l-30 26l469 564l31 -26zM620 154q45 0 70 -16t25 -44q0 -27 -25.5 -46t-69.5 -19q-43 0 -68.5 19t-25.5 46q0 28 24.5 44t69.5 16zM620 185q-40 0 -62 16.5t-22 41.5q0 24 23 39.5
t61 15.5t61.5 -15.5t23.5 -39.5q0 -25 -22.5 -41.5t-62.5 -16.5z" />
    <glyph glyph-name="fiveeighths" unicode="&#x215d;" horiz-adv-x="791" 
d="M476 92q0 -41 37 -70.5t100 -29.5t100 29.5t37 70.5q0 58 -62 80q51 25 51 75q0 38 -35 63t-91 25t-91 -25t-35 -63q0 -51 50 -75q-61 -21 -61 -80zM66 600h209v-38h-174l-3 -102q30 7 74 7q61 0 93.5 -25.5t32.5 -72.5q0 -45 -34.5 -74t-97.5 -29q-33 0 -65.5 12
t-45 20.5t-17.5 13.5l24 29q39 -35 102 -35q91 0 91 63q0 64 -93 64q-28 0 -50 -3.5t-30 -7.5l-8 -3l-14 9zM184 8l-31 26l469 564l32 -26zM613 154q45 0 69.5 -16t24.5 -44q0 -27 -25.5 -46t-68.5 -19q-44 0 -69.5 19t-25.5 46q0 28 25 44t70 16zM613 185q-40 0 -62 16.5
t-22 41.5q0 24 23 39.5t61 15.5t61.5 -15.5t23.5 -39.5q0 -25 -22.5 -41.5t-62.5 -16.5z" />
    <glyph glyph-name="seveneighths" unicode="&#x215e;" horiz-adv-x="761" 
d="M446 92q0 -41 37 -70.5t100 -29.5q64 0 101 29.5t37 70.5q0 58 -63 80q51 25 51 75q0 38 -35 63t-91 25t-91 -25t-35 -63q0 -51 50 -75q-61 -21 -61 -80zM136 8l-31 26l469 564l31 -26zM277 600v-13l-133 -313h-46l124 288h-188v38h243zM583 154q45 0 69.5 -16t24.5 -44
q0 -27 -25.5 -46t-68.5 -19q-44 0 -69.5 19t-25.5 46q0 28 25 44t70 16zM583 185q-40 0 -62 16.5t-22 41.5q0 24 23 39.5t61 15.5t61.5 -15.5t23.5 -39.5q0 -25 -22.5 -41.5t-62.5 -16.5z" />
    <glyph glyph-name="partialdiff" unicode="&#x2202;" horiz-adv-x="483" 
d="M300 370l-139 220v10h53l177 -275q29 -45 41 -78t12 -77q0 -82 -57 -132.5t-147 -50.5q-89 0 -146.5 50.5t-57.5 132.5q0 78 57 129t148 51q43 0 85 -15v1q-14 15 -26 34zM240 35q62 0 105 38t43 97q0 61 -42.5 97t-104.5 36q-63 0 -105.5 -38.5t-42.5 -94.5
q0 -58 42.5 -96.5t104.5 -38.5z" />
    <glyph glyph-name="Delta" unicode="&#x2206;" horiz-adv-x="638" 
d="M27 0v13l285 587h14l285 -587v-13h-584zM530 50q-6 13 -92 196t-117 251h-6l-208 -447h423z" />
    <glyph glyph-name="product" unicode="&#x220f;" horiz-adv-x="684" 
d="M587 600v-600h-57v550h-376v-550h-57v600h490z" />
    <glyph glyph-name="summation" unicode="&#x2211;" horiz-adv-x="464" 
d="M45 600h370v-50h-299l196 -237v-26l-194 -237h297v-50h-370v50l204 244v11l-204 245v50z" />
    <glyph glyph-name="minus" unicode="&#x2212;" horiz-adv-x="501" 
d="M56 274v48h383v-48h-383z" />
    <glyph glyph-name="uni2219" unicode="&#x2219;" horiz-adv-x="136" 
d="M23 360q0 18 13 30.5t31 12.5t30.5 -12.5t12.5 -30.5t-12.5 -31t-30.5 -13t-31 13t-13 31z" />
    <glyph glyph-name="radical" unicode="&#x221a;" horiz-adv-x="629" 
d="M632 600l-401 -792h-17l-204 399h64l130 -266q16 -32 16 -42h7q0 2 6.5 20t8.5 22l326 659h64z" />
    <glyph glyph-name="infinity" unicode="&#x221e;" horiz-adv-x="808" 
d="M228 118q-77 0 -123.5 49t-46.5 119t46.5 119t123.5 49q59 0 99.5 -35t76.5 -96q34 61 75.5 96t100.5 35q72 0 121 -46.5t49 -121.5q0 -70 -46 -119t-124 -49q-60 0 -100.5 34.5t-76.5 94.5q-36 -61 -76 -95t-99 -34zM577 408q-48 0 -82 -32t-65 -89q33 -59 66 -91
t81 -32q58 0 91 35.5t33 86.5q0 54 -35.5 88t-88.5 34zM231 164q48 0 82 32t64 89q-32 58 -65 90.5t-81 32.5q-57 0 -90.5 -36t-33.5 -86q0 -51 33 -86.5t91 -35.5z" />
    <glyph glyph-name="integral" unicode="&#x222b;" horiz-adv-x="306" 
d="M125 1v538q0 110 97 110q18 0 35 -4.5t25 -9.5l8 -5l-17 -43q-21 12 -43 12q-26 0 -37.5 -15.5t-11.5 -49.5v-538q0 -110 -96 -110q-18 0 -35 5t-25 9l-8 5l17 43q20 -12 42 -12q26 0 37.5 15.5t11.5 49.5z" />
    <glyph glyph-name="approxequal" unicode="&#x2248;" horiz-adv-x="462" 
d="M304 180q-32 0 -76 24.5t-62 24.5q-14 0 -23.5 -6t-13 -12.5t-7.5 -18.5l-3 -12l-47 4l4 25q15 69 83 69q30 0 74.5 -25t63.5 -25q14 0 23.5 6t13 12.5t7.5 18.5l3 13l47 -4l-5 -26q-13 -68 -82 -68zM304 368q-32 0 -76 25t-62 25q-14 0 -23.5 -6t-13 -12.5t-7.5 -18.5
l-3 -13l-47 4l4 26q15 68 83 68q30 0 74.5 -24.5t63.5 -24.5q14 0 23.5 6t13 12.5t7.5 18.5l3 12l47 -4l-5 -25q-13 -69 -82 -69z" />
    <glyph glyph-name="notequal" unicode="&#x2260;" horiz-adv-x="475" 
d="M62 374v48h199l45 117l43 -16l-39 -101h103v-48h-121l-68 -179h189v-48h-208l-43 -114l-43 16l37 98h-94v48h113l68 179h-181z" />
    <glyph glyph-name="lessequal" unicode="&#x2264;" horiz-adv-x="410" 
d="M308 245l-34 -36l-192 176v13l192 181l34 -35l-163 -153zM350 139v-48h-286v48h286z" />
    <glyph glyph-name="greaterequal" unicode="&#x2265;" horiz-adv-x="410" 
d="M136 209l-34 36l163 146l-163 153l34 35l192 -181v-13zM59 91v48h286v-48h-286z" />
    <glyph glyph-name="lozenge" unicode="&#x25ca;" horiz-adv-x="451" 
d="M243 600l169 -300l-169 -300h-35l-169 300l169 300h35zM103 299l117 -215h10l116 215l-116 217h-10z" />
    <glyph glyph-name="commaaccent" unicode="&#xf6c3;" horiz-adv-x="214" 
d="M65 -78q0 18 12 30t32 12t33 -13t13 -34q0 -20 -14 -45l-27 -48h-42l22 38l13 16v3q-19 1 -30.5 12t-11.5 29z" />
    <glyph glyph-name="f_f" unicode="&#xfb00;" horiz-adv-x="649" 
d="M289 301h-135v-301h-56v301h-84v45h84v155q0 165 142 165q36 0 72 -18l-17 -47q-24 13 -48 13q-93 0 -93 -113v-155h135v-45zM632 301h-135v-301h-56v301h-84v45h84v155q0 165 142 165q36 0 72 -18l-17 -47q-24 13 -48 13q-93 0 -93 -113v-155h135v-45z" />
    <glyph glyph-name="fi" unicode="&#xfb01;" horiz-adv-x="524" 
d="M431 490q-16 0 -27 11t-11 27t11 27.5t27 11.5q17 0 28 -11.5t11 -27.5t-11 -27t-28 -11zM403 0v346h56v-346h-56zM290 301h-135v-301h-56v301h-84v45h84v155q0 165 142 165q36 0 72 -18l-17 -47q-24 13 -48 13q-93 0 -93 -113v-155h135v-45z" />
    <glyph glyph-name="fl" unicode="&#xfb02;" horiz-adv-x="515" 
d="M394 0v668h56v-668h-56zM290 301h-135v-301h-56v301h-84v45h84v155q0 165 142 165q36 0 72 -18l-17 -47q-24 13 -48 13q-93 0 -93 -113v-155h135v-45z" />
    <glyph glyph-name="f_f_i" unicode="&#xfb03;" horiz-adv-x="864" 
d="M770 490q-16 0 -27 11t-11 27t11 27.5t27 11.5t27.5 -11.5t11.5 -27.5t-11 -27t-28 -11zM742 0v346h56v-346h-56zM290 301h-135v-301h-56v301h-84v45h84v155q0 165 142 165q36 0 72 -18l-17 -47q-24 13 -48 13q-93 0 -93 -113v-155h135v-45zM632 301h-135v-301h-56v301
h-84v45h84v155q0 165 142 165q36 0 72 -18l-17 -47q-24 13 -48 13q-93 0 -93 -113v-155h135v-45z" />
    <glyph glyph-name="f_f_l" unicode="&#xfb04;" horiz-adv-x="853" 
d="M732 0v668h56v-668h-56zM290 301h-135v-301h-56v301h-84v45h84v155q0 165 142 165q36 0 72 -18l-17 -47q-24 13 -48 13q-93 0 -93 -113v-155h135v-45zM632 301h-135v-301h-56v301h-84v45h84v155q0 165 142 165q36 0 72 -18l-17 -47q-24 13 -48 13q-93 0 -93 -113v-155
h135v-45z" />
    <glyph glyph-name="three.alt" horiz-adv-x="518" 
d="M176 329h83q56 0 90 27.5t34 75.5q0 57 -41.5 92.5t-107.5 35.5q-40 0 -79 -19t-59 -37l-19 -19l-29 42q3 3 8.5 9t24.5 21t39.5 26t53.5 20.5t67 9.5q92 0 148 -48t56 -125q0 -93 -82 -134q48 -15 75.5 -51.5t27.5 -89.5q0 -80 -57.5 -129t-155.5 -49q-35 0 -69 8.5
t-57.5 20.5t-42 24t-27.5 20l-9 9l30 43q8 -8 22.5 -20t60 -32t90.5 -20q68 0 111 35t43 91q0 53 -36.5 81.5t-98.5 28.5h-94v53z" />
    <glyph glyph-name="published" horiz-adv-x="723" 
d="M361 604q142 0 227.5 -88t85.5 -217t-85.5 -216.5t-227.5 -87.5t-227.5 87.5t-85.5 216.5t85.5 217t227.5 88zM361 568q-124 0 -199 -77.5t-75 -191.5t75 -191t199 -77q125 0 200 77t75 191t-75 191.5t-200 77.5zM252 151v298h136q58 0 90.5 -29t32.5 -81
q0 -53 -32.5 -82.5t-92.5 -29.5h-91v-76h-43zM466 339q0 72 -84 72h-87v-146h87q84 0 84 74z" />
    <glyph glyph-name="registered.alt" horiz-adv-x="723" 
d="M361 604q142 0 227.5 -88t85.5 -217t-85.5 -216.5t-227.5 -87.5t-227.5 87.5t-85.5 216.5t85.5 217t227.5 88zM361 568q-124 0 -199 -77.5t-75 -191.5t75 -191t199 -77q125 0 200 77t75 191t-75 191.5t-200 77.5zM378 449q58 0 90.5 -28.5t32.5 -78.5q0 -73 -69 -95v-5
l61 -84v-7h-44l-63 87h-101v-87h-42v298h135zM456 342q0 69 -84 69h-87v-136h87q84 0 84 67z" />
    <glyph glyph-name="baht" horiz-adv-x="636" 
d="M590 164q0 -83 -60.5 -123.5t-161.5 -40.5h-76l-18 -102h-47l18 102h-149v600h253l17 96h48l-17 -98q171 -18 171 -160q0 -48 -24.5 -82t-67.5 -49v-8q114 -33 114 -135zM529 167q0 54 -41 82.5t-109 30.5h-38l-40 -230h70q71 0 114.5 29t43.5 88zM153 550v-228h148
l39 228h-187zM153 280v-230h100l40 230h-140zM508 432q0 52 -32.5 81t-87.5 35l-40 -226h19q62 0 101.5 28.5t39.5 81.5z" />
    <glyph glyph-name="peso" horiz-adv-x="687" 
d="M112 0v377h-69v46h69v177h240q106 0 167.5 -45.5t68.5 -131.5h67v-46h-67q-8 -89 -71 -135t-168 -46h-180v-196h-57zM351 249q166 0 180 128h-362v-128h182zM169 547v-124h362q-8 62 -55.5 93t-124.5 31h-182z" />
    <glyph glyph-name="R_p" horiz-adv-x="1042" 
d="M695 55h-2v-247h-56v538h39l8 -60h5q1 3 4 7.5t15 16t26.5 20.5t40 16.5t55.5 7.5q75 0 124.5 -50t49.5 -131q0 -80 -49.5 -130.5t-123.5 -50.5q-30 0 -55 6.5t-39 16t-24.5 18.5t-14.5 15zM690 173q0 -61 37.5 -97t92.5 -36t91.5 37t36.5 96q0 58 -36.5 95.5t-91.5 37.5
t-92.5 -36t-37.5 -97zM89 0v600h239q114 0 176 -50.5t62 -147.5q0 -74 -39.5 -121.5t-108.5 -65.5v-4l162 -197v-14h-61l-169 204h-204v-204h-57zM508 400q0 73 -48 110t-132 37h-182v-290h192q77 0 123.5 36t46.5 107z" />
    <glyph glyph-name="onehalf.alt" horiz-adv-x="776" 
d="M480 16v-16h261v38h-181l112 99q51 46 51 96q0 45 -30 73.5t-92 28.5q-32 0 -61.5 -10.5t-42.5 -21.5l-13 -11l22 -32q1 2 12 10t33.5 16.5t46.5 8.5q41 0 61 -18t20 -48q0 -36 -41 -72zM138 8l-31 26l469 564l31 -26zM52 562v38h116v-288h71v-38h-187v38h74v250h-74z
" />
    <glyph glyph-name="onethird.alt" horiz-adv-x="787" 
d="M498 287v38h232v-13l-80 -118q46 -4 70.5 -29.5t24.5 -67.5q0 -45 -34 -75.5t-97 -30.5q-34 0 -66 12t-44 20.5t-17 13.5l23 31q42 -37 103 -37q43 0 66.5 18.5t23.5 48.5q0 29 -21 45.5t-59 16.5h-35v14l79 113h-169zM138 8l-31 26l469 564l31 -26zM52 562v38h116v-288
h71v-38h-187v38h74v250h-74z" />
    <glyph glyph-name="onequarter.alt" horiz-adv-x="695" 
d="M388 91v26l187 209l1 -1l1 1h29v-198h54v-37h-54v-91h-40v91h-178zM141 8l-32 26l469 564l32 -26zM51 562v38h117v-288h71v-38h-188v38h75v250h-75zM478 163l-35 -38l53 3h70v135h-1z" />
    <glyph glyph-name="onefifth" horiz-adv-x="730" 
d="M457 326h210v-38h-174l-3 -102q30 7 74 7q60 0 92.5 -25.5t32.5 -72.5q0 -45 -34 -74t-98 -29q-34 0 -65.5 11.5t-45 21t-16.5 13.5l22 29q39 -35 103 -35q45 0 68 17t23 46q0 64 -93 64q-28 0 -50 -3.5t-30 -7.5l-8 -3l-13 9zM83 8l-30 26l469 564l31 -26zM41 600h117
v-326h-42v288h-75v38z" />
    <glyph glyph-name="onefifth.alt" horiz-adv-x="813" 
d="M541 326h209v-38h-174l-4 -102q30 7 75 7q60 0 92.5 -25.5t32.5 -72.5q0 -45 -34 -74t-98 -29q-34 0 -65.5 11.5t-45 21t-16.5 13.5l23 29q39 -35 102 -35q45 0 68 17t23 46q0 64 -92 64q-28 0 -50.5 -3.5t-30.5 -7.5l-8 -3l-14 9zM170 8l-31 26l469 564l31 -26zM50 562
v38h117v-288h71v-38h-188v38h75v250h-75z" />
    <glyph glyph-name="twofifths" horiz-adv-x="862" 
d="M590 326h209v-38h-174l-3 -102q30 7 74 7q61 0 93.5 -25.5t32.5 -72.5q0 -45 -34.5 -74t-98.5 -29q-33 0 -65 12t-44.5 20.5t-17.5 13.5l23 29q39 -35 102 -35q45 0 68.5 17t23.5 46q0 64 -93 64q-28 0 -50 -3.5t-30 -7.5l-8 -3l-14 9zM47 275v17l158 140q40 35 40 73
q0 65 -80 65q-11 0 -21.5 -2t-19.5 -5t-17 -6.5t-14 -7t-10 -6.5t-7 -5l-3 -2l-22 32q5 5 14.5 12t40 18.5t62.5 11.5q62 0 92 -27.5t30 -72.5q0 -53 -51 -98l-113 -99h182v-38h-261zM224 8l-31 25l469 564l31 -25z" />
    <glyph glyph-name="threefifths" horiz-adv-x="786" 
d="M510 326h209v-38h-173l-3 -102q30 7 73 7q61 0 93.5 -25.5t32.5 -72.5q0 -45 -34.5 -74t-97.5 -29q-33 0 -65.5 12t-45 20.5t-17.5 13.5l24 29q39 -35 102 -35q91 0 91 63q0 64 -92 64q-28 0 -50.5 -3.5t-30.5 -7.5l-8 -3l-14 9zM54 562v38h232v-13l-81 -119
q47 -4 72 -29t25 -67q0 -46 -34.5 -76t-97.5 -30q-34 0 -66 12t-44.5 20.5t-17.5 13.5l24 31q42 -37 103 -37q43 0 66.5 18.5t23.5 47.5q0 63 -79 63h-35v14l78 113h-169zM182 8l-30 26l469 564l31 -26z" />
    <glyph glyph-name="fourfifths" horiz-adv-x="843" 
d="M33 365v26l187 209l1 -1v1h30v-198h53v-37h-53v-91h-41v91h-177zM568 326h209v-38h-174l-3 -102q30 7 74 7q61 0 93.5 -25.5t32.5 -72.5q0 -45 -34.5 -74t-97.5 -29q-34 0 -66 12t-44.5 20.5t-17.5 13.5l24 29q38 -35 101 -35q45 0 68.5 17t23.5 46q0 64 -93 64
q-28 0 -50 -3.5t-30 -7.5l-8 -3l-14 9zM205 8l-32 25l469 564l32 -25zM123 437l-36 -38l54 3h69v135h-1z" />
    <glyph glyph-name="onesixth" horiz-adv-x="726" 
d="M555 231q63 0 100.5 -31t37.5 -85q0 -57 -37.5 -90t-100.5 -33t-100 33t-37 90q0 61 50 121l76 91h50l-63 -73q-6 -8 -12.5 -14.5t-10.5 -9.5l-4 -3v-3q21 7 51 7zM105 8l-31 26l469 564l32 -26zM555 194q-43 0 -69 -21t-26 -59q0 -39 25.5 -61.5t69.5 -22.5t69.5 22.5
t25.5 61.5q0 38 -25.5 59t-69.5 21zM41 562v38h117v-326h-42v288h-75z" />
    <glyph glyph-name="onesixth.alt" horiz-adv-x="796" 
d="M626 231q63 0 100 -31t37 -85q0 -57 -37 -90t-100 -33t-100.5 33t-37.5 90q0 60 51 121l75 91h50l-62 -73q-6 -8 -13 -14.5t-11 -9.5l-4 -3v-3q26 7 52 7zM181 8l-32 26l469 564l32 -26zM626 194q-44 0 -69.5 -21t-25.5 -59q0 -39 25.5 -61.5t69.5 -22.5q43 0 68.5 22.5
t25.5 61.5q0 38 -25.5 59t-68.5 21zM51 562v38h117v-288h71v-38h-188v38h75v250h-75z" />
    <glyph glyph-name="fivesixths" horiz-adv-x="809" 
d="M638 231q63 0 100 -31t37 -85q0 -57 -37 -90t-100 -33t-100.5 33t-37.5 90q0 60 51 121l75 91h50l-62 -73q-6 -8 -13 -14.5t-11 -9.5l-4 -3v-3q26 7 52 7zM68 600h209v-38h-174l-3 -102q30 7 74 7q61 0 93.5 -25.5t32.5 -72.5q0 -45 -34.5 -74t-97.5 -29q-33 0 -65.5 12
t-45 20.5t-17.5 13.5l24 29q39 -35 102 -35q91 0 91 63q0 64 -93 64q-28 0 -50 -3.5t-30 -7.5l-8 -3l-14 9zM200 8l-31 26l469 564l31 -26zM638 194q-43 0 -69 -21t-26 -59q0 -39 25.5 -61.5t69.5 -22.5q43 0 68.5 22.5t25.5 61.5q0 38 -25.5 59t-68.5 21z" />
    <glyph glyph-name="oneeighth.alt" horiz-adv-x="814" 
d="M502 92q0 -41 37 -70.5t100 -29.5q64 0 101 29.5t37 70.5q0 58 -62 80q50 25 50 75q0 38 -35 63t-91 25t-91 -25t-35 -63q0 -51 51 -75q-62 -22 -62 -80zM178 8l-30 26l469 564l31 -26zM165 600v-288h71v-38h-188v38h75v250h-75v38h117zM639 154q45 0 70 -16t25 -44
q0 -27 -25.5 -46t-69.5 -19t-69 18.5t-25 46.5t24.5 44t69.5 16zM639 185q-39 0 -61.5 16.5t-22.5 41.5q0 24 23 39.5t61 15.5t61.5 -15.5t23.5 -39.5q0 -25 -22.5 -41.5t-62.5 -16.5z" />
    <glyph glyph-name="three.tab_alt" 
d="M192 329h82q56 0 90.5 27.5t34.5 75.5q0 57 -41.5 92.5t-107.5 35.5q-40 0 -79.5 -19t-58.5 -37l-20 -19l-28 42q3 3 8.5 9t24 21t39.5 26t53.5 20.5t66.5 9.5q93 0 149 -48t56 -125q0 -89 -81 -132q47 -16 74 -53t27 -90q0 -80 -57.5 -129t-154.5 -49q-56 0 -107.5 20.5
t-74.5 40.5l-23 21l29 43q8 -8 22.5 -20t60 -32t91.5 -20q68 0 110.5 35t42.5 91q0 53 -36 81.5t-99 28.5h-93v53z" />
    <glyph glyph-name="period.tab" horiz-adv-x="275" 
d="M94 34q0 18 12.5 30.5t30.5 12.5t30 -12.5t12 -30.5q0 -17 -12 -29.5t-30 -12.5t-30.5 12.5t-12.5 29.5z" />
    <glyph glyph-name="comma.tab" horiz-adv-x="275" 
d="M101 33q0 18 12 30t30 12t30.5 -12t12.5 -31q0 -25 -14 -50l-42 -76h-42l38 67l12 16v3q-17 2 -27 13.5t-10 27.5z" />
    <glyph glyph-name="colon.tab" horiz-adv-x="275" 
d="M95 38q0 18 12 30t30 12t30 -12t12 -30t-12 -30t-30 -12t-30 12t-12 30zM95 514q0 18 12 30.5t30 12.5t30 -12.5t12 -30.5t-12 -30.5t-30 -12.5t-30 12.5t-12 30.5z" />
    <glyph glyph-name="semicolon.tab" horiz-adv-x="275" 
d="M99 37q0 18 12.5 30t30.5 12t30.5 -12.5t12.5 -31.5q0 -21 -14 -49l-44 -77h-41l38 68l13 16v3q-17 2 -27.5 13.5t-10.5 27.5zM101 514q0 18 12.5 30.5t29.5 12.5q18 0 30.5 -12.5t12.5 -30.5t-12.5 -30.5t-30.5 -12.5q-17 0 -29.5 12.5t-12.5 30.5z" />
    <glyph glyph-name="twodotleader.tab" 
d="M82 34q0 18 12.5 30.5t30.5 12.5t30 -12.5t12 -30.5q0 -17 -12 -29.5t-30 -12.5t-30.5 12.5t-12.5 29.5zM380 34q0 18 12.5 30.5t30.5 12.5t30 -12.5t12 -30.5q0 -17 -12 -29.5t-30 -12.5t-30.5 12.5t-12.5 29.5z" />
    <glyph glyph-name="periodcentered.tab" horiz-adv-x="275" 
d="M92 345q0 18 13 30.5t31 12.5t30.5 -12.5t12.5 -30.5t-12.5 -31t-30.5 -13t-31 13t-13 31z" />
    <glyph glyph-name="slash.tab" 
d="M414 703l-221 -879h-58l221 879h58z" />
    <glyph glyph-name="bar.tab" 
d="M300 673v-825h-53v825h53z" />
    <glyph glyph-name="underscore.tab" 
d="M78 -68v48h389v-48h-389z" />
    <glyph glyph-name="dollar.tab" 
d="M64 55l33 44q7 -7 21 -16.5t59.5 -26t93.5 -16.5q156 0 156 112q0 52 -37.5 78.5t-115.5 50.5q-41 12 -65 20.5t-54.5 23.5t-47 31t-28.5 40t-12 54q0 72 52 115t142 47v90h42v-90q55 -3 99 -16.5t60 -25.5l17 -13l-31 -47q-7 6 -19.5 14.5t-56.5 22.5t-94 14
q-65 0 -106.5 -28.5t-41.5 -78.5q0 -21 9.5 -37.5t21.5 -27.5t37 -22t42.5 -16.5t51.5 -15.5q47 -14 78 -27t61 -33.5t45 -49.5t15 -68q0 -71 -46.5 -117t-141.5 -52v-90h-42v89q-59 2 -108 19t-69 33z" />
    <glyph glyph-name="sterling.tab" 
d="M470 56v-51h-384v51q3 1 8 3.5t15.5 11.5t19 20t15 31.5t6.5 44.5q0 26 -18 73h-64v46h46q-24 63 -24 114q0 82 58.5 144t167.5 62q52 0 93 -15t57 -31l15 -15l-32 -41q-4 5 -13.5 13t-43 21.5t-73.5 13.5q-82 0 -124.5 -46.5t-42.5 -108.5q0 -50 24 -111h251v-46h-233
q16 -43 16 -72q0 -71 -47 -112h307z" />
    <glyph glyph-name="Euro.tab" 
d="M380 251v-42h-217q17 -74 62.5 -117.5t116.5 -43.5q38 0 70.5 15t45.5 29l13 15l34 -42q-2 -3 -6 -7.5t-18.5 -17t-32 -22t-46 -17t-60.5 -7.5q-99 0 -159.5 59t-79.5 156h-62v42h56q-2 32 -2 49q0 16 2 46h-56v42h62q18 98 78.5 158.5t160.5 60.5q32 0 60.5 -7.5
t46.5 -17.5t31.5 -20.5t19.5 -17.5l6 -8l-35 -42q-5 6 -14.5 16t-43 26t-71.5 16q-72 0 -117 -44.5t-62 -119.5h217v-42h-224q-2 -30 -2 -46q0 -25 3 -49h223z" />
    <glyph glyph-name="yen.tab" 
d="M292 327l131 273h67l-164 -325h124v-42h-143v-80h143v-42h-143v-111h-57v111h-152v42h152v80h-152v42h132l-170 325h67l140 -273l12 -38z" />
    <glyph glyph-name="cent.tab" 
d="M281 42v81q-72 8 -117.5 56.5t-45.5 122.5q0 73 45.5 123t117.5 58v83h49v-84q25 -3 49 -10.5t35 -13.5l12 -7l-20 -45q-43 30 -96 30q-56 0 -95.5 -37t-39.5 -97t39 -96t96 -36q24 0 48 7t36 15l12 7l20 -44q-40 -25 -96 -32v-81h-49z" />
    <glyph glyph-name="numbersign.tab" 
d="M451 583l-37 -165h92l-8 -39h-93l-40 -178h89l-8 -38h-90l-36 -163h-43l37 163h-133l-37 -163h-42l37 163h-96l8 38h96l41 178h-93l8 39h94l38 165h41l-37 -165h133l38 165h41zM230 379l-41 -178h133l41 178h-133z" />
    <glyph glyph-name="paragraph.tab" 
d="M370 -175v285h-76q-112 0 -174 51t-62 149q0 95 60.5 144.5t172.5 49.5h136v-679h-57z" />
    <glyph glyph-name="section.tab" 
d="M54 -82l30 44q8 -7 22 -17.5t63 -28.5t103 -18q80 0 118 30t38 75q0 46 -30 73t-120 60q-91 32 -127 60.5t-36 76.5q0 52 40 80q-93 50 -93 135q0 69 55 111.5t162 42.5q40 0 76 -6.5t58.5 -15t39.5 -17.5t25 -15l7 -7l-32 -48q-7 6 -20 15.5t-58 25.5t-96 16
q-76 0 -113.5 -28.5t-37.5 -74.5q0 -42 33.5 -72t103.5 -53q89 -31 132 -63t43 -80q0 -52 -35 -85q49 -27 69 -57t20 -75q0 -66 -53 -111t-166 -45q-67 0 -122 18t-77 36zM245 316q-18 5 -41 14q-33 -15 -33 -54q0 -27 27 -47t92 -44l66 -26q27 23 27 57q0 29 -33 52.5
t-105 47.5z" />
    <glyph glyph-name="degree.tab" horiz-adv-x="275" 
d="M137 672q52 0 84.5 -31t32.5 -77t-32.5 -76.5t-84.5 -30.5t-84.5 30.5t-32.5 76.5t32.5 77t84.5 31zM137 638q-36 0 -58 -21t-22 -53q0 -31 22 -51.5t58 -20.5q35 0 57.5 20.5t22.5 51.5t-22.5 52.5t-57.5 21.5z" />
    <glyph glyph-name="percent.tab" 
d="M169 613q60 0 95 -37.5t35 -92.5t-35 -94.5t-95 -39.5t-95 39.5t-35 94.5t35 92.5t95 37.5zM169 567q-37 0 -57.5 -24t-20.5 -60q0 -37 20.5 -62.5t57.5 -25.5q36 0 56.5 25.5t20.5 62.5q0 36 -20 60t-57 24zM62 9l-37 33l459 552l39 -32zM377 257q61 0 95.5 -38
t34.5 -93t-34.5 -94.5t-95.5 -39.5q-59 0 -93.5 39.5t-34.5 94.5t34 93t94 38zM377 211q-36 0 -56 -24.5t-20 -60.5t20 -62t56 -26q37 0 57.5 26t20.5 62t-20.5 60.5t-57.5 24.5z" />
    <glyph glyph-name="quotedbl.tab" 
d="M261 661l-39 -198h-35v11l17 198h57v-11zM374 661l-38 -198h-35v11l17 198h56v-11z" />
    <glyph glyph-name="quotesingle.tab" horiz-adv-x="275" 
d="M180 661l-38 -198h-35v11l17 198h56v-11z" />
    <glyph glyph-name="plus.tab" 
d="M300 504v-165h166v-48h-166v-161h-49v161h-167v48h167v165h49z" />
    <glyph glyph-name="minus.tab" 
d="M80 274v48h383v-48h-383z" />
    <glyph glyph-name="divide.tab" 
d="M231 155q0 19 13 31.5t31 12.5t31 -12.5t13 -31.5q0 -18 -13 -30.5t-31 -12.5t-31 12.5t-13 30.5zM231 443q0 18 13 30.5t31 12.5t31 -12.5t13 -30.5q0 -19 -13 -31.5t-31 -12.5t-31 12.5t-13 31.5zM84 272v48h382v-48h-382z" />
    <glyph glyph-name="equal.tab" 
d="M101 364v47h350v-47h-350zM101 173v47h350v-47h-350z" />
    <glyph glyph-name="multiply.tab" 
d="M114 109l-34 34l160 160l-160 161l34 34l160 -161l161 161l34 -34l-161 -161l161 -160l-34 -34l-161 160z" />
    <glyph glyph-name="less.tab" 
d="M370 44l-241 232v23l241 232l34 -35l-217 -209l217 -208z" />
    <glyph glyph-name="greater.tab" 
d="M421 276l-241 -232l-34 35l217 208l-217 209l34 35l241 -232v-23z" />
    <glyph glyph-name="plusminus.tab" 
d="M301 165h-48v177h-188v48h188v181h48v-181h183v-48h-183v-177zM484 92v-48h-419v48h419z" />
    <glyph glyph-name="space.tab" 
 />
    <glyph glyph-name="latinotype" horiz-adv-x="213" 
 />
    <glyph glyph-name="i.dot" horiz-adv-x="186" 
d="M93 490q-16 0 -27 11t-11 27t11 27.5t27 11.5q17 0 28 -11.5t11 -27.5t-11 -27t-28 -11zM65 0v346h56v-346h-56z" />
    <glyph glyph-name="zero.numr" horiz-adv-x="381" 
d="M191 609q74 0 117 -50.5t43 -122.5q0 -70 -43 -120t-117 -50q-73 0 -116 50t-43 120q0 72 43 122.5t116 50.5zM191 569q-53 0 -83.5 -38.5t-30.5 -94.5q0 -54 30.5 -92t83.5 -38t83 38t30 92q0 56 -30 94.5t-83 38.5z" />
    <glyph glyph-name="one.numr" horiz-adv-x="191" 
d="M20 562v38h117v-326h-43v288h-74z" />
    <glyph glyph-name="two.numr" horiz-adv-x="316" 
d="M28 274v16l157 141q40 37 40 72q0 66 -80 66q-24 0 -46.5 -8.5t-33.5 -16.5t-12 -10l-22 32q5 5 14.5 12t40 19t62.5 12q62 0 91.5 -28t29.5 -74q0 -51 -50 -96l-112 -99h182v-38h-261z" />
    <glyph glyph-name="three.numr" horiz-adv-x="315" 
d="M39 562v38h232v-13l-82 -119q47 -5 72 -29.5t25 -66.5q0 -46 -34.5 -76t-97.5 -30q-33 0 -65.5 12t-45 20.5t-17.5 13.5l25 31q41 -37 102 -37q44 0 67 18.5t23 47.5q0 61 -76 63h-38v14l78 113h-168z" />
    <glyph glyph-name="four.numr" horiz-adv-x="315" 
d="M20 365v26l187 209h31v-198h54v-37h-54v-91h-41v91h-177zM74 401v-2l50 3h73v85q0 34 1 53h-2l-87 -101z" />
    <glyph glyph-name="five.numr" horiz-adv-x="313" 
d="M55 600h209v-38h-174l-3 -102q30 7 74 7q61 0 93.5 -25.5t32.5 -72.5q0 -45 -34.5 -74t-97.5 -29q-34 0 -66 12t-44.5 20.5t-17.5 13.5l24 29q38 -36 101 -36q45 0 68.5 17.5t23.5 46.5q0 30 -23.5 47.5t-69.5 17.5q-25 0 -47 -4t-32 -8l-9 -3l-14 9z" />
    <glyph glyph-name="six.numr" horiz-adv-x="329" 
d="M168 504q63 0 100.5 -31t37.5 -85q0 -56 -38 -89.5t-100 -33.5t-99.5 33.5t-37.5 89.5q0 63 50 121l76 91h50l-63 -73q-6 -8 -12.5 -14.5t-10.5 -9.5l-4 -3v-3q21 7 51 7zM168 467q-44 0 -69.5 -20.5t-25.5 -58.5q0 -39 25.5 -62t69.5 -23t69.5 23t25.5 62q0 37 -25.5 58
t-69.5 21z" />
    <glyph glyph-name="seven.numr" horiz-adv-x="280" 
d="M266 600v-13l-133 -313h-47l124 288h-188v38h244z" />
    <glyph glyph-name="eight.numr" horiz-adv-x="337" 
d="M32 366q0 59 61 80q-50 24 -50 75q0 38 35 63t91 25t91 -25t35 -63q0 -50 -51 -75q63 -22 63 -80q0 -41 -37 -70.5t-101 -29.5q-63 0 -100 29.5t-37 70.5zM169 428q-45 0 -70 -16t-25 -44q0 -27 25.5 -46t69.5 -19q43 0 68.5 19t25.5 46q0 28 -24.5 44t-69.5 16zM169 459
q40 0 62.5 16.5t22.5 41.5q0 24 -23.5 39.5t-61.5 15.5t-61 -15.5t-23 -39.5q0 -25 22 -41.5t62 -16.5z" />
    <glyph glyph-name="nine.numr" horiz-adv-x="331" 
d="M163 370q-63 0 -100.5 31t-37.5 85q0 57 37.5 90t100.5 33t100 -33t37 -90q0 -60 -51 -121l-75 -91h-50l62 73q6 8 13 14.5t11 9.5l4 3v3q-28 -7 -51 -7zM163 407q43 0 68.5 21t25.5 59q0 39 -25.5 61.5t-68.5 22.5q-44 0 -69.5 -22.5t-25.5 -61.5q0 -38 25.5 -59
t69.5 -21z" />
    <glyph glyph-name="caron.alt" horiz-adv-x="162" 
d="M107 566l-27 -147h-31v158h58v-11z" />
    <glyph glyph-name="acute.cap" horiz-adv-x="247" 
d="M174 775l-83 -147h-35v11l48 147h70v-11z" />
    <glyph glyph-name="hungarumlaut.cap" horiz-adv-x="415" 
d="M171 775l-77 -147h-35v11l48 147h64v-11zM329 775l-77 -147h-35v11l47 147h65v-11z" />
    <glyph glyph-name="grave.cap" horiz-adv-x="254" 
d="M146 617l-83 147v11h70l48 -147v-11h-35z" />
    <glyph glyph-name="circumflex.cap" horiz-adv-x="329" 
d="M274 628l-105 111l-106 -111h-36v11l110 147h63l110 -147v-11h-36z" />
    <glyph glyph-name="caron.cap" horiz-adv-x="341" 
d="M169 675l105 111h36v-11l-110 -147h-63l-110 147v11h36z" />
    <glyph glyph-name="breve.cap" horiz-adv-x="350" 
d="M254 797h46q0 -58 -36.5 -95.5t-91.5 -37.5t-91 37.5t-36 95.5h45q0 -39 23 -63.5t59 -24.5q36 -1 59 23.5t23 64.5z" />
    <glyph glyph-name="tilde.cap" horiz-adv-x="430" 
d="M278 617q-29 0 -70.5 25t-59.5 25q-19 0 -27 -9.5t-14 -27.5l-4 -13l-40 4l5 22q14 68 75 68q28 0 69.5 -24.5t59.5 -24.5q33 0 42 37l3 12l40 -4l-4 -21q-13 -69 -75 -69z" />
    <glyph glyph-name="macron.cap" horiz-adv-x="431" 
d="M89 635v38h260v-38h-260z" />
    <glyph glyph-name="dieresis.cap" horiz-adv-x="403" 
d="M71 694q0 16 11.5 27.5t27.5 11.5t27.5 -11.5t11.5 -27.5t-11.5 -27.5t-27.5 -11.5t-27.5 11.5t-11.5 27.5zM249 694q0 16 11.5 27.5t27.5 11.5t27.5 -11.5t11.5 -27.5t-11.5 -27.5t-27.5 -11.5t-27.5 11.5t-11.5 27.5z" />
    <glyph glyph-name="dotaccent.cap" horiz-adv-x="302" 
d="M102 676q0 21 14 35t34 14q21 0 34.5 -14t13.5 -35t-13.5 -34.5t-34.5 -13.5q-20 0 -34 13.5t-14 34.5z" />
    <glyph glyph-name="ring.cap" horiz-adv-x="269" 
d="M133 629q-38 0 -64 25.5t-26 62.5t26 62.5t64 25.5q39 0 64.5 -25t25.5 -63t-25.5 -63t-64.5 -25zM184 717q0 23 -13.5 37t-37.5 14q-23 0 -37 -14t-14 -37t14 -37t37 -14q24 0 37.5 14t13.5 37z" />
    <glyph glyph-name="zero.tab" 
d="M275 -14q-115 0 -182 87.5t-67 225.5q0 139 67 226.5t182 87.5q116 0 182.5 -87.5t66.5 -226.5q0 -138 -66.5 -225.5t-182.5 -87.5zM275 41q92 0 141.5 72t49.5 186q0 115 -49.5 187.5t-141.5 72.5q-91 0 -141 -72.5t-50 -187.5q0 -114 50 -186t141 -72z" />
    <glyph glyph-name="one.tab" 
d="M83 547v53h249v-547h171v-53h-437v53h208v494h-191z" />
    <glyph glyph-name="two.tab" 
d="M66 0v12l273 297q36 39 51 65t15 58q0 56 -40.5 91.5t-104.5 35.5q-45 0 -87 -19.5t-59 -34.5t-21 -21l-33 44l9 9t25.5 20.5t41 26t56 20.5t70.5 9q95 0 148 -48.5t53 -126.5q0 -42 -15.5 -75t-54.5 -76l-215 -237h310v-50h-422z" />
    <glyph glyph-name="three.tab" 
d="M285 298h-96v22l182 227h-292v53h392v-12l-200 -247h27q83 0 134.5 -46t51.5 -128q0 -80 -58 -130.5t-156 -50.5q-36 0 -71 9t-58 20t-44 26t-27.5 20.5t-10.5 9.5q19 30 30 45q3 -3 8.5 -8t24.5 -18.5t38.5 -23.5t49.5 -18t59 -8q71 0 113.5 36.5t42.5 93.5
q0 59 -38.5 93.5t-101.5 34.5z" />
    <glyph glyph-name="four.tab" 
d="M25 146v51l347 403h45v-400h98v-54h-98v-146h-58v146h-334zM95 202v-2h264v305l-253 -294z" />
    <glyph glyph-name="five.tab" 
d="M454 547h-291l-7 -204q56 14 118 14q100 0 157 -49.5t57 -132.5q0 -90 -56.5 -139t-157.5 -49q-56 0 -109 21t-77 42l-25 21l30 45q3 -3 8.5 -8t24.5 -18.5t38.5 -23.5t49.5 -18t59 -8q71 0 113.5 36.5t42.5 101.5q0 60 -43 94.5t-117 34.5q-43 0 -81 -6.5t-54 -12.5
l-17 -7l-16 12l10 307h343v-53z" />
    <glyph glyph-name="six.tab" 
d="M68 181q0 78 54 162l166 257h68l-152 -236l-19 -26v-7q46 31 104 31q96 0 154 -51.5t58 -131.5q0 -86 -61.5 -139.5t-153.5 -53.5q-95 0 -156.5 54t-61.5 141zM284 310q-67 0 -111 -35.5t-44 -97.5q0 -61 44.5 -99t111.5 -38q66 0 111 38t45 98q0 58 -44.5 96t-112.5 38z
" />
    <glyph glyph-name="seven.tab" 
d="M70 546v54h427v-14l-279 -586h-67l263 546h-344z" />
    <glyph glyph-name="eight.tab" 
d="M275 -13q-99 0 -160.5 50.5t-61.5 124.5q0 56 30.5 96t87.5 59q-46 18 -70 54.5t-24 82.5q0 69 54.5 114t143.5 45t143.5 -45t54.5 -114q0 -46 -24 -82.5t-70 -54.5q56 -19 87 -59t31 -96q0 -74 -61.5 -124.5t-160.5 -50.5zM275 41q71 0 117 35.5t46 89.5q0 55 -46.5 90
t-116.5 35q-71 0 -117 -35t-46 -90q0 -54 46 -89.5t117 -35.5zM415 449q0 48 -39 79t-101 31t-101 -31t-39 -79t38.5 -79t101.5 -31t101.5 31.5t38.5 78.5z" />
    <glyph glyph-name="nine.tab" 
d="M482 419q0 -79 -55 -162l-166 -257h-68l152 236l19 26v6q-48 -30 -104 -30q-96 0 -154 51.5t-58 131.5q0 86 61.5 139.5t153.5 53.5q96 0 157.5 -54t61.5 -141zM265 290q62 0 109 36t47 97t-45 99t-112 38q-66 0 -111 -38t-45 -98q0 -58 44.5 -96t112.5 -38z" />
    <glyph glyph-name="onesuperior_alt" horiz-adv-x="239" 
d="M31 630v38h117v-288h71v-38h-188v38h75v250h-75z" />
    <glyph glyph-name="one.numr_alt" horiz-adv-x="239" 
d="M31 562v38h117v-288h71v-38h-188v38h75v250h-75z" />
    <glyph glyph-name="oneinferior_alt" horiz-adv-x="238" 
d="M31 163v38h117v-288h70v-38h-187v38h74v250h-74z" />
    <glyph glyph-name="zero.dnom" horiz-adv-x="381" 
d="M191 335q74 0 117 -50.5t43 -122.5q0 -70 -43 -120t-117 -50q-73 0 -116 50t-43 120q0 72 43 122.5t116 50.5zM191 295q-53 0 -83.5 -38.5t-30.5 -94.5q0 -54 30.5 -92t83.5 -38t83 38t30 92q0 56 -30 94.5t-83 38.5z" />
    <glyph glyph-name="one.dnom" horiz-adv-x="192" 
d="M20 288v38h118v-326h-43v288h-75z" />
    <glyph glyph-name="one.dnom_alt" horiz-adv-x="239" 
d="M31 288v38h117v-288h71v-38h-188v38h75v250h-75z" />
    <glyph glyph-name="two.dnom" horiz-adv-x="316" 
d="M28 0v16l157 141q40 37 40 72q0 66 -80 66q-24 0 -46.5 -8.5t-33.5 -16.5t-12 -10l-22 32q5 5 14.5 12t40 19t62.5 12q62 0 91.5 -28t29.5 -74q0 -51 -50 -96l-112 -99h182v-38h-261z" />
    <glyph glyph-name="three.dnom" horiz-adv-x="314" 
d="M26 38l24 31q42 -37 103 -37q43 0 66.5 18.5t23.5 47.5q0 61 -76 63h-38v14l78 113h-169v38h232v-13l-81 -119q47 -4 72 -29t25 -67q0 -46 -34.5 -76t-97.5 -30q-34 0 -66 12t-44.5 20.5t-17.5 13.5z" />
    <glyph glyph-name="four.dnom" horiz-adv-x="315" 
d="M20 91v26l187 209l1 -1l1 1h29v-198h54v-37h-54v-91h-40v91h-178zM110 163l-35 -38l53 3h70v135h-2z" />
    <glyph glyph-name="five.dnom" horiz-adv-x="313" 
d="M55 326h209v-38h-174l-3 -102q30 7 74 7q61 0 93.5 -25.5t32.5 -72.5q0 -45 -34.5 -74t-97.5 -29q-34 0 -66 12t-44.5 20.5t-17.5 13.5l24 29q38 -36 101 -36q45 0 68.5 17.5t23.5 46.5q0 30 -23.5 47.5t-69.5 17.5q-25 0 -47 -4t-32 -8l-9 -3l-14 9z" />
    <glyph glyph-name="six.dnom" horiz-adv-x="329" 
d="M168 231q63 0 100.5 -31t37.5 -85q0 -57 -37.5 -90t-100.5 -33t-100 33t-37 90q0 61 50 121l76 91h50l-63 -73q-6 -8 -12.5 -14.5t-10.5 -9.5l-4 -3v-3q21 7 51 7zM168 194q-43 0 -69 -21t-26 -59q0 -39 25.5 -61.5t69.5 -22.5t69.5 22.5t25.5 61.5q0 38 -25.5 59
t-69.5 21z" />
    <glyph glyph-name="seven.dnom" horiz-adv-x="280" 
d="M266 326v-13l-133 -313h-47l124 288h-188v38h244z" />
    <glyph glyph-name="eight.dnom" horiz-adv-x="337" 
d="M32 92q0 59 61 80q-50 24 -50 75q0 38 35 63t91 25t91 -25t35 -63q0 -50 -51 -75q63 -22 63 -80q0 -41 -37 -70.5t-101 -29.5q-63 0 -100 29.5t-37 70.5zM169 154q-45 0 -70 -16t-25 -44q0 -27 25.5 -46t69.5 -19q43 0 68.5 19t25.5 46q0 28 -24.5 44t-69.5 16zM169 185
q40 0 62.5 16.5t22.5 41.5q0 24 -23.5 39.5t-61.5 15.5t-61 -15.5t-23 -39.5q0 -25 22 -41.5t62 -16.5z" />
    <glyph glyph-name="nine.dnom" horiz-adv-x="330" 
d="M162 96q-62 0 -100 31t-38 85q0 56 38 89.5t100 33.5q63 0 100 -33t37 -90q0 -61 -50 -121l-76 -91h-50l63 73q6 8 12.5 14.5t10.5 9.5l4 3v2q-24 -6 -51 -6zM162 133q43 0 69 21t26 59q0 39 -25.5 61.5t-69.5 22.5t-69.5 -22.5t-25.5 -61.5q0 -38 25.5 -59t69.5 -21z
" />
    <glyph glyph-name="zero.osf" horiz-adv-x="444" 
d="M222 354q80 0 130 -51t50 -130q0 -80 -49.5 -130.5t-130.5 -50.5t-130.5 50.5t-49.5 130.5q0 79 50 130t130 51zM222 308q-56 0 -92.5 -38t-36.5 -97t36.5 -97t92.5 -38q57 0 93 38t36 97t-36 97t-93 38z" />
    <glyph glyph-name="one.osf" horiz-adv-x="257" 
d="M26 299v47h156v-346h-57v299h-99z" />
    <glyph glyph-name="two.osf" horiz-adv-x="391" 
d="M43 0v24l174 132q29 23 40.5 40.5t11.5 42.5q0 67 -89 67q-29 0 -59 -9t-45 -18l-16 -9l-18 40q6 5 18 12.5t51.5 19.5t82.5 12q68 0 102.5 -29.5t34.5 -79.5q0 -67 -68 -115l-125 -87l65 5h150v-48h-310z" />
    <glyph glyph-name="three.osf" horiz-adv-x="398" 
d="M39 299v47h297v-20l-133 -209q77 -2 120.5 -42.5t43.5 -112.5q0 -73 -50 -118t-138 -45q-30 0 -56.5 5.5t-43.5 12.5t-29.5 14.5t-17.5 12.5l-6 6l24 39q5 -5 15 -12t42 -19t66 -12q64 0 100 32t36 83q0 53 -33.5 84t-91.5 31h-53v19l127 204h-219z" />
    <glyph glyph-name="four.osf" horiz-adv-x="457" 
d="M22 9l2 35l-2 2l251 300h50v-290h104v-47h-104v-202h-56v202h-245zM86 56v-5l60 5h121v176q0 19 1 32h-4l-136 -164q-9 -12 -19.5 -23t-16.5 -16z" />
    <glyph glyph-name="five.osf" horiz-adv-x="395" 
d="M67 346h262v-47h-216l-5 -180q32 7 73 7q89 0 137.5 -43t48.5 -117t-50.5 -120.5t-142.5 -46.5q-42 0 -77.5 12.5t-50.5 24.5l-14 13l23 39q5 -5 14 -11.5t39 -18t61 -11.5q66 0 103 33t37 85q0 54 -35.5 84.5t-100.5 30.5q-35 0 -60.5 -4t-33.5 -8l-8 -4l-12 11z" />
    <glyph glyph-name="six.osf" horiz-adv-x="450" 
d="M234 353q83 0 135.5 -51t52.5 -130q0 -81 -52.5 -131t-135.5 -50t-134.5 50t-51.5 131q0 70 48 153l138 236h59l-104 -180l-29 -39v-2q36 13 74 13zM234 305q-57 0 -93 -37.5t-36 -95.5t36 -95.5t93 -37.5t94 37.5t37 95.5t-37 95.5t-94 37.5z" />
    <glyph glyph-name="seven.osf" horiz-adv-x="361" 
d="M353 346v-16l-224 -517h-59l215 486h-263v47h331z" />
    <glyph glyph-name="eight.osf" horiz-adv-x="471" 
d="M74 434q0 64 44.5 105.5t116.5 41.5t117 -41.5t45 -105.5q0 -92 -81 -129q48 -18 75.5 -55.5t27.5 -90.5q0 -77 -51 -122t-133 -45q-81 0 -132 45t-51 122q0 53 27 90.5t75 55.5q-80 37 -80 129zM235 278q-59 -1 -93 -33.5t-34 -85.5t34.5 -85.5t92.5 -32.5t92.5 32
t34.5 86t-34.5 86.5t-92.5 32.5zM235 327q47 0 76.5 30t29.5 76q0 44 -29.5 72t-76.5 28q-46 0 -75.5 -28t-29.5 -72q0 -45 29.5 -75.5t75.5 -30.5z" />
    <glyph glyph-name="nine.osf" horiz-adv-x="445" 
d="M225 -7q-83 0 -135.5 51t-52.5 130q0 81 52.5 131t135.5 50t134.5 -50t51.5 -131q0 -70 -48 -153l-135 -230h-59l101 174q6 11 13.5 20.5t11.5 14.5l4 4v2q-36 -13 -74 -13zM225 41q57 0 93 37t36 96q0 58 -36 95.5t-93 37.5q-58 0 -94.5 -37.5t-36.5 -95.5t36.5 -95.5
t94.5 -37.5z" />
    <glyph glyph-name="three.osf_alt" horiz-adv-x="405" 
d="M103 101h51q58 0 94 27t36 76q0 45 -32.5 73.5t-85.5 28.5q-28 0 -55.5 -10.5t-40.5 -21.5l-13 -10l-22 40q6 6 17 14t47.5 22t74.5 14q80 0 124 -39t44 -104q0 -88 -86 -128q51 -13 80 -46.5t29 -84.5q0 -68 -52 -110.5t-139 -42.5q-43 0 -80.5 12.5t-53.5 25.5l-15 13
l24 39q6 -5 16 -12t42.5 -19t65.5 -12q60 0 96 30t36 78t-37 75t-96 27h-69v45z" />
    <glyph glyph-name="ampersand.small" horiz-adv-x="631" 
d="M606 300h-86v-17q0 -56 -11.5 -103.5t-39.5 -93t-83 -72t-133 -26.5q-94 0 -152 52t-58 133t48.5 129t123.5 48q68 0 109.5 -38.5t41.5 -96.5v-8l-266 -76q15 -44 56 -70.5t97 -26.5q217 0 217 251v61h136v-46zM93 178v-6l217 61q-6 30 -32 52.5t-64 22.5
q-52 0 -86.5 -34.5t-34.5 -95.5z" />
    <glyph glyph-name="dagger.small" horiz-adv-x="401" 
d="M23 152v48h153v179h49v-179h152v-48h-152l-7 -402h-35l-7 402h-153z" />
    <glyph glyph-name="daggerdbl.small" horiz-adv-x="450" 
d="M48 190v48h153v140h48v-140h153v-48h-153v-146h153v-47h-153l-6 -247h-36l-6 247h-153v47h153v146h-153z" />
    <glyph glyph-name="ampersand.alt" horiz-adv-x="594" 
d="M571 0h-62l-53 69q-67 -82 -196 -82q-96 0 -153 51.5t-57 132.5t51 131t134 57l-145 191v49h363v-49h-292l290 -384q14 45 16 109v76h55v-76q-2 -91 -34 -157l83 -110v-8zM263 36q111 0 161 75l-154 203h-11q-66 0 -107.5 -38.5t-41.5 -101.5q0 -60 43 -99t110 -39z" />
    <glyph glyph-name="asterisk.small" horiz-adv-x="387" 
d="M99 335l71 76l-103 21l-27 9l15 50l27 -9l98 -46l-13 106v29h53v-29l-13 -105l96 45l28 9l15 -51l-27 -8l-103 -21l72 -76l17 -24l-43 -30l-17 23l-52 93l-51 -93l-18 -23l-41 30z" />
    <glyph glyph-name="copyright.small" horiz-adv-x="488" 
d="M244 372q93 0 149 -57.5t56 -142.5q0 -84 -56 -141.5t-149 -57.5q-92 0 -148 57.5t-56 141.5q0 85 56 142.5t148 57.5zM244 348q-82 0 -131 -51t-49 -125t49 -124.5t131 -50.5t131.5 50.5t49.5 124.5q0 75 -49.5 125.5t-131.5 50.5zM311 107l20 -25q-26 -29 -81 -29
t-88.5 34.5t-33.5 84.5t33.5 84t88.5 34q25 0 45 -7t28 -13l8 -7l-20 -25q-17 19 -60 19q-38 0 -62.5 -24t-24.5 -61q0 -39 24 -62t63 -23q16 0 31 5t22 10z" />
    <glyph glyph-name="published.small" horiz-adv-x="488" 
d="M244 372q93 0 149 -57.5t56 -142.5q0 -84 -56 -141.5t-149 -57.5q-92 0 -148 57.5t-56 141.5q0 85 56 142.5t148 57.5zM244 348q-82 0 -131 -51t-49 -125t49 -124.5t131 -50.5t131.5 50.5t49.5 124.5q0 75 -49.5 125.5t-131.5 50.5zM161 56v231h93q47 0 75.5 -24
t28.5 -65q0 -42 -28.5 -64t-76.5 -22h-56v-56h-36zM320 198q0 57 -71 57h-52v-110h52q71 0 71 53z" />
    <glyph glyph-name="registered.small" horiz-adv-x="488" 
d="M244 372q93 0 149 -57.5t56 -142.5q0 -84 -56 -141.5t-149 -57.5q-92 0 -148 57.5t-56 141.5q0 85 56 142.5t148 57.5zM244 348q-82 0 -131 -51t-49 -125t49 -124.5t131 -50.5t131.5 50.5t49.5 124.5q0 75 -49.5 125.5t-131.5 50.5zM153 287h98q42 0 67 -22.5t25 -63.5
q0 -56 -48 -74v-1l47 -62v-8h-36l-49 63h-67v-63h-37v231zM245 255h-55v-104h54q61 0 61 50q0 54 -60 54z" />
    <glyph glyph-name="registered.osf.alt" horiz-adv-x="451" 
d="M48 194q0 86 49.5 132t126.5 46q76 0 127 -49t51 -129q0 -79 -51 -128t-127 -49q-75 0 -125.5 49t-50.5 128zM72 194q0 -69 43.5 -111t108.5 -42q66 0 110 42.5t44 110.5q0 69 -44 111.5t-110 42.5t-109 -40t-43 -114zM146 283h82q35 0 57.5 -17.5t22.5 -45.5
q0 -42 -38 -59l34 -49v-8h-30l-34 49h-63v-49h-31v179zM227 255h-50v-74h49q51 0 51 38q0 16 -14 26t-36 10z" />
    <glyph glyph-name="trademark.small" horiz-adv-x="706" 
d="M388 173h-42v269h21l120 -124q7 8 56.5 57t65.5 67h21v-269h-42v193l-94 -95h-14l-92 94v-192zM297 442v-37h-105v-232h-41v232h-105v37h251z" />
    <glyph glyph-name="servicemark.small" horiz-adv-x="698" 
d="M384 173h-41v269h21l121 -124l122 124h20v-269h-42v193l-94 -95h-13l-94 96v-194zM59 200l22 30q33 -28 86 -28q70 0 70 36q0 17 -18.5 27.5t-58.5 23.5q-50 17 -74 34.5t-24 49.5q0 34 28 54t76 20q32 0 58.5 -6.5t37.5 -13.5l10 -7l-21 -31q-27 22 -85 22
q-62 0 -62 -37q0 -12 10.5 -21.5t23.5 -14.5t38 -13q35 -11 53.5 -19t34.5 -25t16 -40q0 -33 -27.5 -53.5t-83.5 -20.5q-32 0 -59.5 8.5t-39.5 16.5z" />
    <glyph glyph-name="ordfeminine.small" horiz-adv-x="347" 
d="M39 252q0 39 30.5 61t83.5 22q67 0 94 -34v20q0 45 -21.5 67.5t-73.5 22.5q-21 0 -42.5 -5t-31.5 -10l-11 -5l-14 34q46 23 100 23q73 0 104.5 -33t31.5 -96v-146h-30l-5 37h-4q-27 -44 -106 -44q-47 0 -76 23.5t-29 62.5zM81 254q0 -25 19.5 -40t52.5 -15q43 0 68 15.5
t25 37.5q0 21 -23.5 37t-62.5 16q-38 0 -58.5 -13.5t-20.5 -37.5z" />
    <glyph glyph-name="ordmasculine.small" horiz-adv-x="361" 
d="M40 307q0 64 37.5 102.5t100.5 38.5t100.5 -38.5t37.5 -102.5q0 -63 -37.5 -101.5t-100.5 -38.5t-100.5 38.5t-37.5 101.5zM274 307q0 47 -25.5 75t-70.5 28q-44 0 -69.5 -28t-25.5 -75q0 -46 25.5 -74t69.5 -28q45 0 70.5 28t25.5 74z" />
    <glyph glyph-name="asciicircum.small" horiz-adv-x="494" 
d="M350 374l-103 132l-102 -132h-40v12l123 168h38l123 -168v-12h-39z" />
    <glyph glyph-name="asciitilde.small" horiz-adv-x="462" 
d="M304 452q22 0 40.5 5t25.5 10l8 5l19 -35q-27 -31 -92 -31q-26 0 -72.5 13.5t-74.5 13.5q-22 0 -40.5 -5.5t-25.5 -10.5l-8 -5l-19 35q27 31 92 31q26 0 72.5 -13t74.5 -13z" />
    <glyph glyph-name="numbersign.small" horiz-adv-x="509" 
d="M397 346l-20 -88h97l-8 -39h-97l-21 -96h93l-8 -38h-94l-18 -85h-42l18 85h-121l-19 -85h-42l19 85h-97l8 38h97l22 96h-95l9 39h94l20 88h42l-20 -88h121l20 88h42zM206 219l-22 -96h122l21 96h-121z" />
    <glyph glyph-name="percent.small" horiz-adv-x="549" 
d="M149 0h-39v8l274 334h40v-8zM518 92q0 -42 -27 -71t-76 -29t-76.5 29.5t-27.5 70.5q0 42 27.5 71.5t76.5 29.5q48 0 75.5 -29.5t27.5 -71.5zM345 92q0 -29 18.5 -50t51.5 -21q32 0 51 21t19 50t-19 50.5t-51 21.5q-33 0 -51.5 -21.5t-18.5 -50.5zM239 253q0 -42 -27 -71
t-76 -29t-76.5 29.5t-27.5 70.5q0 42 27.5 71.5t76.5 29.5q48 0 75.5 -29.5t27.5 -71.5zM67 253q0 -29 18.5 -50t50.5 -21t51 21t19 50t-19 50.5t-51 21.5t-50.5 -21.5t-18.5 -50.5z" />
    <glyph glyph-name="perthousand.small" horiz-adv-x="789" 
d="M149 0h-39v8l274 334h40v-8zM518 92q0 -42 -27 -71t-76 -29t-76.5 29.5t-27.5 70.5q0 42 27.5 71.5t76.5 29.5q48 0 75.5 -29.5t27.5 -71.5zM345 92q0 -29 18.5 -50t51.5 -21q32 0 51 21t19 50t-19 50.5t-51 21.5q-33 0 -51.5 -21.5t-18.5 -50.5zM239 253q0 -42 -27 -71
t-76 -29t-76.5 29.5t-27.5 70.5q0 42 27.5 71.5t76.5 29.5q48 0 75.5 -29.5t27.5 -71.5zM67 253q0 -29 18.5 -50t50.5 -21t51 21t19 50t-19 50.5t-51 21.5t-50.5 -21.5t-18.5 -50.5zM757 92q0 -41 -27.5 -70.5t-76.5 -29.5t-76.5 29.5t-27.5 70.5q0 42 27.5 71.5t76.5 29.5
t76.5 -29.5t27.5 -71.5zM582 92q0 -29 19.5 -50t51.5 -21t50.5 21t18.5 50t-18.5 50.5t-50.5 21.5t-51.5 -21.5t-19.5 -50.5z" />
    <glyph glyph-name="plus.small" horiz-adv-x="387" 
d="M222 326v-132h125v-48h-125v-126h-49v126h-133v48h133v132h49z" />
    <glyph glyph-name="minus.small" horiz-adv-x="389" 
d="M42 146v48h307v-48h-307z" />
    <glyph glyph-name="plusminus.small" horiz-adv-x="376" 
d="M212 346v-87h103v-42h-103v-97h-43v97h-109v42h109v87h43zM60 28v42h255v-42h-255z" />
    <glyph glyph-name="multiply.small" horiz-adv-x="363" 
d="M81 297l99 -98l103 102l33 -34l-102 -101l94 -93l-34 -34l-94 93l-91 -90l-33 34l90 90l-98 98z" />
    <glyph glyph-name="divide.small" horiz-adv-x="401" 
d="M163 46q0 16 11 27t27 11q15 0 26 -11t11 -27q0 -15 -11 -26t-26 -11q-16 0 -27 11t-11 26zM163 293q0 16 11 27t27 11q15 0 26 -11t11 -27t-11 -26.5t-26 -10.5q-16 0 -27 10.5t-11 26.5zM52 149v37h298v-37h-298z" />
    <glyph glyph-name="equal.small" horiz-adv-x="458" 
d="M57 236v45h344v-45h-344zM57 63v45h344v-45h-344z" />
    <glyph glyph-name="less.small" horiz-adv-x="279" 
d="M203 0l-167 162v23l167 162l34 -35l-144 -139l144 -138z" />
    <glyph glyph-name="greater.small" horiz-adv-x="279" 
d="M243 162l-167 -162l-35 35l144 138l-144 139l35 35l167 -162v-23z" />
    <glyph glyph-name="quotedbl.small" horiz-adv-x="305" 
d="M136 464l-39 -198h-34v11l17 198h56v-11zM249 464l-37 -198h-35v11l16 198h56v-11z" />
    <glyph glyph-name="quotesingle.small" horiz-adv-x="191" 
d="M136 464l-39 -198h-34v11l17 198h56v-11z" />
    <glyph glyph-name="degree.small" horiz-adv-x="330" 
d="M164 481q52 0 84.5 -31t32.5 -77t-32.5 -76.5t-84.5 -30.5t-84 30.5t-32 76.5t32 77t84 31zM164 447q-35 0 -57 -21.5t-22 -52.5t22 -51.5t57 -20.5q36 0 58 20.5t22 51.5q0 32 -22 53t-58 21z" />
    <glyph glyph-name="paragraph.small" horiz-adv-x="479" 
d="M352 -250v202h-78q-111 0 -173 50.5t-62 148.5q0 95 61 145t172 50h137v-596h-57z" />
    <glyph glyph-name="section.small" horiz-adv-x="366" 
d="M181 355q44 0 79 -7.5t48 -15.5l13 -7l-19 -42q-35 24 -115 24q-90 0 -90 -53q0 -26 21.5 -41.5t61.5 -30.5q7 -3 25.5 -10t26.5 -10.5t23 -10.5t22 -13.5t15.5 -15.5t12 -20t3.5 -24q0 -44 -39 -68q57 -28 57 -74q0 -43 -33.5 -69t-104.5 -26q-42 0 -78.5 8.5
t-52.5 16.5l-16 8l18 41q47 -26 123 -26q87 0 87 48q0 12 -6 21.5t-21.5 17t-25 11.5t-35 11.5t-32.5 9.5q-46 15 -72 34.5t-26 54.5q0 49 45 73q-56 33 -56 84q0 47 37.5 74t103.5 27zM170 47q9 -4 27.5 -10t26.5 -9q28 11 28 44q0 21 -19.5 34t-72.5 35l-21 8
q-32 -11 -32 -46q0 -19 15.5 -32t47.5 -24z" />
    <glyph glyph-name="dollar.small" horiz-adv-x="370" 
d="M278 89q0 22 -24.5 36t-59 23t-69.5 19.5t-59.5 32.5t-24.5 55q0 42 31 68.5t91 30.5v95h46v-95q36 -2 66 -9.5t42 -14.5l12 -7l-19 -44q0 1 -12.5 7.5t-42 13.5t-64.5 7q-93 0 -93 -52q0 -21 24.5 -34t59.5 -21t69.5 -19t59.5 -34t25 -58q0 -41 -31.5 -67t-95.5 -30v-90
h-46v90q-37 2 -68 10.5t-44 15.5l-13 8l19 43q58 -31 128 -31q93 0 93 51z" />
    <glyph glyph-name="sterling.small" horiz-adv-x="411" 
d="M365 53v-48h-325v43q7 0 19.5 5t27 22.5t14.5 43.5q0 5 -2 17h-48v39h37q-11 29 -11 57q0 52 38 87t107 35q40 0 75.5 -13t50.5 -26l16 -13l-23 -36q-48 43 -111 43q-43 0 -68.5 -23.5t-25.5 -57.5q0 -22 9 -53h138v-39h-127q1 -5 1 -15q0 -45 -32 -72z" />
    <glyph glyph-name="Euro.small" horiz-adv-x="401" 
d="M242 -8q-61 0 -106 31.5t-62 86.5h-42v40h34q-1 7 -1 22t1 23h-34v40h42q17 55 62 87t106 32q32 0 61.5 -7.5t42.5 -14.5l14 -8l-18 -38q-37 26 -93 26q-38 0 -69 -20.5t-46 -56.5h155v-40h-166q-1 -8 -1 -23t1 -22h166v-40h-156q15 -37 46.5 -56.5t69.5 -19.5q25 0 48 6
t34 12l11 7l17 -37q-44 -30 -117 -30z" />
    <glyph glyph-name="yen.small" horiz-adv-x="435" 
d="M235 224l94 122h64l-124 -158h105v-40h-131v-48h131v-40h-131v-60h-56v60h-125v40h125v48h-125v40h99l-124 158h64l95 -122l16 -32h5z" />
    <glyph glyph-name="florin.small" horiz-adv-x="331" 
d="M187 236v-29h101v-39h-101v-84q0 -117 -104 -117q-17 0 -33.5 3.5t-25.5 7.5l-8 4l17 37q21 -9 41 -9q57 0 57 73v85h-47v39h47v27q0 118 103 118q17 0 33.5 -4t24.5 -8l9 -4l-17 -36q-21 8 -41 8q-56 0 -56 -72z" />
    <glyph glyph-name="cent.small" horiz-adv-x="390" 
d="M197 -85v80q-68 10 -110.5 58t-42.5 119t42.5 119.5t110.5 59.5v84h45v-81q29 -1 55 -8.5t37 -14.5l11 -7l-17 -43q-36 25 -93 25q-56 0 -95 -37t-39 -97t39 -96t95 -36q25 0 48.5 6t34.5 12l10 7l16 -43q-36 -27 -102 -30v-77h-45z" />
    <glyph glyph-name="at.small" horiz-adv-x="787" 
d="M190 173q0 82 49 131.5t123 49.5q43 0 76 -16t45.5 -31t20.5 -31l10 70h35v-262q0 -35 17 -55.5t44 -20.5q49 0 81 54.5t32 138.5q0 128 -89.5 218.5t-239.5 90.5q-147 0 -238.5 -94t-91.5 -241q0 -143 92 -236t242 -93q43 0 81.5 9t55.5 17l17 9l12 -20
q-63 -38 -166 -38q-158 0 -257.5 98.5t-99.5 253.5q0 157 99 257.5t254 100.5q161 0 256 -96.5t95 -235.5q0 -95 -37.5 -154.5t-101.5 -59.5q-45 0 -70 27.5t-25 62.5h-4q-2 -5 -5.5 -12.5t-15 -21t-26.5 -24.5t-41 -19t-57 -8q-73 0 -122.5 50.5t-49.5 130.5zM242 173
q0 -59 36.5 -97t91.5 -38q56 0 94 36.5t38 98.5t-38 98.5t-94 36.5q-55 0 -91.5 -38t-36.5 -97z" />
    <glyph glyph-name="hyphen.small" horiz-adv-x="385" 
d="M57 149v48h283v-48h-283z" />
    <glyph glyph-name="endash.small" horiz-adv-x="445" 
d="M57 146v47h344v-47h-344z" />
    <glyph glyph-name="emdash.small" horiz-adv-x="717" 
d="M57 146v47h616v-47h-616z" />
    <glyph glyph-name="slash.small" horiz-adv-x="348" 
d="M76 -83l-55 31l247 472l56 -30z" />
    <glyph glyph-name="colon.case" horiz-adv-x="226" 
d="M71 38q0 18 12 30t30 12t30 -12t12 -30t-12 -30t-30 -12t-30 12t-12 30zM71 514q0 18 12 30.5t30 12.5t30 -12.5t12 -30.5t-12 -30.5t-30 -12.5t-30 12.5t-12 30.5z" />
    <glyph glyph-name="semicolon.case" horiz-adv-x="245" 
d="M84 37q0 18 12.5 30t30.5 12t30.5 -12.5t12.5 -31.5q0 -21 -14 -49l-44 -77h-41l38 68l13 16v3q-17 2 -27.5 13.5t-10.5 27.5zM86 514q0 18 12.5 30.5t29.5 12.5q18 0 30.5 -12.5t12.5 -30.5t-12.5 -30.5t-30.5 -12.5q-17 0 -29.5 12.5t-12.5 30.5z" />
    <glyph glyph-name="slash.case" horiz-adv-x="345" 
d="M312 745l-221 -879h-58l221 879h58z" />
    <glyph glyph-name="bar.case" horiz-adv-x="236" 
d="M144 715v-825h-53v825h53z" />
    <glyph glyph-name="parenleft.case" horiz-adv-x="328" 
d="M302 681q-201 -136 -201 -381q0 -246 201 -382l-28 -40q-22 14 -44.5 31t-58.5 55t-62.5 82t-46 111.5t-19.5 142.5t20 142.5t46 111t62 82t58 55t45 30.5z" />
    <glyph glyph-name="parenright.case" horiz-adv-x="328" 
d="M26 681l28 40q23 -14 45 -30.5t58 -55t62 -82t46 -111t20 -142.5t-19.5 -142.5t-46 -111.5t-62.5 -82t-58.5 -55t-44.5 -31l-28 40q201 136 201 382q0 245 -201 381z" />
    <glyph glyph-name="at.case" horiz-adv-x="920" 
d="M458 -202q-190 0 -303 122t-113 302q0 118 49.5 214.5t146 154.5t223.5 58q95 0 174 -32.5t129.5 -86t78 -120t27.5 -136.5q0 -109 -44.5 -177t-127.5 -68q-32 0 -56.5 10.5t-36.5 25.5t-17.5 27.5t-5.5 20.5h-4q-3 -8 -10.5 -18t-23 -25.5t-45 -25.5t-66.5 -10
q-76 0 -126.5 50.5t-50.5 130.5q0 82 50 131.5t127 49.5q103 0 142 -77l10 69h39v-233q0 -37 19.5 -57.5t56.5 -20.5q58 0 89 53t31 138q0 139 -98.5 237t-260.5 98q-164 0 -267.5 -108t-103.5 -272q0 -163 102.5 -271t265.5 -108q56 0 103.5 10t66.5 20l20 11l20 -42
q-8 -5 -23 -12.5t-69 -20t-118 -12.5zM572 216q0 61 -37.5 96.5t-93.5 35.5q-55 0 -91.5 -36.5t-36.5 -95.5t36.5 -97t91.5 -38q56 0 93.5 36.5t37.5 98.5z" />
    <glyph glyph-name="bracketleft.case" horiz-adv-x="336" 
d="M91 -116v832h209v-48h-154v-736h154v-48h-209z" />
    <glyph glyph-name="backslash.case" horiz-adv-x="345" 
d="M254 -134l-221 879h58l221 -879h-58z" />
    <glyph glyph-name="bracketright.case" horiz-adv-x="336" 
d="M36 -116v48h153v736h-153v48h208v-832h-208z" />
    <glyph glyph-name="braceleft.case" horiz-adv-x="268" 
d="M34 323h12q27 0 44 21.5t17 60.5v237q0 95 99 104l8 -48q-27 -4 -37.5 -17t-10.5 -46v-235q0 -81 -53 -98v-8q53 -17 53 -97v-235q0 -32 10.5 -45.5t37.5 -17.5l-8 -48q-99 9 -99 104v238q0 38 -17 59.5t-44 21.5h-12v49z" />
    <glyph glyph-name="braceright.case" horiz-adv-x="268" 
d="M235 274h-13q-26 0 -43.5 -21.5t-17.5 -59.5v-238q0 -96 -99 -104l-8 48q27 4 37.5 17.5t10.5 45.5v235q0 81 54 97v8q-54 16 -54 98v235q0 33 -10.5 46t-37.5 17l8 48q99 -8 99 -104v-237q0 -39 17.5 -60.5t43.5 -21.5h13v-49z" />
    <glyph glyph-name="guilsinglleft.case" horiz-adv-x="291" 
d="M57 289v19l106 155h50v-8l-105 -153v-5l105 -155v-8h-50z" />
    <glyph glyph-name="guilsinglright.case" horiz-adv-x="291" 
d="M233 308v-19l-106 -155h-50v8l105 155v5l-105 153v8h50z" />
    <glyph glyph-name="guillemotleft.case" horiz-adv-x="453" 
d="M57 289v19l106 155h50v-8l-105 -153v-5l105 -155v-8h-50zM220 289v19l106 155h49v-8l-105 -153v-5l105 -155v-8h-49z" />
    <glyph glyph-name="guillemotright.case" horiz-adv-x="453" 
d="M233 308v-19l-106 -155h-50v8l105 155v5l-105 153v8h50zM395 308v-19l-106 -155h-49v8l104 155v5l-104 153v8h49z" />
    <glyph glyph-name="bullet.case" horiz-adv-x="297" 
d="M81 300q0 27 20 47t48 20q27 0 46.5 -20t19.5 -47q0 -28 -19.5 -47.5t-46.5 -19.5q-28 0 -48 19.5t-20 47.5z" />
    <glyph glyph-name="section.case" horiz-adv-x="529" 
d="M41 -84l32 44q3 -3 8.5 -7.5t24 -15.5t39 -20t52.5 -16t66 -7q80 0 119.5 32t39.5 78q0 48 -34 76.5t-127 63.5q-85 31 -119.5 59t-34.5 75q0 52 40 80q-93 50 -93 134q0 73 55.5 118t162.5 45q64 0 115.5 -15.5t70.5 -31.5l20 -15l-32 -47q-7 6 -20 15.5t-58 25.5
t-96 16q-76 0 -115 -30t-39 -78q0 -43 34 -74t104 -55q89 -30 132.5 -62t43.5 -81t-35 -84q89 -53 89 -135q0 -69 -54.5 -116t-166.5 -47q-42 0 -81 7.5t-63.5 18.5t-43.5 22.5t-27 18.5zM237 321q-18 5 -42 14q-32 -14 -32 -54q0 -27 27 -47.5t92 -43.5q49 -19 66 -26
q26 22 26 57q0 64 -137 100z" />
    <glyph glyph-name="brokenbar.case" horiz-adv-x="237" 
d="M145 -110h-54v825h54v-825z" />
    </font>
</defs>
</svg>
