<?xml version="1.0" standalone="no"?>
<!DOCTYPE svg PUBLIC "-//W3C//DTD SVG 1.1//EN" "http://www.w3.org/Graphics/SVG/1.1/DTD/svg11.dtd" >
<svg xmlns="http://www.w3.org/2000/svg" xmlns:xlink="http://www.w3.org/1999/xlink" version="1.1">
<metadata>
Created by FontForge 20170731 at Thu Dec 26 20:41:29 2013
 By Aleksey,,,
Copyright (c) 2013 by Miguel &#38; Daniel HernA~ndez. All rights reserved.
</metadata>
<defs>
<font id="ArquitectaBlack" horiz-adv-x="550" >
  <font-face 
    font-family="Arquitecta Black"
    font-weight="950"
    font-stretch="normal"
    units-per-em="1000"
    panose-1="0 0 0 0 0 0 0 0 0 0"
    ascent="750"
    descent="-250"
    x-height="346"
    cap-height="600"
    bbox="-179 -277 1073 923"
    underline-thickness="50"
    underline-position="-200"
    unicode-range="U+000D-FB04"
  />
<missing-glyph horiz-adv-x="500" 
 />
    <glyph glyph-name=".notdef" horiz-adv-x="500" 
 />
    <glyph glyph-name=".null" horiz-adv-x="0" 
 />
    <glyph glyph-name="nonmarkingreturn" horiz-adv-x="333" 
 />
    <glyph glyph-name="NUL" horiz-adv-x="0" 
 />
    <glyph glyph-name="NUL" horiz-adv-x="0" 
 />
    <glyph glyph-name="CR" unicode="&#xd;" horiz-adv-x="280" 
 />
    <glyph glyph-name="space" unicode=" " horiz-adv-x="156" 
 />
    <glyph glyph-name="exclam" unicode="!" horiz-adv-x="259" 
d="M211 600v-45l-35 -341h-94l-35 341v45h164zM45 76q0 35 24.5 60t59.5 25t60 -25t25 -60t-25 -59.5t-60 -24.5t-59.5 24.5t-24.5 59.5z" />
    <glyph glyph-name="quotedbl" unicode="&#x22;" horiz-adv-x="369" 
d="M169 650l-46 -187h-92v22l22 187h116v-22zM349 650l-46 -187h-92v22l22 187h116v-22z" />
    <glyph glyph-name="numbersign" unicode="#" horiz-adv-x="670" 
d="M553 583l-32 -143h121l-19 -82h-120l-30 -132h122l-19 -82h-121l-32 -144h-88l32 144h-133l-32 -144h-88l32 144h-118l18 82h118l30 132h-119l18 82h119l32 143h88l-32 -143h133l32 143h88zM282 358l-30 -132h133l30 132h-133z" />
    <glyph glyph-name="dollar" unicode="$" horiz-adv-x="558" 
d="M29 67l79 111q10 -6 27 -16t63 -26t85 -16q75 0 75 50q0 24 -22.5 39t-89.5 33q-105 29 -156 71.5t-51 113.5q0 75 48.5 124t143.5 59v65h96v-64q37 -3 70 -10.5t53.5 -16t35.5 -16.5t22 -14l6 -5l-78 -118q-7 6 -20.5 14t-54.5 22t-81 14q-74 0 -74 -44q0 -22 22 -34
t82 -28q111 -29 164.5 -73t53.5 -116q0 -79 -51 -133.5t-150 -63.5v-64h-96v65q-60 6 -110.5 25.5t-70.5 35.5z" />
    <glyph glyph-name="percent" unicode="%" horiz-adv-x="676" 
d="M170 613q64 0 102.5 -43t38.5 -104t-38.5 -104t-102.5 -43t-102.5 43.5t-38.5 103.5q0 61 38.5 104t102.5 43zM170 537q-47 0 -47 -71q0 -70 47 -70t47 70q0 71 -47 71zM538 613l69 -56l-470 -564l-68 56zM506 286q64 0 102.5 -43t38.5 -104t-38.5 -104t-102.5 -43
t-102.5 43.5t-38.5 103.5q0 61 38.5 104t102.5 43zM506 210q-47 0 -47 -71q0 -70 47 -70t47 70q0 71 -47 71z" />
    <glyph glyph-name="ampersand" unicode="&#x26;" horiz-adv-x="663" 
d="M45 173q0 98 116 152l-17 17q-48 46 -48 113q0 68 52 113t143 45q89 0 144 -45.5t55 -112.5q0 -105 -116 -164l83 -78q21 40 21 83v24h138v-21q0 -96 -61 -179l117 -110v-10h-172l-37 35q-77 -48 -168 -48q-126 0 -188 50.5t-62 135.5zM295 113q39 0 72 15l-114 109
q-48 -26 -48 -60q0 -27 22.5 -45.5t67.5 -18.5zM233 442q0 -31 49 -70q74 29 74 70q0 23 -16.5 37t-45.5 14t-45 -14t-16 -37z" />
    <glyph glyph-name="quotesingle" unicode="'" horiz-adv-x="189" 
d="M169 650l-46 -187h-92v22l22 187h116v-22z" />
    <glyph glyph-name="parenleft" unicode="(" horiz-adv-x="369" 
d="M365 579q-197 -114 -197 -321q0 -208 197 -322l-73 -100q-38 17 -80.5 49.5t-88.5 84t-75.5 127.5t-29.5 161q0 69 20.5 132.5t50.5 109t69 84t71.5 60.5t62.5 35z" />
    <glyph glyph-name="parenright" unicode=")" horiz-adv-x="369" 
d="M4 579l73 100q30 -13 62.5 -35t71.5 -60.5t69 -84t50.5 -109t20.5 -132.5q0 -85 -29.5 -161t-75.5 -127.5t-88.5 -84t-80.5 -49.5l-73 100q197 114 197 322q0 207 -197 321z" />
    <glyph glyph-name="asterisk" unicode="*" horiz-adv-x="385" 
d="M237 700l-15 -77h-59l-14 77v29h88v-29zM327 571l-78 -10l-18 56l71 39l25 8l27 -85zM137 561l-79 10l-27 8l27 85l25 -9l72 -39zM80 498l60 54l47 -33l-36 -74l-15 -22l-72 51zM245 551l60 -53l17 -24l-73 -51l-15 22l-36 74z" />
    <glyph glyph-name="plus" unicode="+" horiz-adv-x="485" 
d="M303 504v-149h149v-116h-149v-141h-118v141h-152v116h152v149h118z" />
    <glyph glyph-name="comma" unicode="," horiz-adv-x="217" 
d="M27 72q0 34 23 57.5t57 23.5t57.5 -23.5t23.5 -57.5q0 -52 -34 -113l-32 -56h-90l32 56q5 8 10.5 15t8.5 10l3 3v8q-26 6 -42.5 27.5t-16.5 49.5z" />
    <glyph glyph-name="hyphen" unicode="-" horiz-adv-x="370" 
d="M38 229v116h294v-116h-294z" />
    <glyph glyph-name="period" unicode="." horiz-adv-x="215" 
d="M27 72q0 34 23 57.5t57 23.5t57.5 -23.5t23.5 -57.5t-23.5 -57t-57.5 -23t-57 23t-23 57z" />
    <glyph glyph-name="slash" unicode="/" horiz-adv-x="401" 
d="M382 703l-221 -879h-141l221 879h141z" />
    <glyph glyph-name="zero" unicode="0" horiz-adv-x="626" 
d="M313 -13q-134 0 -206.5 90.5t-72.5 222.5t72.5 222.5t206.5 90.5q91 0 155.5 -44.5t94 -114t29.5 -154.5t-29.5 -154.5t-94 -114t-155.5 -44.5zM313 127q63 0 96 46.5t33 126.5t-33 126.5t-96 46.5t-96 -46.5t-33 -126.5t33 -126.5t96 -46.5z" />
    <glyph glyph-name="one" unicode="1" horiz-adv-x="353" 
d="M19 475v125h257v-600h-145v475h-112z" />
    <glyph glyph-name="two" unicode="2" horiz-adv-x="528" 
d="M35 0v24l227 279q26 32 35 49.5t9 38.5q0 34 -24 57t-62 23q-37 0 -64 -13.5t-59 -40.5l-76 116q3 3 9.5 8.5t27.5 19.5t45 24.5t61 19t76 8.5q117 0 176 -53.5t59 -136.5q0 -74 -64 -154l-117 -144h198v-125h-457z" />
    <glyph glyph-name="three" unicode="3" horiz-adv-x="533" 
d="M243 270h-71v29l95 176h-207v125h416v-24l-114 -211q136 -30 136 -179q0 -85 -64.5 -142t-188.5 -57q-63 0 -120 20t-77.5 34.5t-29.5 23.5q12 19 35.5 56.5t36.5 56.5q7 -6 20.5 -15.5t53 -25t76.5 -15.5q53 0 77 21t24 54t-24.5 53t-73.5 20z" />
    <glyph glyph-name="four" unicode="4" horiz-adv-x="581" 
d="M19 124v100l350 376h103l-1 -352h77v-124h-77v-124h-145v124h-307zM210 264v-16h116v137l-91 -101z" />
    <glyph glyph-name="five" unicode="5" horiz-adv-x="526" 
d="M458 475h-246l-3 -93q23 3 45 3q244 0 244 -199q0 -85 -64.5 -142t-188.5 -57q-63 0 -119.5 19.5t-81.5 39.5l-26 19l72 113q7 -6 20.5 -15.5t53 -25t76.5 -15.5q101 0 101 74t-130 74q-88 0 -128 -20l-12 7l9 343h378v-125z" />
    <glyph glyph-name="six" unicode="6" horiz-adv-x="538" 
d="M32 210q0 84 59 188l114 202h177l-94 -163l-26 -35v-13q18 5 33 5q104 0 164 -50t60 -141q0 -99 -68.5 -157.5t-170.5 -58.5q-111 0 -179.5 61t-68.5 162zM275 278q-37 0 -61.5 -24t-24.5 -58q0 -38 23 -62t63 -24q42 0 64.5 24t22.5 61q0 35 -22.5 59t-64.5 24z" />
    <glyph glyph-name="seven" unicode="7" horiz-adv-x="485" 
d="M27 475v125h457v-32l-261 -568h-170l232 475h-258z" />
    <glyph glyph-name="eight" unicode="8" 
d="M275 -13q-112 0 -176.5 52.5t-64.5 130.5q0 95 85 147q-61 48 -61 124q0 73 59 122.5t158 49.5t158 -49.5t59 -122.5q0 -76 -62 -124q86 -53 86 -147q0 -78 -64.5 -130.5t-176.5 -52.5zM275 110q38 0 62 22t24 53q0 32 -24 53.5t-62 21.5q-37 0 -61 -22t-24 -53t24 -53
t61 -22zM275 359q31 0 50 18.5t19 45.5q0 28 -19 47t-50 19t-49.5 -19t-18.5 -47q0 -27 18.5 -45.5t49.5 -18.5z" />
    <glyph glyph-name="nine" unicode="9" horiz-adv-x="542" 
d="M510 390q0 -82 -59 -189l-113 -201h-184l94 163q6 10 13 18.5t11 12.5l4 4v8q-15 -3 -30 -3q-104 0 -164.5 51t-60.5 142q0 99 67.5 158t169.5 59q111 0 181.5 -61.5t70.5 -161.5zM266 326q36 0 58.5 21.5t22.5 56.5t-22 57t-60 22q-39 0 -60 -22t-21 -57q0 -33 22 -55.5
t60 -22.5z" />
    <glyph glyph-name="colon" unicode=":" horiz-adv-x="221" 
d="M30 265q0 34 23 57.5t57 23.5t57.5 -23.5t23.5 -57.5t-23.5 -57t-57.5 -23t-57 23t-23 57zM30 72q0 34 23 57.5t57 23.5t57.5 -23.5t23.5 -57.5t-23.5 -57t-57.5 -23t-57 23t-23 57z" />
    <glyph glyph-name="semicolon" unicode=";" horiz-adv-x="222" 
d="M30 72q0 34 23 57.5t57 23.5t57.5 -23.5t23.5 -57.5q-1 -36 -8.5 -58t-25.5 -55l-32 -56h-90l32 56q5 8 10.5 15t8.5 10l3 3v8q-26 6 -42.5 27.5t-16.5 49.5zM30 265q0 34 23 57.5t57 23.5t57.5 -23.5t23.5 -57.5t-23.5 -57t-57.5 -23t-57 23t-23 57z" />
    <glyph glyph-name="less" unicode="&#x3c;" horiz-adv-x="392" 
d="M267 44l-240 232v24l240 232l83 -86l-168 -159l168 -157z" />
    <glyph glyph-name="equal" unicode="=" horiz-adv-x="592" 
d="M91 332v116h410v-116h-410zM91 142v116h410v-116h-410z" />
    <glyph glyph-name="greater" unicode="&#x3e;" horiz-adv-x="392" 
d="M365 276l-240 -232l-83 86l168 157l-168 159l83 86l240 -232v-24z" />
    <glyph glyph-name="question" unicode="?" horiz-adv-x="401" 
d="M75 472l-49 110q60 30 158 30q85 0 133.5 -43.5t48.5 -107.5q0 -41 -13 -72.5t-32 -50t-38.5 -34t-35 -35.5t-19.5 -44l-3 -19h-94v30q0 32 14 60.5t31 46t31 41.5t14 47q0 29 -19.5 46t-50.5 17q-19 0 -38 -5.5t-29 -10.5zM100 72q0 34 23.5 57t57.5 23t57 -23t23 -57
t-23 -57.5t-57 -23.5t-57.5 23.5t-23.5 57.5z" />
    <glyph glyph-name="at" unicode="@" horiz-adv-x="901" 
d="M454 -244q-87 0 -158.5 23.5t-120 63t-82 94t-48.5 116t-15 128.5t15 128.5t48.5 116.5t82 94.5t120 63t158.5 23.5q88 0 159.5 -22.5t117.5 -59t77 -84t44 -95t13 -94.5q0 -128 -53.5 -196.5t-144.5 -68.5q-29 0 -53.5 6.5t-38 15.5t-23 18t-12.5 15l-3 7h-10
q-30 -56 -113 -56q-72 0 -118.5 49t-46.5 131q0 86 46 134t119 48q71 0 103 -41l16 32h86v-182q0 -61 57 -61q74 0 74 129q0 121 -74 193t-222 72q-144 0 -226.5 -86t-82.5 -229t82.5 -229.5t226.5 -86.5q45 0 84.5 7.5t55.5 14.5l17 8l46 -97q-6 -5 -19.5 -12t-66 -19
t-117.5 -12zM502 175q0 67 -61 67q-28 0 -45 -18.5t-17 -48.5t17 -49.5t45 -19.5q30 0 45.5 19t15.5 50z" />
    <glyph glyph-name="A" unicode="A" horiz-adv-x="622" 
d="M-15 0l314 600h24l315 -600h-164l-33 71h-261l-32 -71h-163zM388 189l-74 157h-8l-74 -157l-9 -16h174z" />
    <glyph glyph-name="B" unicode="B" horiz-adv-x="637" 
d="M601 179q0 -84 -60.5 -131.5t-170.5 -47.5h-304v600h299q108 0 163.5 -43t55.5 -121q0 -38 -17.5 -69t-49.5 -46v-17q39 -15 61.5 -48.5t22.5 -76.5zM374 255h-163v-130h164q32 0 51 19t19 45q0 27 -19 46.5t-52 19.5zM430 415q0 26 -17.5 43t-50.5 17h-151v-121h150
q34 0 51.5 17.5t17.5 43.5z" />
    <glyph glyph-name="C" unicode="C" horiz-adv-x="578" 
d="M483 171l83 -111q-3 -3 -8.5 -8t-25 -17.5t-42 -22t-60 -17.5t-78.5 -8q-147 0 -234.5 90t-87.5 223t87.5 223t234.5 90q66 0 119.5 -18.5t74.5 -36.5l20 -18l-83 -111q-62 45 -129 45q-77 0 -125.5 -48t-48.5 -126t48.5 -126t125.5 -48q38 0 70 11t46 23z" />
    <glyph glyph-name="D" unicode="D" horiz-adv-x="664" 
d="M633 300q0 -132 -85.5 -216t-232.5 -84h-249v600h249q147 0 232.5 -84t85.5 -216zM304 475h-93v-350h93q81 0 130 45.5t49 129.5t-49 129.5t-130 45.5z" />
    <glyph glyph-name="E" unicode="E" horiz-adv-x="577" 
d="M475 357v-114h-264v-118h332v-125h-477v600h477v-125h-332v-118h264z" />
    <glyph glyph-name="F" unicode="F" horiz-adv-x="564" 
d="M66 0v600h477v-125h-332v-118h281v-114h-281v-243h-145z" />
    <glyph glyph-name="G" unicode="G" horiz-adv-x="661" 
d="M336 243v114h302v-67q0 -136 -74 -219.5t-213 -83.5q-146 0 -233.5 90t-87.5 223t87.5 223t233.5 90q45 0 84.5 -7.5t64 -18.5t43 -22.5t26.5 -18.5l8 -8l-86 -110q-6 5 -18 12.5t-49 20.5t-75 13q-73 0 -121 -48.5t-48 -125.5t48 -125.5t121 -48.5q62 0 96.5 32t36.5 79
v6h-146z" />
    <glyph glyph-name="H" unicode="H" horiz-adv-x="687" 
d="M621 600v-600h-145v235h-265v-235h-145v600h145v-251h265v251h145z" />
    <glyph glyph-name="I" unicode="I" horiz-adv-x="277" 
d="M211 600v-600h-145v600h145z" />
    <glyph glyph-name="J" unicode="J" horiz-adv-x="486" 
d="M11 37l65 125q51 -33 103 -33q54 0 78 26.5t24 84.5v360h145v-390q-1 -95 -59 -159t-178 -64q-50 0 -93.5 12t-60 21.5t-24.5 16.5z" />
    <glyph glyph-name="K" unicode="K" horiz-adv-x="638" 
d="M211 600v-258l245 258h177v-13l-231 -245l231 -328v-14h-176q-21 31 -156 236l-90 -96v-140h-145v600h145z" />
    <glyph glyph-name="L" unicode="L" horiz-adv-x="528" 
d="M516 0h-450v600h145v-475h305v-125z" />
    <glyph glyph-name="M" unicode="M" horiz-adv-x="759" 
d="M549 0v315l-156 -153h-25l-158 154v-316h-144v600h39l273 -257l277 257h38v-600h-144z" />
    <glyph glyph-name="N" unicode="N" horiz-adv-x="697" 
d="M631 599v-599h-33l-388 331v-331h-144v600h33l388 -318v317h144z" />
    <glyph glyph-name="O" unicode="O" horiz-adv-x="702" 
d="M350 -13q-145 0 -232.5 90t-87.5 223t87.5 223t232.5 90q147 0 234.5 -90t87.5 -223t-87.5 -223t-234.5 -90zM350 127q74 0 123 48t49 125t-49 125t-123 48q-73 0 -121.5 -48t-48.5 -125t48.5 -125t121.5 -48z" />
    <glyph glyph-name="P" unicode="P" horiz-adv-x="616" 
d="M350 600q115 0 181.5 -55.5t66.5 -153.5q0 -103 -71.5 -159.5t-186.5 -56.5h-129v-175h-145v600h284zM448 385q0 43 -27.5 66.5t-77.5 23.5h-132v-180h133q104 0 104 90z" />
    <glyph glyph-name="Q" unicode="Q" horiz-adv-x="702" 
d="M350 -13q-145 0 -232.5 90t-87.5 223t87.5 223t232.5 90q147 0 234.5 -90t87.5 -223q0 -153 -108 -242l68 -97v-14h-154l-34 52q-44 -12 -94 -12zM287 235v14h146l46 -68q43 48 43 119q0 77 -49 125t-123 48q-73 0 -121.5 -48t-48.5 -125t48.5 -125t121.5 -48h8z" />
    <glyph glyph-name="R" unicode="R" horiz-adv-x="649" 
d="M66 0v600h283q115 0 182 -55.5t67 -153.5q0 -123 -100 -179v-13l135 -189v-10h-165l-118 175h-139v-175h-145zM448 385q0 43 -27.5 66.5t-77.5 23.5h-132v-180h133q104 0 104 90z" />
    <glyph glyph-name="S" unicode="S" horiz-adv-x="552" 
d="M25 67l79 111q10 -6 27 -16t63 -26t85 -16q75 0 75 50q0 24 -22.5 39t-89.5 33q-105 29 -156 71.5t-51 113.5q0 85 61.5 135.5t179.5 50.5q47 0 88.5 -6.5t67 -16t44 -19t26.5 -15.5l8 -7l-78 -118q-7 6 -20.5 14t-54.5 22t-81 14q-74 0 -74 -44q0 -22 22 -34t82 -28
q111 -29 164.5 -73t53.5 -116q0 -87 -61.5 -143t-179.5 -56q-48 0 -92 8t-73 20t-51 24t-32 20z" />
    <glyph glyph-name="T" unicode="T" horiz-adv-x="546" 
d="M12 475v125h522v-125h-188v-475h-145v475h-189z" />
    <glyph glyph-name="U" unicode="U" horiz-adv-x="665" 
d="M333 -13q-125 0 -200.5 77t-75.5 195v341h145v-341q0 -55 34 -93.5t97 -38.5q64 0 97 37.5t33 94.5v341h145v-341q0 -119 -74.5 -195.5t-200.5 -76.5z" />
    <glyph glyph-name="V" unicode="V" horiz-adv-x="622" 
d="M262 354l46 -106h6l45 106l114 246h165l-315 -600h-26l-312 600h162z" />
    <glyph glyph-name="W" unicode="W" horiz-adv-x="834" 
d="M312 390l90 210h31l89 -210l29 -80h12l31 95l88 195h160l-262 -600h-26l-97 210l-35 86h-10l-35 -86l-97 -210h-26l-262 600h159l88 -195l31 -95h12z" />
    <glyph glyph-name="X" unicode="X" horiz-adv-x="603" 
d="M593 600l-182 -293l186 -307h-176l-94 177l-25 53q-2 -4 -25 -53l-94 -177h-175l183 307l-180 293h175l91 -167l25 -56q4 8 13 29t12 27q17 30 47.5 86.5t43.5 80.5h175z" />
    <glyph glyph-name="Y" unicode="Y" horiz-adv-x="572" 
d="M311 418l104 182h167l-224 -371v-229h-145v230l-221 370h167l104 -182l21 -46h6z" />
    <glyph glyph-name="Z" unicode="Z" horiz-adv-x="561" 
d="M24 0v39l280 436h-260v125h487v-47l-267 -428h267v-125h-507z" />
    <glyph glyph-name="bracketleft" unicode="[" horiz-adv-x="350" 
d="M58 -158v832h273v-116h-137v-600h137v-116h-273z" />
    <glyph glyph-name="backslash" unicode="\" horiz-adv-x="401" 
d="M240 -176l-221 879h141l221 -879h-141z" />
    <glyph glyph-name="bracketright" unicode="]" horiz-adv-x="350" 
d="M19 -158v116h137v600h-137v116h273v-832h-273z" />
    <glyph glyph-name="asciicircum" unicode="^" horiz-adv-x="390" 
d="M242 491l-47 76l-47 -76h-107v22l117 155h74l117 -155v-22h-107z" />
    <glyph glyph-name="underscore" unicode="_" horiz-adv-x="507" 
d="M34 -136v116h439v-116h-439z" />
    <glyph glyph-name="grave" unicode="`" horiz-adv-x="254" 
d="M126 419l-99 136v22h163l28 -136v-22h-92z" />
    <glyph glyph-name="a" unicode="a" horiz-adv-x="426" 
d="M21 96q0 51 37.5 78.5t102.5 27.5q31 0 53 -5t28 -11l6 -5h6v13q0 47 -80 47q-21 0 -44 -5.5t-35 -11.5l-12 -5l-41 104q70 31 158 31q96 0 143 -43.5t47 -121.5v-189h-105l-15 34h-6q-21 -42 -108 -42q-59 0 -97 29t-38 75zM157 110q0 -32 45 -32q48 0 48 32
q0 13 -12.5 22t-35.5 9q-45 0 -45 -31z" />
    <glyph glyph-name="b" unicode="b" horiz-adv-x="466" 
d="M42 0v668h144v-347h6q2 4 7 9.5t26.5 14.5t49.5 9q73 0 120 -51t47 -131q0 -83 -48 -131.5t-124 -48.5q-35 0 -61.5 12t-34.5 24l-9 12h-6l-23 -40h-94zM179 174q0 -29 15.5 -46.5t43.5 -17.5q27 0 43 18t16 46t-16 45t-43 17q-29 0 -44 -17t-15 -45z" />
    <glyph glyph-name="c" unicode="c" horiz-adv-x="357" 
d="M227 -8q-92 0 -148.5 52.5t-56.5 128.5q0 78 56.5 129.5t148.5 51.5q35 0 63.5 -7t39.5 -14l11 -7l-40 -106q-24 16 -61 16q-34 0 -53.5 -17t-19.5 -46q0 -28 19.5 -45.5t53.5 -17.5q16 0 31.5 4t22.5 8l7 4l37 -105q-33 -29 -111 -29z" />
    <glyph glyph-name="d" unicode="d" horiz-adv-x="466" 
d="M274 321h6v347h144v-668h-94l-23 40h-6q-3 -5 -9.5 -13t-33.5 -21.5t-62 -13.5q-76 0 -124 48.5t-48 131.5q0 80 47 131t120 51q28 0 49 -8t28 -16zM287 174q0 28 -15 45t-44 17q-27 0 -43 -17t-16 -45t16 -46t43 -18q28 0 43.5 17.5t15.5 46.5z" />
    <glyph glyph-name="e" unicode="e" horiz-adv-x="414" 
d="M320 117l45 -88q-5 -4 -14 -11t-44 -18t-76 -11q-96 0 -152 53t-56 131t54 129.5t138 51.5q83 0 131.5 -49t48.5 -132l-1 -26h-232q14 -49 76 -49q24 0 44.5 5t29.5 9zM213 253q-40 0 -51 -43h99q-2 18 -14.5 30.5t-33.5 12.5z" />
    <glyph glyph-name="f" unicode="f" horiz-adv-x="346" 
d="M334 235h-100v-235h-144v235h-69v111h69v127q0 96 47 144.5t125 48.5q56 0 94 -19l-34 -121q-12 7 -35 7q-53 0 -53 -60v-127h100v-111z" />
    <glyph glyph-name="g" unicode="g" horiz-adv-x="421" 
d="M215 -238q-101 0 -153 36t-52 89q0 61 62 87v6q-52 24 -52 72q0 54 60 86q-28 33 -28 77q0 62 45 100.5t111 38.5q27 0 75.5 -3t82.5 -6l35 -3v-97h-49v-6q9 -10 9 -32q0 -52 -41.5 -87t-111.5 -35q-28 0 -45 5q-20 -9 -20 -21q0 -22 72 -22q112 0 160 -35.5t48 -101.5
q0 -65 -53 -106.5t-155 -41.5zM215 -58q-68 0 -68 -41q0 -40 68 -40t68 40q0 41 -68 41zM208 256q-19 0 -29.5 -11t-10.5 -28q0 -16 10.5 -27t29.5 -11t29.5 11t10.5 27q0 17 -10.5 28t-29.5 11z" />
    <glyph glyph-name="h" unicode="h" horiz-adv-x="466" 
d="M41 0v668h146v-352h4v1q30 38 92 38q66 0 105.5 -39t39.5 -108v-208h-144v187q0 23 -12.5 36.5t-34.5 13.5q-21 0 -35.5 -13.5t-14.5 -34.5v-189h-146z" />
    <glyph glyph-name="i" unicode="i" horiz-adv-x="226" 
d="M114 448q-34 0 -57 23t-23 57t23 57.5t57 23.5t57.5 -23.5t23.5 -57.5t-23.5 -57t-57.5 -23zM41 0v346h144v-346h-144z" />
    <glyph glyph-name="j" unicode="j" horiz-adv-x="227" 
d="M-18 -185l20 106q8 -3 18 -3q21 0 21 22v406h145v-413q0 -134 -128 -134q-23 0 -42 4t-26 8zM113 448q-34 0 -57 23t-23 57t23 57.5t57 23.5t57.5 -23.5t23.5 -57.5t-23.5 -57t-57.5 -23z" />
    <glyph glyph-name="k" unicode="k" horiz-adv-x="443" 
d="M271 346h157l-108 -168l120 -178h-168l-83 132h-4v-132h-144v668h144v-464h3z" />
    <glyph glyph-name="l" unicode="l" horiz-adv-x="226" 
d="M41 0v668h144v-668h-144z" />
    <glyph glyph-name="m" unicode="m" horiz-adv-x="705" 
d="M42 0v346h86l24 -45h6q39 53 114 53q82 0 122 -54h6q12 23 43 38.5t70 15.5q71 0 113 -39t42 -108v-207h-144v186q0 23 -12.5 36.5t-34.5 13.5q-21 0 -35.5 -13.5t-14.5 -34.5v-188h-144v186q0 23 -12.5 36.5t-34.5 13.5q-21 0 -35.5 -13.5t-14.5 -34.5v-188h-144z" />
    <glyph glyph-name="n" unicode="n" horiz-adv-x="464" 
d="M42 0v346h86l24 -45h6q39 53 114 53q71 0 113 -39t42 -108v-207h-144v186q0 23 -12.5 36.5t-34.5 13.5q-21 0 -35.5 -14t-14.5 -35v-187h-144z" />
    <glyph glyph-name="o" unicode="o" horiz-adv-x="444" 
d="M422 171q0 -79 -58 -129t-142 -50t-142 50t-58 129q0 81 57.5 132t142.5 51t142.5 -51t57.5 -132zM222 105q29 0 44.5 18.5t15.5 49.5t-15.5 49.5t-44.5 18.5t-44.5 -18.5t-15.5 -49.5t15.5 -49.5t44.5 -18.5z" />
    <glyph glyph-name="p" unicode="p" horiz-adv-x="466" 
d="M192 25h-6v-217h-144v538h90l23 -45h5q3 6 10 15t35 23.5t65 14.5q76 0 124 -48.5t48 -131.5q0 -80 -47 -131t-120 -51q-28 0 -49 8t-28 16zM179 172q0 -28 15 -45t44 -17q27 0 43 17t16 45t-16 46t-43 18q-28 0 -43.5 -17.5t-15.5 -46.5z" />
    <glyph glyph-name="q" unicode="q" horiz-adv-x="466" 
d="M424 346v-538h-144v217h-6q-2 -4 -7 -9.5t-26.5 -14.5t-49.5 -9q-73 0 -120 51t-47 131q0 83 48 131.5t124 48.5q23 0 43 -5.5t32 -13t20 -15.5t11 -14l4 -5h5l23 45h90zM287 172q0 29 -15.5 46.5t-43.5 17.5q-27 0 -43 -18t-16 -46t16 -45t43 -17q29 0 44 17t15 45z" />
    <glyph glyph-name="r" unicode="r" horiz-adv-x="339" 
d="M341 322l-53 -115q-19 16 -47 16q-25 0 -40 -15t-15 -38v-170h-144v346h86l24 -45h5q38 53 98 53q28 0 49.5 -8t29.5 -16z" />
    <glyph glyph-name="s" unicode="s" horiz-adv-x="385" 
d="M26 25l33 98q58 -33 109 -33q28 0 28 20q0 10 -17.5 16.5t-42.5 12t-49.5 14.5t-42 31t-17.5 55q0 52 39.5 83.5t121.5 31.5q50 0 91.5 -7.5t58.5 -14.5l16 -8l-37 -99q-43 29 -110 29q-23 0 -23 -17q0 -12 27.5 -20.5t61 -15t61 -31t27.5 -64.5q0 -52 -44 -83t-128 -31
q-49 0 -90 8t-57 16z" />
    <glyph glyph-name="t" unicode="t" horiz-adv-x="352" 
d="M18 346h59v103h144v-103h98v-113h-98v-90q0 -31 29 -31q11 0 21 3t15 6l4 3l46 -96q-4 -4 -11.5 -10t-36.5 -16t-63 -10q-68 0 -108 39t-40 107v95h-59v113z" />
    <glyph glyph-name="u" unicode="u" horiz-adv-x="464" 
d="M422 346v-346h-99l-24 45h-6q-29 -53 -101 -53q-71 0 -113 39t-42 108v207h144v-186q0 -23 12.5 -36.5t34.5 -13.5q21 0 35.5 12.5t14.5 32.5v191h144z" />
    <glyph glyph-name="v" unicode="v" horiz-adv-x="425" 
d="M428 346l-164 -346h-103l-164 346h157l48 -141q7 -19 7 -34h7q0 15 7 34l48 141h157z" />
    <glyph glyph-name="w" unicode="w" horiz-adv-x="612" 
d="M613 346l-154 -346h-88l-53 123q-9 24 -9 44h-6q0 -20 -9 -44l-53 -123h-88l-154 346h157l43 -141q7 -26 7 -34h7q0 8 7 34l38 141h96l38 -141q7 -28 7 -34h7q0 13 7 34l43 141h157z" />
    <glyph glyph-name="x" unicode="x" horiz-adv-x="438" 
d="M4 0l130 172l-130 174h160l53 -85h4l53 85h160l-130 -174l130 -172h-160l-53 86h-4l-53 -86h-160z" />
    <glyph glyph-name="y" unicode="y" horiz-adv-x="418" 
d="M419 346l-240 -538l-152 -1l116 235l-144 304h157l48 -141q6 -16 7 -34h7q1 18 7 34l48 141h146z" />
    <glyph glyph-name="z" unicode="z" horiz-adv-x="403" 
d="M371 0h-340v59l139 172h-129v115h330v-61l-137 -170h137v-115z" />
    <glyph glyph-name="braceleft" unicode="{" horiz-adv-x="314" 
d="M4 311h24q29 0 41.5 15.5t12.5 51.5v162q0 75 48.5 117.5t144.5 46.5l20 -119q-35 -6 -47.5 -15t-12.5 -37v-177q0 -75 -65 -94v-9q31 -8 48 -33t17 -60v-177q0 -28 12.5 -37t47.5 -15l-20 -119q-96 4 -144.5 46.5t-48.5 117.5v162q0 36 -12.5 51.5t-41.5 15.5h-24v106z
" />
    <glyph glyph-name="bar" unicode="|" horiz-adv-x="245" 
d="M188 673v-825h-131v825h131z" />
    <glyph glyph-name="braceright" unicode="}" horiz-adv-x="314" 
d="M310 205h-24q-29 0 -41.5 -15.5t-12.5 -51.5v-162q0 -75 -48.5 -117.5t-144.5 -46.5l-20 119q35 6 47.5 15t12.5 37v177q0 35 17 60t48 33v9q-65 19 -65 94v177q0 28 -12.5 37t-47.5 15l20 119q96 -4 144.5 -46.5t48.5 -117.5v-162q0 -36 12.5 -51.5t41.5 -15.5h24v-106z
" />
    <glyph glyph-name="asciitilde" unicode="~" horiz-adv-x="460" 
d="M301 337q20 0 39 6t28 12l9 6l42 -89q-4 -5 -13 -12t-39 -19t-63 -12q-28 0 -72.5 12t-74.5 12q-20 0 -39 -6t-28 -12l-9 -6l-42 89q4 5 13 12t39 19t63 12q28 0 72.5 -12t74.5 -12z" />
    <glyph glyph-name="uni00A0" unicode="&#xa0;" horiz-adv-x="156" 
 />
    <glyph glyph-name="exclamdown" unicode="&#xa1;" horiz-adv-x="259" 
d="M211 45v-45h-164v45l35 341h94zM45 524q0 35 24.5 60t59.5 25t60 -25t25 -60t-25 -59.5t-60 -24.5t-59.5 24.5t-24.5 59.5z" />
    <glyph glyph-name="cent" unicode="&#xa2;" horiz-adv-x="402" 
d="M181 -109v107q-69 15 -109 63t-40 112t39.5 111.5t108.5 63.5v107h96v-104q26 -3 49.5 -10.5t34.5 -12.5l10 -6l-49 -110q-34 24 -71 24q-34 0 -53.5 -17t-19.5 -46q0 -28 19.5 -45.5t53.5 -17.5q16 0 34 5.5t28 10.5l9 6l49 -110q-35 -21 -93 -27v-104h-96z" />
    <glyph glyph-name="sterling" unicode="&#xa3;" horiz-adv-x="528" 
d="M480 125v-125h-418v125q52 12 52 88h-78v96h50q-18 49 -18 95q0 84 65 146.5t181 62.5q59 0 105 -18.5t63 -36.5l16 -18l-81 -108q-41 41 -95 41q-44 0 -68.5 -23.5t-24.5 -58.5q0 -36 19 -82h147v-96h-128q-1 -52 -31 -88h244z" />
    <glyph glyph-name="currency" unicode="&#xa4;" horiz-adv-x="579" 
d="M137 53l-92 90l59 58q-23 44 -23 97q0 52 23 96l-59 59l92 90l54 -62q46 24 97 24q52 0 99 -25l55 63l92 -90l-62 -61q23 -43 23 -94t-23 -95l62 -60l-92 -90l-55 63q-47 -25 -99 -25q-54 0 -97 24zM212 298q0 -32 22 -54t54 -22t54 22t22 54t-22 54t-54 22t-54 -22
t-22 -54z" />
    <glyph glyph-name="yen" unicode="&#xa5;" horiz-adv-x="641" 
d="M345 418l104 182h167l-169 -279h101v-96h-156v-39h156v-96h-156v-90h-145v90h-156v96h156v39h-156v96h101l-166 279h167l104 -182l21 -46h6z" />
    <glyph glyph-name="brokenbar" unicode="&#xa6;" horiz-adv-x="245" 
d="M188 -152h-131v825h131v-825z" />
    <glyph glyph-name="section" unicode="&#xa7;" 
d="M29 -121l79 111q9 -6 24.5 -16t57.5 -26t78 -16q75 0 75 50q0 17 -16 31.5t-31 21t-50 19.5q-33 11 -53 19t-50 24t-46.5 34t-29.5 46t-13 62q0 62 36 98q-36 36 -36 90q0 85 57 135.5t169 50.5q69 0 124 -16t75 -32l20 -16l-78 -118q-7 6 -19 14t-49 22t-73 14
q-59 0 -59 -44q0 -39 74 -62q33 -11 41.5 -14t40 -15.5t43 -20t34.5 -23.5t32.5 -31t18 -37.5t8.5 -47.5q0 -74 -38 -116q38 -40 38 -87q0 -80 -61.5 -132t-179.5 -52q-45 0 -87 8t-69 20t-47.5 24t-30.5 20zM246 262q-35 10 -44 13q-6 -9 -6 -26q0 -49 99 -82q27 -8 65 -23
q8 16 8 31q0 22 -19 39t-39.5 25.5t-63.5 22.5z" />
    <glyph glyph-name="dieresis" unicode="&#xa8;" horiz-adv-x="403" 
d="M43 483q0 27 20.5 47.5t46.5 20.5q27 0 47.5 -20.5t20.5 -47.5q0 -26 -20.5 -46.5t-47.5 -20.5q-26 0 -46.5 20.5t-20.5 46.5zM233 483q0 27 20.5 47.5t46.5 20.5q27 0 47.5 -20.5t20.5 -47.5q0 -26 -20.5 -46.5t-47.5 -20.5q-26 0 -46.5 20.5t-20.5 46.5z" />
    <glyph glyph-name="copyright" unicode="&#xa9;" horiz-adv-x="708" 
d="M353 613q147 0 234.5 -90t87.5 -223t-87.5 -223t-234.5 -90q-145 0 -232.5 90t-87.5 223t87.5 223t232.5 90zM353 537q-109 0 -175 -68.5t-66 -168.5t66 -168t175 -68q111 0 177.5 68t66.5 168q0 101 -66.5 169t-177.5 68zM463 418l-47 -65q-19 15 -52 15
q-31 0 -49.5 -19t-18.5 -49q0 -31 18.5 -49.5t49.5 -18.5q15 0 28 3.5t18 6.5l6 4l47 -64q-4 -4 -11.5 -10t-34.5 -16t-59 -10q-72 0 -115 44t-43 110q0 65 43 109.5t115 44.5q32 0 58.5 -9t36.5 -18z" />
    <glyph glyph-name="ordfeminine" unicode="&#xaa;" horiz-adv-x="388" 
d="M21 365q0 47 36 73.5t95 26.5q55 0 84 -22v21q0 29 -19.5 41t-60.5 12q-37 0 -80 -20l-34 90q72 26 139 26q85 0 127.5 -41t42.5 -114v-184h-87l-16 35h-3q-27 -43 -103 -43q-51 0 -86 27.5t-35 71.5zM133 372q0 -33 48 -33q22 0 38.5 9t16.5 24q0 14 -16 24t-39 10
q-48 0 -48 -34z" />
    <glyph glyph-name="guillemotleft" unicode="&#xab;" horiz-adv-x="476" 
d="M21 161v21l106 154h119v-9l-101 -150v-9l101 -152v-9h-119zM231 161v21l106 154h119v-9l-101 -150v-9l101 -152v-9h-119z" />
    <glyph glyph-name="logicalnot" unicode="&#xac;" horiz-adv-x="569" 
d="M29 230v116h472v-346h-118v230h-354z" />
    <glyph glyph-name="registered" unicode="&#xae;" horiz-adv-x="562" 
d="M521 379q0 -99 -66 -167.5t-175 -68.5q-108 0 -173.5 68.5t-65.5 167.5q0 100 65 168.5t174 68.5t175 -68.5t66 -168.5zM440 379q0 72 -45.5 116t-114.5 44t-113.5 -41.5t-44.5 -118.5q0 -71 45.5 -115t112.5 -44q69 0 114.5 44t45.5 115zM190 485h100q40 0 64.5 -21
t24.5 -55q0 -39 -32 -61l36 -53v-12h-64l-33 49h-35v-49h-61v202zM288 430h-37v-45h37q27 0 27 22q0 23 -27 23z" />
    <glyph glyph-name="macron" unicode="&#xaf;" horiz-adv-x="376" 
d="M52 438v85h286v-85h-286z" />
    <glyph glyph-name="degree" unicode="&#xb0;" horiz-adv-x="276" 
d="M138 672q52 0 85 -31t33 -77t-33 -77t-85 -31t-85 31t-33 77t33 77t85 31zM138 603q-18 0 -28.5 -10.5t-10.5 -28.5q0 -16 10.5 -26.5t28.5 -10.5t29 10.5t11 26.5q0 18 -11 28.5t-29 10.5z" />
    <glyph glyph-name="plusminus" unicode="&#xb1;" horiz-adv-x="515" 
d="M318 192h-118v141h-152v116h152v149h118v-149h149v-116h-149v-141zM467 133v-116h-419v116h419z" />
    <glyph glyph-name="twosuperior" unicode="&#xb2;" horiz-adv-x="304" 
d="M23 342v21l120 144q22 28 22 45q0 15 -10 24.5t-27 9.5q-28 0 -68 -32l-49 74q6 5 16 13.5t43 22t68 13.5q66 0 98 -31t32 -79q0 -41 -37 -88l-46 -56h99v-81h-261z" />
    <glyph glyph-name="threesuperior" unicode="&#xb3;" horiz-adv-x="309" 
d="M29 586v82h245v-21l-56 -103q70 -17 70 -95q0 -49 -37 -82t-107 -33q-34 0 -65 10.5t-45 19.5t-21 16l48 71q36 -29 80 -29q48 0 48 30q0 29 -44 29h-48v23l44 82h-112z" />
    <glyph glyph-name="acute" unicode="&#xb4;" horiz-adv-x="247" 
d="M223 555l-99 -136h-92v22l28 136h163v-22z" />
    <glyph glyph-name="mu" unicode="&#xb5;" horiz-adv-x="515" 
d="M205 -192h-143v538h144v-186q0 -23 12.5 -36.5t34.5 -13.5q21 0 35.5 12.5t14.5 32.5v191h144v-346h-99l-24 45h-6q-29 -53 -101 -53q-2 0 -6 0.5t-6 0.5v-185z" />
    <glyph glyph-name="paragraph" unicode="&#xb6;" horiz-adv-x="506" 
d="M279 -133v239h-11q-108 0 -175 53t-67 150q0 92 62.5 144t170.5 52h165v-638h-145z" />
    <glyph glyph-name="periodcentered" unicode="&#xb7;" horiz-adv-x="223" 
d="M27 357q0 35 24.5 60t59.5 25t60 -25t25 -60t-25 -59.5t-60 -24.5t-59.5 24.5t-24.5 59.5z" />
    <glyph glyph-name="cedilla" unicode="&#xb8;" horiz-adv-x="216" 
d="M77 -79l-23 26l26 56h65l-13 -33q28 0 46 -17.5t18 -47.5q0 -35 -24 -56.5t-67 -21.5q-29 0 -52.5 9.5t-32.5 19.5l-9 9l28 48q24 -24 62 -24q29 0 29 20q0 19 -26 19q-8 0 -14.5 -2t-9.5 -4z" />
    <glyph glyph-name="onesuperior" unicode="&#xb9;" horiz-adv-x="216" 
d="M14 586v82h159v-326h-94v244h-65z" />
    <glyph glyph-name="ordmasculine" unicode="&#xba;" horiz-adv-x="394" 
d="M197 613q76 0 126 -48t50 -128q0 -76 -50 -123.5t-126 -47.5q-77 0 -126.5 47.5t-49.5 123.5q0 80 49.5 128t126.5 48zM197 515q-29 0 -46 -21.5t-17 -55.5q0 -32 17 -52.5t46 -20.5q30 0 46 20t16 53q0 35 -16 56t-46 21z" />
    <glyph glyph-name="guillemotright" unicode="&#xbb;" horiz-adv-x="476" 
d="M245 182v-21l-106 -154h-119v9l101 152v9l-101 150v9h119zM455 182v-21l-106 -154h-119v9l101 152v9l-101 150v9h119z" />
    <glyph glyph-name="onequarter" unicode="&#xbc;" horiz-adv-x="650" 
d="M118 -7l-68 56l469 564l69 -56zM313 67v60l188 199h71v-183h50v-76h-50v-67h-90v67h-169zM30 518v82h159v-326h-94v244h-65zM423 143v-2l27 2h32v43l1 21h-2l-40 -48z" />
    <glyph glyph-name="onehalf" unicode="&#xbd;" horiz-adv-x="721" 
d="M115 -7l-68 56l469 564l69 -56zM432 21v-21h261v81h-99l46 56q37 47 37 88q0 48 -32 79t-98 31q-35 0 -66.5 -12.5t-46.5 -24.5l-14 -12l49 -74q40 32 68 32q17 0 27 -9.5t10 -24.5q0 -17 -22 -45zM33 518v82h159v-326h-94v244h-65z" />
    <glyph glyph-name="threequarters" unicode="&#xbe;" horiz-adv-x="731" 
d="M197 -7l-68 56l469 564l69 -56zM45 518v82h245v-21l-56 -103q70 -17 70 -95q0 -49 -37 -82t-107 -33q-34 0 -65 10.5t-45 19.5t-21 16l48 71q36 -29 80 -29q48 0 48 30q0 29 -37 29h-55v23l44 82h-112zM392 60v60l188 199h71v-183h50v-76h-50v-60h-90v60h-169zM502 136
v-2l27 2h32v43l1 21h-2l-40 -48z" />
    <glyph glyph-name="questiondown" unicode="&#xbf;" horiz-adv-x="400" 
d="M325 132l49 -110q-60 -30 -158 -30q-85 0 -133.5 43.5t-48.5 107.5q0 39 13 69t32 49t38.5 35.5t35 37.5t19.5 45l3 19h94v-30q0 -32 -14 -60.5t-31 -46t-31 -41.5t-14 -47q0 -29 19.5 -46t50.5 -17q19 0 38 5.5t29 10.5zM300 532q0 -34 -23.5 -57t-57.5 -23t-57 23
t-23 57t23 57.5t57 23.5t57.5 -23.5t23.5 -57.5z" />
    <glyph glyph-name="Agrave" unicode="&#xc0;" horiz-adv-x="622" 
d="M261 638l-99 136v22h163l28 -136v-22h-92zM-15 0l314 600h24l315 -600h-164l-33 71h-261l-32 -71h-163zM388 189l-74 157h-8l-74 -157l-9 -16h174z" />
    <glyph glyph-name="Aacute" unicode="&#xc1;" horiz-adv-x="622" 
d="M-15 0l314 600h24l315 -600h-164l-33 71h-261l-32 -71h-163zM388 189l-74 157h-8l-74 -157l-9 -16h174zM457 774l-99 -136h-92v22l28 136h163v-22z" />
    <glyph glyph-name="Acircumflex" unicode="&#xc2;" horiz-adv-x="622" 
d="M-15 0l314 600h24l315 -600h-164l-33 71h-261l-32 -71h-163zM388 189l-74 157h-8l-74 -157l-9 -16h174zM369 638l-60 71l-61 -71h-92v22l78 136h149l78 -136v-22h-92z" />
    <glyph glyph-name="Atilde" unicode="&#xc3;" horiz-adv-x="622" 
d="M-15 0l314 600h24l315 -600h-164l-33 71h-261l-32 -71h-163zM388 189l-74 157h-8l-74 -157l-9 -16h174zM382 628q-33 0 -71.5 18t-51.5 18q-21 0 -28 -25l-4 -16l-101 9l6 37q8 48 35.5 75t72.5 27q33 0 71.5 -18t51.5 -18q21 0 28 25l4 16l101 -9l-6 -37
q-8 -48 -35.5 -75t-72.5 -27z" />
    <glyph glyph-name="Adieresis" unicode="&#xc4;" horiz-adv-x="622" 
d="M-15 0l314 600h24l315 -600h-164l-33 71h-261l-32 -71h-163zM388 189l-74 157h-8l-74 -157l-9 -16h174zM149 737q0 27 20.5 47.5t46.5 20.5q27 0 47.5 -20.5t20.5 -47.5q0 -26 -20.5 -46.5t-47.5 -20.5q-26 0 -46.5 20.5t-20.5 46.5zM339 737q0 27 20.5 47.5t46.5 20.5
q27 0 47.5 -20.5t20.5 -47.5q0 -26 -20.5 -46.5t-47.5 -20.5q-26 0 -46.5 20.5t-20.5 46.5z" />
    <glyph glyph-name="Aring" unicode="&#xc5;" horiz-adv-x="624" 
d="M-14 0l281 536q-31 13 -50 40t-19 61q0 46 33 77.5t81 31.5t81 -31.5t33 -77.5q0 -34 -19 -61t-50 -40l282 -536h-164l-33 71h-261l-32 -71h-163zM389 189l-74 157h-8l-74 -157l-9 -16h174zM339 637q0 12 -7.5 19.5t-19.5 7.5q-11 0 -18.5 -7.5t-7.5 -19.5
q0 -11 7.5 -18.5t18.5 -7.5q12 0 19.5 7.5t7.5 18.5z" />
    <glyph glyph-name="AE" unicode="&#xc6;" horiz-adv-x="929" 
d="M-23 0l419 600h499v-125h-332v-121h264v-114h-264v-115h332v-125h-477v71h-214l-45 -71h-182zM414 397l-145 -224h149v224h-4z" />
    <glyph glyph-name="Ccedilla" unicode="&#xc7;" horiz-adv-x="578" 
d="M483 171l83 -111q-7 -7 -20.5 -18t-62.5 -31t-107 -23l-7 -18q28 0 46 -17.5t18 -47.5q0 -35 -24 -56.5t-67 -21.5q-29 0 -52.5 9.5t-32.5 19.5l-9 9l28 48q24 -24 62 -24q29 0 29 20q0 19 -26 19q-8 0 -14.5 -2t-9.5 -4l-3 -1l-23 26l19 42q-129 13 -204.5 100.5
t-75.5 210.5q0 133 87.5 223t234.5 90q66 0 119.5 -18.5t74.5 -36.5l20 -18l-83 -111q-62 45 -129 45q-77 0 -125.5 -48t-48.5 -126t48.5 -126t125.5 -48q38 0 70 11t46 23z" />
    <glyph glyph-name="Egrave" unicode="&#xc8;" horiz-adv-x="577" 
d="M265 637l-99 136v22h163l28 -136v-22h-92zM475 357v-114h-264v-118h332v-125h-477v600h477v-125h-332v-118h264z" />
    <glyph glyph-name="Eacute" unicode="&#xc9;" horiz-adv-x="577" 
d="M475 357v-114h-264v-118h332v-125h-477v600h477v-125h-332v-118h264zM444 774l-99 -136h-92v22l28 136h163v-22z" />
    <glyph glyph-name="Ecircumflex" unicode="&#xca;" horiz-adv-x="577" 
d="M475 357v-114h-264v-118h332v-125h-477v600h477v-125h-332v-118h264zM364 638l-60 71l-61 -71h-92v22l78 136h149l78 -136v-22h-92z" />
    <glyph glyph-name="Edieresis" unicode="&#xcb;" horiz-adv-x="577" 
d="M141 705q0 27 20.5 47.5t46.5 20.5q27 0 47.5 -20.5t20.5 -47.5q0 -26 -20.5 -46.5t-47.5 -20.5q-26 0 -46.5 20.5t-20.5 46.5zM331 705q0 27 20.5 47.5t46.5 20.5q27 0 47.5 -20.5t20.5 -47.5q0 -26 -20.5 -46.5t-47.5 -20.5q-26 0 -46.5 20.5t-20.5 46.5zM475 357v-114
h-264v-118h332v-125h-477v600h477v-125h-332v-118h264z" />
    <glyph glyph-name="Igrave" unicode="&#xcc;" horiz-adv-x="277" 
d="M91 637l-99 136v22h163l28 -136v-22h-92zM211 600v-600h-145v600h145z" />
    <glyph glyph-name="Iacute" unicode="&#xcd;" horiz-adv-x="277" 
d="M211 600v-600h-145v600h145zM284 774l-99 -136h-92v22l28 136h163v-22z" />
    <glyph glyph-name="Icircumflex" unicode="&#xce;" horiz-adv-x="277" 
d="M211 600v-600h-145v600h145zM199 638l-60 71l-61 -71h-92v22l78 136h149l78 -136v-22h-92z" />
    <glyph glyph-name="Idieresis" unicode="&#xcf;" horiz-adv-x="277" 
d="M-30 705q0 27 20.5 47.5t46.5 20.5q27 0 47.5 -20.5t20.5 -47.5q0 -26 -20.5 -46.5t-47.5 -20.5q-26 0 -46.5 20.5t-20.5 46.5zM160 705q0 27 20.5 47.5t46.5 20.5q27 0 47.5 -20.5t20.5 -47.5q0 -26 -20.5 -46.5t-47.5 -20.5q-26 0 -46.5 20.5t-20.5 46.5zM211 600v-600
h-145v600h145z" />
    <glyph glyph-name="Eth" unicode="&#xd0;" horiz-adv-x="671" 
d="M5 263v73h68v264h249q147 0 232.5 -84t85.5 -216t-85.5 -216t-232.5 -84h-249v263h-68zM311 475h-93v-139h87v-73h-87v-138h93q81 0 130 45.5t49 129.5t-49 129.5t-130 45.5z" />
    <glyph glyph-name="Ntilde" unicode="&#xd1;" horiz-adv-x="697" 
d="M631 599v-599h-33l-388 331v-331h-144v600h33l388 -318v317h144zM414 643q-33 0 -71.5 18t-51.5 18q-21 0 -28 -25l-4 -16l-101 9l6 37q8 48 35.5 75t72.5 27q33 0 71.5 -18t51.5 -18q21 0 28 25l4 16l101 -9l-6 -37q-8 -48 -35.5 -75t-72.5 -27z" />
    <glyph glyph-name="Ograve" unicode="&#xd2;" horiz-adv-x="702" 
d="M299 638l-99 136v22h163l28 -136v-22h-92zM350 -13q-145 0 -232.5 90t-87.5 223t87.5 223t232.5 90q147 0 234.5 -90t87.5 -223t-87.5 -223t-234.5 -90zM350 127q74 0 123 48t49 125t-49 125t-123 48q-73 0 -121.5 -48t-48.5 -125t48.5 -125t121.5 -48z" />
    <glyph glyph-name="Oacute" unicode="&#xd3;" horiz-adv-x="702" 
d="M350 -13q-145 0 -232.5 90t-87.5 223t87.5 223t232.5 90q147 0 234.5 -90t87.5 -223t-87.5 -223t-234.5 -90zM350 127q74 0 123 48t49 125t-49 125t-123 48q-73 0 -121.5 -48t-48.5 -125t48.5 -125t121.5 -48zM495 774l-99 -136h-92v22l28 136h163v-22z" />
    <glyph glyph-name="Ocircumflex" unicode="&#xd4;" horiz-adv-x="702" 
d="M350 -13q-145 0 -232.5 90t-87.5 223t87.5 223t232.5 90q147 0 234.5 -90t87.5 -223t-87.5 -223t-234.5 -90zM350 127q74 0 123 48t49 125t-49 125t-123 48q-73 0 -121.5 -48t-48.5 -125t48.5 -125t121.5 -48zM406 638l-60 71l-61 -71h-92v22l78 136h149l78 -136v-22h-92
z" />
    <glyph glyph-name="Otilde" unicode="&#xd5;" horiz-adv-x="702" 
d="M350 -13q-145 0 -232.5 90t-87.5 223t87.5 223t232.5 90q147 0 234.5 -90t87.5 -223t-87.5 -223t-234.5 -90zM350 127q74 0 123 48t49 125t-49 125t-123 48q-73 0 -121.5 -48t-48.5 -125t48.5 -125t121.5 -48zM417 642q-33 0 -71.5 18t-51.5 18q-21 0 -28 -25l-4 -16
l-101 9l6 37q8 48 35.5 75t72.5 27q33 0 71.5 -18t51.5 -18q21 0 28 25l4 16l101 -9l-6 -37q-8 -48 -35.5 -75t-72.5 -27z" />
    <glyph glyph-name="Odieresis" unicode="&#xd6;" horiz-adv-x="702" 
d="M183 704q0 27 20.5 47.5t46.5 20.5q27 0 47.5 -20.5t20.5 -47.5q0 -26 -20.5 -46.5t-47.5 -20.5q-26 0 -46.5 20.5t-20.5 46.5zM373 704q0 27 20.5 47.5t46.5 20.5q27 0 47.5 -20.5t20.5 -47.5q0 -26 -20.5 -46.5t-47.5 -20.5q-26 0 -46.5 20.5t-20.5 46.5zM350 -13
q-145 0 -232.5 90t-87.5 223t87.5 223t232.5 90q147 0 234.5 -90t87.5 -223t-87.5 -223t-234.5 -90zM350 127q74 0 123 48t49 125t-49 125t-123 48q-73 0 -121.5 -48t-48.5 -125t48.5 -125t121.5 -48z" />
    <glyph glyph-name="multiply" unicode="&#xd7;" horiz-adv-x="512" 
d="M119 85l-81 81l137 137l-137 137l81 81l137 -137l137 137l81 -81l-137 -137l137 -137l-81 -81l-137 137z" />
    <glyph glyph-name="Oslash" unicode="&#xd8;" horiz-adv-x="700" 
d="M349 -13q-120 0 -203 64l-60 -59l-50 51l59 58q-66 83 -66 199q0 133 87.5 223t232.5 90q119 0 204 -64l52 51l50 -51l-51 -50q67 -84 67 -199q0 -133 -87.5 -223t-234.5 -90zM349 127q74 0 123 48t49 125q0 52 -25 93l-244 -238q44 -28 97 -28zM179 300q0 -54 24 -93
l243 238q-42 28 -97 28q-73 0 -121.5 -48t-48.5 -125z" />
    <glyph glyph-name="Ugrave" unicode="&#xd9;" horiz-adv-x="665" 
d="M284 638l-99 136v22h163l28 -136v-22h-92zM333 -13q-125 0 -200.5 77t-75.5 195v341h145v-341q0 -55 34 -93.5t97 -38.5q64 0 97 37.5t33 94.5v341h145v-341q0 -119 -74.5 -195.5t-200.5 -76.5z" />
    <glyph glyph-name="Uacute" unicode="&#xda;" horiz-adv-x="665" 
d="M333 -13q-125 0 -200.5 77t-75.5 195v341h145v-341q0 -55 34 -93.5t97 -38.5q64 0 97 37.5t33 94.5v341h145v-341q0 -119 -74.5 -195.5t-200.5 -76.5zM479 774l-99 -136h-92v22l28 136h163v-22z" />
    <glyph glyph-name="Ucircumflex" unicode="&#xdb;" horiz-adv-x="665" 
d="M333 -13q-125 0 -200.5 77t-75.5 195v341h145v-341q0 -55 34 -93.5t97 -38.5q64 0 97 37.5t33 94.5v341h145v-341q0 -119 -74.5 -195.5t-200.5 -76.5zM392 638l-60 71l-61 -71h-92v22l78 136h149l78 -136v-22h-92z" />
    <glyph glyph-name="Udieresis" unicode="&#xdc;" horiz-adv-x="665" 
d="M169 706q0 27 20.5 47.5t46.5 20.5q27 0 47.5 -20.5t20.5 -47.5q0 -26 -20.5 -46.5t-47.5 -20.5q-26 0 -46.5 20.5t-20.5 46.5zM359 706q0 27 20.5 47.5t46.5 20.5q27 0 47.5 -20.5t20.5 -47.5q0 -26 -20.5 -46.5t-47.5 -20.5q-26 0 -46.5 20.5t-20.5 46.5zM333 -13
q-125 0 -200.5 77t-75.5 195v341h145v-341q0 -55 34 -93.5t97 -38.5q64 0 97 37.5t33 94.5v341h145v-341q0 -119 -74.5 -195.5t-200.5 -76.5z" />
    <glyph glyph-name="Yacute" unicode="&#xdd;" horiz-adv-x="572" 
d="M311 418l104 182h167l-224 -371v-229h-145v230l-221 370h167l104 -182l21 -46h6zM435 774l-99 -136h-92v22l28 136h163v-22z" />
    <glyph glyph-name="Thorn" unicode="&#xde;" horiz-adv-x="616" 
d="M211 600v-88h139q115 0 181.5 -55.5t66.5 -153.5q0 -103 -71.5 -159.5t-186.5 -56.5h-129v-87h-145v600h145zM448 297q0 43 -27.5 66.5t-77.5 23.5h-132v-180h133q104 0 104 90z" />
    <glyph glyph-name="germandbls" unicode="&#xdf;" horiz-adv-x="522" 
d="M285 93h-56v34l57 108h-99v-235h-145v428q0 204 199 204q22 0 42.5 -3t30.5 -7l10 -3l-36 -123q-15 5 -33 5q-68 0 -68 -62v-93h295v-24l-79 -147q94 -27 94 -130q0 -72 -52 -111.5t-139 -39.5q-31 0 -59.5 4t-40.5 8l-13 5l30 101q38 -12 61 -12q27 0 42 13.5t15 34.5
q0 45 -56 45z" />
    <glyph glyph-name="agrave" unicode="&#xe0;" horiz-adv-x="426" 
d="M21 96q0 51 37.5 78.5t102.5 27.5q31 0 53 -5t28 -11l6 -5h6v13q0 47 -80 47q-21 0 -44 -5.5t-35 -11.5l-12 -5l-41 104q70 31 158 31q96 0 143 -43.5t47 -121.5v-189h-105l-15 34h-6q-21 -42 -108 -42q-59 0 -97 29t-38 75zM157 110q0 -32 45 -32q48 0 48 32
q0 13 -12.5 22t-35.5 9q-45 0 -45 -31zM173 419l-99 136v22h163l28 -136v-22h-92z" />
    <glyph glyph-name="aacute" unicode="&#xe1;" horiz-adv-x="426" 
d="M21 96q0 51 37.5 78.5t102.5 27.5q31 0 53 -5t28 -11l6 -5h6v13q0 47 -80 47q-21 0 -44 -5.5t-35 -11.5l-12 -5l-41 104q70 31 158 31q96 0 143 -43.5t47 -121.5v-189h-105l-15 34h-6q-21 -42 -108 -42q-59 0 -97 29t-38 75zM157 110q0 -32 45 -32q48 0 48 32
q0 13 -12.5 22t-35.5 9q-45 0 -45 -31zM356 555l-99 -136h-92v22l28 136h163v-22z" />
    <glyph glyph-name="acircumflex" unicode="&#xe2;" horiz-adv-x="426" 
d="M21 96q0 51 37.5 78.5t102.5 27.5q31 0 53 -5t28 -11l6 -5h6v13q0 47 -80 47q-21 0 -44 -5.5t-35 -11.5l-12 -5l-41 104q70 31 158 31q96 0 143 -43.5t47 -121.5v-189h-105l-15 34h-6q-21 -42 -108 -42q-59 0 -97 29t-38 75zM157 110q0 -32 45 -32q48 0 48 32
q0 13 -12.5 22t-35.5 9q-45 0 -45 -31zM266 419l-60 71l-61 -71h-92v22l78 136h149l78 -136v-22h-92z" />
    <glyph glyph-name="atilde" unicode="&#xe3;" horiz-adv-x="426" 
d="M21 96q0 51 37.5 78.5t102.5 27.5q31 0 53 -5t28 -11l6 -5h6v13q0 47 -80 47q-21 0 -44 -5.5t-35 -11.5l-12 -5l-41 104q70 31 158 31q96 0 143 -43.5t47 -121.5v-189h-105l-15 34h-6q-21 -42 -108 -42q-59 0 -97 29t-38 75zM157 110q0 -32 45 -32q48 0 48 32
q0 13 -12.5 22t-35.5 9q-45 0 -45 -31zM283 422q-33 0 -71.5 18t-51.5 18q-21 0 -28 -25l-4 -16l-101 9l6 37q8 48 35.5 75t72.5 27q33 0 71.5 -18t51.5 -18q21 0 28 25l4 16l101 -9l-6 -37q-8 -48 -35.5 -75t-72.5 -27z" />
    <glyph glyph-name="adieresis" unicode="&#xe4;" horiz-adv-x="426" 
d="M21 96q0 51 37.5 78.5t102.5 27.5q31 0 53 -5t28 -11l6 -5h6v13q0 47 -80 47q-21 0 -44 -5.5t-35 -11.5l-12 -5l-41 104q70 31 158 31q96 0 143 -43.5t47 -121.5v-189h-105l-15 34h-6q-21 -42 -108 -42q-59 0 -97 29t-38 75zM157 110q0 -32 45 -32q48 0 48 32
q0 13 -12.5 22t-35.5 9q-45 0 -45 -31zM57 483q0 27 20.5 47.5t46.5 20.5q27 0 47.5 -20.5t20.5 -47.5q0 -26 -20.5 -46.5t-47.5 -20.5q-26 0 -46.5 20.5t-20.5 46.5zM247 483q0 27 20.5 47.5t46.5 20.5q27 0 47.5 -20.5t20.5 -47.5q0 -26 -20.5 -46.5t-47.5 -20.5
q-26 0 -46.5 20.5t-20.5 46.5z" />
    <glyph glyph-name="aring" unicode="&#xe5;" horiz-adv-x="426" 
d="M21 96q0 51 37.5 78.5t102.5 27.5q31 0 53 -5t28 -11l6 -5h6v13q0 47 -80 47q-21 0 -44 -5.5t-35 -11.5l-12 -5l-41 104q70 31 158 31q96 0 143 -43.5t47 -121.5v-189h-105l-15 34h-6q-21 -42 -108 -42q-59 0 -97 29t-38 75zM157 110q0 -32 45 -32q48 0 48 32
q0 13 -12.5 22t-35.5 9q-45 0 -45 -31zM206 412q-48 0 -81 31.5t-33 77.5t33 77.5t81 31.5t81 -31.5t33 -77.5t-33 -77.5t-81 -31.5zM233 521q0 12 -7.5 19.5t-19.5 7.5q-11 0 -18.5 -7.5t-7.5 -19.5q0 -11 7.5 -18.5t18.5 -7.5q12 0 19.5 7.5t7.5 18.5z" />
    <glyph glyph-name="ae" unicode="&#xe6;" horiz-adv-x="650" 
d="M248 181h7v13q0 47 -81 47q-21 0 -44 -5.5t-35 -11.5l-12 -5l-41 104q70 31 158 31q83 0 131 -34q52 34 118 34q83 0 132 -49t49 -132l-2 -30h-232q15 -45 73 -45q24 0 45.5 6t31.5 12l9 5l44 -94q-6 -4 -17.5 -10.5t-52.5 -17t-87 -10.5q-72 0 -120 37q-50 -34 -131 -34
q-87 0 -128.5 30t-41.5 79q0 48 38 74.5t102 26.5q31 0 53 -5t28 -11zM157 109q0 -34 47 -34q25 0 38 9.5t13 24.5q0 14 -13.5 23t-37.5 9q-47 0 -47 -32zM449 258q-46 0 -55 -52h105q0 25 -13.5 38.5t-36.5 13.5z" />
    <glyph glyph-name="ccedilla" unicode="&#xe7;" horiz-adv-x="357" 
d="M191 -79l-23 26l22 48q-77 10 -122.5 60t-45.5 118q0 78 56.5 129.5t148.5 51.5q35 0 63.5 -7t39.5 -14l11 -7l-40 -106q-24 16 -61 16q-34 0 -53.5 -17t-19.5 -46q0 -28 19.5 -45.5t53.5 -17.5q16 0 31.5 4t22.5 8l7 4l37 -105q-26 -22 -83 -28l-9 -23q28 0 46 -17.5
t18 -47.5q0 -35 -24 -56.5t-67 -21.5q-29 0 -52.5 9.5t-32.5 19.5l-9 9l28 48q24 -24 62 -24q29 0 29 20q0 19 -26 19q-8 0 -14.5 -2t-9.5 -4z" />
    <glyph glyph-name="egrave" unicode="&#xe8;" horiz-adv-x="414" 
d="M320 117l45 -88q-5 -4 -14 -11t-44 -18t-76 -11q-96 0 -152 53t-56 131t54 129.5t138 51.5q83 0 131.5 -49t48.5 -132l-1 -26h-232q14 -49 76 -49q24 0 44.5 5t29.5 9zM213 253q-40 0 -51 -43h99q-2 18 -14.5 30.5t-33.5 12.5zM170 419l-99 136v22h163l28 -136v-22h-92z
" />
    <glyph glyph-name="eacute" unicode="&#xe9;" horiz-adv-x="414" 
d="M320 117l45 -88q-5 -4 -14 -11t-44 -18t-76 -11q-96 0 -152 53t-56 131t54 129.5t138 51.5q83 0 131.5 -49t48.5 -132l-1 -26h-232q14 -49 76 -49q24 0 44.5 5t29.5 9zM213 253q-40 0 -51 -43h99q-2 18 -14.5 30.5t-33.5 12.5zM358 555l-99 -136h-92v22l28 136h163v-22z
" />
    <glyph glyph-name="ecircumflex" unicode="&#xea;" horiz-adv-x="414" 
d="M320 117l45 -88q-5 -4 -14 -11t-44 -18t-76 -11q-96 0 -152 53t-56 131t54 129.5t138 51.5q83 0 131.5 -49t48.5 -132l-1 -26h-232q14 -49 76 -49q24 0 44.5 5t29.5 9zM213 253q-40 0 -51 -43h99q-2 18 -14.5 30.5t-33.5 12.5zM273 419l-60 71l-61 -71h-92v22l78 136h149
l78 -136v-22h-92z" />
    <glyph glyph-name="edieresis" unicode="&#xeb;" horiz-adv-x="414" 
d="M320 117l45 -88q-5 -4 -14 -11t-44 -18t-76 -11q-96 0 -152 53t-56 131t54 129.5t138 51.5q83 0 131.5 -49t48.5 -132l-1 -26h-232q14 -49 76 -49q24 0 44.5 5t29.5 9zM213 253q-40 0 -51 -43h99q-2 18 -14.5 30.5t-33.5 12.5zM56 483q0 27 20.5 47.5t46.5 20.5
q27 0 47.5 -20.5t20.5 -47.5q0 -26 -20.5 -46.5t-47.5 -20.5q-26 0 -46.5 20.5t-20.5 46.5zM246 483q0 27 20.5 47.5t46.5 20.5q27 0 47.5 -20.5t20.5 -47.5q0 -26 -20.5 -46.5t-47.5 -20.5q-26 0 -46.5 20.5t-20.5 46.5z" />
    <glyph glyph-name="igrave" unicode="&#xec;" horiz-adv-x="226" 
d="M41 0v346h144v-346h-144zM63 419l-99 136v22h163l28 -136v-22h-92z" />
    <glyph glyph-name="iacute" unicode="&#xed;" horiz-adv-x="226" 
d="M41 0v346h144v-346h-144zM256 555l-99 -136h-92v22l28 136h163v-22z" />
    <glyph glyph-name="icircumflex" unicode="&#xee;" horiz-adv-x="226" 
d="M41 0v346h144v-346h-144zM176 419l-60 71l-61 -71h-92v22l78 136h149l78 -136v-22h-92z" />
    <glyph glyph-name="idieresis" unicode="&#xef;" horiz-adv-x="226" 
d="M41 0v346h144v-346h-144zM-48 483q0 27 20.5 47.5t46.5 20.5q27 0 47.5 -20.5t20.5 -47.5q0 -26 -20.5 -46.5t-47.5 -20.5q-26 0 -46.5 20.5t-20.5 46.5zM142 483q0 27 20.5 47.5t46.5 20.5q27 0 47.5 -20.5t20.5 -47.5q0 -26 -20.5 -46.5t-47.5 -20.5q-26 0 -46.5 20.5
t-20.5 46.5z" />
    <glyph glyph-name="eth" unicode="&#xf0;" horiz-adv-x="456" 
d="M104 366l-44 76l81 46l-54 97v15h135l29 -50l84 48l44 -76l-84 -48l81 -136q31 -51 43 -86t12 -80q0 -83 -56 -131.5t-148 -48.5q-91 0 -147.5 48.5t-56.5 131.5q0 78 53.5 128t138.5 54v11q-14 14 -26 36l-6 10zM227 110q28 0 43.5 17.5t15.5 46.5q0 28 -15 45t-44 17
q-27 0 -43 -17t-16 -45t16 -46t43 -18z" />
    <glyph glyph-name="ntilde" unicode="&#xf1;" horiz-adv-x="464" 
d="M42 0v346h86l24 -45h6q39 53 114 53q71 0 113 -39t42 -108v-207h-144v186q0 23 -12.5 36.5t-34.5 13.5q-21 0 -35.5 -14t-14.5 -35v-187h-144zM306 422q-33 0 -71.5 18t-51.5 18q-21 0 -28 -25l-4 -16l-101 9l6 37q8 48 35.5 75t72.5 27q33 0 71.5 -18t51.5 -18
q21 0 28 25l4 16l101 -9l-6 -37q-8 -48 -35.5 -75t-72.5 -27z" />
    <glyph glyph-name="ograve" unicode="&#xf2;" horiz-adv-x="444" 
d="M422 171q0 -79 -58 -129t-142 -50t-142 50t-58 129q0 81 57.5 132t142.5 51t142.5 -51t57.5 -132zM222 105q29 0 44.5 18.5t15.5 49.5t-15.5 49.5t-44.5 18.5t-44.5 -18.5t-15.5 -49.5t15.5 -49.5t44.5 -18.5zM177 419l-99 136v22h163l28 -136v-22h-92z" />
    <glyph glyph-name="oacute" unicode="&#xf3;" horiz-adv-x="444" 
d="M422 171q0 -79 -58 -129t-142 -50t-142 50t-58 129q0 81 57.5 132t142.5 51t142.5 -51t57.5 -132zM222 105q29 0 44.5 18.5t15.5 49.5t-15.5 49.5t-44.5 18.5t-44.5 -18.5t-15.5 -49.5t15.5 -49.5t44.5 -18.5zM369 555l-99 -136h-92v22l28 136h163v-22z" />
    <glyph glyph-name="ocircumflex" unicode="&#xf4;" horiz-adv-x="444" 
d="M422 171q0 -79 -58 -129t-142 -50t-142 50t-58 129q0 81 57.5 132t142.5 51t142.5 -51t57.5 -132zM222 105q29 0 44.5 18.5t15.5 49.5t-15.5 49.5t-44.5 18.5t-44.5 -18.5t-15.5 -49.5t15.5 -49.5t44.5 -18.5zM282 419l-60 71l-61 -71h-92v22l78 136h149l78 -136v-22h-92
z" />
    <glyph glyph-name="otilde" unicode="&#xf5;" horiz-adv-x="444" 
d="M422 171q0 -79 -58 -129t-142 -50t-142 50t-58 129q0 81 57.5 132t142.5 51t142.5 -51t57.5 -132zM222 105q29 0 44.5 18.5t15.5 49.5t-15.5 49.5t-44.5 18.5t-44.5 -18.5t-15.5 -49.5t15.5 -49.5t44.5 -18.5zM293 422q-33 0 -71.5 18t-51.5 18q-21 0 -28 -25l-4 -16
l-101 9l6 37q8 48 35.5 75t72.5 27q33 0 71.5 -18t51.5 -18q21 0 28 25l4 16l101 -9l-6 -37q-8 -48 -35.5 -75t-72.5 -27z" />
    <glyph glyph-name="odieresis" unicode="&#xf6;" horiz-adv-x="444" 
d="M422 171q0 -79 -58 -129t-142 -50t-142 50t-58 129q0 81 57.5 132t142.5 51t142.5 -51t57.5 -132zM222 105q29 0 44.5 18.5t15.5 49.5t-15.5 49.5t-44.5 18.5t-44.5 -18.5t-15.5 -49.5t15.5 -49.5t44.5 -18.5zM59 483q0 27 20.5 47.5t46.5 20.5q27 0 47.5 -20.5
t20.5 -47.5q0 -26 -20.5 -46.5t-47.5 -20.5q-26 0 -46.5 20.5t-20.5 46.5zM249 483q0 27 20.5 47.5t46.5 20.5q27 0 47.5 -20.5t20.5 -47.5q0 -26 -20.5 -46.5t-47.5 -20.5q-26 0 -46.5 20.5t-20.5 46.5z" />
    <glyph glyph-name="divide" unicode="&#xf7;" horiz-adv-x="481" 
d="M156 107q0 35 24.5 60t59.5 25t60 -25t25 -60t-25 -59.5t-60 -24.5t-59.5 24.5t-24.5 59.5zM156 486q0 35 24.5 60t59.5 25t60 -25t25 -60t-25 -59.5t-60 -24.5t-59.5 24.5t-24.5 59.5zM31 239v116h419v-116h-419z" />
    <glyph glyph-name="oslash" unicode="&#xf8;" horiz-adv-x="444" 
d="M422 171q0 -79 -58 -129t-142 -50q-64 0 -110 27l-37 -37l-45 46l32 32q-40 46 -40 111q0 81 57.5 132t142.5 51q59 0 106 -26l44 44l45 -46l-38 -38q43 -51 43 -117zM222 105q29 0 44.5 18.5t15.5 49.5q0 7 -2 19l-83 -83q9 -4 25 -4zM162 173q0 -11 1 -16l80 80
q-12 4 -21 4q-29 0 -44.5 -18.5t-15.5 -49.5z" />
    <glyph glyph-name="ugrave" unicode="&#xf9;" horiz-adv-x="464" 
d="M422 346v-346h-99l-24 45h-6q-29 -53 -101 -53q-71 0 -113 39t-42 108v207h144v-186q0 -23 12.5 -36.5t34.5 -13.5q21 0 35.5 12.5t14.5 32.5v191h144zM180 419l-99 136v22h163l28 -136v-22h-92z" />
    <glyph glyph-name="uacute" unicode="&#xfa;" horiz-adv-x="464" 
d="M422 346v-346h-99l-24 45h-6q-29 -53 -101 -53q-71 0 -113 39t-42 108v207h144v-186q0 -23 12.5 -36.5t34.5 -13.5q21 0 35.5 12.5t14.5 32.5v191h144zM376 555l-99 -136h-92v22l28 136h163v-22z" />
    <glyph glyph-name="ucircumflex" unicode="&#xfb;" horiz-adv-x="464" 
d="M422 346v-346h-99l-24 45h-6q-29 -53 -101 -53q-71 0 -113 39t-42 108v207h144v-186q0 -23 12.5 -36.5t34.5 -13.5q21 0 35.5 12.5t14.5 32.5v191h144zM292 419l-60 71l-61 -71h-92v22l78 136h149l78 -136v-22h-92z" />
    <glyph glyph-name="udieresis" unicode="&#xfc;" horiz-adv-x="464" 
d="M422 346v-346h-99l-24 45h-6q-29 -53 -101 -53q-71 0 -113 39t-42 108v207h144v-186q0 -23 12.5 -36.5t34.5 -13.5q21 0 35.5 12.5t14.5 32.5v191h144zM69 483q0 27 20.5 47.5t46.5 20.5q27 0 47.5 -20.5t20.5 -47.5q0 -26 -20.5 -46.5t-47.5 -20.5q-26 0 -46.5 20.5
t-20.5 46.5zM259 483q0 27 20.5 47.5t46.5 20.5q27 0 47.5 -20.5t20.5 -47.5q0 -26 -20.5 -46.5t-47.5 -20.5q-26 0 -46.5 20.5t-20.5 46.5z" />
    <glyph glyph-name="yacute" unicode="&#xfd;" horiz-adv-x="419" 
d="M420 346l-240 -538l-152 -1l116 235l-144 304h157l48 -141q6 -16 7 -34h7q1 18 7 34l48 141h146zM358 555l-99 -136h-92v22l28 136h163v-22z" />
    <glyph glyph-name="thorn" unicode="&#xfe;" horiz-adv-x="466" 
d="M191 25h-6v-217h-144v792h144v-274h5q25 28 84 28q75 0 121 -48.5t46 -131.5q0 -80 -47 -131t-120 -51q-28 0 -49 8t-27 16zM178 172q0 -28 15 -45t44 -17q27 0 43 17t16 45t-16 46t-43 18q-28 0 -43.5 -17.5t-15.5 -46.5z" />
    <glyph glyph-name="ydieresis" unicode="&#xff;" horiz-adv-x="419" 
d="M420 346l-240 -538l-152 -1l116 235l-144 304h157l48 -141q6 -16 7 -34h7q1 18 7 34l48 141h146zM55 483q0 27 20.5 47.5t46.5 20.5q27 0 47.5 -20.5t20.5 -47.5q0 -26 -20.5 -46.5t-47.5 -20.5q-26 0 -46.5 20.5t-20.5 46.5zM245 483q0 27 20.5 47.5t46.5 20.5
q27 0 47.5 -20.5t20.5 -47.5q0 -26 -20.5 -46.5t-47.5 -20.5q-26 0 -46.5 20.5t-20.5 46.5z" />
    <glyph glyph-name="Amacron" unicode="&#x100;" horiz-adv-x="622" 
d="M-15 0l314 600h24l315 -600h-164l-33 71h-261l-32 -71h-163zM388 189l-74 157h-8l-74 -157l-9 -16h174zM168 639v85h286v-85h-286z" />
    <glyph glyph-name="amacron" unicode="&#x101;" horiz-adv-x="426" 
d="M21 96q0 51 37.5 78.5t102.5 27.5q31 0 53 -5t28 -11l6 -5h6v13q0 47 -80 47q-21 0 -44 -5.5t-35 -11.5l-12 -5l-41 104q70 31 158 31q96 0 143 -43.5t47 -121.5v-189h-105l-15 34h-6q-21 -42 -108 -42q-59 0 -97 29t-38 75zM157 110q0 -32 45 -32q48 0 48 32
q0 13 -12.5 22t-35.5 9q-45 0 -45 -31zM61 438v85h286v-85h-286z" />
    <glyph glyph-name="Abreve" unicode="&#x102;" horiz-adv-x="622" 
d="M364 801h113q0 -67 -41.5 -115t-125.5 -48t-126.5 48t-42.5 115h112q0 -67 56 -67q55 0 55 67zM-15 0l314 600h24l315 -600h-164l-33 71h-261l-32 -71h-163zM388 189l-74 157h-8l-74 -157l-9 -16h174z" />
    <glyph glyph-name="abreve" unicode="&#x103;" horiz-adv-x="426" 
d="M21 96q0 51 37.5 78.5t102.5 27.5q31 0 53 -5t28 -11l6 -5h6v13q0 47 -80 47q-21 0 -44 -5.5t-35 -11.5l-12 -5l-41 104q70 31 158 31q96 0 143 -43.5t47 -121.5v-189h-105l-15 34h-6q-21 -42 -108 -42q-59 0 -97 29t-38 75zM157 110q0 -32 45 -32q48 0 48 32
q0 13 -12.5 22t-35.5 9q-45 0 -45 -31zM271 576h113q0 -67 -41.5 -115t-125.5 -48t-126.5 48t-42.5 115h112q0 -67 56 -67q55 0 55 67z" />
    <glyph glyph-name="Aogonek" unicode="&#x104;" horiz-adv-x="620" 
d="M-16 0l314 600h24l315 -600h-44q-2 0 -9 -4t-15 -14.5t-8 -23.5q0 -28 29 -28q8 0 15.5 3.5t10.5 7.5l3 4l39 -50q-3 -4 -9 -10t-27.5 -16.5t-47.5 -10.5q-43 0 -67.5 22.5t-24.5 58.5t27 61h-36l-33 71h-261l-32 -71h-163zM387 189l-74 157h-8l-74 -157l-9 -16h174z" />
    <glyph glyph-name="aogonek" unicode="&#x105;" horiz-adv-x="426" 
d="M415 -55l39 -50q-3 -4 -9 -10t-27.5 -16.5t-47.5 -10.5q-43 0 -67.5 22.5t-24.5 58.5t27 61h-20l-15 34h-6q-21 -42 -108 -42q-59 0 -97 29t-38 75q0 51 37.5 78.5t102.5 27.5q31 0 53 -5t28 -11l6 -5h6v13q0 47 -80 47q-21 0 -44 -5.5t-35 -11.5l-12 -5l-41 104
q70 31 158 31q96 0 143 -43.5t47 -121.5v-189q-2 0 -9.5 -4t-15.5 -14.5t-8 -23.5q0 -28 29 -28q8 0 15.5 3.5t10.5 7.5zM157 110q0 -32 45 -32q48 0 48 32q0 13 -12.5 22t-35.5 9q-45 0 -45 -31z" />
    <glyph glyph-name="Cacute" unicode="&#x106;" horiz-adv-x="578" 
d="M483 171l83 -111q-3 -3 -8.5 -8t-25 -17.5t-42 -22t-60 -17.5t-78.5 -8q-147 0 -234.5 90t-87.5 223t87.5 223t234.5 90q66 0 119.5 -18.5t74.5 -36.5l20 -18l-83 -111q-62 45 -129 45q-77 0 -125.5 -48t-48.5 -126t48.5 -126t125.5 -48q38 0 70 11t46 23zM495 774
l-99 -136h-92v22l28 136h163v-22z" />
    <glyph glyph-name="cacute" unicode="&#x107;" horiz-adv-x="357" 
d="M227 -8q-92 0 -148.5 52.5t-56.5 128.5q0 78 56.5 129.5t148.5 51.5q35 0 63.5 -7t39.5 -14l11 -7l-40 -106q-24 16 -61 16q-34 0 -53.5 -17t-19.5 -46q0 -28 19.5 -45.5t53.5 -17.5q16 0 31.5 4t22.5 8l7 4l37 -105q-33 -29 -111 -29zM364 555l-99 -136h-92v22l28 136
h163v-22z" />
    <glyph glyph-name="Ccircumflex" unicode="&#x108;" horiz-adv-x="578" 
d="M483 171l83 -111q-3 -3 -8.5 -8t-25 -17.5t-42 -22t-60 -17.5t-78.5 -8q-147 0 -234.5 90t-87.5 223t87.5 223t234.5 90q66 0 119.5 -18.5t74.5 -36.5l20 -18l-83 -111q-62 45 -129 45q-77 0 -125.5 -48t-48.5 -126t48.5 -126t125.5 -48q38 0 70 11t46 23zM413 638
l-60 71l-61 -71h-92v22l78 136h149l78 -136v-22h-92z" />
    <glyph glyph-name="ccircumflex" unicode="&#x109;" horiz-adv-x="357" 
d="M227 -8q-92 0 -148.5 52.5t-56.5 128.5q0 78 56.5 129.5t148.5 51.5q35 0 63.5 -7t39.5 -14l11 -7l-40 -106q-24 16 -61 16q-34 0 -53.5 -17t-19.5 -46q0 -28 19.5 -45.5t53.5 -17.5q16 0 31.5 4t22.5 8l7 4l37 -105q-33 -29 -111 -29zM273 419l-60 71l-61 -71h-92v22
l78 136h149l78 -136v-22h-92z" />
    <glyph glyph-name="Cdotaccent" unicode="&#x10a;" horiz-adv-x="578" 
d="M483 171l83 -111q-3 -3 -8.5 -8t-25 -17.5t-42 -22t-60 -17.5t-78.5 -8q-147 0 -234.5 90t-87.5 223t87.5 223t234.5 90q66 0 119.5 -18.5t74.5 -36.5l20 -18l-83 -111q-62 45 -129 45q-77 0 -125.5 -48t-48.5 -126t48.5 -126t125.5 -48q38 0 70 11t46 23zM271 733
q0 34 23 57.5t57 23.5t57.5 -23.5t23.5 -57.5t-23.5 -57t-57.5 -23t-57 23t-23 57z" />
    <glyph glyph-name="cdotaccent" unicode="&#x10b;" horiz-adv-x="357" 
d="M227 -8q-92 0 -148.5 52.5t-56.5 128.5q0 78 56.5 129.5t148.5 51.5q35 0 63.5 -7t39.5 -14l11 -7l-40 -106q-24 16 -61 16q-34 0 -53.5 -17t-19.5 -46q0 -28 19.5 -45.5t53.5 -17.5q16 0 31.5 4t22.5 8l7 4l37 -105q-33 -29 -111 -29zM119 493q0 34 23 57.5t57 23.5
t57.5 -23.5t23.5 -57.5t-23.5 -57t-57.5 -23t-57 23t-23 57z" />
    <glyph glyph-name="Ccaron" unicode="&#x10c;" horiz-adv-x="578" 
d="M483 171l83 -111q-3 -3 -8.5 -8t-25 -17.5t-42 -22t-60 -17.5t-78.5 -8q-147 0 -234.5 90t-87.5 223t87.5 223t234.5 90q66 0 119.5 -18.5t74.5 -36.5l20 -18l-83 -111q-62 45 -129 45q-77 0 -125.5 -48t-48.5 -126t48.5 -126t125.5 -48q38 0 70 11t46 23zM352 740l60 71
h92v-22l-78 -136h-149l-78 136v22h92z" />
    <glyph glyph-name="ccaron" unicode="&#x10d;" horiz-adv-x="357" 
d="M227 -8q-92 0 -148.5 52.5t-56.5 128.5q0 78 56.5 129.5t148.5 51.5q35 0 63.5 -7t39.5 -14l11 -7l-40 -106q-24 16 -61 16q-34 0 -53.5 -17t-19.5 -46q0 -28 19.5 -45.5t53.5 -17.5q16 0 31.5 4t22.5 8l7 4l37 -105q-33 -29 -111 -29zM205 506l60 71h92v-22l-78 -136
h-149l-78 136v22h92z" />
    <glyph glyph-name="Dcaron" unicode="&#x10e;" horiz-adv-x="664" 
d="M633 300q0 -132 -85.5 -216t-232.5 -84h-249v600h249q147 0 232.5 -84t85.5 -216zM304 475h-93v-350h93q81 0 130 45.5t49 129.5t-49 129.5t-130 45.5zM314 740l60 71h92v-22l-78 -136h-149l-78 136v22h92z" />
    <glyph glyph-name="dcaron" unicode="&#x10f;" horiz-adv-x="466" 
d="M274 321h6v347h144v-668h-94l-23 40h-6q-3 -5 -9.5 -13t-33.5 -21.5t-62 -13.5q-76 0 -124 48.5t-48 131.5q0 80 47 131t120 51q28 0 49 -8t28 -16zM287 174q0 28 -15 45t-44 17q-27 0 -43 -17t-16 -45t16 -46t43 -18q28 0 43.5 17.5t15.5 46.5zM453 588q0 35 24 58
t66 23t67 -25.5t25 -66.5q-1 -42 -34 -98l-29 -50h-92l29 47l22 28v5q-37 4 -57.5 25.5t-20.5 53.5z" />
    <glyph glyph-name="Dcroat" unicode="&#x110;" horiz-adv-x="671" 
d="M5 263v73h68v264h249q147 0 232.5 -84t85.5 -216t-85.5 -216t-232.5 -84h-249v263h-68zM311 475h-93v-139h87v-73h-87v-138h93q81 0 130 45.5t49 129.5t-49 129.5t-130 45.5z" />
    <glyph glyph-name="dcroat" unicode="&#x111;" horiz-adv-x="466" 
d="M183 452v64h97v152h144v-152h59v-64h-59v-452h-94l-23 40h-6q-3 -5 -9.5 -13t-33.5 -21.5t-62 -13.5q-76 0 -124 48.5t-48 131.5q0 80 47 131t120 51q28 0 49 -8t28 -16l6 -9h6v131h-97zM287 174q0 28 -15 45t-44 17q-27 0 -43 -17t-16 -45t16 -46t43 -18q28 0 43.5 17.5
t15.5 46.5z" />
    <glyph glyph-name="Emacron" unicode="&#x112;" horiz-adv-x="577" 
d="M475 357v-114h-264v-118h332v-125h-477v600h477v-125h-332v-118h264zM160 682v85h286v-85h-286z" />
    <glyph glyph-name="emacron" unicode="&#x113;" horiz-adv-x="414" 
d="M320 117l45 -88q-5 -4 -14 -11t-44 -18t-76 -11q-96 0 -152 53t-56 131t54 129.5t138 51.5q83 0 131.5 -49t48.5 -132l-1 -26h-232q14 -49 76 -49q24 0 44.5 5t29.5 9zM213 253q-40 0 -51 -43h99q-2 18 -14.5 30.5t-33.5 12.5zM68 438v85h286v-85h-286z" />
    <glyph glyph-name="Ebreve" unicode="&#x114;" horiz-adv-x="577" 
d="M359 801h113q0 -67 -41.5 -115t-125.5 -48t-126.5 48t-42.5 115h112q0 -67 56 -67q55 0 55 67zM475 357v-114h-264v-118h332v-125h-477v600h477v-125h-332v-118h264z" />
    <glyph glyph-name="ebreve" unicode="&#x115;" horiz-adv-x="414" 
d="M320 117l45 -88q-5 -4 -14 -11t-44 -18t-76 -11q-96 0 -152 53t-56 131t54 129.5t138 51.5q83 0 131.5 -49t48.5 -132l-1 -26h-232q14 -49 76 -49q24 0 44.5 5t29.5 9zM213 253q-40 0 -51 -43h99q-2 18 -14.5 30.5t-33.5 12.5zM267 576h113q0 -67 -41.5 -115t-125.5 -48
t-126.5 48t-42.5 115h112q0 -67 56 -67q55 0 55 67z" />
    <glyph glyph-name="Edotaccent" unicode="&#x116;" horiz-adv-x="577" 
d="M475 357v-114h-264v-118h332v-125h-477v600h477v-125h-332v-118h264zM237 718q0 34 23 57.5t57 23.5t57.5 -23.5t23.5 -57.5t-23.5 -57t-57.5 -23t-57 23t-23 57z" />
    <glyph glyph-name="edotaccent" unicode="&#x117;" horiz-adv-x="414" 
d="M320 117l45 -88q-5 -4 -14 -11t-44 -18t-76 -11q-96 0 -152 53t-56 131t54 129.5t138 51.5q83 0 131.5 -49t48.5 -132l-1 -26h-232q14 -49 76 -49q24 0 44.5 5t29.5 9zM213 253q-40 0 -51 -43h99q-2 18 -14.5 30.5t-33.5 12.5zM133 493q0 34 23 57.5t57 23.5t57.5 -23.5
t23.5 -57.5t-23.5 -57t-57.5 -23t-57 23t-23 57z" />
    <glyph glyph-name="Eogonek" unicode="&#x118;" horiz-adv-x="577" 
d="M514 -55l39 -50q-3 -4 -9 -10t-27.5 -16.5t-47.5 -10.5q-43 0 -67.5 22.5t-24.5 58.5t27 61h-338v600h477v-125h-332v-118h264v-114h-264v-118h332v-125h-54q-4 -1 -9.5 -4t-14.5 -14t-9 -24q0 -28 29 -28q8 0 15.5 3.5t10.5 7.5z" />
    <glyph glyph-name="eogonek" unicode="&#x119;" horiz-adv-x="415" 
d="M331 -55l39 -50q-3 -4 -9 -10t-27.5 -16.5t-47.5 -10.5q-43 0 -67.5 22.5t-24.5 58.5q0 27 17 51q-88 6 -138 58t-50 125q0 78 54 129.5t138 51.5q83 0 131.5 -49t48.5 -132l-1 -26h-232q14 -49 76 -49q24 0 44.5 5t29.5 9l8 5l45 -88q-22 -20 -65 -31q-27 -15 -27 -40
q0 -28 29 -28q8 0 15.5 3.5t10.5 7.5zM213 253q-40 0 -51 -43h99q-2 18 -14.5 30.5t-33.5 12.5z" />
    <glyph glyph-name="Ecaron" unicode="&#x11a;" horiz-adv-x="577" 
d="M475 357v-114h-264v-118h332v-125h-477v600h477v-125h-332v-118h264zM311 725l60 71h92v-22l-78 -136h-149l-78 136v22h92z" />
    <glyph glyph-name="ecaron" unicode="&#x11b;" horiz-adv-x="414" 
d="M320 117l45 -88q-5 -4 -14 -11t-44 -18t-76 -11q-96 0 -152 53t-56 131t54 129.5t138 51.5q83 0 131.5 -49t48.5 -132l-1 -26h-232q14 -49 76 -49q24 0 44.5 5t29.5 9zM213 253q-40 0 -51 -43h99q-2 18 -14.5 30.5t-33.5 12.5zM213 506l60 71h92v-22l-78 -136h-149
l-78 136v22h92z" />
    <glyph glyph-name="Gcircumflex" unicode="&#x11c;" horiz-adv-x="661" 
d="M336 243v114h302v-67q0 -136 -74 -219.5t-213 -83.5q-146 0 -233.5 90t-87.5 223t87.5 223t233.5 90q45 0 84.5 -7.5t64 -18.5t43 -22.5t26.5 -18.5l8 -8l-86 -110q-6 5 -18 12.5t-49 20.5t-75 13q-73 0 -121 -48.5t-48 -125.5t48 -125.5t121 -48.5q62 0 96.5 32t36.5 79
v6h-146zM398 637l-60 71l-61 -71h-92v22l78 136h149l78 -136v-22h-92z" />
    <glyph glyph-name="gcircumflex" unicode="&#x11d;" horiz-adv-x="421" 
d="M215 -238q-101 0 -153 36t-52 89q0 61 62 87v6q-52 24 -52 72q0 54 60 86q-28 33 -28 77q0 62 45 100.5t111 38.5q27 0 75.5 -3t82.5 -6l35 -3v-97h-49v-6q9 -10 9 -32q0 -52 -41.5 -87t-111.5 -35q-28 0 -45 5q-20 -9 -20 -21q0 -22 72 -22q112 0 160 -35.5t48 -101.5
q0 -65 -53 -106.5t-155 -41.5zM215 -58q-68 0 -68 -41q0 -40 68 -40t68 40q0 41 -68 41zM208 256q-19 0 -29.5 -11t-10.5 -28q0 -16 10.5 -27t29.5 -11t29.5 11t10.5 27q0 17 -10.5 28t-29.5 11zM279 419l-60 71l-61 -71h-92v22l78 136h149l78 -136v-22h-92z" />
    <glyph glyph-name="Gbreve" unicode="&#x11e;" horiz-adv-x="661" 
d="M395 801h113q0 -67 -41.5 -115t-125.5 -48t-126.5 48t-42.5 115h112q0 -67 56 -67q55 0 55 67zM336 243v114h302v-67q0 -136 -74 -219.5t-213 -83.5q-146 0 -233.5 90t-87.5 223t87.5 223t233.5 90q45 0 84.5 -7.5t64 -18.5t43 -22.5t26.5 -18.5l8 -8l-86 -110
q-6 5 -18 12.5t-49 20.5t-75 13q-73 0 -121 -48.5t-48 -125.5t48 -125.5t121 -48.5q62 0 96.5 32t36.5 79v6h-146z" />
    <glyph glyph-name="gbreve" unicode="&#x11f;" horiz-adv-x="421" 
d="M215 -238q-101 0 -153 36t-52 89q0 61 62 87v6q-52 24 -52 72q0 54 60 86q-28 33 -28 77q0 62 45 100.5t111 38.5q27 0 75.5 -3t82.5 -6l35 -3v-97h-49v-6q9 -10 9 -32q0 -52 -41.5 -87t-111.5 -35q-28 0 -45 5q-20 -9 -20 -21q0 -22 72 -22q112 0 160 -35.5t48 -101.5
q0 -65 -53 -106.5t-155 -41.5zM215 -58q-68 0 -68 -41q0 -40 68 -40t68 40q0 41 -68 41zM208 256q-19 0 -29.5 -11t-10.5 -28q0 -16 10.5 -27t29.5 -11t29.5 11t10.5 27q0 17 -10.5 28t-29.5 11zM273 576h113q0 -67 -41.5 -115t-125.5 -48t-126.5 48t-42.5 115h112
q0 -67 56 -67q55 0 55 67z" />
    <glyph glyph-name="Gdotaccent" unicode="&#x120;" horiz-adv-x="661" 
d="M336 243v114h302v-67q0 -136 -74 -219.5t-213 -83.5q-146 0 -233.5 90t-87.5 223t87.5 223t233.5 90q45 0 84.5 -7.5t64 -18.5t43 -22.5t26.5 -18.5l8 -8l-86 -110q-6 5 -18 12.5t-49 20.5t-75 13q-73 0 -121 -48.5t-48 -125.5t48 -125.5t121 -48.5q62 0 96.5 32t36.5 79
v6h-146zM254 718q0 34 23 57.5t57 23.5t57.5 -23.5t23.5 -57.5t-23.5 -57t-57.5 -23t-57 23t-23 57z" />
    <glyph glyph-name="gdotaccent" unicode="&#x121;" horiz-adv-x="421" 
d="M215 -238q-101 0 -153 36t-52 89q0 61 62 87v6q-52 24 -52 72q0 54 60 86q-28 33 -28 77q0 62 45 100.5t111 38.5q27 0 75.5 -3t82.5 -6l35 -3v-97h-49v-6q9 -10 9 -32q0 -52 -41.5 -87t-111.5 -35q-28 0 -45 5q-20 -9 -20 -21q0 -22 72 -22q112 0 160 -35.5t48 -101.5
q0 -65 -53 -106.5t-155 -41.5zM215 -58q-68 0 -68 -41q0 -40 68 -40t68 40q0 41 -68 41zM208 256q-19 0 -29.5 -11t-10.5 -28q0 -16 10.5 -27t29.5 -11t29.5 11t10.5 27q0 17 -10.5 28t-29.5 11zM146 493q0 34 23 57.5t57 23.5t57.5 -23.5t23.5 -57.5t-23.5 -57t-57.5 -23
t-57 23t-23 57z" />
    <glyph glyph-name="Gcommaaccent" unicode="&#x122;" horiz-adv-x="661" 
d="M258 -118q0 35 24 58t66 23t67 -25.5t25 -66.5q-1 -42 -34 -98l-29 -50h-92l29 47l22 28v5q-37 4 -57.5 25.5t-20.5 53.5zM336 243v114h302v-67q0 -136 -74 -219.5t-213 -83.5q-146 0 -233.5 90t-87.5 223t87.5 223t233.5 90q45 0 84.5 -7.5t64 -18.5t43 -22.5
t26.5 -18.5l8 -8l-86 -110q-6 5 -18 12.5t-49 20.5t-75 13q-73 0 -121 -48.5t-48 -125.5t48 -125.5t121 -48.5q62 0 96.5 32t36.5 79v6h-146z" />
    <glyph glyph-name="gcommaaccent" unicode="&#x123;" horiz-adv-x="421" 
d="M215 -238q-101 0 -153 36t-52 89q0 61 62 87v6q-52 24 -52 72q0 54 60 86q-28 33 -28 77q0 62 45 100.5t111 38.5q27 0 75.5 -3t82.5 -6l35 -3v-97h-49v-6q9 -10 9 -32q0 -52 -41.5 -87t-111.5 -35q-28 0 -45 5q-20 -9 -20 -21q0 -22 72 -22q112 0 160 -35.5t48 -101.5
q0 -65 -53 -106.5t-155 -41.5zM215 -58q-68 0 -68 -41q0 -40 68 -40t68 40q0 41 -68 41zM208 256q-19 0 -29.5 -11t-10.5 -28q0 -16 10.5 -27t29.5 -11t29.5 11t10.5 27q0 17 -10.5 28t-29.5 11zM286 503q0 -35 -24 -58t-66 -23t-67 25.5t-25 66.5q1 42 34 98l29 50h92
l-29 -47l-22 -28v-5q37 -4 57.5 -25.5t20.5 -53.5z" />
    <glyph glyph-name="Hcircumflex" unicode="&#x124;" horiz-adv-x="687" 
d="M621 600v-600h-145v235h-265v-235h-145v600h145v-251h265v251h145zM399 638l-60 71l-61 -71h-92v22l78 136h149l78 -136v-22h-92z" />
    <glyph glyph-name="hcircumflex" unicode="&#x125;" horiz-adv-x="466" 
d="M41 0v668h146v-352h4v1q30 38 92 38q66 0 105.5 -39t39.5 -108v-208h-144v187q0 23 -12.5 36.5t-34.5 13.5q-21 0 -35.5 -13.5t-14.5 -34.5v-189h-146zM292 717l-60 71l-61 -71h-92v22l78 136h149l78 -136v-22h-92z" />
    <glyph glyph-name="Hbar" unicode="&#x126;" horiz-adv-x="691" 
d="M623 600v-88h27v-64h-27v-448h-145v235h-265v-235h-145v448h-25v64h25v88h145v-88h265v88h145zM213 349h265v99h-265v-99z" />
    <glyph glyph-name="hbar" unicode="&#x127;" horiz-adv-x="466" 
d="M-9 452v64h50v152h146v-152h104v-64h-104v-136h4v1q30 38 92 38q66 0 105.5 -39t39.5 -108v-208h-144v187q0 23 -12.5 36.5t-34.5 13.5q-21 0 -35.5 -13.5t-14.5 -34.5v-189h-146v452h-50z" />
    <glyph glyph-name="Itilde" unicode="&#x128;" horiz-adv-x="277" 
d="M211 600v-600h-145v600h145zM205 643q-33 0 -71.5 18t-51.5 18q-21 0 -28 -25l-4 -16l-101 9l6 37q8 48 35.5 75t72.5 27q33 0 71.5 -18t51.5 -18q21 0 28 25l4 16l101 -9l-6 -37q-8 -48 -35.5 -75t-72.5 -27z" />
    <glyph glyph-name="itilde" unicode="&#x129;" horiz-adv-x="226" 
d="M41 0v346h144v-346h-144zM186 422q-33 0 -71.5 18t-51.5 18q-21 0 -28 -25l-4 -16l-101 9l6 37q8 48 35.5 75t72.5 27q33 0 71.5 -18t51.5 -18q21 0 28 25l4 16l101 -9l-6 -37q-8 -48 -35.5 -75t-72.5 -27z" />
    <glyph glyph-name="Imacron" unicode="&#x12a;" horiz-adv-x="277" 
d="M211 600v-600h-145v600h145zM-9 638v85h286v-85h-286z" />
    <glyph glyph-name="imacron" unicode="&#x12b;" horiz-adv-x="226" 
d="M41 0v346h144v-346h-144zM-31 438v85h286v-85h-286z" />
    <glyph glyph-name="Ibreve" unicode="&#x12c;" horiz-adv-x="277" 
d="M194 801h113q0 -67 -41.5 -115t-125.5 -48t-126.5 48t-42.5 115h112q0 -67 56 -67q55 0 55 67zM211 600v-600h-145v600h145z" />
    <glyph glyph-name="ibreve" unicode="&#x12d;" horiz-adv-x="226" 
d="M41 0v346h144v-346h-144zM169 576h113q0 -67 -41.5 -115t-125.5 -48t-126.5 48t-42.5 115h112q0 -67 56 -67q55 0 55 67z" />
    <glyph glyph-name="Iogonek" unicode="&#x12e;" horiz-adv-x="276" 
d="M210 600v-600h-2q-4 -1 -9.5 -4t-14.5 -14t-9 -24q0 -28 29 -28q8 0 15.5 3.5t10.5 7.5l3 4l39 -50q-3 -4 -9 -10t-27.5 -16.5t-47.5 -10.5q-43 0 -67.5 22.5t-24.5 58.5t27 61h-58v600h145z" />
    <glyph glyph-name="iogonek" unicode="&#x12f;" horiz-adv-x="226" 
d="M41 0v346h144v-346q-4 -1 -9.5 -4t-14.5 -14t-9 -24q0 -28 29 -28q8 0 15.5 3.5t10.5 7.5l3 4l39 -50q-3 -4 -9 -10t-27.5 -16.5t-47.5 -10.5q-43 0 -67.5 22.5t-24.5 58.5t27 61h-59zM114 448q-34 0 -57 23t-23 57t23 57.5t57 23.5t57.5 -23.5t23.5 -57.5t-23.5 -57
t-57.5 -23z" />
    <glyph glyph-name="Idotaccent" unicode="&#x130;" horiz-adv-x="277" 
d="M211 600v-600h-145v600h145zM57 717q0 34 23 57.5t57 23.5t57.5 -23.5t23.5 -57.5t-23.5 -57t-57.5 -23t-57 23t-23 57z" />
    <glyph glyph-name="dotlessi" unicode="&#x131;" horiz-adv-x="227" 
d="M41 0v346h144v-346h-144z" />
    <glyph glyph-name="IJ" unicode="&#x132;" horiz-adv-x="793" 
d="M211 600v-600h-145v600h145zM318 37l65 125q51 -33 103 -33q54 0 78 26.5t24 84.5v360h145v-390q-1 -95 -59 -159t-178 -64q-50 0 -93.5 12t-60 21.5t-24.5 16.5z" />
    <glyph glyph-name="ij" unicode="&#x133;" horiz-adv-x="525" 
d="M115 448q-34 0 -57 23t-23 57t23 57.5t57 23.5t57.5 -23.5t23.5 -57.5t-23.5 -57t-57.5 -23zM42 0v346h144v-346h-144zM280 -185l20 106q8 -3 18 -3q21 0 21 22v406h145v-413q0 -134 -128 -134q-23 0 -42 4t-26 8zM411 448q-34 0 -57 23t-23 57t23 57.5t57 23.5
t57.5 -23.5t23.5 -57.5t-23.5 -57t-57.5 -23z" />
    <glyph glyph-name="Jcircumflex" unicode="&#x134;" horiz-adv-x="486" 
d="M11 37l65 125q51 -33 103 -33q54 0 78 26.5t24 84.5v360h145v-390q-1 -95 -59 -159t-178 -64q-50 0 -93.5 12t-60 21.5t-24.5 16.5zM412 637l-60 71l-61 -71h-92v22l78 136h149l78 -136v-22h-92z" />
    <glyph glyph-name="jcircumflex" unicode="&#x135;" horiz-adv-x="227" 
d="M-46 -177l36 107q14 -6 28 -6q23 0 23 32v390h145v-407q0 -63 -34.5 -101.5t-102.5 -38.5q-27 0 -50.5 6t-34.5 12zM173 419l-60 71l-61 -71h-92v22l78 136h149l78 -136v-22h-92z" />
    <glyph glyph-name="Kcommaaccent" unicode="&#x136;" horiz-adv-x="638" 
d="M211 600v-258l245 258h177v-13l-231 -245l231 -328v-14h-176q-21 31 -156 236l-90 -96v-140h-145v600h145zM232 -118q0 35 24 58t66 23t67 -25.5t25 -66.5q-1 -42 -34 -98l-29 -50h-92l29 47l22 28v5q-37 4 -57.5 25.5t-20.5 53.5z" />
    <glyph glyph-name="kcommaaccent" unicode="&#x137;" horiz-adv-x="443" 
d="M271 346h157l-108 -168l120 -178h-168l-83 132h-4v-132h-144v668h144v-464h3zM132 -118q0 35 24 58t66 23t67 -25.5t25 -66.5q-1 -42 -34 -98l-29 -50h-92l29 47l22 28v5q-37 4 -57.5 25.5t-20.5 53.5z" />
    <glyph glyph-name="kgreenlandic" unicode="&#x138;" horiz-adv-x="444" 
d="M272 346h157l-108 -168l120 -178h-168l-83 132h-4v-132h-144v346h144v-142h3z" />
    <glyph glyph-name="Lacute" unicode="&#x139;" horiz-adv-x="528" 
d="M516 0h-450v600h145v-475h305v-125zM284 774l-99 -136h-92v22l28 136h163v-22z" />
    <glyph glyph-name="lacute" unicode="&#x13a;" horiz-adv-x="226" 
d="M41 0v668h144v-668h-144zM246 853l-99 -136h-92v22l28 136h163v-22z" />
    <glyph glyph-name="Lcommaaccent" unicode="&#x13b;" horiz-adv-x="528" 
d="M516 0h-450v600h145v-475h305v-125zM195 -118q0 35 24 58t66 23t67 -25.5t25 -66.5q-1 -42 -34 -98l-29 -50h-92l29 47l22 28v5q-37 4 -57.5 25.5t-20.5 53.5z" />
    <glyph glyph-name="lcommaaccent" unicode="&#x13c;" horiz-adv-x="226" 
d="M41 0v668h144v-668h-144zM25 -118q0 35 24 58t66 23t67 -25.5t25 -66.5q-1 -42 -34 -98l-29 -50h-92l29 47l22 28v5q-37 4 -57.5 25.5t-20.5 53.5z" />
    <glyph glyph-name="Lcaron" unicode="&#x13d;" horiz-adv-x="530" 
d="M516 0h-450v600h145v-475h305v-125zM294 519q0 35 24 58t66 23t67 -25.5t25 -66.5q-1 -42 -34 -98l-29 -50h-92l29 47l22 28v5q-37 4 -57.5 25.5t-20.5 53.5z" />
    <glyph glyph-name="lcaron" unicode="&#x13e;" horiz-adv-x="226" 
d="M41 0v668h144v-668h-144zM213 588q0 35 24 58t66 23t67 -25.5t25 -66.5q-1 -42 -34 -98l-29 -50h-92l29 47l22 28v5q-37 4 -57.5 25.5t-20.5 53.5z" />
    <glyph glyph-name="Ldot" unicode="&#x13f;" horiz-adv-x="529" 
d="M516 0h-450v600h145v-475h305v-125zM315 327q0 34 23 57.5t57 23.5t57.5 -23.5t23.5 -57.5t-23.5 -57t-57.5 -23t-57 23t-23 57z" />
    <glyph glyph-name="ldot" unicode="&#x140;" horiz-adv-x="369" 
d="M41 0v668h144v-668h-144zM218 273q0 34 23 57.5t57 23.5t57.5 -23.5t23.5 -57.5t-23.5 -57t-57.5 -23t-57 23t-23 57z" />
    <glyph glyph-name="Lslash" unicode="&#x141;" horiz-adv-x="539" 
d="M30 208l-36 62l83 48v282h145v-198l71 41l36 -62l-107 -62v-194h305v-125h-450v235z" />
    <glyph glyph-name="lslash" unicode="&#x142;" horiz-adv-x="274" 
d="M42 208l-32 55l73 42v363h144v-280l50 29l32 -55l-82 -48v-314h-144v231z" />
    <glyph glyph-name="Nacute" unicode="&#x143;" horiz-adv-x="697" 
d="M631 599v-599h-33l-388 331v-331h-144v600h33l388 -318v317h144zM471 774l-99 -136h-92v22l28 136h163v-22z" />
    <glyph glyph-name="nacute" unicode="&#x144;" horiz-adv-x="464" 
d="M42 0v346h86l24 -45h6q39 53 114 53q71 0 113 -39t42 -108v-207h-144v186q0 23 -12.5 36.5t-34.5 13.5q-21 0 -35.5 -14t-14.5 -35v-187h-144zM379 555l-99 -136h-92v22l28 136h163v-22z" />
    <glyph glyph-name="Ncommaaccent" unicode="&#x145;" horiz-adv-x="697" 
d="M631 599v-599h-33l-388 331v-331h-144v600h33l388 -318v317h144zM286 -118q0 35 24 58t66 23t67 -25.5t25 -66.5q-1 -42 -34 -98l-29 -50h-92l29 47l22 28v5q-37 4 -57.5 25.5t-20.5 53.5z" />
    <glyph glyph-name="ncommaaccent" unicode="&#x146;" horiz-adv-x="464" 
d="M42 0v346h86l24 -45h6q39 53 114 53q71 0 113 -39t42 -108v-207h-144v186q0 23 -12.5 36.5t-34.5 13.5q-21 0 -35.5 -14t-14.5 -35v-187h-144zM143 -118q0 35 24 58t66 23t67 -25.5t25 -66.5q-1 -42 -34 -98l-29 -50h-92l29 47l22 28v5q-37 4 -57.5 25.5t-20.5 53.5z" />
    <glyph glyph-name="Ncaron" unicode="&#x147;" horiz-adv-x="697" 
d="M631 599v-599h-33l-388 331v-331h-144v600h33l388 -318v317h144zM335 725l60 71h92v-22l-78 -136h-149l-78 136v22h92z" />
    <glyph glyph-name="ncaron" unicode="&#x148;" horiz-adv-x="464" 
d="M42 0v346h86l24 -45h6q39 53 114 53q71 0 113 -39t42 -108v-207h-144v186q0 23 -12.5 36.5t-34.5 13.5q-21 0 -35.5 -14t-14.5 -35v-187h-144zM231 506l60 71h92v-22l-78 -136h-149l-78 136v22h92z" />
    <glyph glyph-name="napostrophe" unicode="&#x149;" horiz-adv-x="464" 
d="M42 0v346h86l24 -45h6q39 53 114 53q71 0 113 -39t42 -108v-207h-144v186q0 23 -12.5 36.5t-34.5 13.5q-21 0 -35.5 -14t-14.5 -35v-187h-144zM13 588q0 35 24 58t66 23t67 -25.5t25 -66.5q-1 -42 -34 -98l-29 -50h-92l29 47l22 28v5q-37 4 -57.5 25.5t-20.5 53.5z" />
    <glyph glyph-name="Eng" unicode="&#x14a;" horiz-adv-x="697" 
d="M631 599v-660q0 -63 -34.5 -101.5t-102.5 -38.5q-27 0 -50.5 6t-33.5 12l-11 6l36 107q12 -6 26 -6q26 0 26 27v143l-277 237v-331h-144v600h33l388 -318v317h144z" />
    <glyph glyph-name="eng" unicode="&#x14b;" horiz-adv-x="464" 
d="M42 0v346h86l24 -45h6q39 53 114 53q71 0 113 -39t42 -108v-259q0 -63 -34 -101.5t-102 -38.5q-27 0 -50.5 6t-34.5 12l-10 6l36 107q14 -6 28 -6q23 0 23 32v221q0 23 -12.5 36.5t-34.5 13.5q-21 0 -35.5 -14t-14.5 -35v-187h-144z" />
    <glyph glyph-name="Omacron" unicode="&#x14c;" horiz-adv-x="702" 
d="M350 -13q-145 0 -232.5 90t-87.5 223t87.5 223t232.5 90q147 0 234.5 -90t87.5 -223t-87.5 -223t-234.5 -90zM350 127q74 0 123 48t49 125t-49 125t-123 48q-73 0 -121.5 -48t-48.5 -125t48.5 -125t121.5 -48zM203 683v85h286v-85h-286z" />
    <glyph glyph-name="omacron" unicode="&#x14d;" horiz-adv-x="444" 
d="M422 171q0 -79 -58 -129t-142 -50t-142 50t-58 129q0 81 57.5 132t142.5 51t142.5 -51t57.5 -132zM222 105q29 0 44.5 18.5t15.5 49.5t-15.5 49.5t-44.5 18.5t-44.5 -18.5t-15.5 -49.5t15.5 -49.5t44.5 -18.5zM78 438v85h286v-85h-286z" />
    <glyph glyph-name="Obreve" unicode="&#x14e;" horiz-adv-x="702" 
d="M401 802h113q0 -67 -41.5 -115t-125.5 -48t-126.5 48t-42.5 115h112q0 -67 56 -67q55 0 55 67zM350 -13q-145 0 -232.5 90t-87.5 223t87.5 223t232.5 90q147 0 234.5 -90t87.5 -223t-87.5 -223t-234.5 -90zM350 127q74 0 123 48t49 125t-49 125t-123 48q-73 0 -121.5 -48
t-48.5 -125t48.5 -125t121.5 -48z" />
    <glyph glyph-name="obreve" unicode="&#x14f;" horiz-adv-x="444" 
d="M422 171q0 -79 -58 -129t-142 -50t-142 50t-58 129q0 81 57.5 132t142.5 51t142.5 -51t57.5 -132zM222 105q29 0 44.5 18.5t15.5 49.5t-15.5 49.5t-44.5 18.5t-44.5 -18.5t-15.5 -49.5t15.5 -49.5t44.5 -18.5zM276 576h113q0 -67 -41.5 -115t-125.5 -48t-126.5 48
t-42.5 115h112q0 -67 56 -67q55 0 55 67z" />
    <glyph glyph-name="Ohungarumlaut" unicode="&#x150;" horiz-adv-x="702" 
d="M350 -13q-145 0 -232.5 90t-87.5 223t87.5 223t232.5 90q147 0 234.5 -90t87.5 -223t-87.5 -223t-234.5 -90zM350 127q74 0 123 48t49 125t-49 125t-123 48q-73 0 -121.5 -48t-48.5 -125t48.5 -125t121.5 -48zM384 773l-79 -136h-92v22l28 136h143v-22zM562 773l-79 -136
h-92v22l28 136h143v-22z" />
    <glyph glyph-name="ohungarumlaut" unicode="&#x151;" horiz-adv-x="444" 
d="M422 171q0 -79 -58 -129t-142 -50t-142 50t-58 129q0 81 57.5 132t142.5 51t142.5 -51t57.5 -132zM222 105q29 0 44.5 18.5t15.5 49.5t-15.5 49.5t-44.5 18.5t-44.5 -18.5t-15.5 -49.5t15.5 -49.5t44.5 -18.5zM261 555l-79 -136h-92v22l28 136h143v-22zM439 555l-79 -136
h-92v22l28 136h143v-22z" />
    <glyph glyph-name="OE" unicode="&#x152;" horiz-adv-x="1036" 
d="M934 357v-114h-264v-118h332v-125h-477v31q-75 -44 -175 -44q-145 0 -232.5 90t-87.5 223t87.5 223t232.5 90q98 0 175 -45v32h477v-125h-332v-118h264zM350 127q74 0 123 48t49 125t-49 125t-123 48q-73 0 -121.5 -48t-48.5 -125t48.5 -125t121.5 -48z" />
    <glyph glyph-name="oe" unicode="&#x153;" horiz-adv-x="676" 
d="M582 117l45 -88q-5 -4 -14 -11t-44 -18t-76 -11q-86 0 -140 43q-54 -40 -130 -40q-84 0 -142 50t-58 129q0 81 57.5 132t142.5 51q73 0 129 -40q51 40 125 40q83 0 131.5 -49t48.5 -132l-1 -26h-232q14 -49 76 -49q24 0 44.5 5t29.5 9zM223 105q29 0 44.5 18.5t15.5 49.5
t-15.5 49.5t-44.5 18.5t-44.5 -18.5t-15.5 -49.5t15.5 -49.5t44.5 -18.5zM475 253q-40 0 -51 -43h99q-2 18 -14.5 30.5t-33.5 12.5z" />
    <glyph glyph-name="Racute" unicode="&#x154;" horiz-adv-x="649" 
d="M66 0v600h283q115 0 182 -55.5t67 -153.5q0 -123 -100 -179v-13l135 -189v-10h-165l-118 175h-139v-175h-145zM448 385q0 43 -27.5 66.5t-77.5 23.5h-132v-180h133q104 0 104 90zM434 774l-99 -136h-92v22l28 136h163v-22z" />
    <glyph glyph-name="racute" unicode="&#x155;" horiz-adv-x="339" 
d="M341 322l-53 -115q-19 16 -47 16q-25 0 -40 -15t-15 -38v-170h-144v346h86l24 -45h5q38 53 98 53q28 0 49.5 -8t29.5 -16zM295 555l-99 -136h-92v22l28 136h163v-22z" />
    <glyph glyph-name="Rcommaaccent" unicode="&#x156;" horiz-adv-x="649" 
d="M66 0v600h283q115 0 182 -55.5t67 -153.5q0 -123 -100 -179v-13l135 -189v-10h-165l-118 175h-139v-175h-145zM448 385q0 43 -27.5 66.5t-77.5 23.5h-132v-180h133q104 0 104 90zM240 -118q0 35 24 58t66 23t67 -25.5t25 -66.5q-1 -42 -34 -98l-29 -50h-92l29 47l22 28v5
q-37 4 -57.5 25.5t-20.5 53.5z" />
    <glyph glyph-name="rcommaaccent" unicode="&#x157;" horiz-adv-x="339" 
d="M341 322l-53 -115q-19 16 -47 16q-25 0 -40 -15t-15 -38v-170h-144v346h86l24 -45h5q38 53 98 53q28 0 49.5 -8t29.5 -16zM28 -118q0 35 24 58t66 23t67 -25.5t25 -66.5q-1 -42 -34 -98l-29 -50h-92l29 47l22 28v5q-37 4 -57.5 25.5t-20.5 53.5z" />
    <glyph glyph-name="Rcaron" unicode="&#x158;" horiz-adv-x="649" 
d="M66 0v600h283q115 0 182 -55.5t67 -153.5q0 -123 -100 -179v-13l135 -189v-10h-165l-118 175h-139v-175h-145zM448 385q0 43 -27.5 66.5t-77.5 23.5h-132v-180h133q104 0 104 90zM305 725l60 71h92v-22l-78 -136h-149l-78 136v22h92z" />
    <glyph glyph-name="rcaron" unicode="&#x159;" horiz-adv-x="339" 
d="M341 322l-53 -115q-19 16 -47 16q-25 0 -40 -15t-15 -38v-170h-144v346h86l24 -45h5q38 53 98 53q28 0 49.5 -8t29.5 -16zM180 506l60 71h92v-22l-78 -136h-149l-78 136v22h92z" />
    <glyph glyph-name="Sacute" unicode="&#x15a;" horiz-adv-x="552" 
d="M25 67l79 111q10 -6 27 -16t63 -26t85 -16q75 0 75 50q0 24 -22.5 39t-89.5 33q-105 29 -156 71.5t-51 113.5q0 85 61.5 135.5t179.5 50.5q47 0 88.5 -6.5t67 -16t44 -19t26.5 -15.5l8 -7l-78 -118q-7 6 -20.5 14t-54.5 22t-81 14q-74 0 -74 -44q0 -22 22 -34t82 -28
q111 -29 164.5 -73t53.5 -116q0 -87 -61.5 -143t-179.5 -56q-48 0 -92 8t-73 20t-51 24t-32 20zM422 774l-99 -136h-92v22l28 136h163v-22z" />
    <glyph glyph-name="sacute" unicode="&#x15b;" horiz-adv-x="385" 
d="M26 25l33 98q58 -33 109 -33q28 0 28 20q0 10 -17.5 16.5t-42.5 12t-49.5 14.5t-42 31t-17.5 55q0 52 39.5 83.5t121.5 31.5q50 0 91.5 -7.5t58.5 -14.5l16 -8l-37 -99q-43 29 -110 29q-23 0 -23 -17q0 -12 27.5 -20.5t61 -15t61 -31t27.5 -64.5q0 -52 -44 -83t-128 -31
q-49 0 -90 8t-57 16zM324 555l-99 -136h-92v22l28 136h163v-22z" />
    <glyph glyph-name="Scircumflex" unicode="&#x15c;" horiz-adv-x="552" 
d="M25 67l79 111q10 -6 27 -16t63 -26t85 -16q75 0 75 50q0 24 -22.5 39t-89.5 33q-105 29 -156 71.5t-51 113.5q0 85 61.5 135.5t179.5 50.5q47 0 88.5 -6.5t67 -16t44 -19t26.5 -15.5l8 -7l-78 -118q-7 6 -20.5 14t-54.5 22t-81 14q-74 0 -74 -44q0 -22 22 -34t82 -28
q111 -29 164.5 -73t53.5 -116q0 -87 -61.5 -143t-179.5 -56q-48 0 -92 8t-73 20t-51 24t-32 20zM338 638l-60 71l-61 -71h-92v22l78 136h149l78 -136v-22h-92z" />
    <glyph glyph-name="scircumflex" unicode="&#x15d;" horiz-adv-x="385" 
d="M26 25l33 98q58 -33 109 -33q28 0 28 20q0 10 -17.5 16.5t-42.5 12t-49.5 14.5t-42 31t-17.5 55q0 52 39.5 83.5t121.5 31.5q50 0 91.5 -7.5t58.5 -14.5l16 -8l-37 -99q-43 29 -110 29q-23 0 -23 -17q0 -12 27.5 -20.5t61 -15t61 -31t27.5 -64.5q0 -52 -44 -83t-128 -31
q-49 0 -90 8t-57 16zM252 419l-60 71l-61 -71h-92v22l78 136h149l78 -136v-22h-92z" />
    <glyph glyph-name="Scedilla" unicode="&#x15e;" horiz-adv-x="552" 
d="M25 67l79 111q10 -6 27 -16t63 -26t85 -16q75 0 75 50q0 24 -22.5 39t-89.5 33q-105 29 -156 71.5t-51 113.5q0 85 61.5 135.5t179.5 50.5q47 0 88.5 -6.5t67 -16t44 -19t26.5 -15.5l8 -7l-78 -118q-7 6 -20.5 14t-54.5 22t-81 14q-74 0 -74 -44q0 -22 22 -34t82 -28
q111 -29 164.5 -73t53.5 -116q0 -82 -56 -137.5t-163 -60.5l-7 -18q28 0 46 -17.5t18 -47.5q0 -35 -24 -56.5t-67 -21.5q-29 0 -52.5 9.5t-32.5 19.5l-9 9l28 48q24 -24 62 -24q29 0 29 20q0 19 -26 19q-8 0 -14.5 -2t-9.5 -4l-3 -1l-23 26l19 42q-63 5 -116.5 24.5
t-75.5 36.5z" />
    <glyph glyph-name="scedilla" unicode="&#x15f;" horiz-adv-x="385" 
d="M157 -79l-23 26l21 46q-39 3 -71.5 11t-45.5 14l-12 7l33 98q58 -33 109 -33q28 0 28 20q0 10 -17.5 16.5t-42.5 12t-49.5 14.5t-42 31t-17.5 55q0 52 39.5 83.5t121.5 31.5q50 0 91.5 -7.5t58.5 -14.5l16 -8l-37 -99q-43 29 -110 29q-23 0 -23 -17q0 -12 27.5 -20.5
t61 -15t61 -31t27.5 -64.5q0 -47 -35.5 -77t-104.5 -35l-9 -24q28 0 46 -17.5t18 -47.5q0 -35 -24 -56.5t-67 -21.5q-29 0 -52.5 9.5t-32.5 19.5l-9 9l28 48q24 -24 62 -24q29 0 29 20q0 19 -26 19q-8 0 -14.5 -2t-9.5 -4z" />
    <glyph glyph-name="Scaron" unicode="&#x160;" horiz-adv-x="552" 
d="M25 67l79 111q10 -6 27 -16t63 -26t85 -16q75 0 75 50q0 24 -22.5 39t-89.5 33q-105 29 -156 71.5t-51 113.5q0 85 61.5 135.5t179.5 50.5q47 0 88.5 -6.5t67 -16t44 -19t26.5 -15.5l8 -7l-78 -118q-7 6 -20.5 14t-54.5 22t-81 14q-74 0 -74 -44q0 -22 22 -34t82 -28
q111 -29 164.5 -73t53.5 -116q0 -87 -61.5 -143t-179.5 -56q-48 0 -92 8t-73 20t-51 24t-32 20zM273 725l60 71h92v-22l-78 -136h-149l-78 136v22h92z" />
    <glyph glyph-name="scaron" unicode="&#x161;" horiz-adv-x="385" 
d="M26 25l33 98q58 -33 109 -33q28 0 28 20q0 10 -17.5 16.5t-42.5 12t-49.5 14.5t-42 31t-17.5 55q0 52 39.5 83.5t121.5 31.5q50 0 91.5 -7.5t58.5 -14.5l16 -8l-37 -99q-43 29 -110 29q-23 0 -23 -17q0 -12 27.5 -20.5t61 -15t61 -31t27.5 -64.5q0 -52 -44 -83t-128 -31
q-49 0 -90 8t-57 16zM192 506l60 71h92v-22l-78 -136h-149l-78 136v22h92z" />
    <glyph glyph-name="Tcommaaccent" unicode="&#x162;" horiz-adv-x="546" 
d="M12 475v125h522v-125h-188v-475h-145v475h-189zM179 -118q0 35 24 58t66 23t67 -25.5t25 -66.5q-1 -42 -34 -98l-29 -50h-92l29 47l22 28v5q-37 4 -57.5 25.5t-20.5 53.5z" />
    <glyph glyph-name="tcommaaccent" unicode="&#x163;" horiz-adv-x="351" 
d="M18 346h59v103h144v-103h98v-113h-98v-90q0 -31 29 -31q11 0 21 3t15 6l4 3l46 -96q-4 -4 -11.5 -10t-36.5 -16t-63 -10q-68 0 -108 39t-40 107v95h-59v113zM92 -118q0 35 24 58t66 23t67 -25.5t25 -66.5q-1 -42 -34 -98l-29 -50h-92l29 47l22 28v5q-37 4 -57.5 25.5
t-20.5 53.5z" />
    <glyph glyph-name="Tcaron" unicode="&#x164;" horiz-adv-x="546" 
d="M12 475v125h522v-125h-188v-475h-145v475h-189zM276 725l60 71h92v-22l-78 -136h-149l-78 136v22h92z" />
    <glyph glyph-name="tcaron" unicode="&#x165;" horiz-adv-x="351" 
d="M18 346h59v103h144v-103h98v-113h-98v-90q0 -31 29 -31q11 0 21 3t15 6l4 3l46 -96q-4 -4 -11.5 -10t-36.5 -16t-63 -10q-68 0 -108 39t-40 107v95h-59v113zM252 588q0 35 24 58t66 23t67 -25.5t25 -66.5q-1 -42 -34 -98l-29 -50h-92l29 47l22 28v5q-37 4 -57.5 25.5
t-20.5 53.5z" />
    <glyph glyph-name="Tbar" unicode="&#x166;" horiz-adv-x="548" 
d="M13 475v125h522v-125h-188v-138h75v-64h-75v-273h-145v273h-80v64h80v138h-189z" />
    <glyph glyph-name="tbar" unicode="&#x167;" horiz-adv-x="353" 
d="M19 346h59v103h144v-103h98v-113h-98v-25h87v-57h-87v-8q0 -31 29 -31q11 0 21 3t14 6l5 3l46 -96q-4 -4 -11.5 -10t-36.5 -16t-63 -10q-68 0 -108 39t-40 107v13h-56v57h56v25h-59v113z" />
    <glyph glyph-name="Utilde" unicode="&#x168;" horiz-adv-x="665" 
d="M333 -13q-125 0 -200.5 77t-75.5 195v341h145v-341q0 -55 34 -93.5t97 -38.5q64 0 97 37.5t33 94.5v341h145v-341q0 -119 -74.5 -195.5t-200.5 -76.5zM401 673q-33 0 -71.5 18t-51.5 18q-21 0 -28 -25l-4 -16l-101 9l6 37q8 48 35.5 75t72.5 27q33 0 71.5 -18t51.5 -18
q21 0 28 25l4 16l101 -9l-6 -37q-8 -48 -35.5 -75t-72.5 -27z" />
    <glyph glyph-name="utilde" unicode="&#x169;" horiz-adv-x="464" 
d="M422 346v-346h-99l-24 45h-6q-29 -53 -101 -53q-71 0 -113 39t-42 108v207h144v-186q0 -23 12.5 -36.5t34.5 -13.5q21 0 35.5 12.5t14.5 32.5v191h144zM305 422q-33 0 -71.5 18t-51.5 18q-21 0 -28 -25l-4 -16l-101 9l6 37q8 48 35.5 75t72.5 27q33 0 71.5 -18t51.5 -18
q21 0 28 25l4 16l101 -9l-6 -37q-8 -48 -35.5 -75t-72.5 -27z" />
    <glyph glyph-name="Umacron" unicode="&#x16a;" horiz-adv-x="665" 
d="M333 -13q-125 0 -200.5 77t-75.5 195v341h145v-341q0 -55 34 -93.5t97 -38.5q64 0 97 37.5t33 94.5v341h145v-341q0 -119 -74.5 -195.5t-200.5 -76.5zM189 669v85h286v-85h-286z" />
    <glyph glyph-name="umacron" unicode="&#x16b;" horiz-adv-x="464" 
d="M422 346v-346h-99l-24 45h-6q-29 -53 -101 -53q-71 0 -113 39t-42 108v207h144v-186q0 -23 12.5 -36.5t34.5 -13.5q21 0 35.5 12.5t14.5 32.5v191h144zM86 438v85h286v-85h-286z" />
    <glyph glyph-name="Ubreve" unicode="&#x16c;" horiz-adv-x="665" 
d="M389 802h113q0 -67 -41.5 -115t-125.5 -48t-126.5 48t-42.5 115h112q0 -67 56 -67q55 0 55 67zM333 -13q-125 0 -200.5 77t-75.5 195v341h145v-341q0 -55 34 -93.5t97 -38.5q64 0 97 37.5t33 94.5v341h145v-341q0 -119 -74.5 -195.5t-200.5 -76.5z" />
    <glyph glyph-name="ubreve" unicode="&#x16d;" horiz-adv-x="464" 
d="M422 346v-346h-99l-24 45h-6q-29 -53 -101 -53q-71 0 -113 39t-42 108v207h144v-186q0 -23 12.5 -36.5t34.5 -13.5q21 0 35.5 12.5t14.5 32.5v191h144zM284 576h113q0 -67 -41.5 -115t-125.5 -48t-126.5 48t-42.5 115h112q0 -67 56 -67q55 0 55 67z" />
    <glyph glyph-name="Uring" unicode="&#x16e;" horiz-adv-x="665" 
d="M334 620q-48 0 -81 31.5t-33 77.5t33 77.5t81 31.5t81 -31.5t33 -77.5t-33 -77.5t-81 -31.5zM361 729q0 12 -7.5 19.5t-19.5 7.5q-11 0 -18.5 -7.5t-7.5 -19.5q0 -11 7.5 -18.5t18.5 -7.5q12 0 19.5 7.5t7.5 18.5zM333 -13q-125 0 -200.5 77t-75.5 195v341h145v-341
q0 -55 34 -93.5t97 -38.5q64 0 97 37.5t33 94.5v341h145v-341q0 -119 -74.5 -195.5t-200.5 -76.5z" />
    <glyph glyph-name="uring" unicode="&#x16f;" horiz-adv-x="464" 
d="M422 346v-346h-99l-24 45h-6q-29 -53 -101 -53q-71 0 -113 39t-42 108v207h144v-186q0 -23 12.5 -36.5t34.5 -13.5q21 0 35.5 12.5t14.5 32.5v191h144zM231 412q-48 0 -81 31.5t-33 77.5t33 77.5t81 31.5t81 -31.5t33 -77.5t-33 -77.5t-81 -31.5zM258 521q0 12 -7.5 19.5
t-19.5 7.5q-11 0 -18.5 -7.5t-7.5 -19.5q0 -11 7.5 -18.5t18.5 -7.5q12 0 19.5 7.5t7.5 18.5z" />
    <glyph glyph-name="Uhungarumlaut" unicode="&#x170;" horiz-adv-x="665" 
d="M372 774l-79 -136h-92v22l28 136h143v-22zM550 774l-79 -136h-92v22l28 136h143v-22zM333 -13q-125 0 -200.5 77t-75.5 195v341h145v-341q0 -55 34 -93.5t97 -38.5q64 0 97 37.5t33 94.5v341h145v-341q0 -119 -74.5 -195.5t-200.5 -76.5z" />
    <glyph glyph-name="uhungarumlaut" unicode="&#x171;" horiz-adv-x="464" 
d="M422 346v-346h-99l-24 45h-6q-29 -53 -101 -53q-71 0 -113 39t-42 108v207h144v-186q0 -23 12.5 -36.5t34.5 -13.5q21 0 35.5 12.5t14.5 32.5v191h144zM265 555l-79 -136h-92v22l28 136h143v-22zM443 555l-79 -136h-92v22l28 136h143v-22z" />
    <glyph glyph-name="Uogonek" unicode="&#x172;" horiz-adv-x="665" 
d="M333 -13q-25 0 -55 5q13 12 31.5 22t30.5 14l11 3l13 -39q-4 -1 -9.5 -4t-14.5 -14t-9 -24q0 -28 29 -28q8 0 15.5 4t10.5 8l3 3l39 -50q-3 -4 -9 -10t-27.5 -16.5t-47.5 -10.5q-43 0 -67.5 22.5t-24.5 58.5q0 35 26 61q-102 16 -161.5 89.5t-59.5 177.5v341h145v-341
q0 -55 34 -93.5t97 -38.5q64 0 97 37.5t33 94.5v341h145v-341q0 -119 -74.5 -195.5t-200.5 -76.5z" />
    <glyph glyph-name="uogonek" unicode="&#x173;" horiz-adv-x="464" 
d="M447 -55l39 -50q-3 -4 -9 -10t-27.5 -16.5t-47.5 -10.5q-43 0 -67.5 22.5t-24.5 58.5t27 61h-14l-24 45h-6q-29 -53 -101 -53q-71 0 -113 39t-42 108v207h144v-186q0 -23 12.5 -36.5t34.5 -13.5q21 0 35.5 12.5t14.5 32.5v191h144v-346q-2 0 -9.5 -4t-15.5 -14.5
t-8 -23.5q0 -28 29 -28q8 0 15.5 3.5t10.5 7.5z" />
    <glyph glyph-name="Wcircumflex" unicode="&#x174;" horiz-adv-x="834" 
d="M312 390l90 210h31l89 -210l29 -80h12l31 95l88 195h160l-262 -600h-26l-97 210l-35 86h-10l-35 -86l-97 -210h-26l-262 600h159l88 -195l31 -95h12zM475 638l-60 71l-61 -71h-92v22l78 136h149l78 -136v-22h-92z" />
    <glyph glyph-name="wcircumflex" unicode="&#x175;" horiz-adv-x="610" 
d="M612 346l-154 -346h-88l-53 123q-9 24 -9 44h-6q0 -20 -9 -44l-53 -123h-88l-154 346h157l43 -141q7 -26 7 -34h7q0 8 7 34l38 141h96l38 -141q7 -28 7 -34h7q0 13 7 34l43 141h157zM366 419l-60 71l-61 -71h-92v22l78 136h149l78 -136v-22h-92z" />
    <glyph glyph-name="Ycircumflex" unicode="&#x176;" horiz-adv-x="572" 
d="M311 418l104 182h167l-224 -371v-229h-145v230l-221 370h167l104 -182l21 -46h6zM346 638l-60 71l-61 -71h-92v22l78 136h149l78 -136v-22h-92z" />
    <glyph glyph-name="ycircumflex" unicode="&#x177;" horiz-adv-x="419" 
d="M420 346l-240 -538l-152 -1l116 235l-144 304h157l48 -141q6 -16 7 -34h7q1 18 7 34l48 141h146zM276 419l-60 71l-61 -71h-92v22l78 136h149l78 -136v-22h-92z" />
    <glyph glyph-name="Ydieresis" unicode="&#x178;" horiz-adv-x="572" 
d="M125 705q0 27 20.5 47.5t46.5 20.5q27 0 47.5 -20.5t20.5 -47.5q0 -26 -20.5 -46.5t-47.5 -20.5q-26 0 -46.5 20.5t-20.5 46.5zM315 705q0 27 20.5 47.5t46.5 20.5q27 0 47.5 -20.5t20.5 -47.5q0 -26 -20.5 -46.5t-47.5 -20.5q-26 0 -46.5 20.5t-20.5 46.5zM311 418
l104 182h167l-224 -371v-229h-145v230l-221 370h167l104 -182l21 -46h6z" />
    <glyph glyph-name="Zacute" unicode="&#x179;" horiz-adv-x="561" 
d="M24 0v39l280 436h-260v125h487v-47l-267 -428h267v-125h-507zM412 774l-99 -136h-92v22l28 136h163v-22z" />
    <glyph glyph-name="zacute" unicode="&#x17a;" horiz-adv-x="403" 
d="M371 0h-340v59l139 172h-129v115h330v-61l-137 -170h137v-115zM347 555l-99 -136h-92v22l28 136h163v-22z" />
    <glyph glyph-name="Zdotaccent" unicode="&#x17b;" horiz-adv-x="561" 
d="M24 0v39l280 436h-260v125h487v-47l-267 -428h267v-125h-507zM197 717q0 34 23 57.5t57 23.5t57.5 -23.5t23.5 -57.5t-23.5 -57t-57.5 -23t-57 23t-23 57z" />
    <glyph glyph-name="zdotaccent" unicode="&#x17c;" horiz-adv-x="403" 
d="M371 0h-340v59l139 172h-129v115h330v-61l-137 -170h137v-115zM131 493q0 34 23 57.5t57 23.5t57.5 -23.5t23.5 -57.5t-23.5 -57t-57.5 -23t-57 23t-23 57z" />
    <glyph glyph-name="Zcaron" unicode="&#x17d;" horiz-adv-x="561" 
d="M24 0v39l280 436h-260v125h487v-47l-267 -428h267v-125h-507zM281 724l60 71h92v-22l-78 -136h-149l-78 136v22h92z" />
    <glyph glyph-name="zcaron" unicode="&#x17e;" horiz-adv-x="403" 
d="M371 0h-340v59l139 172h-129v115h330v-61l-137 -170h137v-115zM209 506l60 71h92v-22l-78 -136h-149l-78 136v22h92z" />
    <glyph glyph-name="florin" unicode="&#x192;" horiz-adv-x="365" 
d="M96 -44v279h-69v111h69v127q0 96 47 144.5t125 48.5q56 0 94 -19l-34 -121q-17 7 -38 7q-50 0 -50 -60v-127h100v-111h-100v-296q0 -63 -34 -101.5t-102 -38.5q-27 0 -50.5 6t-33.5 12l-11 6l36 107q14 -6 28 -6q23 0 23 32z" />
    <glyph glyph-name="Aringacute" unicode="&#x1fa;" horiz-adv-x="624" 
d="M-14 0l282 539q-32 12 -51 39.5t-19 61.5q0 46 33 77.5t81 31.5t81 -31.5t33 -77.5q0 -34 -19.5 -61.5t-50.5 -39.5l283 -539h-164l-33 71h-261l-32 -71h-163zM458 901l-99 -136h-92v22l28 136h163v-22zM389 189l-74 157h-8l-74 -157l-9 -16h174zM339 640q0 12 -7.5 19.5
t-19.5 7.5q-11 0 -18.5 -7.5t-7.5 -19.5q0 -11 7.5 -18.5t18.5 -7.5q12 0 19.5 7.5t7.5 18.5z" />
    <glyph glyph-name="aringacute" unicode="&#x1fb;" horiz-adv-x="426" 
d="M21 96q0 51 37.5 78.5t102.5 27.5q31 0 53 -5t28 -11l6 -5h6v13q0 47 -80 47q-21 0 -44 -5.5t-35 -11.5l-12 -5l-41 104q70 31 158 31q96 0 143 -43.5t47 -121.5v-189h-105l-15 34h-6q-21 -42 -108 -42q-59 0 -97 29t-38 75zM157 110q0 -32 45 -32q48 0 48 32
q0 13 -12.5 22t-35.5 9q-45 0 -45 -31zM206 392q-48 0 -81 31.5t-33 77.5t33 77.5t81 31.5t81 -31.5t33 -77.5t-33 -77.5t-81 -31.5zM233 501q0 12 -7.5 19.5t-19.5 7.5q-11 0 -18.5 -7.5t-7.5 -19.5q0 -11 7.5 -18.5t18.5 -7.5q12 0 19.5 7.5t7.5 18.5zM349 762l-99 -136
h-92v22l28 136h163v-22z" />
    <glyph glyph-name="AEacute" unicode="&#x1fc;" horiz-adv-x="929" 
d="M-23 0l419 600h499v-125h-332v-121h264v-114h-264v-115h332v-125h-477v71h-214l-45 -71h-182zM414 397l-145 -224h149v224h-4zM772 774l-99 -136h-92v22l28 136h163v-22z" />
    <glyph glyph-name="aeacute" unicode="&#x1fd;" horiz-adv-x="650" 
d="M478 555l-99 -136h-92v22l28 136h163v-22zM248 181h7v13q0 47 -81 47q-21 0 -44 -5.5t-35 -11.5l-12 -5l-41 104q70 31 158 31q83 0 131 -34q52 34 118 34q83 0 132 -49t49 -132l-2 -30h-232q15 -45 73 -45q24 0 45.5 6t31.5 12l9 5l44 -94q-6 -4 -17.5 -10.5t-52.5 -17
t-87 -10.5q-72 0 -120 37q-50 -34 -131 -34q-87 0 -128.5 30t-41.5 79q0 48 38 74.5t102 26.5q31 0 53 -5t28 -11zM157 109q0 -34 47 -34q25 0 38 9.5t13 24.5q0 14 -13.5 23t-37.5 9q-47 0 -47 -32zM449 258q-46 0 -55 -52h105q0 25 -13.5 38.5t-36.5 13.5z" />
    <glyph glyph-name="Oslashacute" unicode="&#x1fe;" horiz-adv-x="700" 
d="M349 -13q-120 0 -203 64l-60 -59l-50 51l59 58q-66 83 -66 199q0 133 87.5 223t232.5 90q119 0 204 -64l52 51l50 -51l-51 -50q67 -84 67 -199q0 -133 -87.5 -223t-234.5 -90zM349 127q74 0 123 48t49 125q0 52 -25 93l-244 -238q44 -28 97 -28zM179 300q0 -54 24 -93
l243 238q-42 28 -97 28q-73 0 -121.5 -48t-48.5 -125zM489 774l-99 -136h-92v22l28 136h163v-22z" />
    <glyph glyph-name="oslashacute" unicode="&#x1ff;" horiz-adv-x="444" 
d="M422 171q0 -79 -58 -129t-142 -50q-64 0 -110 27l-37 -37l-45 46l32 32q-40 46 -40 111q0 81 57.5 132t142.5 51q59 0 106 -26l44 44l45 -46l-38 -38q43 -51 43 -117zM362 555l-99 -136h-92v22l28 136h163v-22zM222 105q29 0 44.5 18.5t15.5 49.5q0 7 -2 19l-83 -83
q9 -4 25 -4zM162 173q0 -11 1 -16l80 80q-12 4 -21 4q-29 0 -44.5 -18.5t-15.5 -49.5z" />
    <glyph glyph-name="Scommaaccent" unicode="&#x218;" horiz-adv-x="552" 
d="M25 67l79 111q10 -6 27 -16t63 -26t85 -16q75 0 75 50q0 24 -22.5 39t-89.5 33q-105 29 -156 71.5t-51 113.5q0 85 61.5 135.5t179.5 50.5q47 0 88.5 -6.5t67 -16t44 -19t26.5 -15.5l8 -7l-78 -118q-7 6 -20.5 14t-54.5 22t-81 14q-74 0 -74 -44q0 -22 22 -34t82 -28
q111 -29 164.5 -73t53.5 -116q0 -87 -61.5 -143t-179.5 -56q-48 0 -92 8t-73 20t-51 24t-32 20zM190 -118q0 35 24 58t66 23t67 -25.5t25 -66.5q-1 -42 -34 -98l-29 -50h-92l29 47l22 28v5q-37 4 -57.5 25.5t-20.5 53.5z" />
    <glyph glyph-name="scommaaccent" unicode="&#x219;" horiz-adv-x="385" 
d="M26 25l33 98q58 -33 109 -33q28 0 28 20q0 10 -17.5 16.5t-42.5 12t-49.5 14.5t-42 31t-17.5 55q0 52 39.5 83.5t121.5 31.5q50 0 91.5 -7.5t58.5 -14.5l16 -8l-37 -99q-43 29 -110 29q-23 0 -23 -17q0 -12 27.5 -20.5t61 -15t61 -31t27.5 -64.5q0 -52 -44 -83t-128 -31
q-49 0 -90 8t-57 16zM104 -118q0 35 24 58t66 23t67 -25.5t25 -66.5q-1 -42 -34 -98l-29 -50h-92l29 47l22 28v5q-37 4 -57.5 25.5t-20.5 53.5z" />
    <glyph glyph-name="uni021A" unicode="&#x21a;" horiz-adv-x="546" 
d="M12 475v125h522v-125h-188v-475h-145v475h-189zM179 -118q0 35 24 58t66 23t67 -25.5t25 -66.5q-1 -42 -34 -98l-29 -50h-92l29 47l22 28v5q-37 4 -57.5 25.5t-20.5 53.5z" />
    <glyph glyph-name="uni021B" unicode="&#x21b;" horiz-adv-x="351" 
d="M18 346h59v103h144v-103h98v-113h-98v-90q0 -31 29 -31q11 0 21 3t15 6l4 3l46 -96q-4 -4 -11.5 -10t-36.5 -16t-63 -10q-68 0 -108 39t-40 107v95h-59v113zM92 -118q0 35 24 58t66 23t67 -25.5t25 -66.5q-1 -42 -34 -98l-29 -50h-92l29 47l22 28v5q-37 4 -57.5 25.5
t-20.5 53.5z" />
    <glyph glyph-name="dotlessj" unicode="&#x237;" horiz-adv-x="228" 
d="M-46 -177l36 107q14 -6 28 -6q23 0 23 32v390h145v-407q0 -63 -34.5 -101.5t-102.5 -38.5q-27 0 -50.5 6t-34.5 12z" />
    <glyph glyph-name="schwa" unicode="&#x259;" horiz-adv-x="421" 
d="M96 222l-44 94q6 4 17.5 10.5t52.5 17t87 10.5q87 0 138 -53t51 -131q0 -79 -56 -130t-140 -51q-83 0 -132 49t-49 132l2 30h231q-14 45 -72 45q-24 0 -45.5 -5.5t-30.5 -11.5zM202 85q45 0 54 52h-104q0 -25 13.5 -38.5t36.5 -13.5z" />
    <glyph glyph-name="circumflex" unicode="&#x2c6;" horiz-adv-x="329" 
d="M232 419l-60 71l-61 -71h-92v22l78 136h149l78 -136v-22h-92z" />
    <glyph glyph-name="caron" unicode="&#x2c7;" horiz-adv-x="341" 
d="M172 506l60 71h92v-22l-78 -136h-149l-78 136v22h92z" />
    <glyph glyph-name="breve" unicode="&#x2d8;" horiz-adv-x="372" 
d="M241 576h113q0 -67 -41.5 -115t-125.5 -48t-126.5 48t-42.5 115h112q0 -67 56 -67q55 0 55 67z" />
    <glyph glyph-name="dotaccent" unicode="&#x2d9;" horiz-adv-x="214" 
d="M25 493q0 34 23 57.5t57 23.5t57.5 -23.5t23.5 -57.5t-23.5 -57t-57.5 -23t-57 23t-23 57z" />
    <glyph glyph-name="ring" unicode="&#x2da;" horiz-adv-x="300" 
d="M150 412q-48 0 -81 31.5t-33 77.5t33 77.5t81 31.5t81 -31.5t33 -77.5t-33 -77.5t-81 -31.5zM177 521q0 12 -7.5 19.5t-19.5 7.5q-11 0 -18.5 -7.5t-7.5 -19.5q0 -11 7.5 -18.5t18.5 -7.5q12 0 19.5 7.5t7.5 18.5z" />
    <glyph glyph-name="ogonek" unicode="&#x2db;" horiz-adv-x="201" 
d="M161 -55l39 -50q-3 -4 -9 -10t-27.5 -16.5t-47.5 -10.5q-43 0 -67.5 22.5t-24.5 58.5q0 34 25 59t49 33l25 8l13 -39q-4 -1 -9.5 -4t-14.5 -14t-9 -24q0 -28 29 -28q8 0 15.5 3.5t10.5 7.5z" />
    <glyph glyph-name="tilde" unicode="&#x2dc;" horiz-adv-x="430" 
d="M286 422q-33 0 -71.5 18t-51.5 18q-21 0 -28 -25l-4 -16l-101 9l6 37q8 48 35.5 75t72.5 27q33 0 71.5 -18t51.5 -18q21 0 28 25l4 16l101 -9l-6 -37q-8 -48 -35.5 -75t-72.5 -27z" />
    <glyph glyph-name="hungarumlaut" unicode="&#x2dd;" horiz-adv-x="415" 
d="M203 555l-79 -136h-92v22l28 136h143v-22zM381 555l-79 -136h-92v22l28 136h143v-22z" />
    <glyph glyph-name="pi" unicode="&#x3c0;" horiz-adv-x="544" 
d="M26 346h492v-113h-59v-233h-144v233h-86v-233h-144v233h-59v113z" />
    <glyph glyph-name="Wgrave" unicode="&#x1e80;" horiz-adv-x="834" 
d="M369 638l-99 136v22h163l28 -136v-22h-92zM312 390l90 210h31l89 -210l29 -80h12l31 95l88 195h160l-262 -600h-26l-97 210l-35 86h-10l-35 -86l-97 -210h-26l-262 600h159l88 -195l31 -95h12z" />
    <glyph glyph-name="wgrave" unicode="&#x1e81;" horiz-adv-x="610" 
d="M612 346l-154 -346h-88l-53 123q-9 24 -9 44h-6q0 -20 -9 -44l-53 -123h-88l-154 346h157l43 -141q7 -26 7 -34h7q0 8 7 34l38 141h96l38 -141q7 -28 7 -34h7q0 13 7 34l43 141h157zM255 419l-99 136v22h163l28 -136v-22h-92z" />
    <glyph glyph-name="Wacute" unicode="&#x1e82;" horiz-adv-x="834" 
d="M312 390l90 210h31l89 -210l29 -80h12l31 95l88 195h160l-262 -600h-26l-97 210l-35 86h-10l-35 -86l-97 -210h-26l-262 600h159l88 -195l31 -95h12zM558 774l-99 -136h-92v22l28 136h163v-22z" />
    <glyph glyph-name="wacute" unicode="&#x1e83;" horiz-adv-x="610" 
d="M612 346l-154 -346h-88l-53 123q-9 24 -9 44h-6q0 -20 -9 -44l-53 -123h-88l-154 346h157l43 -141q7 -26 7 -34h7q0 8 7 34l38 141h96l38 -141q7 -28 7 -34h7q0 13 7 34l43 141h157zM453 555l-99 -136h-92v22l28 136h163v-22z" />
    <glyph glyph-name="Wdieresis" unicode="&#x1e84;" horiz-adv-x="834" 
d="M253 705q0 27 20.5 47.5t46.5 20.5q27 0 47.5 -20.5t20.5 -47.5q0 -26 -20.5 -46.5t-47.5 -20.5q-26 0 -46.5 20.5t-20.5 46.5zM443 705q0 27 20.5 47.5t46.5 20.5q27 0 47.5 -20.5t20.5 -47.5q0 -26 -20.5 -46.5t-47.5 -20.5q-26 0 -46.5 20.5t-20.5 46.5zM312 390
l90 210h31l89 -210l29 -80h12l31 95l88 195h160l-262 -600h-26l-97 210l-35 86h-10l-35 -86l-97 -210h-26l-262 600h159l88 -195l31 -95h12z" />
    <glyph glyph-name="wdieresis" unicode="&#x1e85;" horiz-adv-x="610" 
d="M612 346l-154 -346h-88l-53 123q-9 24 -9 44h-6q0 -20 -9 -44l-53 -123h-88l-154 346h157l43 -141q7 -26 7 -34h7q0 8 7 34l38 141h96l38 -141q7 -28 7 -34h7q0 13 7 34l43 141h157zM144 483q0 27 20.5 47.5t46.5 20.5q27 0 47.5 -20.5t20.5 -47.5q0 -26 -20.5 -46.5
t-47.5 -20.5q-26 0 -46.5 20.5t-20.5 46.5zM334 483q0 27 20.5 47.5t46.5 20.5q27 0 47.5 -20.5t20.5 -47.5q0 -26 -20.5 -46.5t-47.5 -20.5q-26 0 -46.5 20.5t-20.5 46.5z" />
    <glyph glyph-name="Ygrave" unicode="&#x1ef2;" horiz-adv-x="572" 
d="M235 639l-99 136v22h163l28 -136v-22h-92zM311 418l104 182h167l-224 -371v-229h-145v230l-221 370h167l104 -182l21 -46h6z" />
    <glyph glyph-name="ygrave" unicode="&#x1ef3;" horiz-adv-x="419" 
d="M420 346l-240 -538l-152 -1l116 235l-144 304h157l48 -141q6 -16 7 -34h7q1 18 7 34l48 141h146zM166 419l-99 136v22h163l28 -136v-22h-92z" />
    <glyph glyph-name="enspace" unicode="&#x2002;" horiz-adv-x="500" 
 />
    <glyph glyph-name="emspace" unicode="&#x2003;" horiz-adv-x="1000" 
 />
    <glyph glyph-name="threeperemspace" unicode="&#x2004;" horiz-adv-x="333" 
 />
    <glyph glyph-name="fourperemspace" unicode="&#x2005;" horiz-adv-x="250" 
 />
    <glyph glyph-name="figurespace" unicode="&#x2007;" horiz-adv-x="600" 
 />
    <glyph glyph-name="thinspace" unicode="&#x2009;" horiz-adv-x="133" 
 />
    <glyph glyph-name="hairspace" unicode="&#x200a;" horiz-adv-x="75" 
 />
    <glyph glyph-name="endash" unicode="&#x2013;" horiz-adv-x="460" 
d="M38 229v116h384v-116h-384z" />
    <glyph glyph-name="emdash" unicode="&#x2014;" horiz-adv-x="701" 
d="M38 229v116h625v-116h-625z" />
    <glyph glyph-name="quoteleft" unicode="&#x2018;" horiz-adv-x="207" 
d="M182 462q0 -34 -23 -57.5t-57 -23.5t-57.5 23.5t-23.5 57.5q0 52 34 113l32 56h90l-32 -56q-5 -8 -10.5 -15t-8.5 -10l-3 -3v-8q26 -6 42.5 -27.5t16.5 -49.5z" />
    <glyph glyph-name="quoteright" unicode="&#x2019;" horiz-adv-x="205" 
d="M26 587q0 34 23 57.5t57 23.5t57.5 -23.5t23.5 -57.5q0 -52 -34 -113l-32 -56h-90l32 56q5 8 10.5 15t8.5 10l3 3v8q-26 6 -42.5 27.5t-16.5 49.5z" />
    <glyph glyph-name="quotesinglbase" unicode="&#x201a;" horiz-adv-x="217" 
d="M27 72q0 34 23 57.5t57 23.5t57.5 -23.5t23.5 -57.5q0 -52 -34 -113l-32 -56h-90l32 56q5 8 10.5 15t8.5 10l3 3v8q-26 6 -42.5 27.5t-16.5 49.5z" />
    <glyph glyph-name="quotedblleft" unicode="&#x201c;" horiz-adv-x="413" 
d="M182 463q0 -34 -23 -57.5t-57 -23.5t-57.5 23.5t-23.5 57.5q0 52 34 113l32 56h90l-32 -56q-5 -8 -10.5 -15t-8.5 -10l-3 -3v-8q26 -6 42.5 -27.5t16.5 -49.5zM388 463q0 -34 -23 -57.5t-57 -23.5t-57.5 23.5t-23.5 57.5q0 52 34 113l32 56h90l-32 -56q-5 -8 -10.5 -15
t-8.5 -10l-3 -3v-8q26 -6 42.5 -27.5t16.5 -49.5z" />
    <glyph glyph-name="quotedblright" unicode="&#x201d;" horiz-adv-x="412" 
d="M26 587q0 34 23 57.5t57 23.5t57.5 -23.5t23.5 -57.5q0 -52 -34 -113l-32 -56h-90l32 56q5 8 10.5 15t8.5 10l3 3v8q-26 6 -42.5 27.5t-16.5 49.5zM232 587q0 34 23 57.5t57 23.5t57.5 -23.5t23.5 -57.5q0 -52 -34 -113l-32 -56h-90l32 56q5 8 10.5 15t8.5 10l3 3v8
q-26 6 -42.5 27.5t-16.5 49.5z" />
    <glyph glyph-name="quotedblbase" unicode="&#x201e;" horiz-adv-x="444" 
d="M27 72q0 34 23 57.5t57 23.5t57.5 -23.5t23.5 -57.5q0 -52 -34 -113l-32 -56h-90l32 56q5 8 10.5 15t8.5 10l3 3v8q-26 6 -42.5 27.5t-16.5 49.5zM254 72q0 34 23 57.5t57 23.5t57.5 -23.5t23.5 -57.5q0 -52 -34 -113l-32 -56h-90l32 56q5 8 10.5 15t8.5 10l3 3v8
q-26 6 -42.5 27.5t-16.5 49.5z" />
    <glyph glyph-name="dagger" unicode="&#x2020;" horiz-adv-x="473" 
d="M27 262v116h152v222h118v-222h149v-116h-149l-10 -454h-98l-10 454h-152z" />
    <glyph glyph-name="daggerdbl" unicode="&#x2021;" horiz-adv-x="513" 
d="M47 334v116h152v150h118v-150h149v-116h-149v-176h149v-116h-149l-10 -234h-98l-10 234h-152v116h152v176h-152z" />
    <glyph glyph-name="bullet" unicode="&#x2022;" horiz-adv-x="323" 
d="M58 173q0 43 30 73.5t73 30.5t73.5 -30.5t30.5 -73.5t-30.5 -73t-73.5 -30t-73 30t-30 73z" />
    <glyph glyph-name="ellipsis" unicode="&#x2026;" horiz-adv-x="755" 
d="M27 76q0 35 24.5 60t59.5 25t60 -25t25 -60t-25 -59.5t-60 -24.5t-59.5 24.5t-24.5 59.5zM293 76q0 35 24.5 60t59.5 25t60 -25t25 -60t-25 -59.5t-60 -24.5t-59.5 24.5t-24.5 59.5zM559 76q0 35 24.5 60t59.5 25t60 -25t25 -60t-25 -59.5t-60 -24.5t-59.5 24.5
t-24.5 59.5z" />
    <glyph glyph-name="perthousand" unicode="&#x2030;" horiz-adv-x="995" 
d="M170 613q64 0 102.5 -43t38.5 -104t-38.5 -104t-102.5 -43t-102.5 43.5t-38.5 103.5q0 61 38.5 104t102.5 43zM170 396q47 0 47 70q0 71 -47 71t-47 -71q0 -70 47 -70zM538 613l69 -56l-470 -564l-68 56zM506 286q64 0 102.5 -43t38.5 -104t-38.5 -104t-102.5 -43
t-102.5 43.5t-38.5 103.5q0 61 38.5 104t102.5 43zM506 210q-47 0 -47 -71q0 -70 47 -70t47 70q0 71 -47 71zM827 210q-47 0 -47 -71q0 -70 47 -70t47 70q0 71 -47 71zM827 286q64 0 102.5 -43t38.5 -104t-38.5 -104t-102.5 -43t-102.5 43.5t-38.5 103.5q0 61 38.5 104
t102.5 43z" />
    <glyph glyph-name="guilsinglleft" unicode="&#x2039;" horiz-adv-x="266" 
d="M21 161v21l106 154h119v-9l-101 -150v-9l101 -152v-9h-119z" />
    <glyph glyph-name="guilsinglright" unicode="&#x203a;" horiz-adv-x="266" 
d="M245 182v-21l-106 -154h-119v9l101 152v9l-101 150v9h119z" />
    <glyph glyph-name="fraction" unicode="&#x2044;" horiz-adv-x="180" 
d="M-111 -7l-68 56l469 564l69 -56z" />
    <glyph glyph-name="zerosuperior" unicode="&#x2070;" horiz-adv-x="359" 
d="M179 677q75 0 117.5 -50t42.5 -122q0 -71 -43 -121t-117 -50q-73 0 -116 50t-43 121q0 72 43 122t116 50zM179 588q-24 0 -36.5 -23t-12.5 -60q0 -36 12.5 -58.5t36.5 -22.5q25 0 37.5 22.5t12.5 58.5q0 38 -12.5 60.5t-37.5 22.5z" />
    <glyph glyph-name="foursuperior" unicode="&#x2074;" horiz-adv-x="338" 
d="M13 409v60l188 199h71v-183h50v-76h-50v-67h-90v67h-169zM123 485v-2l27 2h32v43l1 21h-2l-40 -48z" />
    <glyph glyph-name="fivesuperior" unicode="&#x2075;" horiz-adv-x="312" 
d="M45 668h227v-82h-149l-2 -41q26 2 41 2q134 0 134 -98q0 -49 -37 -82t-107 -33q-34 0 -65 10.5t-45 19.5t-21 16l46 68q26 -29 77 -29q53 0 53 30q0 31 -70 31q-12 0 -29.5 -2.5t-28.5 -5.5l-11 -2l-21 11z" />
    <glyph glyph-name="sixsuperior" unicode="&#x2076;" horiz-adv-x="315" 
d="M118 668h104l-35 -63l-17 -25v-7q59 -2 96 -33t37 -83q0 -57 -39.5 -90t-102.5 -33t-102 33t-39 90q0 30 9 53.5t31 60.5zM161 495q-42 0 -42 -40q0 -19 11 -29.5t31 -10.5t31.5 10.5t11.5 29.5q0 40 -43 40z" />
    <glyph glyph-name="sevensuperior" unicode="&#x2077;" horiz-adv-x="279" 
d="M274 668v-21l-117 -305h-107l100 244h-135v82h259z" />
    <glyph glyph-name="eightsuperior" unicode="&#x2078;" horiz-adv-x="322" 
d="M20 439q0 50 45 76q-33 24 -33 67q0 41 35.5 68t93.5 27t93.5 -27t35.5 -68q0 -42 -33 -67q45 -27 45 -76q0 -43 -37.5 -74t-103.5 -31t-103.5 31t-37.5 74zM161 481q-18 0 -29.5 -10t-11.5 -25t11.5 -25t29.5 -10t30 10t12 25t-12 25t-30 10zM161 536q34 0 34 31t-34 31
q-16 0 -24.5 -9t-8.5 -22t8.5 -22t24.5 -9z" />
    <glyph glyph-name="ninesuperior" unicode="&#x2079;" horiz-adv-x="320" 
d="M202 342h-104l36 64l17 25v7q-60 2 -96.5 33t-36.5 83q0 57 39.5 90t102.5 33t102 -33t39 -90q0 -30 -9 -52.5t-31 -61.5zM160 516q42 0 42 40q0 19 -11 29.5t-31 10.5t-31.5 -10.5t-11.5 -29.5q0 -40 43 -40z" />
    <glyph glyph-name="zeroinferior" unicode="&#x2080;" horiz-adv-x="358" 
d="M179 210q75 0 117.5 -50t42.5 -122q0 -71 -43 -121t-117 -50q-73 0 -116 50t-43 121q0 72 43 122t116 50zM179 121q-24 0 -36.5 -23t-12.5 -60q0 -36 12.5 -58.5t36.5 -22.5q25 0 37.5 22.5t12.5 58.5q0 38 -12.5 60.5t-37.5 22.5z" />
    <glyph glyph-name="oneinferior" unicode="&#x2081;" horiz-adv-x="215" 
d="M13 119v82h159v-326h-94v244h-65z" />
    <glyph glyph-name="twoinferior" unicode="&#x2082;" horiz-adv-x="302" 
d="M22 -125v21l120 144q22 28 22 45q0 15 -10 24.5t-27 9.5q-28 0 -68 -32l-49 74q6 5 16 13.5t43 22t68 13.5q66 0 98 -31t32 -79q0 -41 -37 -88l-46 -56h99v-81h-261z" />
    <glyph glyph-name="threeinferior" unicode="&#x2083;" horiz-adv-x="308" 
d="M29 119v82h245v-21l-56 -103q70 -17 70 -95q0 -49 -37 -82t-107 -33q-34 0 -65 10.5t-45 19.5t-21 16l48 71q36 -29 80 -29q48 0 48 30q0 29 -44 29h-48v23l44 82h-112z" />
    <glyph glyph-name="fourinferior" unicode="&#x2084;" horiz-adv-x="338" 
d="M13 -58v60l188 199h71v-183h50v-76h-50v-67h-90v67h-169zM123 17v-1l27 2h32v43l1 21h-2l-40 -48z" />
    <glyph glyph-name="fiveinferior" unicode="&#x2085;" horiz-adv-x="312" 
d="M45 201h227v-82h-149l-2 -41q26 2 41 2q134 0 134 -98q0 -49 -37 -82t-107 -33q-34 0 -65 10.5t-45 19.5t-21 16l46 68q26 -29 77 -29q53 0 53 30q0 31 -70 31q-12 0 -29.5 -2.5t-28.5 -4.5l-11 -3l-21 11z" />
    <glyph glyph-name="sixinferior" unicode="&#x2086;" horiz-adv-x="315" 
d="M118 201h104l-35 -63l-17 -25v-7q59 -2 96 -33t37 -83q0 -57 -39.5 -90t-102.5 -33t-102 33t-39 90q0 30 9 53.5t31 60.5zM161 28q-42 0 -42 -40q0 -19 11 -29.5t31 -10.5t31.5 10.5t11.5 29.5q0 40 -43 40z" />
    <glyph glyph-name="seveninferior" unicode="&#x2087;" horiz-adv-x="279" 
d="M274 201v-21l-117 -305h-107l100 244h-135v82h259z" />
    <glyph glyph-name="eightinferior" unicode="&#x2088;" horiz-adv-x="321" 
d="M20 -28q0 50 45 76q-33 24 -33 67q0 41 35.5 68t93.5 27t93.5 -27t35.5 -68q0 -42 -33 -67q45 -27 45 -76q0 -43 -37.5 -74t-103.5 -31t-103.5 31t-37.5 74zM161 14q-18 0 -29.5 -10t-11.5 -25t11.5 -25t29.5 -10t30 10t12 25t-12 25t-30 10zM161 69q34 0 34 31t-34 31
q-16 0 -24.5 -9t-8.5 -22t8.5 -22t24.5 -9z" />
    <glyph glyph-name="nineinferior" unicode="&#x2089;" horiz-adv-x="316" 
d="M198 -125h-104l36 64l17 25v7q-60 2 -96.5 33t-36.5 83q0 57 39.5 90t102.5 33t102 -33t39 -90q0 -30 -9 -52.5t-31 -61.5zM156 49q42 0 42 40q0 19 -11 29.5t-31 10.5t-31.5 -10.5t-11.5 -29.5q0 -40 43 -40z" />
    <glyph glyph-name="colonmonetary" unicode="&#x20a1;" horiz-adv-x="597" 
d="M484 171l83 -111q-3 -3 -8 -7.5t-24.5 -17t-41.5 -22t-58.5 -17.5t-76.5 -9l-15 -89h-62l16 93q-29 5 -54 12l-18 -105h-62l22 129q-73 40 -113.5 112.5t-40.5 160.5q0 117 68.5 202t186.5 105l16 89h62l-15 -83h4q28 0 52 -3l15 86h62l-17 -99q31 -10 56.5 -24t35.5 -23
l10 -10l-83 -111q-19 13 -44 24l-57 -326q29 4 54.5 15t36.5 20zM268 146q28 -14 53 -18l60 344q-18 2 -26 2q-12 0 -30 -2zM181 300q0 -64 33 -108l45 257q-78 -46 -78 -149z" />
    <glyph glyph-name="naira" unicode="&#x20a6;" horiz-adv-x="764" 
d="M663 599v-127h61v-60h-61v-212h61v-60h-61v-140h-33l-164 140h-224v-140h-144v140h-60v60h60v212h-60v60h60v128h33l156 -128h232v127h144zM360 412l159 -130v130h-159zM242 331v-131h153z" />
    <glyph glyph-name="rupee" unicode="&#x20a8;" horiz-adv-x="1042" 
d="M80 0v600h283q115 0 182 -55.5t67 -153.5q0 -123 -100 -179v-13l135 -189v-10h-165l-118 175h-139v-175h-145zM462 385q0 43 -27.5 66.5t-77.5 23.5h-132v-180h133q104 0 104 90zM677 25l33 98q58 -33 109 -33q28 0 28 20q0 10 -17.5 16.5t-42.5 12t-49.5 14.5t-42 31
t-17.5 55q0 52 39.5 83.5t121.5 31.5q50 0 91.5 -7.5t57.5 -14.5l17 -8l-37 -99q-43 29 -110 29q-23 0 -23 -17q0 -12 27.5 -20.5t61 -15t61 -31t27.5 -64.5q0 -52 -44 -83t-128 -31q-49 0 -90 8t-57 16z" />
    <glyph glyph-name="won" unicode="&#x20a9;" horiz-adv-x="946" 
d="M902 200v-60h-205l-61 -140h-26l-65 140h-145l-64 -140h-26l-62 140h-205v60h179l-92 212h-87v60h61l-56 128h159l58 -128h138l55 128h31l54 -128h137l58 128h160l-56 -128h60v-60h-87l-92 -212h179zM368 390l9 22h-85l3 -7l31 -95h12zM619 310l31 95l3 7h-85l10 -22
l29 -80h12zM433 210l-5 -10h89l-4 10l-35 86h-10z" />
    <glyph glyph-name="sheqel" unicode="&#x20aa;" horiz-adv-x="528" 
d="M460 346v-346h-156q-55 0 -84 25.5t-34 69.5l-11 108h72l10 -62q3 -21 25 -21h88v226h90zM68 0v346h178q101 0 101 -103v-100h-67l-10 62q-4 21 -25 21h-87v-226h-90z" />
    <glyph glyph-name="Euro" unicode="&#x20ac;" horiz-adv-x="583" 
d="M410 279v-96h-150q35 -57 111 -57q27 0 52 11t36 22l11 11l83 -111q-2 -3 -7 -8t-22 -17.5t-36.5 -22t-51.5 -17.5t-67 -8q-106 0 -174 53.5t-95 143.5h-67v96h50q-1 8 -1 21l1 18h-50v96h66q26 90 94.5 144.5t175.5 54.5q56 0 102 -18.5t64 -36.5l18 -18l-83 -111
q-4 5 -12 12.5t-34 19.5t-53 12q-75 0 -112 -59h151v-96h-177q-1 -6 -1 -18l1 -21h177z" />
    <glyph glyph-name="afii61289" unicode="&#x2113;" horiz-adv-x="461" 
d="M72 172l-37 61l83 63v217q0 65 46 110t121 45t121 -45t46 -110q0 -59 -20 -98t-72 -78l-108 -82v-91q0 -54 53 -54q16 0 31 5t22 10l6 5l41 -98q-5 -4 -15 -11t-41.5 -18t-64.5 -11q-80 0 -123 38.5t-43 108.5v39zM252 513v-114l4 3q62 43 62 102q0 42 -35 42
q-14 0 -22.5 -9t-8.5 -24z" />
    <glyph glyph-name="uni2117" unicode="&#x2117;" horiz-adv-x="562" 
d="M521 379q0 -99 -66 -167.5t-175 -68.5q-108 0 -173.5 68.5t-65.5 167.5q0 100 65 168.5t174 68.5t175 -68.5t66 -168.5zM440 379q0 72 -45.5 116t-114.5 44t-113.5 -41.5t-44.5 -118.5q0 -71 45.5 -115t112.5 -44q69 0 114.5 44t45.5 115zM198 478h100q40 0 64.5 -21
t24.5 -55q0 -36 -26 -56.5t-66 -20.5h-36v-49h-61v202zM296 423h-37v-45h37q27 0 27 22q0 23 -27 23z" />
    <glyph glyph-name="servicemark" unicode="&#x2120;" horiz-adv-x="746" 
d="M446 281h-90v319h20l146 -137l147 137h20v-319h-90v142l-70 -68h-13l-70 68v-142zM43 317l45 63q44 -30 91 -30q35 0 35 22q0 11 -11 18.5t-44 16.5q-62 17 -86.5 39.5t-24.5 62.5q0 46 33 73t96 27q40 0 71 -8.5t42 -16.5l12 -9l-44 -70q-39 28 -83 28q-35 0 -35 -18
q0 -16 53 -30q68 -18 92.5 -40.5t24.5 -64.5q0 -46 -33 -76t-96 -30q-41 0 -75.5 11t-48.5 21z" />
    <glyph glyph-name="trademark" unicode="&#x2122;" horiz-adv-x="735" 
d="M434 281h-90v319h20l146 -137l147 137h20v-319h-90v142l-70 -68h-13l-70 68v-142zM295 600v-79h-87v-240h-90v240h-87v79h264z" />
    <glyph glyph-name="Omega" unicode="&#x2126;" horiz-adv-x="734" 
d="M50 0v125h94q-94 73 -94 196q0 124 86 208t232 84t232 -84t86 -208q0 -123 -95 -196h95v-125h-282v130q60 11 98 60t38 116q0 73 -49 120t-123 47t-123 -47t-49 -120q0 -67 38 -116t98 -60v-130h-282z" />
    <glyph glyph-name="estimated" unicode="&#x212e;" horiz-adv-x="708" 
d="M224 251v-66q47 -58 147 -58q35 0 69 10.5t50 20.5l17 11l70 -118q-3 -3 -8.5 -7t-25 -15t-42 -19.5t-59 -15.5t-76.5 -7q-159 0 -244 88.5t-85 224.5q0 133 87.5 223t232.5 90q147 0 234.5 -90t87.5 -223l-1 -49h-454zM357 473q-98 0 -133 -62v-47h266v50
q-35 59 -133 59z" />
    <glyph glyph-name="onethird" unicode="&#x2153;" horiz-adv-x="731" 
d="M114 -7l-68 56l469 564l69 -56zM443 244v82h245v-21l-56 -103q70 -17 70 -95q0 -49 -37 -82t-107 -33q-34 0 -65 10.5t-45 19.5t-21 16l48 71q36 -29 80 -29q48 0 48 30q0 29 -37 29h-55v23l44 82h-112zM32 518v82h159v-326h-94v244h-65z" />
    <glyph glyph-name="twothirds" unicode="&#x2154;" horiz-adv-x="838" 
d="M220 -7l-68 56l469 564l69 -56zM549 244v82h245v-21l-56 -103q70 -17 70 -95q0 -49 -37 -82t-107 -33q-34 0 -65 10.5t-45 19.5t-21 16l48 71q36 -29 80 -29q48 0 48 30q0 29 -37 29h-55v23l44 82h-112zM40 280v21l120 144q22 28 22 45q0 15 -10 24.5t-27 9.5
q-28 0 -68 -32l-49 74q6 5 16 13.5t43 22t68 13.5q66 0 98 -31t32 -79q0 -41 -37 -88l-46 -56h99v-81h-261z" />
    <glyph glyph-name="oneeighth" unicode="&#x215b;" horiz-adv-x="727" 
d="M419 97q0 50 45 76q-33 24 -33 67q0 41 35.5 68t93.5 27t93.5 -27t35.5 -68q0 -42 -33 -67q45 -27 45 -76q0 -43 -37.5 -74t-103.5 -31t-103.5 31t-37.5 74zM116 -7l-68 56l469 564l69 -56zM34 518v82h159v-326h-94v244h-65zM560 139q-18 0 -29.5 -10t-11.5 -25t11.5 -25
t29.5 -10t30 10t12 25t-12 25t-30 10zM560 194q34 0 34 31t-34 31q-16 0 -24.5 -9t-8.5 -22t8.5 -22t24.5 -9z" />
    <glyph glyph-name="threeeighths" unicode="&#x215c;" horiz-adv-x="832" 
d="M524 97q0 -43 37.5 -74t103.5 -31t103.5 31t37.5 74q0 49 -45 76q33 25 33 67q0 41 -35.5 68t-93.5 27t-93.5 -27t-35.5 -68q0 -43 33 -67q-45 -26 -45 -76zM221 -7l-68 56l469 564l69 -56zM45 518v82h245v-21l-56 -103q70 -17 70 -95q0 -49 -37 -82t-107 -33
q-34 0 -65 10.5t-45 19.5t-21 16l48 71q36 -29 80 -29q48 0 48 30q0 26 -37 29h-55v23l44 82h-112zM665 139q18 0 30 -10t12 -25t-12 -25t-30 -10t-29.5 10t-11.5 25t11.5 25t29.5 10zM665 194q-16 0 -24.5 9t-8.5 22t8.5 22t24.5 9q34 0 34 -31t-34 -31z" />
    <glyph glyph-name="fiveeighths" unicode="&#x215d;" horiz-adv-x="826" 
d="M518 97q0 -43 37.5 -74t103.5 -31t103.5 31t37.5 74q0 49 -45 76q33 25 33 67q0 41 -35.5 68t-93.5 27t-93.5 -27t-35.5 -68q0 -43 33 -67q-45 -26 -45 -76zM215 -7l-68 56l469 564l69 -56zM54 600h227v-82h-149l-2 -41q26 2 41 2q134 0 134 -98q0 -49 -37 -82t-107 -33
q-34 0 -65 10.5t-45 19.5t-21 16l46 68q26 -26 77 -26q53 0 53 27q0 29 -70 29q-20 0 -37.5 -2t-24.5 -4l-7 -2l-21 11zM659 139q18 0 30 -10t12 -25t-12 -25t-30 -10t-29.5 10t-11.5 25t11.5 25t29.5 10zM659 194q-16 0 -24.5 9t-8.5 22t8.5 22t24.5 9q34 0 34 -31t-34 -31
z" />
    <glyph glyph-name="seveneighths" unicode="&#x215e;" horiz-adv-x="769" 
d="M461 97q0 -43 37.5 -74t103.5 -31t103.5 31t37.5 74q0 49 -45 76q33 25 33 67q0 41 -35.5 68t-93.5 27t-93.5 -27t-35.5 -68q0 -43 33 -67q-45 -26 -45 -76zM158 -7l-68 56l469 564l69 -56zM289 600v-21l-117 -305h-107l100 244h-135v82h259zM602 139q18 0 30 -10t12 -25
t-12 -25t-30 -10t-29.5 10t-11.5 25t11.5 25t29.5 10zM602 194q-16 0 -24.5 9t-8.5 22t8.5 22t24.5 9q34 0 34 -31t-34 -31z" />
    <glyph glyph-name="partialdiff" unicode="&#x2202;" horiz-adv-x="456" 
d="M189 401l-102 184v15h135l154 -262q31 -54 43 -88t12 -78q0 -83 -56 -131.5t-148 -48.5q-91 0 -147.5 48.5t-56.5 131.5q0 78 53.5 128t138.5 54v11q-14 14 -26 36zM227 110q28 0 43.5 17.5t15.5 46.5v5q-2 26 -17 41.5t-42 15.5t-43 -17t-16 -45t16 -46t43 -18z" />
    <glyph glyph-name="Delta" unicode="&#x2206;" horiz-adv-x="673" 
d="M23 0v24l301 576h24l302 -576v-24h-627zM440 125q-16 34 -49 107.5t-51 113.5h-9l-101 -221h210z" />
    <glyph glyph-name="product" unicode="&#x220f;" horiz-adv-x="711" 
d="M633 600v-600h-145v475h-265v-475h-145v600h555z" />
    <glyph glyph-name="summation" unicode="&#x2211;" horiz-adv-x="458" 
d="M46 600h370v-125h-188l112 -140v-74l-107 -136h183v-125h-370v125l141 165v14l-141 171v125z" />
    <glyph glyph-name="minus" unicode="&#x2212;" horiz-adv-x="513" 
d="M47 239v116h419v-116h-419z" />
    <glyph glyph-name="uni2219" unicode="&#x2219;" horiz-adv-x="223" 
d="M27 357q0 35 24.5 60t59.5 25t60 -25t25 -60t-25 -59.5t-60 -24.5t-59.5 24.5t-24.5 59.5z" />
    <glyph glyph-name="radical" unicode="&#x221a;" horiz-adv-x="641" 
d="M654 600l-415 -792h-26l-216 399h162l42 -104l21 -67h6l22 67l239 497h165z" />
    <glyph glyph-name="infinity" unicode="&#x221e;" horiz-adv-x="790" 
d="M223 112q-74 0 -123.5 51t-49.5 122q0 70 49.5 122t123.5 52q84 0 173 -97q87 97 171 97q69 0 121 -49t52 -125q0 -70 -49 -121.5t-124 -51.5q-86 0 -174 96q-85 -96 -170 -96zM558 348q-42 0 -97 -60q59 -66 97 -66q28 0 45.5 18.5t17.5 44.5t-18 44.5t-45 18.5z
M232 222q43 0 97 61q-58 65 -97 65q-28 0 -45.5 -19.5t-17.5 -43.5q0 -25 17.5 -44t45.5 -19z" />
    <glyph glyph-name="integral" unicode="&#x222b;" horiz-adv-x="347" 
d="M101 43v466q0 63 34.5 101.5t102.5 38.5q27 0 50.5 -6t33.5 -12l11 -6l-36 -107q-14 6 -28 6q-23 0 -23 -32v-466q0 -63 -34.5 -101.5t-102.5 -38.5q-27 0 -50.5 6t-34.5 12l-10 6l36 107q14 -6 28 -6q23 0 23 32z" />
    <glyph glyph-name="approxequal" unicode="&#x2248;" horiz-adv-x="569" 
d="M371 145q-41 0 -88.5 17.5t-63.5 17.5q-26 0 -35 -24l-5 -16l-125 9l9 52q8 47 42.5 73.5t91.5 26.5q41 0 88.5 -17.5t63.5 -17.5q26 0 35 24l5 16l125 -9l-9 -52q-8 -47 -42.5 -73.5t-91.5 -26.5zM371 345q-41 0 -88.5 17.5t-63.5 17.5q-26 0 -35 -24l-5 -16l-125 9
l9 52q21 100 134 100q41 0 88.5 -17.5t63.5 -17.5q26 0 35 24l5 16l125 -9l-9 -52q-21 -100 -134 -100z" />
    <glyph glyph-name="notequal" unicode="&#x2260;" horiz-adv-x="499" 
d="M45 322v116h205l42 109l95 -33l-29 -76h97v-116h-142l-28 -74h170v-116h-214l-41 -108l-95 33l28 75h-88v116h133l28 74h-161z" />
    <glyph glyph-name="lessequal" unicode="&#x2264;" horiz-adv-x="392" 
d="M329 273l-83 -86l-203 193v24l204 196l83 -86l-132 -123zM355 151v-116h-314v116h314z" />
    <glyph glyph-name="greaterequal" unicode="&#x2265;" horiz-adv-x="392" 
d="M146 187l-83 86l131 118l-132 123l83 86l204 -196v-24zM37 35v116h314v-116h-314z" />
    <glyph glyph-name="lozenge" unicode="&#x25ca;" horiz-adv-x="519" 
d="M310 600l181 -300l-181 -300h-101l-180 300l180 300h101zM188 300l62 -114h19l62 114l-62 114h-19z" />
    <glyph glyph-name="commaaccent" unicode="&#xf6c3;" horiz-adv-x="214" 
d="M19 -118q0 35 24 58t66 23t67 -25.5t25 -66.5q-1 -42 -34 -98l-29 -50h-92l29 47l22 28v5q-37 4 -57.5 25.5t-20.5 53.5z" />
    <glyph glyph-name="f_f" unicode="&#xfb00;" horiz-adv-x="701" 
d="M333 235h-100v-235h-144v235h-69v111h69v127q0 96 47 144.5t125 48.5q56 0 94 -19l-34 -121q-12 7 -35 7q-53 0 -53 -60v-127h100v-111zM689 235h-100v-235h-144v235h-69v111h69v127q0 96 47 144.5t125 48.5q56 0 94 -19l-34 -121q-12 7 -35 7q-53 0 -53 -60v-127h100
v-111z" />
    <glyph glyph-name="fi" unicode="&#xfb01;" horiz-adv-x="604" 
d="M333 235h-100v-235h-144v235h-69v111h69v127q0 96 47 144.5t125 48.5q56 0 94 -19l-34 -121q-12 7 -35 7q-53 0 -53 -60v-127h100v-111zM491 448q-34 0 -57 23t-23 57t23 57.5t57 23.5t57.5 -23.5t23.5 -57.5t-23.5 -57t-57.5 -23zM418 0v346h144v-346h-144z" />
    <glyph glyph-name="fl" unicode="&#xfb02;" horiz-adv-x="599" 
d="M333 235h-100v-235h-144v235h-69v111h69v127q0 96 47 144.5t125 48.5q56 0 94 -19l-34 -121q-12 7 -35 7q-53 0 -53 -60v-127h100v-111zM413 0v668h144v-668h-144z" />
    <glyph glyph-name="f_f_i" unicode="&#xfb03;" horiz-adv-x="937" 
d="M333 235h-100v-235h-144v235h-69v111h69v127q0 96 47 144.5t125 48.5q56 0 94 -19l-34 -121q-12 7 -35 7q-53 0 -53 -60v-127h100v-111zM689 235h-100v-235h-144v235h-69v111h69v127q0 96 47 144.5t125 48.5q56 0 94 -19l-34 -121q-12 7 -35 7q-53 0 -53 -60v-127h100
v-111zM824 448q-34 0 -57 23t-23 57t23 57.5t57 23.5t57.5 -23.5t23.5 -57.5t-23.5 -57t-57.5 -23zM751 0v346h144v-346h-144z" />
    <glyph glyph-name="f_f_l" unicode="&#xfb04;" horiz-adv-x="937" 
d="M333 235h-100v-235h-144v235h-69v111h69v127q0 96 47 144.5t125 48.5q56 0 94 -19l-34 -121q-12 7 -35 7q-53 0 -53 -60v-127h100v-111zM689 235h-100v-235h-144v235h-69v111h69v127q0 96 47 144.5t125 48.5q56 0 94 -19l-34 -121q-12 7 -35 7q-53 0 -53 -60v-127h100
v-111zM751 0v668h144v-668h-144z" />
    <glyph glyph-name="three.alt" horiz-adv-x="520" 
d="M175 352h72q26 0 40 17t14 43q0 65 -82 65q-27 0 -58 -13t-48 -26l-17 -13l-68 104q3 3 8 9t24 20.5t41 25.5t59.5 20t79.5 9q106 0 164.5 -48.5t58.5 -123.5q0 -87 -70 -134q93 -28 93 -130q0 -86 -65.5 -138t-187.5 -52q-39 0 -74 7t-57.5 17t-40 20.5t-25.5 17.5l-7 7
l70 109q6 -5 16.5 -12t44 -19t67.5 -12q99 0 99 59q0 64 -89 64h-62v107z" />
    <glyph glyph-name="published" horiz-adv-x="708" 
d="M353 613q147 0 234.5 -90t87.5 -223t-87.5 -223t-234.5 -90q-145 0 -232.5 90t-87.5 223t87.5 223t232.5 90zM353 537q-109 0 -175 -68.5t-66 -168.5t66 -168t175 -68q111 0 177.5 68t66.5 168q0 101 -66.5 169t-177.5 68zM385 449q56 0 89.5 -33.5t33.5 -82.5
q0 -46 -34 -76t-94 -30h-54v-76h-96v298h155zM407 333q0 35 -42 35h-39v-70h40q41 0 41 35z" />
    <glyph glyph-name="registered.alt" horiz-adv-x="708" 
d="M353 613q147 0 234.5 -90t87.5 -223t-87.5 -223t-234.5 -90q-145 0 -232.5 90t-87.5 223t87.5 223t232.5 90zM353 537q-109 0 -175 -68.5t-66 -168.5t66 -168t175 -68q111 0 177.5 68t66.5 168q0 101 -66.5 169t-177.5 68zM224 151v298h155q56 0 89.5 -33.5t33.5 -82.5
q0 -61 -54 -90v-5l50 -75v-12h-101l-45 76h-32v-76h-96zM401 333q0 35 -42 35h-39v-70h40q41 0 41 35z" />
    <glyph glyph-name="baht" horiz-adv-x="644" 
d="M612 179q0 -84 -60.5 -131.5t-170.5 -47.5h-80l-18 -102h-62l17 102h-161v600h266l17 96h62l-17 -97q94 -6 142 -48.5t48 -114.5q0 -38 -17.5 -69t-49.5 -46v-17q39 -15 61.5 -48.5t22.5 -76.5zM385 255h-40l-23 -130h64q32 0 51 19t19 45q0 27 -19 46.5t-52 19.5z
M222 475v-121h78l21 121h-99zM441 415q0 24 -15 40t-43 19l-21 -120h17q30 0 46 17.5t16 43.5zM222 125h38l23 130h-61v-130z" />
    <glyph glyph-name="peso" horiz-adv-x="704" 
d="M380 600q108 0 173.5 -49t73.5 -137h50v-60h-52q-12 -86 -81.5 -132.5t-173.5 -46.5h-129v-175h-145v354h-52v60h52v186h284zM241 475v-61h233q-17 61 -101 61h-132zM374 295q84 0 100 59h-233v-59h133z" />
    <glyph glyph-name="R_p" horiz-adv-x="1097" 
d="M66 0v600h283q115 0 182 -55.5t67 -153.5q0 -123 -100 -179v-13l135 -189v-10h-165l-118 175h-139v-175h-145zM448 385q0 43 -27.5 66.5t-77.5 23.5h-132v-180h133q104 0 104 90zM823 25h-6v-217h-144v538h90l23 -45h5q3 6 10 15t35 23.5t65 14.5q76 0 124 -48.5
t48 -131.5q0 -80 -47 -131t-120 -51q-28 0 -49 8t-27 16zM810 172q0 -28 15 -45t44 -17q27 0 43 17t16 45t-16 46t-43 18q-28 0 -43.5 -17.5t-15.5 -46.5z" />
    <glyph glyph-name="onehalf.alt" horiz-adv-x="775" 
d="M169 -7l-68 56l469 564l69 -56zM486 21v-21h261v81h-99l46 56q37 47 37 88q0 48 -32 79t-98 31q-35 0 -66.5 -12.5t-46.5 -24.5l-14 -12l49 -74q40 32 68 32q17 0 27 -9.5t10 -24.5q0 -17 -22 -45zM40 518v82h159v-244h55v-82h-214v82h65v162h-65z" />
    <glyph glyph-name="onethird.alt" horiz-adv-x="786" 
d="M169 -7l-68 56l469 564l69 -56zM498 244v82h245v-21l-56 -103q70 -17 70 -95q0 -49 -37 -82t-107 -33q-34 0 -65 10.5t-45 19.5t-21 16l48 71q36 -29 80 -29q48 0 48 30q0 29 -44 29h-48v23l44 82h-112zM40 518v82h159v-244h55v-82h-214v82h65v162h-65z" />
    <glyph glyph-name="onequarter.alt" horiz-adv-x="700" 
d="M168 -7l-68 56l469 564l69 -56zM363 67v60l188 199h71v-183h50v-76h-50v-67h-90v67h-169zM39 518v82h159v-244h55v-82h-214v82h65v162h-65zM473 142v-2l27 3h32v43l1 21h-2l-40 -48z" />
    <glyph glyph-name="onefifth" horiz-adv-x="762" 
d="M115 -7l-68 56l469 564l69 -56zM482 326h227v-82h-149l-2 -41q26 2 41 2q134 0 134 -98q0 -49 -37 -82t-107 -33q-34 0 -65 10.5t-45 19.5t-21 16l46 68q26 -26 77 -26q53 0 53 27q0 29 -70 29q-20 0 -37 -2t-25 -4l-7 -2l-21 11zM33 600h159v-326h-94v244h-65v82z" />
    <glyph glyph-name="onefifth.alt" horiz-adv-x="816" 
d="M189 -7l-68 56l469 564l69 -56zM536 326h227v-82h-149l-2 -41q26 2 41 2q134 0 134 -98q0 -49 -37 -82t-107 -33q-34 0 -65 10.5t-45 19.5t-21 16l46 68q26 -26 77 -26q53 0 53 27q0 29 -70 29q-20 0 -37 -2t-25 -4l-7 -2l-21 11zM40 518v82h159v-244h55v-82h-214v82h65
v162h-65z" />
    <glyph glyph-name="twofifths" horiz-adv-x="894" 
d="M247 -7l-68 56l469 564l69 -56zM614 326h227v-82h-149l-2 -41q26 2 41 2q134 0 134 -98q0 -49 -37 -82t-107 -33q-34 0 -65 10.5t-45 19.5t-21 16l46 68q26 -26 77 -26q53 0 53 27q0 29 -70 29q-20 0 -37 -2t-25 -4l-7 -2l-21 11zM41 280v21l120 144q22 28 22 45
q0 15 -10 24.5t-27 9.5q-28 0 -68 -32l-49 74q6 5 16 13.5t43 22t68 13.5q66 0 98 -31t32 -79q0 -41 -37 -88l-46 -56h99v-81h-261z" />
    <glyph glyph-name="threefifths" horiz-adv-x="838" 
d="M221 -7l-68 56l469 564l69 -56zM558 326h227v-82h-149l-2 -41q26 2 41 2q134 0 134 -98q0 -49 -37 -82t-107 -33q-34 0 -65 10.5t-45 19.5t-21 16l46 68q26 -26 77 -26q53 0 53 27q0 29 -70 29q-20 0 -37 -2t-25 -4l-7 -2l-21 11zM45 518v82h245v-21l-56 -103
q70 -17 70 -95q0 -49 -37 -82t-107 -33q-34 0 -65 10.5t-45 19.5t-21 16l48 71q36 -29 80 -29q48 0 48 30q0 29 -37 29h-55v23l44 82h-112z" />
    <glyph glyph-name="fourfifths" horiz-adv-x="866" 
d="M247 -7l-68 56l469 564l69 -56zM584 326h227v-82h-149l-2 -41q26 2 41 2q134 0 134 -98q0 -49 -37 -82t-107 -33q-34 0 -65 10.5t-45 19.5t-21 16l46 68q26 -26 77 -26q53 0 53 27q0 29 -70 29q-20 0 -37 -2t-25 -4l-7 -2l-21 11zM28 341v60l188 199h71v-183h50v-76h-50
v-67h-90v67h-169zM138 416v-2l27 3h32v43l1 21h-2l-40 -48z" />
    <glyph glyph-name="onesixth" horiz-adv-x="743" 
d="M531 327h104l-35 -63l-17 -25v-7q59 -2 96 -33t37 -83q0 -57 -39.5 -90t-102.5 -33t-102 33t-39 90q0 30 9 53.5t31 60.5zM134 -7l-68 56l469 564l69 -56zM32 518v82h159v-326h-94v244h-65zM574 154q-42 0 -42 -40q0 -19 11 -29.5t31 -10.5t31.5 10.5t11.5 29.5
q0 40 -43 40z" />
    <glyph glyph-name="onesixth.alt" horiz-adv-x="809" 
d="M597 327h104l-35 -63l-17 -25v-7q59 -2 96 -33t37 -83q0 -57 -39.5 -90t-102.5 -33t-102 33t-39 90q0 30 9 53.5t31 60.5zM200 -7l-68 56l469 564l69 -56zM41 518v82h159v-244h55v-82h-214v82h65v162h-65zM640 154q-42 0 -42 -40q0 -19 11 -29.5t31 -10.5t31.5 10.5
t11.5 29.5q0 40 -43 40z" />
    <glyph glyph-name="fivesixths" horiz-adv-x="815" 
d="M603 327h104l-35 -63l-17 -25v-7q59 -2 96 -33t37 -83q0 -57 -39.5 -90t-102.5 -33t-102 33t-39 90q0 30 9 53.5t31 60.5zM206 -7l-68 56l469 564l69 -56zM56 600h227v-82h-149l-2 -41q26 2 41 2q134 0 134 -98q0 -49 -37 -82t-107 -33q-34 0 -65 10.5t-45 19.5t-21 16
l46 68q26 -26 77 -26q53 0 53 27q0 29 -70 29q-20 0 -37 -2t-25 -4l-7 -2l-21 11zM646 154q-42 0 -42 -40q0 -19 11 -29.5t31 -10.5t31.5 10.5t11.5 29.5q0 40 -43 40z" />
    <glyph glyph-name="oneeighth.alt" horiz-adv-x="809" 
d="M501 97q0 -43 37.5 -74t103.5 -31t103.5 31t37.5 74q0 49 -45 76q33 25 33 67q0 41 -35.5 68t-93.5 27t-93.5 -27t-35.5 -68q0 -43 33 -67q-45 -26 -45 -76zM198 -7l-68 56l469 564l69 -56zM198 600v-244h55v-82h-214v82h65v162h-65v82h159zM642 139q18 0 30 -10t12 -25
t-12 -25t-30 -10t-29.5 10t-11.5 25t11.5 25t29.5 10zM642 194q-16 0 -24.5 9t-8.5 22t8.5 22t24.5 9q34 0 34 -31t-34 -31z" />
    <glyph glyph-name="three.tab_alt" 
d="M190 352h72q26 0 40 17t14 43q0 65 -82 65q-27 0 -58 -13t-48 -26l-17 -13l-68 104q3 3 8 9t24 20.5t41 25.5t59.5 20t79.5 9q106 0 164.5 -48.5t58.5 -123.5q0 -87 -70 -134q93 -28 93 -130q0 -86 -65.5 -138t-187.5 -52q-39 0 -74 7t-57.5 17t-40 20.5t-24.5 17.5l-8 7
l70 109q6 -5 16.5 -12t44 -19t67.5 -12q99 0 99 59q0 64 -89 64h-62v107z" />
    <glyph glyph-name="period.tab" horiz-adv-x="275" 
d="M57 72q0 34 23 57.5t57 23.5t57.5 -23.5t23.5 -57.5t-23.5 -57t-57.5 -23t-57 23t-23 57z" />
    <glyph glyph-name="comma.tab" horiz-adv-x="275" 
d="M56 72q0 34 23 57.5t57 23.5t57.5 -23.5t23.5 -57.5q0 -52 -34 -113l-32 -56h-90l32 56q5 8 10.5 15t8.5 10l3 3v8q-26 6 -42.5 27.5t-16.5 49.5z" />
    <glyph glyph-name="colon.tab" horiz-adv-x="275" 
d="M57 72q0 34 23 57.5t57 23.5t57.5 -23.5t23.5 -57.5t-23.5 -57t-57.5 -23t-57 23t-23 57zM57 482q0 34 23 57.5t57 23.5t57.5 -23.5t23.5 -57.5t-23.5 -57t-57.5 -23t-57 23t-23 57z" />
    <glyph glyph-name="semicolon.tab" horiz-adv-x="275" 
d="M57 72q0 34 23 57.5t57 23.5t57.5 -23.5t23.5 -57.5q0 -56 -34 -113l-33 -56h-89l32 56q5 8 10.5 15t8.5 10l3 3v8q-26 6 -42.5 27.5t-16.5 49.5zM57 482q0 34 23 57.5t57 23.5t57.5 -23.5t23.5 -57.5t-23.5 -57t-57.5 -23t-57 23t-23 57z" />
    <glyph glyph-name="twodotleader.tab" 
d="M39 72q0 34 23 57.5t57 23.5t57.5 -23.5t23.5 -57.5t-23.5 -57t-57.5 -23t-57 23t-23 57zM349 72q0 34 23 57.5t57 23.5t57.5 -23.5t23.5 -57.5t-23.5 -57t-57.5 -23t-57 23t-23 57z" />
    <glyph glyph-name="periodcentered.tab" horiz-adv-x="275" 
d="M53 303q0 35 24.5 60t59.5 25t60 -25t25 -60t-25 -59.5t-60 -24.5t-59.5 24.5t-24.5 59.5z" />
    <glyph glyph-name="slash.tab" 
d="M456 703l-221 -879h-141l221 879h141z" />
    <glyph glyph-name="bar.tab" 
d="M340 673v-825h-131v825h131z" />
    <glyph glyph-name="underscore.tab" 
d="M55 -136v116h439v-116h-439z" />
    <glyph glyph-name="dollar.tab" 
d="M33 66l79 111q8 -6 23 -15.5t58 -25.5t82 -16q71 0 71 50q0 25 -19.5 39.5t-84.5 32.5q-105 29 -156 71.5t-51 113.5q0 75 48.5 123.5t142.5 59.5v65h96v-64q57 -5 104 -20.5t66 -28.5l18 -13l-78 -118q-7 6 -20.5 14t-54.5 22t-81 14q-74 0 -74 -44q0 -22 22 -34t82 -28
q109 -29 159.5 -72.5t50.5 -116.5q0 -80 -48.5 -134t-145.5 -63v-64h-96v65q-59 6 -107 25t-67 35z" />
    <glyph glyph-name="sterling.tab" 
d="M491 125v-125h-418v125q52 12 52 88h-78v96h50q-18 49 -18 95q0 84 65 146.5t181 62.5q59 0 105 -18.5t62 -36.5l17 -18l-81 -108q-41 41 -95 41q-44 0 -68.5 -23.5t-24.5 -58.5q0 -36 19 -82h147v-96h-128q-1 -52 -31 -88h244z" />
    <glyph glyph-name="Euro.tab" 
d="M384 279v-96h-141q32 -57 94 -57q27 0 52 11t36 22l11 11l83 -111q-2 -3 -6.5 -8t-21 -17t-35.5 -21.5t-50.5 -17.5t-66.5 -8q-105 0 -168.5 53t-87.5 143h-46v96h32q-1 5 -1 21l1 18h-32v96h45q23 91 87 145t170 54q35 0 66.5 -7.5t51 -18.5t34.5 -22t21 -19l7 -7
l-83 -111q-4 5 -12 12.5t-34 19.5t-53 12q-65 0 -95 -58h142v-96h-165q-1 -5 -1 -18l1 -21h165z" />
    <glyph glyph-name="yen.tab" 
d="M297 451l46 149h172l-124 -258h112v-96h-156v-60h156v-96h-156v-90h-145v90h-156v96h156v60h-156v96h111l-124 258h172l50 -149l21 -72z" />
    <glyph glyph-name="cent.tab" 
d="M249 21v108q-67 16 -105.5 64t-38.5 110q0 63 38.5 110.5t105.5 63.5v108h121v-107q20 -4 38.5 -10.5t26.5 -11.5l8 -4l-49 -110q-34 24 -71 24q-34 0 -53.5 -17t-19.5 -46q0 -28 19.5 -45.5t53.5 -17.5q16 0 34 5.5t27 10.5l10 6l49 -110q-28 -16 -73 -25v-106h-121z
" />
    <glyph glyph-name="numbersign.tab" 
d="M472 583l-32 -143h76l-19 -82h-75l-30 -132h87l-19 -82h-86l-32 -144h-88l32 144h-93l-32 -144h-88l32 144h-71l18 82h71l30 132h-82l18 82h82l32 143h88l-32 -143h93l32 143h88zM241 358l-30 -132h93l30 132h-93z" />
    <glyph glyph-name="paragraph.tab" 
d="M301 -133v239h-11q-108 0 -175 53t-67 150q0 92 62.5 144t170.5 52h165v-638h-145z" />
    <glyph glyph-name="section.tab" 
d="M42 31l73 111q8 -6 21 -14t52.5 -22t75.5 -14q70 0 70 32q0 16 -13 24.5t-55 22.5q-53 17 -85 31t-66.5 36.5t-50.5 54.5t-16 74q0 62 36 98q-36 36 -36 90q0 73 56 116t168 43q69 0 124 -16t75 -32l20 -16l-78 -118q-7 6 -19 14t-49 22t-73 14q-51 0 -51 -29t68 -50
q33 -11 41.5 -14t40 -15.5t43 -20t34.5 -23.5t32.5 -31t18 -37.5t8.5 -47.5q0 -65 -32 -109q32 -33 32 -85q0 -70 -56 -115t-179 -45q-44 0 -83.5 7.5t-65 17.5t-45 20.5t-28.5 18.5zM240 390q-35 10 -44 13q-6 -9 -6 -26q0 -47 99 -82q8 -3 31 -11t34 -13q8 16 8 32
q0 22 -19 39t-39.5 25.5t-63.5 22.5z" />
    <glyph glyph-name="degree.tab" horiz-adv-x="275" 
d="M137 672q52 0 85 -31t33 -77t-33 -77t-85 -31t-85 31t-33 77t33 77t85 31zM137 603q-18 0 -28.5 -10.5t-10.5 -28.5q0 -16 10.5 -26.5t28.5 -10.5t29 10.5t11 26.5q0 18 -10.5 28.5t-29.5 10.5z" />
    <glyph glyph-name="percent.tab" 
d="M158 613q64 0 100 -38t36 -92t-36 -92t-100 -38q-63 0 -99.5 38t-36.5 92t36.5 92t99.5 38zM158 537q-42 0 -42 -54t42 -54t42 54t-42 54zM81 0l-64 60l448 540l67 -60zM391 252q64 0 100 -38t36 -92t-36 -92t-100 -38q-63 0 -99.5 38t-36.5 92t36.5 92t99.5 38zM391 176
q-42 0 -42 -54t42 -54t42 54t-42 54z" />
    <glyph glyph-name="quotedbl.tab" 
d="M260 650l-46 -187h-92v22l22 187h116v-22zM440 650l-46 -187h-92v22l22 187h116v-22z" />
    <glyph glyph-name="quotesingle.tab" horiz-adv-x="275" 
d="M212 650l-46 -187h-92v22l22 187h116v-22z" />
    <glyph glyph-name="plus.tab" 
d="M335 504v-149h149v-116h-149v-141h-118v141h-152v116h152v149h118z" />
    <glyph glyph-name="minus.tab" 
d="M65 239v116h419v-116h-419z" />
    <glyph glyph-name="divide.tab" 
d="M190 107q0 35 24.5 60t59.5 25t60 -25t25 -60t-25 -59.5t-60 -24.5t-59.5 24.5t-24.5 59.5zM190 486q0 35 24.5 60t59.5 25t60 -25t25 -60t-25 -59.5t-60 -24.5t-59.5 24.5t-24.5 59.5zM65 239v116h419v-116h-419z" />
    <glyph glyph-name="equal.tab" 
d="M70 332v116h410v-116h-410zM70 142v116h410v-116h-410z" />
    <glyph glyph-name="multiply.tab" 
d="M138 85l-81 81l137 137l-137 137l81 81l137 -137l137 137l81 -81l-137 -137l137 -137l-81 -81l-137 137z" />
    <glyph glyph-name="less.tab" 
d="M346 44l-240 232v24l240 232l83 -86l-168 -159l168 -157z" />
    <glyph glyph-name="greater.tab" 
d="M444 276l-240 -232l-83 86l168 157l-168 159l83 86l240 -232v-24z" />
    <glyph glyph-name="plusminus.tab" 
d="M335 192h-118v141h-152v116h152v149h118v-149h149v-116h-149v-141zM484 133v-116h-419v116h419z" />
    <glyph glyph-name="space.tab" 
 />
    <glyph glyph-name="latinotype" horiz-adv-x="156" 
 />
    <glyph glyph-name="i.dot" horiz-adv-x="226" 
d="M114 448q-34 0 -57 23t-23 57t23 57.5t57 23.5t57.5 -23.5t23.5 -57.5t-23.5 -57t-57.5 -23zM41 0v346h144v-346h-144z" />
    <glyph glyph-name="zero.numr" horiz-adv-x="359" 
d="M179 609q75 0 117.5 -50t42.5 -122q0 -71 -43 -121t-117 -50q-73 0 -116 50t-43 121q0 72 43 122t116 50zM179 520q-24 0 -36.5 -23t-12.5 -60q0 -36 12.5 -58.5t36.5 -22.5q25 0 37.5 22.5t12.5 58.5q0 38 -12.5 60.5t-37.5 22.5z" />
    <glyph glyph-name="one.numr" horiz-adv-x="216" 
d="M14 518v82h159v-326h-94v244h-65z" />
    <glyph glyph-name="two.numr" horiz-adv-x="304" 
d="M23 274v21l120 144q22 28 22 45q0 15 -10 24.5t-27 9.5q-28 0 -68 -32l-49 74q6 5 16 13.5t43 22t68 13.5q66 0 98 -31t32 -79q0 -41 -37 -88l-46 -56h99v-81h-261z" />
    <glyph glyph-name="three.numr" horiz-adv-x="309" 
d="M29 518v82h245v-21l-56 -103q70 -17 70 -95q0 -49 -37 -82t-107 -33q-34 0 -65 10.5t-45 19.5t-21 16l48 71q36 -29 80 -29q48 0 48 30q0 29 -44 29h-48v23l44 82h-112z" />
    <glyph glyph-name="four.numr" horiz-adv-x="338" 
d="M13 341v60l188 199h71v-183h50v-76h-50v-67h-90v67h-169zM123 416v-2l27 3h32v43l1 21h-2l-40 -48z" />
    <glyph glyph-name="five.numr" horiz-adv-x="312" 
d="M45 600h227v-82h-149l-2 -41q26 2 41 2q134 0 134 -98q0 -49 -37 -82t-107 -33q-34 0 -65 10.5t-45 19.5t-21 16l46 68q26 -29 77 -29q53 0 53 30q0 31 -70 31q-12 0 -29.5 -2.5t-28.5 -5.5l-11 -2l-21 11z" />
    <glyph glyph-name="six.numr" horiz-adv-x="315" 
d="M118 600h104l-35 -63l-17 -25v-7q59 -2 96 -33t37 -83q0 -57 -39.5 -90t-102.5 -33t-102 33t-39 90q0 30 9 53.5t31 60.5zM161 427q-42 0 -42 -40q0 -19 11 -29.5t31 -10.5t31.5 10.5t11.5 29.5q0 40 -43 40z" />
    <glyph glyph-name="seven.numr" horiz-adv-x="279" 
d="M274 600v-21l-117 -305h-107l100 244h-135v82h259z" />
    <glyph glyph-name="eight.numr" horiz-adv-x="322" 
d="M20 371q0 50 45 76q-33 24 -33 67q0 41 35.5 68t93.5 27t93.5 -27t35.5 -68q0 -42 -33 -67q45 -27 45 -76q0 -43 -37.5 -74t-103.5 -31t-103.5 31t-37.5 74zM161 413q-18 0 -29.5 -10t-11.5 -25t11.5 -25t29.5 -10t30 10t12 25t-12 25t-30 10zM161 468q34 0 34 31t-34 31
q-16 0 -24.5 -9t-8.5 -22t8.5 -22t24.5 -9z" />
    <glyph glyph-name="nine.numr" horiz-adv-x="320" 
d="M202 274h-104l36 64l17 25v7q-60 2 -96.5 33t-36.5 83q0 57 39.5 90t102.5 33t102 -33t39 -90q0 -30 -9 -52.5t-31 -61.5zM160 448q42 0 42 40q0 19 -11 29.5t-31 10.5t-31.5 -10.5t-11.5 -29.5q0 -40 43 -40z" />
    <glyph glyph-name="caron.alt" horiz-adv-x="186" 
d="M155 555l-43 -136h-80v158h123v-22z" />
    <glyph glyph-name="acute.cap" horiz-adv-x="247" 
d="M223 764l-99 -136h-92v22l28 136h163v-22z" />
    <glyph glyph-name="hungarumlaut.cap" horiz-adv-x="415" 
d="M213 764l-79 -136h-92v22l28 136h143v-22zM391 764l-79 -136h-92v22l28 136h143v-22z" />
    <glyph glyph-name="grave.cap" horiz-adv-x="254" 
d="M126 628l-99 136v22h163l28 -136v-22h-92z" />
    <glyph glyph-name="circumflex.cap" horiz-adv-x="343" 
d="M232 628l-60 71l-61 -71h-92v22l78 136h149l78 -136v-22h-92z" />
    <glyph glyph-name="caron.cap" horiz-adv-x="341" 
d="M172 714l60 71h92v-22l-78 -136h-149l-78 136v22h92z" />
    <glyph glyph-name="breve.cap" horiz-adv-x="367" 
d="M238 791h113q0 -67 -41.5 -115t-125.5 -48t-126.5 48t-42.5 115h112q0 -67 56 -67q55 0 55 67z" />
    <glyph glyph-name="tilde.cap" horiz-adv-x="430" 
d="M286 632q-33 0 -71.5 18t-51.5 18q-21 0 -28 -25l-4 -16l-101 9l6 37q8 48 35.5 75t72.5 27q33 0 71.5 -18t51.5 -18q21 0 28 25l4 16l101 -9l-6 -37q-8 -48 -35.5 -75t-72.5 -27z" />
    <glyph glyph-name="macron.cap" horiz-adv-x="376" 
d="M52 627v85h286v-85h-286z" />
    <glyph glyph-name="dieresis.cap" horiz-adv-x="403" 
d="M43 694q0 27 20.5 47.5t46.5 20.5q27 0 47.5 -20.5t20.5 -47.5q0 -26 -20.5 -46.5t-47.5 -20.5q-26 0 -46.5 20.5t-20.5 46.5zM233 694q0 27 20.5 47.5t46.5 20.5q27 0 47.5 -20.5t20.5 -47.5q0 -26 -20.5 -46.5t-47.5 -20.5q-26 0 -46.5 20.5t-20.5 46.5z" />
    <glyph glyph-name="dotaccent.cap" horiz-adv-x="214" 
d="M25 707q0 34 23 57.5t57 23.5t57.5 -23.5t23.5 -57.5t-23.5 -57t-57.5 -23t-57 23t-23 57z" />
    <glyph glyph-name="ring.cap" horiz-adv-x="296" 
d="M146 627q-48 0 -81 31.5t-33 77.5t33 77.5t81 31.5t81 -31.5t33 -77.5t-33 -77.5t-81 -31.5zM173 736q0 12 -7.5 19.5t-19.5 7.5q-11 0 -18.5 -7.5t-7.5 -19.5q0 -11 7.5 -18.5t18.5 -7.5q12 0 19.5 7.5t7.5 18.5z" />
    <glyph glyph-name="zero.tab" 
d="M276 -13q-122 0 -182 84t-60 229t60 229t182 84t181 -83.5t59 -229.5t-59 -229.5t-181 -83.5zM276 127q49 0 69.5 39.5t20.5 133.5t-20.5 133.5t-69.5 39.5t-70.5 -40t-21.5 -133t21.5 -133t70.5 -40z" />
    <glyph glyph-name="one.tab" 
d="M69 476v124h318v-476h124v-124h-452v124h184v352h-174z" />
    <glyph glyph-name="two.tab" 
d="M46 0v24l227 279q44 55 44 93q0 33 -23.5 54t-62.5 21q-29 0 -59 -13t-43 -23t-21 -18l-76 116q3 3 9.5 8.5t27.5 19.5t45 24.5t61 19t76 8.5q117 0 176 -53.5t59 -136.5q0 -74 -64 -154l-117 -144h198v-125h-457z" />
    <glyph glyph-name="three.tab" 
d="M251 270h-71v29l95 176h-207v125h416v-24l-114 -211q136 -30 136 -179q0 -85 -64.5 -142t-188.5 -57q-63 0 -120 20t-77.5 34.5t-29.5 23.5q12 19 35.5 56.5t36.5 56.5q7 -6 20.5 -15.5t53 -25t76.5 -15.5q53 0 77 21t24 54t-24.5 53t-73.5 20z" />
    <glyph glyph-name="four.tab" 
d="M25 124v127l325 349h102v-352h55v-124h-55v-124h-145v124h-282zM183 255v-7h124v137l-99 -110z" />
    <glyph glyph-name="five.tab" 
d="M470 475h-246l-3 -93q22 3 45 3q244 0 244 -199q0 -85 -64.5 -142t-188.5 -57q-63 0 -119.5 19.5t-81.5 39.5l-26 19l72 113q7 -6 20.5 -15.5t53 -25t76.5 -15.5q101 0 101 74t-130 74q-88 0 -128 -20l-12 7l9 343h378v-125z" />
    <glyph glyph-name="six.tab" 
d="M286 -13q-111 0 -178.5 61t-67.5 162q0 88 57 188l114 202h177l-94 -163l-26 -35v-13q18 5 33 5q104 0 162.5 -50t58.5 -141q0 -99 -67 -157.5t-169 -58.5zM281 278q-37 0 -60 -24t-23 -58q0 -39 21.5 -62.5t61.5 -23.5q42 0 63 24t21 61q0 35 -21 59t-63 24z" />
    <glyph glyph-name="seven.tab" 
d="M59 475v125h457v-32l-261 -568h-170l232 475h-258z" />
    <glyph glyph-name="eight.tab" 
d="M275 -13q-112 0 -176.5 52.5t-64.5 130.5q0 95 85 147q-61 48 -61 124q0 73 59 122.5t158 49.5t158 -49.5t59 -122.5q0 -76 -62 -124q86 -53 86 -147q0 -78 -64.5 -130.5t-176.5 -52.5zM275 110q38 0 62 22t24 53q0 32 -24 53.5t-62 21.5q-37 0 -61 -22t-24 -53t24 -53
t61 -22zM344 423q0 28 -19 47t-50 19t-49.5 -19t-18.5 -47q0 -27 18.5 -45.5t49.5 -18.5t50 18.5t19 45.5z" />
    <glyph glyph-name="nine.tab" 
d="M510 390q0 -88 -57 -188l-114 -202h-177l94 163l26 35v12q-15 -4 -33 -4q-104 0 -162.5 50t-58.5 141q0 99 67 157.5t169 58.5q111 0 178.5 -61t67.5 -162zM269 322q37 0 60 24t23 58q0 39 -21.5 62.5t-61.5 23.5q-42 0 -63 -24t-21 -61q0 -35 21 -59t63 -24z" />
    <glyph glyph-name="onesuperior_alt" horiz-adv-x="254" 
d="M26 586v82h159v-244h55v-82h-214v82h65v162h-65z" />
    <glyph glyph-name="one.numr_alt" horiz-adv-x="254" 
d="M26 518v82h159v-244h55v-82h-214v82h65v162h-65z" />
    <glyph glyph-name="oneinferior_alt" horiz-adv-x="253" 
d="M25 119v82h159v-244h55v-82h-214v82h65v162h-65z" />
    <glyph glyph-name="zero.dnom" horiz-adv-x="359" 
d="M179 335q75 0 117.5 -50t42.5 -122q0 -71 -43 -121t-117 -50q-73 0 -116 50t-43 121q0 72 43 122t116 50zM179 246q-24 0 -36.5 -23t-12.5 -60q0 -36 12.5 -58.5t36.5 -22.5q25 0 37.5 22.5t12.5 58.5q0 38 -12.5 60.5t-37.5 22.5z" />
    <glyph glyph-name="one.dnom" horiz-adv-x="216" 
d="M14 244v82h159v-326h-94v244h-65z" />
    <glyph glyph-name="one.dnom_alt" horiz-adv-x="254" 
d="M26 244v82h159v-244h55v-82h-214v82h65v162h-65z" />
    <glyph glyph-name="two.dnom" horiz-adv-x="304" 
d="M23 0v21l120 144q22 28 22 45q0 15 -10 24.5t-27 9.5q-28 0 -68 -32l-49 74q6 5 16 13.5t43 22t68 13.5q66 0 98 -31t32 -79q0 -41 -37 -88l-46 -56h99v-81h-261z" />
    <glyph glyph-name="three.dnom" horiz-adv-x="308" 
d="M29 244v82h245v-21l-56 -103q70 -17 70 -95q0 -49 -37 -82t-107 -33q-34 0 -65 10.5t-45 19.5t-21 16l48 71q36 -29 80 -29q48 0 48 30q0 29 -44 29h-48v23l44 82h-112z" />
    <glyph glyph-name="four.dnom" horiz-adv-x="337" 
d="M12 67v60l188 199h71v-183h50v-76h-50v-67h-90v67h-169zM122 142v-1l27 2h32v43l1 21h-2l-40 -48z" />
    <glyph glyph-name="five.dnom" horiz-adv-x="312" 
d="M45 326h227v-82h-149l-2 -41q26 2 41 2q134 0 134 -98q0 -49 -37 -82t-107 -33q-34 0 -65 10.5t-45 19.5t-21 16l46 68q26 -29 77 -29q53 0 53 30q0 31 -70 31q-18 0 -35 -2.5t-26 -5.5l-8 -2l-21 11z" />
    <glyph glyph-name="six.dnom" horiz-adv-x="315" 
d="M118 326h104l-35 -63l-17 -25v-7q59 -2 96 -33t37 -83q0 -57 -39.5 -90t-102.5 -33t-102 33t-39 90q0 30 9 53.5t31 60.5zM161 153q-42 0 -42 -40q0 -19 11 -29.5t31 -10.5t31.5 10.5t11.5 29.5q0 40 -43 40z" />
    <glyph glyph-name="seven.dnom" horiz-adv-x="279" 
d="M274 326v-21l-117 -305h-107l100 244h-135v82h259z" />
    <glyph glyph-name="eight.dnom" horiz-adv-x="322" 
d="M20 97q0 50 45 76q-33 24 -33 67q0 41 35.5 68t93.5 27t93.5 -27t35.5 -68q0 -42 -33 -67q45 -27 45 -76q0 -43 -37.5 -74t-103.5 -31t-103.5 31t-37.5 74zM161 139q-18 0 -29.5 -10t-11.5 -25t11.5 -25t29.5 -10t30 10t12 25t-12 25t-30 10zM161 194q34 0 34 31t-34 31
q-16 0 -24.5 -9t-8.5 -22t8.5 -22t24.5 -9z" />
    <glyph glyph-name="nine.dnom" horiz-adv-x="317" 
d="M199 0h-104l36 64l17 25v7q-60 2 -96.5 33t-36.5 83q0 57 39.5 90t102.5 33t102 -33t39 -90q0 -30 -9 -52.5t-31 -61.5zM157 174q42 0 42 40q0 19 -11 29.5t-31 10.5t-31.5 -10.5t-11.5 -29.5q0 -40 43 -40z" />
    <glyph glyph-name="zero.osf" horiz-adv-x="410" 
d="M205 354q83 0 132 -50.5t49 -130.5q0 -81 -49 -131t-132 -50t-132 50t-49 131q0 80 49 130.5t132 50.5zM205 242q-25 0 -39 -19t-14 -50t14 -49.5t39 -18.5q26 0 39.5 18.5t13.5 49.5q0 32 -13.5 50.5t-39.5 18.5z" />
    <glyph glyph-name="one.osf" horiz-adv-x="289" 
d="M17 233v113h219v-346h-144v233h-75z" />
    <glyph glyph-name="two.osf" horiz-adv-x="392" 
d="M31 0v42l131 126q21 21 21 39q0 30 -41 30q-18 0 -39 -8.5t-33 -16.5l-11 -8l-41 101q6 5 18 13.5t55.5 22t94.5 13.5q78 0 119 -34t41 -82q0 -31 -10 -51.5t-39 -42.5l-44 -34l35 5h77v-115h-334z" />
    <glyph glyph-name="three.osf" horiz-adv-x="397" 
d="M27 233v113h330v-42l-108 -170q131 -20 131 -152q0 -85 -55 -134t-152 -49q-52 0 -92.5 13t-54.5 26l-15 13l47 98q47 -34 95 -34q41 0 60.5 18t19.5 46q0 30 -22 48t-59 18h-74v42l87 146h-138z" />
    <glyph glyph-name="four.osf" horiz-adv-x="451" 
d="M11 0v98l222 248h131v-231h68v-115h-68v-192h-145v192h-208zM144 114v-5l68 6h7v75h-4l-32 -41q-10 -13 -19.5 -21.5t-14.5 -11.5z" />
    <glyph glyph-name="five.osf" horiz-adv-x="389" 
d="M59 346h277v-113h-164l-2 -84h12q96 0 144.5 -44t48.5 -123q0 -80 -52.5 -131.5t-154.5 -51.5q-47 0 -85.5 11t-54.5 22l-15 12l48 100q39 -26 87 -26q40 0 60 17t20 44q0 66 -89 66q-18 0 -37 -3.5t-28 -7.5l-10 -3l-17 14z" />
    <glyph glyph-name="six.osf" horiz-adv-x="449" 
d="M215 561h146l-90 -161q-5 -10 -11.5 -19t-10.5 -13l-4 -4v-11q85 -4 138.5 -54.5t53.5 -127.5q0 -83 -56.5 -131.5t-147.5 -48.5q-92 0 -148 48.5t-56 131.5q0 44 12 78t43 88zM233 235q-29 0 -44 -17t-15 -45q0 -29 15.5 -46.5t43.5 -17.5q27 0 43 18t16 46t-16 45
t-43 17z" />
    <glyph glyph-name="seven.osf" horiz-adv-x="369" 
d="M373 346v-32l-198 -487h-151l179 406h-186v113h356z" />
    <glyph glyph-name="eight.osf" horiz-adv-x="438" 
d="M43 417q0 71 49.5 117.5t126.5 46.5t126.5 -46.5t49.5 -117.5q0 -74 -55 -116q71 -48 71 -129q0 -83 -53.5 -131.5t-138.5 -48.5t-138.5 48.5t-53.5 131.5q0 81 70 129q-54 43 -54 116zM219 236q-26 0 -41 -18t-15 -46t15 -45t41 -17t41 17t15 45t-15 46t-41 18zM219 358
q24 0 38 15.5t14 39.5q0 23 -14 37.5t-38 14.5t-38 -14.5t-14 -37.5q0 -24 14 -39.5t38 -15.5z" />
    <glyph glyph-name="nine.osf" horiz-adv-x="433" 
d="M255 -173h-146l66 119q5 10 11.5 19t10.5 13l4 4v11q-85 4 -138.5 54t-53.5 128q0 83 56.5 131.5t147.5 48.5q92 0 148 -48.5t56 -131.5q0 -45 -12 -80t-43 -86zM213 111q28 0 43.5 16t15.5 46q0 29 -15.5 46.5t-43.5 17.5q-27 0 -43 -18t-16 -46t16 -45t43 -17z" />
    <glyph glyph-name="three.osf_alt" horiz-adv-x="382" 
d="M77 133h38q32 0 51.5 13.5t19.5 39.5q0 47 -52 47q-18 0 -39.5 -7.5t-33.5 -14.5l-12 -7l-41 101q6 5 18.5 13.5t53.5 22t85 13.5q85 0 128 -39t43 -105q0 -70 -62 -116q92 -32 92 -130q0 -70 -56 -117.5t-151 -47.5q-50 0 -90.5 13t-56.5 26l-15 13l47 98q45 -34 95 -34
q34 0 52 15t18 40q0 30 -21 47t-58 17h-53v99z" />
    <glyph glyph-name="ampersand.small" horiz-adv-x="643" 
d="M624 233h-98v-9q0 -38 -14.5 -77t-44.5 -75.5t-85.5 -59.5t-126.5 -23q-106 0 -168 54t-62 135q0 77 51 126.5t131 49.5q73 0 114.5 -39.5t41.5 -99.5l-1 -22l-198 -55q26 -37 93 -37q74 0 110 37.5t36 94.5v113h221v-113zM202 256q-23 0 -37.5 -15t-16.5 -40l98 27
q-6 28 -44 28z" />
    <glyph glyph-name="dagger.small" horiz-adv-x="453" 
d="M17 117v116h152v145h118v-145h149v-116h-149l-10 -367h-98l-10 367h-152z" />
    <glyph glyph-name="daggerdbl.small" horiz-adv-x="479" 
d="M30 158v116h152v104h118v-104h149v-116h-149v-82h149v-116h-149l-10 -210h-98l-10 210h-152v116h152v82h-152z" />
    <glyph glyph-name="ampersand.alt" horiz-adv-x="641" 
d="M633 0h-170l-26 32q-68 -45 -159 -45q-115 0 -178.5 54.5t-63.5 134.5q0 65 36 114t105 71l-86 109v130h401v-125h-221l163 -210q5 30 5 56v49h138v-49q-2 -104 -44 -183l100 -128v-10zM288 110q40 0 71 20l-101 128q-30 -5 -48 -25.5t-18 -47.5q0 -32 24 -53.5t72 -21.5
z" />
    <glyph glyph-name="asterisk.small" horiz-adv-x="348" 
d="M67 357l60 54l-79 10l-27 8l27 85l25 -9l72 -39l-14 77v29h88v-29l-15 -77l71 39l25 8l27 -85l-27 -8l-78 -10l60 -53l17 -24l-73 -51l-15 22l-37 74l-36 -74l-15 -22l-72 51z" />
    <glyph glyph-name="copyright.small" horiz-adv-x="451" 
d="M225 372q93 0 149 -57.5t56 -142.5q0 -84 -56 -141.5t-149 -57.5q-92 0 -148 57.5t-56 141.5q0 85 56 142.5t148 57.5zM225 348q-82 0 -131 -51t-49 -125t49 -124.5t131 -50.5t131.5 50.5t49.5 124.5q0 75 -49.5 125.5t-131.5 50.5zM276 130l36 -48q-26 -29 -81 -29
t-88.5 34.5t-33.5 84.5t33.5 84t88.5 34q25 0 45 -7t28 -13l8 -7l-36 -50q-15 12 -40 12q-23 0 -38 -15t-15 -38t15 -37.5t38 -14.5q11 0 21 2.5t15 5.5z" />
    <glyph glyph-name="published.small" horiz-adv-x="451" 
d="M225 372q93 0 149 -57.5t56 -142.5q0 -84 -56 -141.5t-149 -57.5q-92 0 -148 57.5t-56 141.5q0 85 56 142.5t148 57.5zM225 348q-82 0 -131 -51t-49 -125t49 -124.5t131 -50.5t131.5 50.5t49.5 124.5q0 75 -49.5 125.5t-131.5 50.5zM250 287q44 0 69.5 -26t25.5 -64
q0 -36 -26 -59t-72 -23h-43v-59h-74v231h120zM267 197q0 27 -33 27h-30v-55h31q32 0 32 28z" />
    <glyph glyph-name="registered.small" horiz-adv-x="451" 
d="M225 372q93 0 149 -57.5t56 -142.5q0 -84 -56 -141.5t-149 -57.5q-92 0 -148 57.5t-56 141.5q0 85 56 142.5t148 57.5zM225 348q-82 0 -131 -51t-49 -125t49 -124.5t131 -50.5t131.5 50.5t49.5 124.5q0 75 -49.5 125.5t-131.5 50.5zM123 287h120q44 0 69.5 -26t25.5 -64
q0 -47 -42 -70v-4l37 -55v-12h-76l-35 59h-25v-59h-74v231zM228 224h-31v-55h32q31 0 31 28q0 27 -32 27z" />
    <glyph glyph-name="registered.osf.alt" horiz-adv-x="420" 
d="M33 194q0 86 49.5 132t126.5 46q76 0 127 -49t51 -129q0 -79 -51 -128t-127 -49q-75 0 -125.5 49t-50.5 128zM57 194q0 -69 43.5 -111t108.5 -42q66 0 110 42.5t44 110.5q0 69 -44 111.5t-110 42.5t-109 -40t-43 -114zM127 283h89q35 0 56.5 -18.5t21.5 -48.5
q0 -35 -26 -53v-3l29 -44v-12h-56l-27 43h-33v-43h-54v179zM214 234h-33v-40h33q24 0 24 20t-24 20z" />
    <glyph glyph-name="trademark.small" horiz-adv-x="708" 
d="M423 173h-90v269h40l115 -108l115 108h40v-269h-90v108l-58 -57h-14l-58 57v-108zM289 442v-79h-87v-190h-90v190h-87v79h264z" />
    <glyph glyph-name="servicemark.small" horiz-adv-x="687" 
d="M416 173h-90v269h40l115 -108l115 108h40v-269h-90v108l-58 -57h-14l-58 57v-108zM42 206l37 53q41 -28 81 -28q30 0 30 15q0 8 -9 13.5t-38 14.5q-53 16 -73 35.5t-20 53.5q0 37 30 60.5t87 23.5q31 0 59 -7.5t40 -15.5l13 -8l-36 -59q-34 22 -72 22q-29 0 -29 -15
q0 -13 47 -26q52 -15 73 -32t21 -50q0 -39 -29 -64t-87 -25q-37 0 -68 9.5t-44 19.5z" />
    <glyph glyph-name="ordfeminine.small" horiz-adv-x="329" 
d="M25 247q0 38 29.5 59.5t76.5 21.5q43 0 68 -18v17q0 43 -65 43q-30 0 -65 -16l-27 73q58 21 112 21q69 0 103.5 -33t34.5 -93v-149h-71l-12 29h-3q-19 -35 -83 -35q-41 0 -69.5 22.5t-28.5 57.5zM116 253q0 -27 38 -27q17 0 30.5 7t14.5 17v3q0 11 -13 19t-32 8
q-38 0 -38 -27z" />
    <glyph glyph-name="ordmasculine.small" horiz-adv-x="337" 
d="M26 305q0 65 40 104t103 39q62 0 102 -39t40 -104q0 -62 -40 -100t-102 -38t-102.5 38t-40.5 100zM219 306q0 28 -13 45t-37 17t-37.5 -17t-13.5 -45q0 -26 13.5 -42.5t37.5 -16.5t37 16.5t13 42.5z" />
    <glyph glyph-name="asciicircum.small" horiz-adv-x="448" 
d="M271 377l-47 76l-47 -76h-107v22l117 155h74l117 -155v-22h-107z" />
    <glyph glyph-name="asciitilde.small" horiz-adv-x="480" 
d="M312 485q20 0 39 6t28 12l9 6l42 -89q-4 -5 -13 -12t-39 -19t-63 -12q-28 0 -72.5 12t-74.5 12q-20 0 -39 -6t-28 -12l-9 -6l-42 89q4 5 13 12t39 19t63 12q28 0 72.5 -12t74.5 -12z" />
    <glyph glyph-name="numbersign.small" horiz-adv-x="493" 
d="M408 346l-15 -66h82l-19 -82h-81l-11 -50h82l-19 -82h-82l-14 -66h-88l14 66h-72l-15 -66h-88l15 66h-78l18 82h78l11 50h-78l18 82h79l15 66h88l-15 -66h72l15 66h88zM214 198l-11 -50h73l11 50h-73z" />
    <glyph glyph-name="percent.small" horiz-adv-x="536" 
d="M171 0h-85v12l274 330h88v-12zM519 93q0 -42 -28 -71.5t-77 -29.5t-77 29.5t-28 71.5q0 41 28 70.5t77 29.5t77 -29t28 -71zM381 93q0 -42 33 -42q32 0 32 42q0 41 -32 41q-33 0 -33 -41zM226 253q0 -42 -28 -71t-77 -29t-77 29.5t-28 70.5q0 42 28 71.5t77 29.5
t77 -29.5t28 -71.5zM89 253q0 -41 32 -41q33 0 33 41q0 42 -33 42q-32 0 -32 -42z" />
    <glyph glyph-name="perthousand.small" horiz-adv-x="770" 
d="M171 0h-85v12l274 330h88v-12zM519 93q0 -42 -28 -71.5t-77 -29.5t-77 29.5t-28 71.5q0 41 28 70.5t77 29.5t77 -29t28 -71zM381 93q0 -42 33 -42q32 0 32 42q0 41 -32 41q-33 0 -33 -41zM226 253q0 -42 -28 -71t-77 -29t-77 29.5t-28 70.5q0 42 28 71.5t77 29.5
t77 -29.5t28 -71.5zM89 253q0 -41 32 -41q33 0 33 41q0 42 -33 42q-32 0 -32 -42zM752 93q0 -42 -28 -71.5t-77 -29.5t-77 29.5t-28 71.5q0 41 28 70.5t77 29.5t77 -29t28 -71zM614 93q0 -42 33 -42q32 0 32 42q0 41 -32 41q-33 0 -33 -41z" />
    <glyph glyph-name="plus.small" horiz-adv-x="366" 
d="M243 326v-99h99v-116h-99v-91h-118v91h-101v116h101v99h118z" />
    <glyph glyph-name="minus.small" horiz-adv-x="395" 
d="M38 111v116h319v-116h-319z" />
    <glyph glyph-name="plusminus.small" horiz-adv-x="327" 
d="M212 346v-63h81v-96h-81v-67h-98v67h-80v96h80v63h98zM34 0v96h259v-96h-259z" />
    <glyph glyph-name="multiply.small" horiz-adv-x="358" 
d="M107 327l72 -73l72 73l81 -81l-73 -73l73 -72l-81 -81l-72 72l-72 -72l-81 81l72 72l-72 73z" />
    <glyph glyph-name="divide.small" horiz-adv-x="379" 
d="M125 51q0 26 18.5 45t45.5 19q26 0 45 -19t19 -45q0 -27 -19 -45.5t-45 -18.5q-27 0 -45.5 18.5t-18.5 45.5zM125 288q0 26 18.5 45t45.5 19q26 0 45 -19t19 -45q0 -27 -19 -45.5t-45 -18.5q-27 0 -45.5 18.5t-18.5 45.5zM20 132v76h339v-76h-339z" />
    <glyph glyph-name="equal.small" horiz-adv-x="466" 
d="M38 210v106h390v-106h-390zM38 30v106h390v-106h-390z" />
    <glyph glyph-name="less.small" horiz-adv-x="293" 
d="M184 0l-167 161v24l167 162l83 -86l-95 -89l95 -86z" />
    <glyph glyph-name="greater.small" horiz-adv-x="293" 
d="M276 161l-167 -161l-83 86l95 86l-95 89l83 86l167 -162v-24z" />
    <glyph glyph-name="quotedbl.small" horiz-adv-x="384" 
d="M175 453l-46 -187h-92v22l22 187h116v-22zM355 453l-46 -187h-92v22l22 187h116v-22z" />
    <glyph glyph-name="quotesingle.small" horiz-adv-x="204" 
d="M175 453l-46 -187h-92v22l22 187h116v-22z" />
    <glyph glyph-name="degree.small" horiz-adv-x="284" 
d="M142 482q52 0 85 -31t33 -77t-33 -77t-85 -31t-85 31t-33 77t33 77t85 31zM142 413q-18 0 -28.5 -10.5t-10.5 -28.5q0 -16 10.5 -26.5t28.5 -10.5t29 10.5t11 26.5q0 18 -11 28.5t-29 10.5z" />
    <glyph glyph-name="paragraph.small" horiz-adv-x="468" 
d="M270 -250v197h-11q-108 0 -175 53t-67 150q0 92 62.5 144t170.5 52h165v-596h-145z" />
    <glyph glyph-name="section.small" horiz-adv-x="384" 
d="M186 358q50 0 91.5 -7.5t58.5 -14.5l16 -8l-37 -99q-40 29 -107 29q-26 0 -26 -17q0 -5 3.5 -8.5t12 -7t14.5 -5t21 -5t22 -5.5q30 -8 50 -17t37 -30.5t17 -52.5q0 -52 -42 -82q42 -27 42 -71q0 -52 -39.5 -83.5t-121.5 -31.5q-50 0 -91.5 7.5t-58.5 14.5l-16 8l37 99
q40 -29 107 -29q26 0 26 17q0 4 -2 7t-6 5.5t-8.5 4l-12 4t-13.5 4t-16 3.5t-16 4q-30 8 -49.5 17t-36.5 30.5t-17 51.5q0 51 42 81q-42 29 -42 72q0 52 39.5 83.5t121.5 31.5zM183 80q19 -7 63 -21q5 5 5 16q0 26 -50 45q-8 3 -18.5 6.5t-23.5 7.5t-21 6q-5 -5 -5 -15
q0 -26 50 -45z" />
    <glyph glyph-name="dollar.small" horiz-adv-x="383" 
d="M195 110q0 10 -17.5 16.5t-42.5 12t-49.5 14.5t-42 31t-17.5 55q0 93 109 111v100h109v-99q32 -4 59.5 -10.5t38.5 -11.5l11 -5l-37 -99q-43 29 -110 29q-23 0 -23 -17q0 -12 27.5 -20.5t61 -15t61 -31t27.5 -64.5q0 -42 -29.5 -71t-86.5 -39v-94h-109v93
q-33 3 -60.5 10.5t-38.5 13.5l-11 6l33 98q58 -33 109 -33q28 0 28 20z" />
    <glyph glyph-name="sterling.small" horiz-adv-x="399" 
d="M366 115v-115h-334v100h6q16 0 26 12t10 30h-41v62h33q-3 19 -3 31q0 51 38 85t123 34q48 0 86 -11t52 -21l15 -11l-49 -90q-36 27 -77 27q-40 0 -40 -33l1 -11h78v-62h-75q-3 -21 -11 -34z" />
    <glyph glyph-name="Euro.small" horiz-adv-x="388" 
d="M240 -8q-73 0 -120 34.5t-63 90.5h-37v42h30q-1 6 -1 14l1 14h-30v42h37q16 57 62.5 91t120.5 34q35 0 67 -7t47 -14l15 -7l-40 -88q-29 16 -66 16q-40 0 -56 -25h70v-42h-82q-1 -5 -1 -14l1 -14h82v-42h-71q16 -27 57 -27q16 0 32.5 4t24.5 8l9 4l37 -85
q-48 -29 -126 -29z" />
    <glyph glyph-name="yen.small" horiz-adv-x="463" 
d="M250 287l38 59h160l-115 -153h67v-42h-97v-28h97v-42h-97v-81h-144v81h-96v42h96v28h-96v42h66l-114 153h160l37 -59l16 -47h6z" />
    <glyph glyph-name="florin.small" horiz-adv-x="369" 
d="M254 215v-8h67v-71h-67v-33q0 -63 -34 -101.5t-102 -38.5q-27 0 -53 6t-39 12l-13 6l36 87q24 -6 38 -6q23 0 23 32v36h-52v71h53v5q0 63 34 101.5t102 38.5q27 0 53 -6t39 -12l13 -6l-36 -87q-24 6 -38 6q-24 0 -24 -32z" />
    <glyph glyph-name="cent.small" horiz-adv-x="363" 
d="M151 -98v101q-61 19 -95.5 65t-34.5 105q0 60 34.5 105.5t95.5 64.5v107h109v-98q24 -3 44 -9.5t28 -11.5l8 -5l-40 -106q-24 16 -61 16q-34 0 -53.5 -17t-19.5 -46q0 -28 19.5 -45.5t53.5 -17.5q16 0 31.5 4t22.5 8l7 4l37 -105q-25 -20 -77 -27v-92h-109z" />
    <glyph glyph-name="at.small" horiz-adv-x="748" 
d="M171 172q0 86 46 134t119 48q69 0 102 -40l17 32h86v-283q0 -50 50 -50q46 0 75 48.5t29 142.5q0 62 -17 114.5t-53.5 96.5t-100 69t-148.5 25q-84 0 -149 -27.5t-103 -74.5t-57.5 -105t-19.5 -124t19.5 -124t57.5 -105t103 -74t149 -27q51 0 90 8t52 16l14 8l14 -20
q-5 -4 -16.5 -10t-55.5 -16t-98 -10q-90 0 -159.5 29t-110.5 79.5t-62 112.5t-21 133t21 133t62 112.5t110.5 80t159.5 29.5q92 0 160.5 -27t107 -74.5t57 -104.5t18.5 -123q0 -217 -141 -217q-28 0 -50.5 6.5t-34.5 15.5t-20.5 18t-10.5 15l-3 7h-10q-27 -57 -113 -57
q-72 0 -118.5 49t-46.5 131zM301 174q0 -30 17 -49.5t45 -19.5q30 0 45.5 19t15.5 50q0 67 -61 67q-28 0 -45 -18.5t-17 -48.5z" />
    <glyph glyph-name="hyphen.small" horiz-adv-x="370" 
d="M38 115v116h294v-116h-294z" />
    <glyph glyph-name="endash.small" horiz-adv-x="460" 
d="M38 116v116h384v-116h-384z" />
    <glyph glyph-name="emdash.small" horiz-adv-x="701" 
d="M38 115v116h625v-116h-625z" />
    <glyph glyph-name="slash.small" horiz-adv-x="388" 
d="M112 -110l-98 62l257 494l101 -61z" />
    <glyph glyph-name="colon.case" horiz-adv-x="271" 
d="M55 72q0 34 23 57.5t57 23.5t57.5 -23.5t23.5 -57.5t-23.5 -57t-57.5 -23t-57 23t-23 57zM55 482q0 34 23 57.5t57 23.5t57.5 -23.5t23.5 -57.5t-23.5 -57t-57.5 -23t-57 23t-23 57z" />
    <glyph glyph-name="semicolon.case" horiz-adv-x="271" 
d="M55 72q0 34 23 57.5t57 23.5t57.5 -23.5t23.5 -57.5q0 -56 -34 -113l-33 -56h-89l32 56q5 8 10.5 15t8.5 10l3 3v8q-26 6 -42.5 27.5t-16.5 49.5zM55 482q0 34 23 57.5t57 23.5t57.5 -23.5t23.5 -57.5t-23.5 -57t-57.5 -23t-57 23t-23 57z" />
    <glyph glyph-name="slash.case" horiz-adv-x="401" 
d="M381 745l-221 -879h-141l221 879h141z" />
    <glyph glyph-name="bar.case" horiz-adv-x="277" 
d="M204 715v-825h-131v825h131z" />
    <glyph glyph-name="parenleft.case" horiz-adv-x="391" 
d="M374 621q-197 -114 -197 -321q0 -208 197 -322l-73 -100q-38 17 -80.5 49.5t-88.5 84t-75.5 127.5t-29.5 161q0 69 20.5 132.5t50.5 109t69 84t71.5 60.5t62.5 35z" />
    <glyph glyph-name="parenright.case" horiz-adv-x="391" 
d="M17 621l73 100q30 -13 62.5 -35t71.5 -60.5t69 -84t50.5 -109t20.5 -132.5q0 -85 -29.5 -161t-75.5 -127.5t-88.5 -84t-80.5 -49.5l-73 100q197 114 197 322q0 207 -197 321z" />
    <glyph glyph-name="at.case" horiz-adv-x="901" 
d="M454 -202q-87 0 -158.5 23.5t-120 63t-82 94t-48.5 116t-15 128.5t15 128.5t48.5 116.5t82 94.5t120 63t158.5 23.5q88 0 159.5 -22.5t117.5 -59t77 -84t44 -95t13 -94.5q0 -128 -53.5 -196.5t-144.5 -68.5q-29 0 -53.5 6.5t-38 15.5t-23 18t-12.5 15l-3 7h-10
q-30 -56 -113 -56q-72 0 -118.5 49t-46.5 131q0 86 46 134t119 48q71 0 103 -41l16 32h86v-182q0 -61 57 -61q74 0 74 129q0 121 -74 193t-222 72q-144 0 -226.5 -86t-82.5 -229t82.5 -229.5t226.5 -86.5q45 0 84.5 7.5t55.5 14.5l17 8l46 -97q-6 -5 -19.5 -12t-66 -19
t-117.5 -12zM502 217q0 67 -61 67q-28 0 -45 -18.5t-17 -48.5t17 -49.5t45 -19.5q30 0 45.5 19t15.5 50z" />
    <glyph glyph-name="bracketleft.case" horiz-adv-x="378" 
d="M74 -116v832h273v-116h-137v-600h137v-116h-273z" />
    <glyph glyph-name="backslash.case" horiz-adv-x="401" 
d="M241 -134l-221 879h141l221 -879h-141z" />
    <glyph glyph-name="bracketright.case" horiz-adv-x="378" 
d="M31 -116v116h137v600h-137v116h273v-832h-273z" />
    <glyph glyph-name="braceleft.case" horiz-adv-x="347" 
d="M20 353h24q29 0 41.5 15.5t12.5 51.5v162q0 75 48.5 117.5t144.5 46.5l20 -119q-35 -6 -47.5 -15t-12.5 -37v-177q0 -75 -65 -94v-9q31 -8 48 -33t17 -60v-177q0 -28 12.5 -37t47.5 -15l-20 -119q-96 4 -144.5 46.5t-48.5 117.5v162q0 36 -12.5 51.5t-41.5 15.5h-24v106z
" />
    <glyph glyph-name="braceright.case" horiz-adv-x="347" 
d="M327 247h-24q-29 0 -41.5 -15.5t-12.5 -51.5v-162q0 -75 -48.5 -117.5t-144.5 -46.5l-20 119q35 6 47.5 15t12.5 37v177q0 35 17 60t48 33v9q-65 19 -65 94v177q0 28 -12.5 37t-47.5 15l20 119q96 -4 144.5 -46.5t48.5 -117.5v-162q0 -36 12.5 -51.5t41.5 -15.5h24v-106z
" />
    <glyph glyph-name="guilsinglleft.case" horiz-adv-x="326" 
d="M48 288v21l106 154h119v-9l-101 -150v-9l101 -152v-9h-119z" />
    <glyph glyph-name="guilsinglright.case" horiz-adv-x="326" 
d="M278 309v-21l-106 -154h-119v9l101 152v9l-101 150v9h119z" />
    <glyph glyph-name="guillemotleft.case" horiz-adv-x="536" 
d="M48 288v21l106 154h119v-9l-101 -150v-9l101 -152v-9h-119zM258 288v21l106 154h119v-9l-101 -150v-9l101 -152v-9h-119z" />
    <glyph glyph-name="guillemotright.case" horiz-adv-x="536" 
d="M278 309v-21l-106 -154h-119v9l101 152v9l-101 150v9h119zM488 309v-21l-106 -154h-119v9l101 152v9l-101 150v9h119z" />
    <glyph glyph-name="bullet.case" horiz-adv-x="329" 
d="M61 300q0 43 30 73.5t73 30.5t73.5 -30.5t30.5 -73.5t-30.5 -73t-73.5 -30t-73 30t-30 73z" />
    <glyph glyph-name="section.case" 
d="M29 -79l79 111q9 -6 24.5 -16t57.5 -26t78 -16q75 0 75 50q0 17 -16 31.5t-31 21t-50 19.5q-33 11 -53 19t-50 24t-46.5 34t-29.5 46t-13 62q0 62 36 98q-36 36 -36 90q0 85 57 135.5t169 50.5q69 0 124 -16t75 -32l20 -16l-78 -118q-7 6 -19 14t-49 22t-73 14
q-59 0 -59 -44q0 -39 74 -62q33 -11 41.5 -14t40 -15.5t43 -20t34.5 -23.5t32.5 -31t18 -37.5t8.5 -47.5q0 -74 -38 -116q38 -40 38 -87q0 -80 -61.5 -132t-179.5 -52q-45 0 -87 8t-69 20t-47.5 24t-30.5 20zM246 304q-35 10 -44 13q-6 -9 -6 -26q0 -49 99 -82q27 -8 65 -23
q8 16 8 31q0 22 -19 39t-39.5 25.5t-63.5 22.5z" />
    <glyph glyph-name="brokenbar.case" horiz-adv-x="277" 
d="M204 -110h-131v825h131v-825z" />
    </font>
</defs>
</svg>
